%TF.GenerationSoftware,KiCad,Pcbnew,8.0.5*%
%TF.CreationDate,2024-10-10T08:08:49+02:00*%
%TF.ProjectId,USB-Extender_v1,5553422d-4578-4746-956e-6465725f7631,rev?*%
%TF.SameCoordinates,Original*%
%TF.FileFunction,Copper,L2,Bot*%
%TF.FilePolarity,Positive*%
%FSLAX46Y46*%
G04 Gerber Fmt 4.6, Leading zero omitted, Abs format (unit mm)*
G04 Created by KiCad (PCBNEW 8.0.5) date 2024-10-10 08:08:49*
%MOMM*%
%LPD*%
G01*
G04 APERTURE LIST*
%TA.AperFunction,ComponentPad*%
%ADD10R,1.700000X1.700000*%
%TD*%
%TA.AperFunction,ComponentPad*%
%ADD11O,1.700000X1.700000*%
%TD*%
%TA.AperFunction,ComponentPad*%
%ADD12C,3.500000*%
%TD*%
%TA.AperFunction,ComponentPad*%
%ADD13R,1.500000X1.500000*%
%TD*%
%TA.AperFunction,ComponentPad*%
%ADD14C,1.500000*%
%TD*%
%TA.AperFunction,ComponentPad*%
%ADD15C,2.300000*%
%TD*%
%TA.AperFunction,ViaPad*%
%ADD16C,0.350000*%
%TD*%
%TA.AperFunction,Conductor*%
%ADD17C,0.200000*%
%TD*%
%TA.AperFunction,Conductor*%
%ADD18C,0.500000*%
%TD*%
G04 APERTURE END LIST*
D10*
%TO.P,J5,1,Pin_1*%
%TO.N,+5V*%
X125857000Y-62052200D03*
D11*
%TO.P,J5,2,Pin_2*%
%TO.N,GND*%
X128397000Y-62052200D03*
%TD*%
D10*
%TO.P,J6,1,Pin_1*%
%TO.N,+5V*%
X118318200Y-65836800D03*
D11*
%TO.P,J6,2,Pin_2*%
X115778200Y-65836800D03*
%TD*%
D10*
%TO.P,J4,1,Pin_1*%
%TO.N,+5V*%
X110420000Y-85344000D03*
D11*
%TO.P,J4,2,Pin_2*%
%TO.N,Net-(J3-D-)*%
X110420000Y-82804000D03*
%TO.P,J4,3,Pin_3*%
%TO.N,Net-(J3-D+)*%
X110420000Y-80264000D03*
%TO.P,J4,4,Pin_4*%
%TO.N,GND*%
X110420000Y-77724000D03*
%TD*%
D12*
%TO.P,H2,1,1*%
%TO.N,GND*%
X143510000Y-86410800D03*
%TD*%
%TO.P,H3,1,1*%
%TO.N,GND*%
X143459200Y-60909200D03*
%TD*%
D10*
%TO.P,J2,1,Pin_1*%
%TO.N,+5V*%
X120827800Y-62103000D03*
D11*
%TO.P,J2,2,Pin_2*%
%TO.N,MODE*%
X118287800Y-62103000D03*
%TO.P,J2,3,Pin_3*%
%TO.N,GND*%
X115747800Y-62103000D03*
%TD*%
D13*
%TO.P,J1,1*%
%TO.N,Net-(U1-XD+)*%
X140387800Y-70049200D03*
D14*
%TO.P,J1,2*%
%TO.N,Net-(U1-XD-)*%
X138607800Y-71065200D03*
%TO.P,J1,3*%
%TO.N,GND*%
X140387800Y-72081200D03*
%TO.P,J1,4*%
X138607800Y-73097200D03*
%TO.P,J1,5*%
X140387800Y-74113200D03*
%TO.P,J1,6*%
X138607800Y-75129200D03*
%TO.P,J1,7*%
%TO.N,+5V*%
X140387800Y-76145200D03*
%TO.P,J1,8*%
X138607800Y-77161200D03*
%TO.P,J1,9*%
%TO.N,GND*%
X133787800Y-66749200D03*
%TO.P,J1,10*%
%TO.N,unconnected-(J1-Pad10)*%
X133787800Y-69039200D03*
%TO.P,J1,11*%
%TO.N,GND*%
X133787800Y-78179200D03*
%TO.P,J1,12*%
%TO.N,Net-(J1-Pad12)*%
X133787800Y-80469200D03*
D15*
%TO.P,J1,SH*%
%TO.N,GND*%
X139497800Y-65479200D03*
X139497800Y-81739200D03*
%TD*%
D12*
%TO.P,H1,1,1*%
%TO.N,GND*%
X106857800Y-73380600D03*
%TD*%
D16*
%TO.N,+5V*%
X119811800Y-73888600D03*
X118318200Y-69845000D03*
%TO.N,GND*%
X111861600Y-64871600D03*
X113411000Y-71856600D03*
X128752600Y-87807800D03*
%TO.N,+5V*%
X136448800Y-88150000D03*
%TO.N,MODE*%
X119227600Y-71374000D03*
%TD*%
D17*
%TO.N,+5V*%
X118287800Y-73761600D02*
X118414800Y-73888600D01*
X118287800Y-69875400D02*
X118287800Y-73761600D01*
X118318200Y-69845000D02*
X118287800Y-69875400D01*
X118414800Y-73888600D02*
X119811800Y-73888600D01*
D18*
X136448800Y-88150000D02*
X136448800Y-77622400D01*
X136448800Y-77622400D02*
X136910000Y-77161200D01*
X136910000Y-77161200D02*
X138607800Y-77161200D01*
X120853200Y-62814200D02*
X120650000Y-62611000D01*
%TO.N,MODE*%
X119227600Y-71374000D02*
X119684800Y-70916800D01*
X118872000Y-63855600D02*
X118287800Y-63271400D01*
X119684800Y-64262000D02*
X119278400Y-63855600D01*
X118287800Y-62788800D02*
X118110000Y-62611000D01*
X119278400Y-63855600D02*
X118872000Y-63855600D01*
X119684800Y-70916800D02*
X119684800Y-64262000D01*
X118287800Y-63271400D02*
X118287800Y-62661800D01*
%TD*%
%TA.AperFunction,Conductor*%
%TO.N,GND*%
G36*
X142258724Y-58934852D02*
G01*
X142273076Y-58969500D01*
X142258724Y-59004148D01*
X142251299Y-59010242D01*
X142086549Y-59120324D01*
X142053159Y-59149605D01*
X142876463Y-59972909D01*
X142742598Y-60070167D01*
X142620167Y-60192598D01*
X142522909Y-60326462D01*
X141699605Y-59503159D01*
X141670324Y-59536549D01*
X141506462Y-59781785D01*
X141376010Y-60046316D01*
X141281201Y-60325613D01*
X141223661Y-60614891D01*
X141204372Y-60909198D01*
X141204372Y-60909201D01*
X141223661Y-61203508D01*
X141281201Y-61492786D01*
X141376010Y-61772083D01*
X141506462Y-62036614D01*
X141670324Y-62281852D01*
X141699604Y-62315239D01*
X141699605Y-62315240D01*
X142522908Y-61491936D01*
X142620167Y-61625802D01*
X142742598Y-61748233D01*
X142876462Y-61845490D01*
X142053158Y-62668793D01*
X142053159Y-62668794D01*
X142086547Y-62698075D01*
X142331785Y-62861937D01*
X142596316Y-62992389D01*
X142875613Y-63087198D01*
X143164891Y-63144738D01*
X143459199Y-63164028D01*
X143459201Y-63164028D01*
X143753508Y-63144738D01*
X144042786Y-63087198D01*
X144322083Y-62992389D01*
X144586614Y-62861937D01*
X144831852Y-62698075D01*
X144865239Y-62668794D01*
X144865240Y-62668793D01*
X144041937Y-61845490D01*
X144175802Y-61748233D01*
X144298233Y-61625802D01*
X144395490Y-61491937D01*
X145218793Y-62315240D01*
X145218794Y-62315239D01*
X145248075Y-62281852D01*
X145411937Y-62036614D01*
X145507353Y-61843129D01*
X145535549Y-61818401D01*
X145572972Y-61820854D01*
X145597700Y-61849050D01*
X145600300Y-61864801D01*
X145600300Y-85352185D01*
X145585948Y-85386833D01*
X145551300Y-85401185D01*
X145516652Y-85386833D01*
X145507353Y-85373857D01*
X145462737Y-85283385D01*
X145298875Y-85038147D01*
X145269594Y-85004759D01*
X145269593Y-85004758D01*
X144446289Y-85828061D01*
X144349033Y-85694198D01*
X144226602Y-85571767D01*
X144092736Y-85474508D01*
X144916040Y-84651205D01*
X144916039Y-84651204D01*
X144882652Y-84621924D01*
X144637414Y-84458062D01*
X144372883Y-84327610D01*
X144093586Y-84232801D01*
X143804308Y-84175261D01*
X143510001Y-84155972D01*
X143509999Y-84155972D01*
X143215691Y-84175261D01*
X142926413Y-84232801D01*
X142647116Y-84327610D01*
X142382585Y-84458062D01*
X142137349Y-84621924D01*
X142103959Y-84651205D01*
X142927263Y-85474509D01*
X142793398Y-85571767D01*
X142670967Y-85694198D01*
X142573709Y-85828062D01*
X141750405Y-85004759D01*
X141721124Y-85038149D01*
X141557262Y-85283385D01*
X141426810Y-85547916D01*
X141332001Y-85827213D01*
X141274461Y-86116491D01*
X141255172Y-86410798D01*
X141255172Y-86410801D01*
X141274461Y-86705108D01*
X141332001Y-86994386D01*
X141426810Y-87273683D01*
X141557262Y-87538214D01*
X141721124Y-87783452D01*
X141750404Y-87816839D01*
X141750405Y-87816840D01*
X142573708Y-86993536D01*
X142670967Y-87127402D01*
X142793398Y-87249833D01*
X142927262Y-87347090D01*
X142103958Y-88170393D01*
X142103959Y-88170394D01*
X142137347Y-88199675D01*
X142302099Y-88309758D01*
X142322934Y-88340940D01*
X142315618Y-88377723D01*
X142284436Y-88398558D01*
X142274876Y-88399500D01*
X136909814Y-88399500D01*
X136875166Y-88385148D01*
X136860814Y-88350500D01*
X136867378Y-88326001D01*
X136868599Y-88323886D01*
X136883949Y-88266597D01*
X136899300Y-88209311D01*
X136899300Y-81739200D01*
X137842698Y-81739200D01*
X137863075Y-81998117D01*
X137923703Y-82250653D01*
X138023094Y-82490604D01*
X138023096Y-82490607D01*
X138158787Y-82712034D01*
X138158796Y-82712047D01*
X138164601Y-82718844D01*
X138793433Y-82090012D01*
X138802142Y-82111037D01*
X138888051Y-82239608D01*
X138997392Y-82348949D01*
X139125963Y-82434858D01*
X139146986Y-82443566D01*
X138518154Y-83072398D01*
X138524949Y-83078201D01*
X138524961Y-83078210D01*
X138746392Y-83213903D01*
X138746395Y-83213905D01*
X138986346Y-83313296D01*
X139238882Y-83373924D01*
X139497800Y-83394301D01*
X139756717Y-83373924D01*
X140009253Y-83313296D01*
X140249204Y-83213905D01*
X140249207Y-83213903D01*
X140470645Y-83078205D01*
X140470647Y-83078204D01*
X140477444Y-83072398D01*
X140477445Y-83072398D01*
X139848613Y-82443566D01*
X139869637Y-82434858D01*
X139998208Y-82348949D01*
X140107549Y-82239608D01*
X140193458Y-82111037D01*
X140202166Y-82090013D01*
X140830998Y-82718845D01*
X140830998Y-82718844D01*
X140836804Y-82712047D01*
X140836805Y-82712045D01*
X140972503Y-82490607D01*
X140972505Y-82490604D01*
X141071896Y-82250653D01*
X141132524Y-81998117D01*
X141152901Y-81739200D01*
X141132524Y-81480282D01*
X141071896Y-81227746D01*
X140972505Y-80987795D01*
X140972503Y-80987792D01*
X140836810Y-80766361D01*
X140836801Y-80766349D01*
X140830998Y-80759554D01*
X140202166Y-81388385D01*
X140193458Y-81367363D01*
X140107549Y-81238792D01*
X139998208Y-81129451D01*
X139869637Y-81043542D01*
X139848611Y-81034833D01*
X140477444Y-80406001D01*
X140470647Y-80400196D01*
X140470634Y-80400187D01*
X140249207Y-80264496D01*
X140249204Y-80264494D01*
X140009253Y-80165103D01*
X139756717Y-80104475D01*
X139497800Y-80084098D01*
X139238882Y-80104475D01*
X138986346Y-80165103D01*
X138746395Y-80264494D01*
X138746392Y-80264496D01*
X138524959Y-80400190D01*
X138524957Y-80400192D01*
X138518154Y-80406001D01*
X139146986Y-81034833D01*
X139125963Y-81043542D01*
X138997392Y-81129451D01*
X138888051Y-81238792D01*
X138802142Y-81367363D01*
X138793433Y-81388386D01*
X138164601Y-80759554D01*
X138158792Y-80766357D01*
X138158790Y-80766359D01*
X138023096Y-80987792D01*
X138023094Y-80987795D01*
X137923703Y-81227746D01*
X137863075Y-81480282D01*
X137842698Y-81739200D01*
X136899300Y-81739200D01*
X136899300Y-79844794D01*
X141182300Y-79844794D01*
X141182300Y-80073606D01*
X141212166Y-80300461D01*
X141212167Y-80300465D01*
X141212168Y-80300472D01*
X141271384Y-80521469D01*
X141271388Y-80521479D01*
X141358950Y-80732872D01*
X141473354Y-80931025D01*
X141473364Y-80931040D01*
X141612643Y-81112551D01*
X141612653Y-81112563D01*
X141774436Y-81274346D01*
X141774448Y-81274356D01*
X141955959Y-81413635D01*
X141955968Y-81413641D01*
X141955972Y-81413644D01*
X142154129Y-81528050D01*
X142365524Y-81615613D01*
X142365527Y-81615613D01*
X142365530Y-81615615D01*
X142586527Y-81674831D01*
X142586528Y-81674831D01*
X142586539Y-81674834D01*
X142813394Y-81704700D01*
X142813398Y-81704700D01*
X143042202Y-81704700D01*
X143042206Y-81704700D01*
X143269061Y-81674834D01*
X143490076Y-81615613D01*
X143701471Y-81528050D01*
X143899628Y-81413644D01*
X144081157Y-81274352D01*
X144242952Y-81112557D01*
X144382244Y-80931028D01*
X144496650Y-80732871D01*
X144584213Y-80521476D01*
X144598024Y-80469935D01*
X144643431Y-80300472D01*
X144643430Y-80300472D01*
X144643434Y-80300461D01*
X144673300Y-80073606D01*
X144673300Y-79844794D01*
X144643434Y-79617939D01*
X144643431Y-79617927D01*
X144584215Y-79396930D01*
X144584211Y-79396920D01*
X144579818Y-79386315D01*
X144496650Y-79185529D01*
X144382244Y-78987372D01*
X144382241Y-78987368D01*
X144382235Y-78987359D01*
X144242956Y-78805848D01*
X144242946Y-78805836D01*
X144081163Y-78644053D01*
X144081151Y-78644043D01*
X143899640Y-78504764D01*
X143899625Y-78504754D01*
X143701472Y-78390350D01*
X143490079Y-78302788D01*
X143490069Y-78302784D01*
X143269072Y-78243568D01*
X143269065Y-78243567D01*
X143269061Y-78243566D01*
X143042206Y-78213700D01*
X142813394Y-78213700D01*
X142586539Y-78243566D01*
X142586535Y-78243566D01*
X142586527Y-78243568D01*
X142365530Y-78302784D01*
X142365520Y-78302788D01*
X142154127Y-78390350D01*
X141955974Y-78504754D01*
X141955959Y-78504764D01*
X141774448Y-78644043D01*
X141774436Y-78644053D01*
X141612653Y-78805836D01*
X141612643Y-78805848D01*
X141473364Y-78987359D01*
X141473354Y-78987374D01*
X141358950Y-79185527D01*
X141271388Y-79396920D01*
X141271384Y-79396930D01*
X141212168Y-79617927D01*
X141212166Y-79617935D01*
X141212166Y-79617939D01*
X141182300Y-79844794D01*
X136899300Y-79844794D01*
X136899300Y-77829299D01*
X136913652Y-77794651D01*
X137082251Y-77626052D01*
X137116899Y-77611700D01*
X137741467Y-77611700D01*
X137776115Y-77626052D01*
X137784681Y-77637602D01*
X137813659Y-77691818D01*
X137813663Y-77691823D01*
X137813663Y-77691824D01*
X137813668Y-77691830D01*
X137932440Y-77836554D01*
X137932441Y-77836555D01*
X137932443Y-77836557D01*
X137993136Y-77886366D01*
X138077168Y-77955331D01*
X138077175Y-77955336D01*
X138242299Y-78043596D01*
X138421469Y-78097947D01*
X138607800Y-78116299D01*
X138794131Y-78097947D01*
X138973301Y-78043596D01*
X139138425Y-77955336D01*
X139283157Y-77836557D01*
X139401936Y-77691825D01*
X139490196Y-77526701D01*
X139544547Y-77347531D01*
X139562899Y-77161200D01*
X139544547Y-76974869D01*
X139490196Y-76795699D01*
X139401936Y-76630575D01*
X139401931Y-76630568D01*
X139303558Y-76510702D01*
X139283157Y-76485843D01*
X139215082Y-76429975D01*
X139138431Y-76367068D01*
X139138427Y-76367066D01*
X139138428Y-76367066D01*
X139138425Y-76367064D01*
X139118871Y-76356612D01*
X139095081Y-76327622D01*
X139098757Y-76290300D01*
X139121263Y-76268990D01*
X139235186Y-76215867D01*
X139235192Y-76215864D01*
X139357814Y-76130002D01*
X139394428Y-76121884D01*
X139426058Y-76142034D01*
X139434684Y-76165337D01*
X139451053Y-76331531D01*
X139451053Y-76331532D01*
X139505404Y-76510702D01*
X139593663Y-76675824D01*
X139593668Y-76675831D01*
X139622285Y-76710700D01*
X139712443Y-76820557D01*
X139751886Y-76852927D01*
X139857168Y-76939331D01*
X139857175Y-76939336D01*
X140022299Y-77027596D01*
X140201469Y-77081947D01*
X140387800Y-77100299D01*
X140574131Y-77081947D01*
X140753301Y-77027596D01*
X140918425Y-76939336D01*
X141063157Y-76820557D01*
X141181936Y-76675825D01*
X141270196Y-76510701D01*
X141324547Y-76331531D01*
X141342899Y-76145200D01*
X141324547Y-75958869D01*
X141270196Y-75779699D01*
X141181936Y-75614575D01*
X141181931Y-75614568D01*
X141123913Y-75543874D01*
X141063157Y-75469843D01*
X140981022Y-75402436D01*
X140918431Y-75351068D01*
X140918427Y-75351066D01*
X140918428Y-75351066D01*
X140918425Y-75351064D01*
X140898871Y-75340612D01*
X140875081Y-75311622D01*
X140878757Y-75274300D01*
X140901263Y-75252990D01*
X141015180Y-75199870D01*
X141015189Y-75199865D01*
X141077370Y-75156324D01*
X141077370Y-75156323D01*
X140472302Y-74551255D01*
X140559564Y-74527874D01*
X140661036Y-74469289D01*
X140743889Y-74386436D01*
X140802474Y-74284964D01*
X140825855Y-74197702D01*
X141430923Y-74802770D01*
X141430924Y-74802770D01*
X141474465Y-74740589D01*
X141474470Y-74740579D01*
X141566903Y-74542355D01*
X141566905Y-74542350D01*
X141623510Y-74331097D01*
X141623511Y-74331091D01*
X141642574Y-74113200D01*
X141623511Y-73895308D01*
X141623510Y-73895302D01*
X141566905Y-73684049D01*
X141566904Y-73684044D01*
X141474468Y-73485814D01*
X141474460Y-73485802D01*
X141430926Y-73423628D01*
X141430924Y-73423628D01*
X140825855Y-74028697D01*
X140802474Y-73941436D01*
X140743889Y-73839964D01*
X140661036Y-73757111D01*
X140559564Y-73698526D01*
X140472302Y-73675144D01*
X141050246Y-73097201D01*
X141050246Y-73097199D01*
X140472302Y-72519255D01*
X140559564Y-72495874D01*
X140661036Y-72437289D01*
X140743889Y-72354436D01*
X140802474Y-72252964D01*
X140825855Y-72165702D01*
X141430923Y-72770770D01*
X141430924Y-72770770D01*
X141474465Y-72708589D01*
X141474470Y-72708579D01*
X141566903Y-72510355D01*
X141566905Y-72510350D01*
X141623510Y-72299097D01*
X141623511Y-72299091D01*
X141642574Y-72081200D01*
X141623511Y-71863308D01*
X141623510Y-71863302D01*
X141566905Y-71652049D01*
X141566904Y-71652044D01*
X141474468Y-71453814D01*
X141474460Y-71453802D01*
X141430926Y-71391628D01*
X141430924Y-71391628D01*
X140825855Y-71996697D01*
X140802474Y-71909436D01*
X140743889Y-71807964D01*
X140661036Y-71725111D01*
X140559564Y-71666526D01*
X140472302Y-71643144D01*
X141086134Y-71029310D01*
X141089952Y-71017203D01*
X141123218Y-70999886D01*
X141127488Y-70999700D01*
X141157545Y-70999700D01*
X141157548Y-70999700D01*
X141216031Y-70988067D01*
X141282352Y-70943752D01*
X141326667Y-70877431D01*
X141338300Y-70818948D01*
X141338300Y-69279452D01*
X141326667Y-69220969D01*
X141300101Y-69181212D01*
X141282352Y-69154647D01*
X141242595Y-69128082D01*
X141216031Y-69110333D01*
X141157548Y-69098700D01*
X139618052Y-69098700D01*
X139559569Y-69110333D01*
X139493247Y-69154647D01*
X139448933Y-69220969D01*
X139437300Y-69279452D01*
X139437300Y-69279455D01*
X139437300Y-70440720D01*
X139422948Y-70475368D01*
X139388300Y-70489720D01*
X139353652Y-70475368D01*
X139350423Y-70471806D01*
X139324911Y-70440720D01*
X139283157Y-70389843D01*
X139215082Y-70333975D01*
X139138431Y-70271068D01*
X139138424Y-70271063D01*
X138973302Y-70182804D01*
X138794131Y-70128453D01*
X138607800Y-70110101D01*
X138421468Y-70128453D01*
X138421467Y-70128453D01*
X138242297Y-70182804D01*
X138077175Y-70271063D01*
X138077168Y-70271068D01*
X137932443Y-70389843D01*
X137813668Y-70534568D01*
X137813663Y-70534575D01*
X137725404Y-70699697D01*
X137671053Y-70878867D01*
X137671053Y-70878868D01*
X137652701Y-71065199D01*
X137652701Y-71065200D01*
X137671053Y-71251531D01*
X137725404Y-71430702D01*
X137813663Y-71595824D01*
X137813668Y-71595831D01*
X137858628Y-71650614D01*
X137932443Y-71740557D01*
X138077175Y-71859336D01*
X138096725Y-71869786D01*
X138120517Y-71898775D01*
X138116842Y-71936098D01*
X138094336Y-71957409D01*
X137980413Y-72010532D01*
X137918228Y-72054074D01*
X138523297Y-72659144D01*
X138436036Y-72682526D01*
X138334564Y-72741111D01*
X138251711Y-72823964D01*
X138193126Y-72925436D01*
X138169744Y-73012698D01*
X137564674Y-72407628D01*
X137521132Y-72469814D01*
X137521131Y-72469816D01*
X137428695Y-72668044D01*
X137428694Y-72668049D01*
X137372089Y-72879302D01*
X137372088Y-72879308D01*
X137353025Y-73097200D01*
X137372088Y-73315091D01*
X137372089Y-73315097D01*
X137428694Y-73526350D01*
X137428696Y-73526355D01*
X137521131Y-73724586D01*
X137521138Y-73724598D01*
X137564672Y-73786770D01*
X137564674Y-73786770D01*
X138169744Y-73181701D01*
X138193126Y-73268964D01*
X138251711Y-73370436D01*
X138334564Y-73453289D01*
X138436036Y-73511874D01*
X138523297Y-73535255D01*
X137945353Y-74113200D01*
X138523297Y-74691144D01*
X138436036Y-74714526D01*
X138334564Y-74773111D01*
X138251711Y-74855964D01*
X138193126Y-74957436D01*
X138169744Y-75044698D01*
X137564674Y-74439628D01*
X137521132Y-74501814D01*
X137521131Y-74501816D01*
X137428695Y-74700044D01*
X137428694Y-74700049D01*
X137372089Y-74911302D01*
X137372088Y-74911308D01*
X137353025Y-75129200D01*
X137372088Y-75347091D01*
X137372089Y-75347097D01*
X137428694Y-75558350D01*
X137428696Y-75558355D01*
X137521131Y-75756586D01*
X137521138Y-75756598D01*
X137564672Y-75818770D01*
X137564674Y-75818770D01*
X138169744Y-75213701D01*
X138193126Y-75300964D01*
X138251711Y-75402436D01*
X138334564Y-75485289D01*
X138436036Y-75543874D01*
X138523295Y-75567255D01*
X137918228Y-76172323D01*
X137918228Y-76172325D01*
X137980412Y-76215866D01*
X137980420Y-76215870D01*
X138094336Y-76268990D01*
X138119673Y-76296640D01*
X138118037Y-76334107D01*
X138096728Y-76356612D01*
X138077175Y-76367063D01*
X138077168Y-76367068D01*
X137932440Y-76485845D01*
X137813668Y-76630569D01*
X137813659Y-76630581D01*
X137784681Y-76684798D01*
X137755691Y-76708590D01*
X137741467Y-76710700D01*
X136850688Y-76710700D01*
X136736117Y-76741399D01*
X136736111Y-76741401D01*
X136721708Y-76749718D01*
X136633385Y-76800711D01*
X136633385Y-76800712D01*
X136088312Y-77345785D01*
X136088311Y-77345785D01*
X136029001Y-77448511D01*
X136027332Y-77454743D01*
X136027331Y-77454742D01*
X136027331Y-77454746D01*
X135998300Y-77563088D01*
X135998300Y-88209311D01*
X136029000Y-88323884D01*
X136029000Y-88323886D01*
X136030222Y-88326001D01*
X136035116Y-88363183D01*
X136012285Y-88392936D01*
X135987786Y-88399500D01*
X102149500Y-88399500D01*
X102114852Y-88385148D01*
X102100500Y-88350500D01*
X102100500Y-84474252D01*
X109369500Y-84474252D01*
X109369500Y-86213748D01*
X109381133Y-86272231D01*
X109398882Y-86298795D01*
X109425447Y-86338552D01*
X109452012Y-86356301D01*
X109491769Y-86382867D01*
X109550252Y-86394500D01*
X109550255Y-86394500D01*
X111289745Y-86394500D01*
X111289748Y-86394500D01*
X111348231Y-86382867D01*
X111414552Y-86338552D01*
X111458867Y-86272231D01*
X111470500Y-86213748D01*
X111470500Y-84474252D01*
X111458867Y-84415769D01*
X111432301Y-84376012D01*
X111414552Y-84349447D01*
X111374795Y-84322882D01*
X111348231Y-84305133D01*
X111289748Y-84293500D01*
X109550252Y-84293500D01*
X109491769Y-84305133D01*
X109425447Y-84349447D01*
X109381133Y-84415769D01*
X109369500Y-84474252D01*
X102100500Y-84474252D01*
X102100500Y-82803999D01*
X109364417Y-82803999D01*
X109364417Y-82804000D01*
X109384700Y-83009934D01*
X109384700Y-83009935D01*
X109405411Y-83078210D01*
X109444768Y-83207954D01*
X109542315Y-83390450D01*
X109673590Y-83550410D01*
X109833550Y-83681685D01*
X110016046Y-83779232D01*
X110214066Y-83839300D01*
X110420000Y-83859583D01*
X110625934Y-83839300D01*
X110823954Y-83779232D01*
X111006450Y-83681685D01*
X111166410Y-83550410D01*
X111297685Y-83390450D01*
X111395232Y-83207954D01*
X111455300Y-83009934D01*
X111475583Y-82804000D01*
X111455300Y-82598066D01*
X111395232Y-82400046D01*
X111297685Y-82217550D01*
X111166410Y-82057590D01*
X111006450Y-81926315D01*
X110823954Y-81828768D01*
X110625934Y-81768700D01*
X110420000Y-81748417D01*
X110214065Y-81768700D01*
X110214064Y-81768700D01*
X110016043Y-81828769D01*
X109833548Y-81926316D01*
X109673590Y-82057590D01*
X109542316Y-82217548D01*
X109444769Y-82400043D01*
X109384700Y-82598064D01*
X109384700Y-82598065D01*
X109364417Y-82803999D01*
X102100500Y-82803999D01*
X102100500Y-80264000D01*
X109364417Y-80264000D01*
X109384700Y-80469934D01*
X109444768Y-80667954D01*
X109542315Y-80850450D01*
X109673590Y-81010410D01*
X109833550Y-81141685D01*
X110016046Y-81239232D01*
X110214066Y-81299300D01*
X110420000Y-81319583D01*
X110625934Y-81299300D01*
X110823954Y-81239232D01*
X111006450Y-81141685D01*
X111166410Y-81010410D01*
X111297685Y-80850450D01*
X111395232Y-80667954D01*
X111455300Y-80469934D01*
X111475583Y-80264000D01*
X111455300Y-80058066D01*
X111395232Y-79860046D01*
X111297685Y-79677550D01*
X111166410Y-79517590D01*
X111006450Y-79386315D01*
X110823954Y-79288768D01*
X110625934Y-79228700D01*
X110420000Y-79208417D01*
X110214065Y-79228700D01*
X110214064Y-79228700D01*
X110016043Y-79288769D01*
X109833548Y-79386316D01*
X109673590Y-79517590D01*
X109542316Y-79677548D01*
X109444769Y-79860043D01*
X109384700Y-80058064D01*
X109384700Y-80058065D01*
X109384700Y-80058066D01*
X109364417Y-80264000D01*
X102100500Y-80264000D01*
X102100500Y-77473999D01*
X109089363Y-77473999D01*
X109089364Y-77474000D01*
X109986988Y-77474000D01*
X109954075Y-77531007D01*
X109920000Y-77658174D01*
X109920000Y-77789826D01*
X109954075Y-77916993D01*
X109986988Y-77974000D01*
X109089363Y-77974000D01*
X109146566Y-78187483D01*
X109146568Y-78187488D01*
X109246398Y-78401577D01*
X109246405Y-78401589D01*
X109381885Y-78595072D01*
X109381891Y-78595079D01*
X109548920Y-78762108D01*
X109548927Y-78762114D01*
X109742410Y-78897594D01*
X109742422Y-78897601D01*
X109956511Y-78997431D01*
X109956516Y-78997433D01*
X110170000Y-79054634D01*
X110170000Y-78157012D01*
X110227007Y-78189925D01*
X110354174Y-78224000D01*
X110485826Y-78224000D01*
X110612993Y-78189925D01*
X110670000Y-78157012D01*
X110670000Y-79054634D01*
X110883483Y-78997433D01*
X110883488Y-78997431D01*
X111097577Y-78897601D01*
X111097589Y-78897594D01*
X111291072Y-78762114D01*
X111291079Y-78762108D01*
X111458108Y-78595079D01*
X111458114Y-78595072D01*
X111593594Y-78401589D01*
X111593601Y-78401577D01*
X111693431Y-78187488D01*
X111693433Y-78187483D01*
X111695652Y-78179200D01*
X132533025Y-78179200D01*
X132552088Y-78397091D01*
X132552089Y-78397097D01*
X132608694Y-78608350D01*
X132608696Y-78608355D01*
X132701131Y-78806586D01*
X132701138Y-78806598D01*
X132744672Y-78868770D01*
X132744674Y-78868770D01*
X133349744Y-78263701D01*
X133373126Y-78350964D01*
X133431711Y-78452436D01*
X133514564Y-78535289D01*
X133616036Y-78593874D01*
X133703297Y-78617255D01*
X133098228Y-79222323D01*
X133098228Y-79222325D01*
X133160412Y-79265866D01*
X133160420Y-79265870D01*
X133358644Y-79358303D01*
X133358649Y-79358305D01*
X133569902Y-79414910D01*
X133569908Y-79414911D01*
X133693683Y-79425740D01*
X133726948Y-79443057D01*
X133738226Y-79478825D01*
X133720909Y-79512090D01*
X133694215Y-79523318D01*
X133601469Y-79532453D01*
X133601467Y-79532453D01*
X133422297Y-79586804D01*
X133257175Y-79675063D01*
X133257168Y-79675068D01*
X133112443Y-79793843D01*
X132993668Y-79938568D01*
X132993663Y-79938575D01*
X132905404Y-80103697D01*
X132851053Y-80282867D01*
X132851053Y-80282868D01*
X132832701Y-80469199D01*
X132832701Y-80469200D01*
X132851053Y-80655531D01*
X132851053Y-80655532D01*
X132905404Y-80834702D01*
X132993663Y-80999824D01*
X132993668Y-80999831D01*
X133056575Y-81076482D01*
X133112443Y-81144557D01*
X133195390Y-81212630D01*
X133257168Y-81263331D01*
X133257175Y-81263336D01*
X133324457Y-81299299D01*
X133422299Y-81351596D01*
X133601469Y-81405947D01*
X133787800Y-81424299D01*
X133974131Y-81405947D01*
X134153301Y-81351596D01*
X134318425Y-81263336D01*
X134463157Y-81144557D01*
X134581936Y-80999825D01*
X134670196Y-80834701D01*
X134724547Y-80655531D01*
X134742899Y-80469200D01*
X134724547Y-80282869D01*
X134670196Y-80103699D01*
X134581936Y-79938575D01*
X134581931Y-79938568D01*
X134531230Y-79876790D01*
X134463157Y-79793843D01*
X134395082Y-79737975D01*
X134318431Y-79675068D01*
X134318424Y-79675063D01*
X134153302Y-79586804D01*
X133974131Y-79532453D01*
X133881384Y-79523318D01*
X133848309Y-79505639D01*
X133837423Y-79469751D01*
X133855102Y-79436676D01*
X133881916Y-79425740D01*
X134005691Y-79414911D01*
X134005697Y-79414910D01*
X134216950Y-79358305D01*
X134216955Y-79358303D01*
X134415179Y-79265870D01*
X134415189Y-79265865D01*
X134477370Y-79222324D01*
X134477370Y-79222323D01*
X133872302Y-78617255D01*
X133959564Y-78593874D01*
X134061036Y-78535289D01*
X134143889Y-78452436D01*
X134202474Y-78350964D01*
X134225855Y-78263702D01*
X134830923Y-78868770D01*
X134830924Y-78868770D01*
X134874465Y-78806589D01*
X134874470Y-78806579D01*
X134966903Y-78608355D01*
X134966905Y-78608350D01*
X135023510Y-78397097D01*
X135023511Y-78397091D01*
X135042574Y-78179200D01*
X135023511Y-77961308D01*
X135023510Y-77961302D01*
X134966905Y-77750049D01*
X134966904Y-77750044D01*
X134874468Y-77551814D01*
X134874460Y-77551802D01*
X134830926Y-77489628D01*
X134830924Y-77489628D01*
X134225855Y-78094697D01*
X134202474Y-78007436D01*
X134143889Y-77905964D01*
X134061036Y-77823111D01*
X133959564Y-77764526D01*
X133872300Y-77741143D01*
X134477370Y-77136074D01*
X134477370Y-77136072D01*
X134415198Y-77092538D01*
X134415186Y-77092531D01*
X134216955Y-77000096D01*
X134216950Y-77000094D01*
X134005697Y-76943489D01*
X134005691Y-76943488D01*
X133787800Y-76924425D01*
X133569908Y-76943488D01*
X133569902Y-76943489D01*
X133358649Y-77000094D01*
X133358644Y-77000095D01*
X133160416Y-77092531D01*
X133160414Y-77092532D01*
X133098228Y-77136074D01*
X133703298Y-77741144D01*
X133616036Y-77764526D01*
X133514564Y-77823111D01*
X133431711Y-77905964D01*
X133373126Y-78007436D01*
X133349744Y-78094698D01*
X132744674Y-77489628D01*
X132701132Y-77551814D01*
X132701131Y-77551816D01*
X132608695Y-77750044D01*
X132608694Y-77750049D01*
X132552089Y-77961302D01*
X132552088Y-77961308D01*
X132533025Y-78179200D01*
X111695652Y-78179200D01*
X111750636Y-77974000D01*
X110853012Y-77974000D01*
X110885925Y-77916993D01*
X110920000Y-77789826D01*
X110920000Y-77658174D01*
X110885925Y-77531007D01*
X110853012Y-77474000D01*
X111750636Y-77474000D01*
X111750636Y-77473999D01*
X111693433Y-77260516D01*
X111693432Y-77260511D01*
X111593601Y-77046423D01*
X111593594Y-77046411D01*
X111458114Y-76852927D01*
X111458108Y-76852920D01*
X111291079Y-76685891D01*
X111291072Y-76685885D01*
X111097589Y-76550405D01*
X111097577Y-76550398D01*
X110883488Y-76450568D01*
X110883483Y-76450566D01*
X110670000Y-76393363D01*
X110670000Y-77290988D01*
X110612993Y-77258075D01*
X110485826Y-77224000D01*
X110354174Y-77224000D01*
X110227007Y-77258075D01*
X110170000Y-77290988D01*
X110170000Y-76393363D01*
X110169999Y-76393363D01*
X109956516Y-76450566D01*
X109956511Y-76450567D01*
X109742423Y-76550398D01*
X109742411Y-76550405D01*
X109548927Y-76685885D01*
X109548920Y-76685891D01*
X109381891Y-76852920D01*
X109381885Y-76852927D01*
X109246405Y-77046411D01*
X109246398Y-77046423D01*
X109146567Y-77260511D01*
X109146566Y-77260516D01*
X109089363Y-77473999D01*
X102100500Y-77473999D01*
X102100500Y-73380598D01*
X104602972Y-73380598D01*
X104602972Y-73380601D01*
X104622261Y-73674908D01*
X104679801Y-73964186D01*
X104774610Y-74243483D01*
X104905062Y-74508014D01*
X105068924Y-74753252D01*
X105098204Y-74786639D01*
X105098205Y-74786640D01*
X105921508Y-73963336D01*
X106018767Y-74097202D01*
X106141198Y-74219633D01*
X106275062Y-74316890D01*
X105451758Y-75140193D01*
X105451759Y-75140194D01*
X105485147Y-75169475D01*
X105730385Y-75333337D01*
X105994916Y-75463789D01*
X106274213Y-75558598D01*
X106563491Y-75616138D01*
X106857799Y-75635428D01*
X106857801Y-75635428D01*
X107152108Y-75616138D01*
X107441386Y-75558598D01*
X107720683Y-75463789D01*
X107985214Y-75333337D01*
X108230452Y-75169475D01*
X108263839Y-75140194D01*
X108263840Y-75140193D01*
X107440537Y-74316890D01*
X107574402Y-74219633D01*
X107696833Y-74097202D01*
X107794090Y-73963337D01*
X108617393Y-74786640D01*
X108617394Y-74786639D01*
X108646675Y-74753252D01*
X108810537Y-74508014D01*
X108940989Y-74243483D01*
X109035798Y-73964186D01*
X109093338Y-73674908D01*
X109112628Y-73380601D01*
X109112628Y-73380598D01*
X109093338Y-73086291D01*
X109035798Y-72797013D01*
X108940989Y-72517716D01*
X108810537Y-72253185D01*
X108646675Y-72007947D01*
X108617394Y-71974559D01*
X108617393Y-71974558D01*
X107794089Y-72797861D01*
X107696833Y-72663998D01*
X107574402Y-72541567D01*
X107440536Y-72444308D01*
X108263840Y-71621005D01*
X108263839Y-71621004D01*
X108230452Y-71591724D01*
X107985214Y-71427862D01*
X107720683Y-71297410D01*
X107441386Y-71202601D01*
X107152108Y-71145061D01*
X106857801Y-71125772D01*
X106857799Y-71125772D01*
X106563491Y-71145061D01*
X106274213Y-71202601D01*
X105994916Y-71297410D01*
X105730385Y-71427862D01*
X105485149Y-71591724D01*
X105451759Y-71621005D01*
X106275063Y-72444309D01*
X106141198Y-72541567D01*
X106018767Y-72663998D01*
X105921509Y-72797862D01*
X105098205Y-71974559D01*
X105068924Y-72007949D01*
X104905062Y-72253185D01*
X104774610Y-72517716D01*
X104679801Y-72797013D01*
X104622261Y-73086291D01*
X104602972Y-73380598D01*
X102100500Y-73380598D01*
X102100500Y-69845000D01*
X117938019Y-69845000D01*
X117956626Y-69962483D01*
X117981959Y-70012200D01*
X117987300Y-70034446D01*
X117987300Y-73801163D01*
X118007779Y-73877589D01*
X118007779Y-73877591D01*
X118036977Y-73928162D01*
X118047336Y-73946105D01*
X118047338Y-73946107D01*
X118047340Y-73946111D01*
X118174340Y-74073111D01*
X118230289Y-74129060D01*
X118298811Y-74168621D01*
X118334278Y-74178124D01*
X118375236Y-74189100D01*
X118375238Y-74189100D01*
X119562688Y-74189100D01*
X119584933Y-74194440D01*
X119634366Y-74219627D01*
X119694318Y-74250174D01*
X119811800Y-74268781D01*
X119929282Y-74250174D01*
X120002788Y-74212720D01*
X120035258Y-74196177D01*
X120035260Y-74196175D01*
X120035265Y-74196173D01*
X120119373Y-74112065D01*
X120173374Y-74006082D01*
X120191981Y-73888600D01*
X120173374Y-73771118D01*
X120136387Y-73698526D01*
X120119377Y-73665141D01*
X120119372Y-73665134D01*
X120035265Y-73581027D01*
X120035258Y-73581022D01*
X119929284Y-73527027D01*
X119929283Y-73527026D01*
X119929282Y-73527026D01*
X119811800Y-73508419D01*
X119694317Y-73527026D01*
X119584933Y-73582760D01*
X119562688Y-73588100D01*
X118637300Y-73588100D01*
X118602652Y-73573748D01*
X118588300Y-73539100D01*
X118588300Y-70126234D01*
X118602652Y-70091586D01*
X118625773Y-70068465D01*
X118679774Y-69962482D01*
X118698381Y-69845000D01*
X118679774Y-69727518D01*
X118661773Y-69692190D01*
X118625777Y-69621541D01*
X118625772Y-69621534D01*
X118541665Y-69537427D01*
X118541658Y-69537422D01*
X118435684Y-69483427D01*
X118435683Y-69483426D01*
X118435682Y-69483426D01*
X118318200Y-69464819D01*
X118200718Y-69483426D01*
X118200716Y-69483426D01*
X118200715Y-69483427D01*
X118094741Y-69537422D01*
X118094734Y-69537427D01*
X118010627Y-69621534D01*
X118010622Y-69621541D01*
X117956627Y-69727515D01*
X117956626Y-69727516D01*
X117956626Y-69727518D01*
X117939867Y-69833331D01*
X117938019Y-69845000D01*
X102100500Y-69845000D01*
X102100500Y-67199688D01*
X105712100Y-67199688D01*
X105712100Y-67349911D01*
X105750977Y-67495004D01*
X105750978Y-67495007D01*
X105811863Y-67600461D01*
X105826086Y-67625095D01*
X105932305Y-67731314D01*
X105979918Y-67758804D01*
X106062392Y-67806421D01*
X106062395Y-67806422D01*
X106207488Y-67845299D01*
X106207489Y-67845300D01*
X106207492Y-67845300D01*
X106357711Y-67845300D01*
X106357711Y-67845299D01*
X106502805Y-67806422D01*
X106632895Y-67731314D01*
X106739114Y-67625095D01*
X106814222Y-67495005D01*
X106853099Y-67349911D01*
X106853100Y-67349911D01*
X106853100Y-67199689D01*
X106853099Y-67199688D01*
X106814222Y-67054595D01*
X106814221Y-67054592D01*
X106739113Y-66924504D01*
X106632895Y-66818286D01*
X106502807Y-66743178D01*
X106502804Y-66743177D01*
X106357711Y-66704300D01*
X106357708Y-66704300D01*
X106207492Y-66704300D01*
X106207489Y-66704300D01*
X106062395Y-66743177D01*
X106062392Y-66743178D01*
X105932304Y-66818286D01*
X105932304Y-66818287D01*
X105826087Y-66924504D01*
X105826086Y-66924504D01*
X105750978Y-67054592D01*
X105750977Y-67054595D01*
X105712100Y-67199688D01*
X102100500Y-67199688D01*
X102100500Y-65836799D01*
X114722617Y-65836799D01*
X114722617Y-65836800D01*
X114742900Y-66042734D01*
X114742900Y-66042735D01*
X114762044Y-66105843D01*
X114802968Y-66240754D01*
X114900515Y-66423250D01*
X115031790Y-66583210D01*
X115191750Y-66714485D01*
X115374246Y-66812032D01*
X115572266Y-66872100D01*
X115778200Y-66892383D01*
X115984134Y-66872100D01*
X116182154Y-66812032D01*
X116364650Y-66714485D01*
X116524610Y-66583210D01*
X116655885Y-66423250D01*
X116753432Y-66240754D01*
X116813500Y-66042734D01*
X116833783Y-65836800D01*
X116813500Y-65630866D01*
X116753432Y-65432846D01*
X116655885Y-65250350D01*
X116524610Y-65090390D01*
X116364650Y-64959115D01*
X116182154Y-64861568D01*
X115984134Y-64801500D01*
X115778200Y-64781217D01*
X115572265Y-64801500D01*
X115572264Y-64801500D01*
X115374243Y-64861569D01*
X115191748Y-64959116D01*
X115031790Y-65090390D01*
X114900516Y-65250348D01*
X114802969Y-65432843D01*
X114742900Y-65630864D01*
X114742900Y-65630865D01*
X114722617Y-65836799D01*
X102100500Y-65836799D01*
X102100500Y-62799688D01*
X105712100Y-62799688D01*
X105712100Y-62949911D01*
X105750977Y-63095004D01*
X105750978Y-63095007D01*
X105826086Y-63225095D01*
X105932305Y-63331314D01*
X105979918Y-63358804D01*
X106062392Y-63406421D01*
X106062395Y-63406422D01*
X106207488Y-63445299D01*
X106207489Y-63445300D01*
X106207492Y-63445300D01*
X106357711Y-63445300D01*
X106357711Y-63445299D01*
X106502805Y-63406422D01*
X106632895Y-63331314D01*
X106739114Y-63225095D01*
X106809779Y-63102700D01*
X106814221Y-63095007D01*
X106814222Y-63095004D01*
X106815481Y-63090308D01*
X106853099Y-62949911D01*
X106853100Y-62949911D01*
X106853100Y-62799689D01*
X106853099Y-62799688D01*
X106814222Y-62654595D01*
X106814221Y-62654592D01*
X106739113Y-62524504D01*
X106632895Y-62418286D01*
X106502807Y-62343178D01*
X106502804Y-62343177D01*
X106357711Y-62304300D01*
X106357708Y-62304300D01*
X106207492Y-62304300D01*
X106207489Y-62304300D01*
X106062395Y-62343177D01*
X106062392Y-62343178D01*
X105932304Y-62418286D01*
X105932304Y-62418287D01*
X105826087Y-62524504D01*
X105826086Y-62524504D01*
X105750978Y-62654592D01*
X105750977Y-62654595D01*
X105712100Y-62799688D01*
X102100500Y-62799688D01*
X102100500Y-61852999D01*
X114417163Y-61852999D01*
X114417164Y-61853000D01*
X115314788Y-61853000D01*
X115281875Y-61910007D01*
X115247800Y-62037174D01*
X115247800Y-62168826D01*
X115281875Y-62295993D01*
X115314788Y-62353000D01*
X114417163Y-62353000D01*
X114474366Y-62566483D01*
X114474368Y-62566488D01*
X114574198Y-62780577D01*
X114574205Y-62780589D01*
X114709685Y-62974072D01*
X114709691Y-62974079D01*
X114876720Y-63141108D01*
X114876727Y-63141114D01*
X115070210Y-63276594D01*
X115070222Y-63276601D01*
X115284311Y-63376431D01*
X115284316Y-63376433D01*
X115497800Y-63433634D01*
X115497800Y-62536012D01*
X115554807Y-62568925D01*
X115681974Y-62603000D01*
X115813626Y-62603000D01*
X115940793Y-62568925D01*
X115997800Y-62536012D01*
X115997800Y-63433634D01*
X116211283Y-63376433D01*
X116211288Y-63376431D01*
X116425377Y-63276601D01*
X116425389Y-63276594D01*
X116618872Y-63141114D01*
X116618879Y-63141108D01*
X116785908Y-62974079D01*
X116785914Y-62974072D01*
X116921394Y-62780589D01*
X116921401Y-62780577D01*
X117021231Y-62566488D01*
X117021233Y-62566483D01*
X117078436Y-62353000D01*
X116180812Y-62353000D01*
X116213725Y-62295993D01*
X116247800Y-62168826D01*
X116247800Y-62102999D01*
X117232217Y-62102999D01*
X117232217Y-62103000D01*
X117252500Y-62308934D01*
X117252500Y-62308935D01*
X117265867Y-62353000D01*
X117312568Y-62506954D01*
X117410115Y-62689450D01*
X117541390Y-62849410D01*
X117701350Y-62980685D01*
X117811399Y-63039508D01*
X117835190Y-63068497D01*
X117837300Y-63082721D01*
X117837300Y-63330709D01*
X117853387Y-63390748D01*
X117861513Y-63421072D01*
X117861513Y-63421073D01*
X117868000Y-63445286D01*
X117868001Y-63445288D01*
X117896767Y-63495111D01*
X117927311Y-63548014D01*
X118595387Y-64216090D01*
X118595390Y-64216091D01*
X118595393Y-64216094D01*
X118698111Y-64275398D01*
X118698113Y-64275398D01*
X118698114Y-64275399D01*
X118726758Y-64283074D01*
X118812688Y-64306100D01*
X118812691Y-64306100D01*
X119071501Y-64306100D01*
X119106149Y-64320452D01*
X119219948Y-64434251D01*
X119234300Y-64468899D01*
X119234300Y-64737300D01*
X119219948Y-64771948D01*
X119185300Y-64786300D01*
X117448452Y-64786300D01*
X117389969Y-64797933D01*
X117323647Y-64842247D01*
X117279333Y-64908569D01*
X117267700Y-64967052D01*
X117267700Y-66706548D01*
X117279333Y-66765031D01*
X117297082Y-66791595D01*
X117323647Y-66831352D01*
X117350212Y-66849101D01*
X117389969Y-66875667D01*
X117448452Y-66887300D01*
X117448455Y-66887300D01*
X119185300Y-66887300D01*
X119219948Y-66901652D01*
X119234300Y-66936300D01*
X119234300Y-70709901D01*
X119219948Y-70744549D01*
X118867112Y-71097385D01*
X118867111Y-71097385D01*
X118807801Y-71200111D01*
X118807800Y-71200113D01*
X118777101Y-71314687D01*
X118777101Y-71433312D01*
X118807800Y-71547886D01*
X118807801Y-71547888D01*
X118850016Y-71621005D01*
X118867111Y-71650614D01*
X118950986Y-71734489D01*
X119026184Y-71777905D01*
X119053711Y-71793798D01*
X119053713Y-71793799D01*
X119168287Y-71824498D01*
X119168288Y-71824499D01*
X119168291Y-71824499D01*
X119286912Y-71824499D01*
X119286912Y-71824498D01*
X119401487Y-71793799D01*
X119504214Y-71734489D01*
X120045289Y-71193414D01*
X120079531Y-71134104D01*
X120104599Y-71090686D01*
X120135299Y-70976112D01*
X120135300Y-70976112D01*
X120135300Y-66749200D01*
X132533025Y-66749200D01*
X132552088Y-66967091D01*
X132552089Y-66967097D01*
X132608694Y-67178350D01*
X132608696Y-67178355D01*
X132701131Y-67376586D01*
X132701138Y-67376598D01*
X132744672Y-67438770D01*
X132744674Y-67438770D01*
X133349744Y-66833701D01*
X133373126Y-66920964D01*
X133431711Y-67022436D01*
X133514564Y-67105289D01*
X133616036Y-67163874D01*
X133703297Y-67187255D01*
X133098228Y-67792323D01*
X133098228Y-67792325D01*
X133160412Y-67835866D01*
X133160420Y-67835870D01*
X133358644Y-67928303D01*
X133358649Y-67928305D01*
X133569902Y-67984910D01*
X133569908Y-67984911D01*
X133693683Y-67995740D01*
X133726948Y-68013057D01*
X133738226Y-68048825D01*
X133720909Y-68082090D01*
X133694215Y-68093318D01*
X133601469Y-68102453D01*
X133601467Y-68102453D01*
X133422297Y-68156804D01*
X133257175Y-68245063D01*
X133257168Y-68245068D01*
X133112443Y-68363843D01*
X132993668Y-68508568D01*
X132993663Y-68508575D01*
X132905404Y-68673697D01*
X132851053Y-68852867D01*
X132851053Y-68852868D01*
X132832701Y-69039199D01*
X132832701Y-69039200D01*
X132851053Y-69225531D01*
X132851053Y-69225532D01*
X132905404Y-69404702D01*
X132993663Y-69569824D01*
X132993668Y-69569831D01*
X133036101Y-69621535D01*
X133112443Y-69714557D01*
X133195390Y-69782630D01*
X133257168Y-69833331D01*
X133257175Y-69833336D01*
X133422299Y-69921596D01*
X133601469Y-69975947D01*
X133787800Y-69994299D01*
X133974131Y-69975947D01*
X134153301Y-69921596D01*
X134318425Y-69833336D01*
X134463157Y-69714557D01*
X134581936Y-69569825D01*
X134670196Y-69404701D01*
X134724547Y-69225531D01*
X134742899Y-69039200D01*
X134724547Y-68852869D01*
X134670196Y-68673699D01*
X134581936Y-68508575D01*
X134581931Y-68508568D01*
X134531230Y-68446790D01*
X134463157Y-68363843D01*
X134395082Y-68307975D01*
X134318431Y-68245068D01*
X134318424Y-68245063D01*
X134153302Y-68156804D01*
X133974131Y-68102453D01*
X133881384Y-68093318D01*
X133848309Y-68075639D01*
X133837423Y-68039751D01*
X133855102Y-68006676D01*
X133881916Y-67995740D01*
X134005691Y-67984911D01*
X134005697Y-67984910D01*
X134216950Y-67928305D01*
X134216955Y-67928303D01*
X134415179Y-67835870D01*
X134415189Y-67835865D01*
X134477370Y-67792324D01*
X134477370Y-67792323D01*
X133872302Y-67187255D01*
X133959564Y-67163874D01*
X134061036Y-67105289D01*
X134143889Y-67022436D01*
X134202474Y-66920964D01*
X134225855Y-66833702D01*
X134830923Y-67438770D01*
X134830924Y-67438770D01*
X134874465Y-67376589D01*
X134874470Y-67376579D01*
X134966903Y-67178355D01*
X134966905Y-67178350D01*
X134975896Y-67144794D01*
X141182300Y-67144794D01*
X141182300Y-67373606D01*
X141212166Y-67600461D01*
X141212167Y-67600465D01*
X141212168Y-67600472D01*
X141271384Y-67821469D01*
X141271388Y-67821479D01*
X141358950Y-68032872D01*
X141473354Y-68231025D01*
X141473364Y-68231040D01*
X141612643Y-68412551D01*
X141612653Y-68412563D01*
X141774436Y-68574346D01*
X141774448Y-68574356D01*
X141955959Y-68713635D01*
X141955968Y-68713641D01*
X141955972Y-68713644D01*
X142154129Y-68828050D01*
X142365524Y-68915613D01*
X142365527Y-68915613D01*
X142365530Y-68915615D01*
X142586527Y-68974831D01*
X142586528Y-68974831D01*
X142586539Y-68974834D01*
X142813394Y-69004700D01*
X142813398Y-69004700D01*
X143042202Y-69004700D01*
X143042206Y-69004700D01*
X143269061Y-68974834D01*
X143490076Y-68915613D01*
X143701471Y-68828050D01*
X143899628Y-68713644D01*
X144081157Y-68574352D01*
X144242952Y-68412557D01*
X144382244Y-68231028D01*
X144496650Y-68032871D01*
X144584213Y-67821476D01*
X144643434Y-67600461D01*
X144673300Y-67373606D01*
X144673300Y-67144794D01*
X144643434Y-66917939D01*
X144639070Y-66901652D01*
X144584215Y-66696930D01*
X144584211Y-66696920D01*
X144581599Y-66690615D01*
X144496650Y-66485529D01*
X144481243Y-66458844D01*
X144382245Y-66287374D01*
X144382235Y-66287359D01*
X144242956Y-66105848D01*
X144242946Y-66105836D01*
X144081163Y-65944053D01*
X144081151Y-65944043D01*
X143899640Y-65804764D01*
X143899625Y-65804754D01*
X143701472Y-65690350D01*
X143490079Y-65602788D01*
X143490069Y-65602784D01*
X143269072Y-65543568D01*
X143269065Y-65543567D01*
X143269061Y-65543566D01*
X143042206Y-65513700D01*
X142813394Y-65513700D01*
X142586539Y-65543566D01*
X142586535Y-65543566D01*
X142586527Y-65543568D01*
X142365530Y-65602784D01*
X142365520Y-65602788D01*
X142154127Y-65690350D01*
X141955974Y-65804754D01*
X141955959Y-65804764D01*
X141774448Y-65944043D01*
X141774436Y-65944053D01*
X141612653Y-66105836D01*
X141612643Y-66105848D01*
X141473364Y-66287359D01*
X141473354Y-66287374D01*
X141358950Y-66485527D01*
X141271388Y-66696920D01*
X141271384Y-66696930D01*
X141212168Y-66917927D01*
X141212166Y-66917935D01*
X141212166Y-66917939D01*
X141182300Y-67144794D01*
X134975896Y-67144794D01*
X135023510Y-66967097D01*
X135023511Y-66967091D01*
X135042574Y-66749200D01*
X135023511Y-66531308D01*
X135023510Y-66531302D01*
X134966905Y-66320049D01*
X134966904Y-66320044D01*
X134874468Y-66121814D01*
X134874460Y-66121802D01*
X134830926Y-66059628D01*
X134830924Y-66059628D01*
X134225855Y-66664697D01*
X134202474Y-66577436D01*
X134143889Y-66475964D01*
X134061036Y-66393111D01*
X133959564Y-66334526D01*
X133872300Y-66311143D01*
X134477370Y-65706074D01*
X134477370Y-65706072D01*
X134415198Y-65662538D01*
X134415186Y-65662531D01*
X134216955Y-65570096D01*
X134216950Y-65570094D01*
X134005697Y-65513489D01*
X134005691Y-65513488D01*
X133787800Y-65494425D01*
X133569908Y-65513488D01*
X133569902Y-65513489D01*
X133358649Y-65570094D01*
X133358644Y-65570095D01*
X133160416Y-65662531D01*
X133160414Y-65662532D01*
X133098228Y-65706074D01*
X133703298Y-66311144D01*
X133616036Y-66334526D01*
X133514564Y-66393111D01*
X133431711Y-66475964D01*
X133373126Y-66577436D01*
X133349744Y-66664698D01*
X132744674Y-66059628D01*
X132701132Y-66121814D01*
X132701131Y-66121816D01*
X132608695Y-66320044D01*
X132608694Y-66320049D01*
X132552089Y-66531302D01*
X132552088Y-66531308D01*
X132533025Y-66749200D01*
X120135300Y-66749200D01*
X120135300Y-65479200D01*
X137842698Y-65479200D01*
X137863075Y-65738117D01*
X137923703Y-65990653D01*
X138023094Y-66230604D01*
X138023096Y-66230607D01*
X138158787Y-66452034D01*
X138158796Y-66452047D01*
X138164601Y-66458844D01*
X138793433Y-65830012D01*
X138802142Y-65851037D01*
X138888051Y-65979608D01*
X138997392Y-66088949D01*
X139125963Y-66174858D01*
X139146986Y-66183566D01*
X138518154Y-66812398D01*
X138524949Y-66818201D01*
X138524961Y-66818210D01*
X138746392Y-66953903D01*
X138746395Y-66953905D01*
X138986346Y-67053296D01*
X139238882Y-67113924D01*
X139497800Y-67134301D01*
X139756717Y-67113924D01*
X140009253Y-67053296D01*
X140249204Y-66953905D01*
X140249207Y-66953903D01*
X140470645Y-66818205D01*
X140470647Y-66818204D01*
X140477444Y-66812398D01*
X140477445Y-66812398D01*
X139848613Y-66183566D01*
X139869637Y-66174858D01*
X139998208Y-66088949D01*
X140107549Y-65979608D01*
X140193458Y-65851037D01*
X140202166Y-65830013D01*
X140830998Y-66458845D01*
X140830998Y-66458844D01*
X140836804Y-66452047D01*
X140836805Y-66452045D01*
X140972503Y-66230607D01*
X140972505Y-66230604D01*
X141071896Y-65990653D01*
X141132524Y-65738117D01*
X141152901Y-65479200D01*
X141132524Y-65220282D01*
X141071896Y-64967746D01*
X140972505Y-64727795D01*
X140972503Y-64727792D01*
X140836810Y-64506361D01*
X140836801Y-64506349D01*
X140830998Y-64499554D01*
X140202166Y-65128385D01*
X140193458Y-65107363D01*
X140107549Y-64978792D01*
X139998208Y-64869451D01*
X139869637Y-64783542D01*
X139848611Y-64774833D01*
X140477444Y-64146001D01*
X140470647Y-64140196D01*
X140470634Y-64140187D01*
X140249207Y-64004496D01*
X140249204Y-64004494D01*
X140009253Y-63905103D01*
X139756717Y-63844475D01*
X139497800Y-63824098D01*
X139238882Y-63844475D01*
X138986346Y-63905103D01*
X138746395Y-64004494D01*
X138746392Y-64004496D01*
X138524959Y-64140190D01*
X138524957Y-64140192D01*
X138518154Y-64146001D01*
X139146986Y-64774833D01*
X139125963Y-64783542D01*
X138997392Y-64869451D01*
X138888051Y-64978792D01*
X138802142Y-65107363D01*
X138793433Y-65128386D01*
X138164601Y-64499554D01*
X138158792Y-64506357D01*
X138158790Y-64506359D01*
X138023096Y-64727792D01*
X138023094Y-64727795D01*
X137923703Y-64967746D01*
X137863075Y-65220282D01*
X137842698Y-65479200D01*
X120135300Y-65479200D01*
X120135300Y-64202688D01*
X120135299Y-64202687D01*
X120104600Y-64088117D01*
X120104599Y-64088115D01*
X120104599Y-64088114D01*
X120079531Y-64044696D01*
X120045289Y-63985386D01*
X119555014Y-63495111D01*
X119468740Y-63445300D01*
X119452288Y-63435801D01*
X119452286Y-63435800D01*
X119428073Y-63429313D01*
X119397317Y-63421072D01*
X119337711Y-63405100D01*
X119337709Y-63405100D01*
X119078899Y-63405100D01*
X119044251Y-63390748D01*
X118764525Y-63111022D01*
X118750173Y-63076374D01*
X118764525Y-63041726D01*
X118776071Y-63033162D01*
X118874250Y-62980685D01*
X119034210Y-62849410D01*
X119165485Y-62689450D01*
X119263032Y-62506954D01*
X119323100Y-62308934D01*
X119343383Y-62103000D01*
X119323100Y-61897066D01*
X119263032Y-61699046D01*
X119165485Y-61516550D01*
X119034210Y-61356590D01*
X118883921Y-61233252D01*
X119777300Y-61233252D01*
X119777300Y-62972748D01*
X119788933Y-63031231D01*
X119794463Y-63039507D01*
X119833247Y-63097552D01*
X119840952Y-63102700D01*
X119899569Y-63141867D01*
X119958052Y-63153500D01*
X120535101Y-63153500D01*
X120569749Y-63167852D01*
X120576586Y-63174689D01*
X120651784Y-63218105D01*
X120679311Y-63233998D01*
X120679313Y-63233999D01*
X120793887Y-63264698D01*
X120793888Y-63264699D01*
X120793891Y-63264699D01*
X120912512Y-63264699D01*
X120912512Y-63264698D01*
X121027087Y-63233999D01*
X121129814Y-63174689D01*
X121136651Y-63167852D01*
X121171299Y-63153500D01*
X121697545Y-63153500D01*
X121697548Y-63153500D01*
X121756031Y-63141867D01*
X121822352Y-63097552D01*
X121866667Y-63031231D01*
X121878300Y-62972748D01*
X121878300Y-61233252D01*
X121868195Y-61182452D01*
X124806500Y-61182452D01*
X124806500Y-62921948D01*
X124818133Y-62980431D01*
X124835882Y-63006995D01*
X124862447Y-63046752D01*
X124872325Y-63053352D01*
X124928769Y-63091067D01*
X124987252Y-63102700D01*
X124987255Y-63102700D01*
X126726745Y-63102700D01*
X126726748Y-63102700D01*
X126785231Y-63091067D01*
X126851552Y-63046752D01*
X126895867Y-62980431D01*
X126907500Y-62921948D01*
X126907500Y-61802199D01*
X127066363Y-61802199D01*
X127066364Y-61802200D01*
X127963988Y-61802200D01*
X127931075Y-61859207D01*
X127897000Y-61986374D01*
X127897000Y-62118026D01*
X127931075Y-62245193D01*
X127963988Y-62302200D01*
X127066363Y-62302200D01*
X127123566Y-62515683D01*
X127123568Y-62515688D01*
X127223398Y-62729777D01*
X127223405Y-62729789D01*
X127358885Y-62923272D01*
X127358891Y-62923279D01*
X127525920Y-63090308D01*
X127525927Y-63090314D01*
X127719410Y-63225794D01*
X127719422Y-63225801D01*
X127933511Y-63325631D01*
X127933516Y-63325633D01*
X128147000Y-63382834D01*
X128147000Y-62485212D01*
X128204007Y-62518125D01*
X128331174Y-62552200D01*
X128462826Y-62552200D01*
X128589993Y-62518125D01*
X128647000Y-62485212D01*
X128647000Y-63382834D01*
X128860483Y-63325633D01*
X128860488Y-63325631D01*
X129074577Y-63225801D01*
X129074589Y-63225794D01*
X129268072Y-63090314D01*
X129268079Y-63090308D01*
X129435108Y-62923279D01*
X129435114Y-62923272D01*
X129570594Y-62729789D01*
X129570601Y-62729777D01*
X129670431Y-62515688D01*
X129670433Y-62515683D01*
X129727636Y-62302200D01*
X128830012Y-62302200D01*
X128862925Y-62245193D01*
X128897000Y-62118026D01*
X128897000Y-61986374D01*
X128862925Y-61859207D01*
X128830012Y-61802200D01*
X129727636Y-61802200D01*
X129727636Y-61802199D01*
X129670433Y-61588716D01*
X129670432Y-61588711D01*
X129570601Y-61374623D01*
X129570594Y-61374611D01*
X129435114Y-61181127D01*
X129435108Y-61181120D01*
X129268079Y-61014091D01*
X129268072Y-61014085D01*
X129074589Y-60878605D01*
X129074577Y-60878598D01*
X128860488Y-60778768D01*
X128860483Y-60778766D01*
X128647000Y-60721563D01*
X128647000Y-61619188D01*
X128589993Y-61586275D01*
X128462826Y-61552200D01*
X128331174Y-61552200D01*
X128204007Y-61586275D01*
X128147000Y-61619188D01*
X128147000Y-60721563D01*
X128146999Y-60721563D01*
X127933516Y-60778766D01*
X127933511Y-60778767D01*
X127719423Y-60878598D01*
X127719411Y-60878605D01*
X127525927Y-61014085D01*
X127525920Y-61014091D01*
X127358891Y-61181120D01*
X127358885Y-61181127D01*
X127223405Y-61374611D01*
X127223398Y-61374623D01*
X127123567Y-61588711D01*
X127123566Y-61588716D01*
X127066363Y-61802199D01*
X126907500Y-61802199D01*
X126907500Y-61182452D01*
X126895867Y-61123969D01*
X126856388Y-61064885D01*
X126851552Y-61057647D01*
X126811795Y-61031082D01*
X126785231Y-61013333D01*
X126726748Y-61001700D01*
X124987252Y-61001700D01*
X124928769Y-61013333D01*
X124862447Y-61057647D01*
X124828504Y-61108448D01*
X124818133Y-61123969D01*
X124806500Y-61182452D01*
X121868195Y-61182452D01*
X121866667Y-61174769D01*
X121835262Y-61127769D01*
X121822352Y-61108447D01*
X121761369Y-61067700D01*
X121756031Y-61064133D01*
X121697548Y-61052500D01*
X119958052Y-61052500D01*
X119899569Y-61064133D01*
X119833247Y-61108447D01*
X119794268Y-61166784D01*
X119788933Y-61174769D01*
X119777300Y-61233252D01*
X118883921Y-61233252D01*
X118874250Y-61225315D01*
X118691754Y-61127768D01*
X118493734Y-61067700D01*
X118287800Y-61047417D01*
X118081865Y-61067700D01*
X118081864Y-61067700D01*
X117883843Y-61127769D01*
X117701348Y-61225316D01*
X117541390Y-61356590D01*
X117410116Y-61516548D01*
X117312569Y-61699043D01*
X117252500Y-61897064D01*
X117252500Y-61897065D01*
X117232217Y-62102999D01*
X116247800Y-62102999D01*
X116247800Y-62037174D01*
X116213725Y-61910007D01*
X116180812Y-61853000D01*
X117078436Y-61853000D01*
X117078436Y-61852999D01*
X117021233Y-61639516D01*
X117021232Y-61639511D01*
X116921401Y-61425423D01*
X116921394Y-61425411D01*
X116785914Y-61231927D01*
X116785908Y-61231920D01*
X116618879Y-61064891D01*
X116618872Y-61064885D01*
X116425389Y-60929405D01*
X116425377Y-60929398D01*
X116211288Y-60829568D01*
X116211283Y-60829566D01*
X115997800Y-60772363D01*
X115997800Y-61669988D01*
X115940793Y-61637075D01*
X115813626Y-61603000D01*
X115681974Y-61603000D01*
X115554807Y-61637075D01*
X115497800Y-61669988D01*
X115497800Y-60772363D01*
X115497799Y-60772363D01*
X115284316Y-60829566D01*
X115284311Y-60829567D01*
X115070223Y-60929398D01*
X115070211Y-60929405D01*
X114876727Y-61064885D01*
X114876720Y-61064891D01*
X114709691Y-61231920D01*
X114709685Y-61231927D01*
X114574205Y-61425411D01*
X114574198Y-61425423D01*
X114474367Y-61639511D01*
X114474366Y-61639516D01*
X114417163Y-61852999D01*
X102100500Y-61852999D01*
X102100500Y-58969500D01*
X102114852Y-58934852D01*
X102149500Y-58920500D01*
X142224076Y-58920500D01*
X142258724Y-58934852D01*
G37*
%TD.AperFunction*%
%TA.AperFunction,Conductor*%
G36*
X145269593Y-87816840D02*
G01*
X145269594Y-87816839D01*
X145298875Y-87783452D01*
X145462737Y-87538214D01*
X145507353Y-87447742D01*
X145535549Y-87423014D01*
X145572972Y-87425467D01*
X145597700Y-87453663D01*
X145600300Y-87469414D01*
X145600300Y-88350500D01*
X145585948Y-88385148D01*
X145551300Y-88399500D01*
X144745124Y-88399500D01*
X144710476Y-88385148D01*
X144696124Y-88350500D01*
X144710476Y-88315852D01*
X144717901Y-88309758D01*
X144882652Y-88199675D01*
X144916039Y-88170394D01*
X144916040Y-88170393D01*
X144092737Y-87347090D01*
X144226602Y-87249833D01*
X144349033Y-87127402D01*
X144446290Y-86993537D01*
X145269593Y-87816840D01*
G37*
%TD.AperFunction*%
%TA.AperFunction,Conductor*%
G36*
X145585948Y-58934852D02*
G01*
X145600300Y-58969500D01*
X145600300Y-59953598D01*
X145585948Y-59988246D01*
X145551300Y-60002598D01*
X145516652Y-59988246D01*
X145507353Y-59975270D01*
X145411937Y-59781785D01*
X145248075Y-59536547D01*
X145218794Y-59503159D01*
X145218793Y-59503158D01*
X144395489Y-60326461D01*
X144298233Y-60192598D01*
X144175802Y-60070167D01*
X144041936Y-59972908D01*
X144865240Y-59149605D01*
X144865239Y-59149604D01*
X144831852Y-59120324D01*
X144667101Y-59010242D01*
X144646266Y-58979060D01*
X144653582Y-58942277D01*
X144684764Y-58921442D01*
X144694324Y-58920500D01*
X145551300Y-58920500D01*
X145585948Y-58934852D01*
G37*
%TD.AperFunction*%
%TD*%
M02*
