%TF.GenerationSoftware,KiCad,Pcbnew,8.0.5*%
%TF.CreationDate,2024-10-10T08:51:45+02:00*%
%TF.ProjectId,USB-Extender_v1,5553422d-4578-4746-956e-6465725f7631,rev?*%
%TF.SameCoordinates,Original*%
%TF.FileFunction,Legend,Bot*%
%TF.FilePolarity,Positive*%
%FSLAX46Y46*%
G04 Gerber Fmt 4.6, Leading zero omitted, Abs format (unit mm)*
G04 Created by KiCad (PCBNEW 8.0.5) date 2024-10-10 08:51:45*
%MOMM*%
%LPD*%
G01*
G04 APERTURE LIST*
%ADD10C,0.150000*%
%ADD11C,0.000000*%
G04 APERTURE END LIST*
D10*
X138947142Y-59743219D02*
X138947142Y-60552742D01*
X138947142Y-60552742D02*
X138918571Y-60647980D01*
X138918571Y-60647980D02*
X138890000Y-60695600D01*
X138890000Y-60695600D02*
X138832857Y-60743219D01*
X138832857Y-60743219D02*
X138718571Y-60743219D01*
X138718571Y-60743219D02*
X138661428Y-60695600D01*
X138661428Y-60695600D02*
X138632857Y-60647980D01*
X138632857Y-60647980D02*
X138604285Y-60552742D01*
X138604285Y-60552742D02*
X138604285Y-59743219D01*
X138347143Y-60695600D02*
X138261429Y-60743219D01*
X138261429Y-60743219D02*
X138118571Y-60743219D01*
X138118571Y-60743219D02*
X138061429Y-60695600D01*
X138061429Y-60695600D02*
X138032857Y-60647980D01*
X138032857Y-60647980D02*
X138004286Y-60552742D01*
X138004286Y-60552742D02*
X138004286Y-60457504D01*
X138004286Y-60457504D02*
X138032857Y-60362266D01*
X138032857Y-60362266D02*
X138061429Y-60314647D01*
X138061429Y-60314647D02*
X138118571Y-60267028D01*
X138118571Y-60267028D02*
X138232857Y-60219409D01*
X138232857Y-60219409D02*
X138290000Y-60171790D01*
X138290000Y-60171790D02*
X138318571Y-60124171D01*
X138318571Y-60124171D02*
X138347143Y-60028933D01*
X138347143Y-60028933D02*
X138347143Y-59933695D01*
X138347143Y-59933695D02*
X138318571Y-59838457D01*
X138318571Y-59838457D02*
X138290000Y-59790838D01*
X138290000Y-59790838D02*
X138232857Y-59743219D01*
X138232857Y-59743219D02*
X138090000Y-59743219D01*
X138090000Y-59743219D02*
X138004286Y-59790838D01*
X137547142Y-60219409D02*
X137461428Y-60267028D01*
X137461428Y-60267028D02*
X137432857Y-60314647D01*
X137432857Y-60314647D02*
X137404285Y-60409885D01*
X137404285Y-60409885D02*
X137404285Y-60552742D01*
X137404285Y-60552742D02*
X137432857Y-60647980D01*
X137432857Y-60647980D02*
X137461428Y-60695600D01*
X137461428Y-60695600D02*
X137518571Y-60743219D01*
X137518571Y-60743219D02*
X137747142Y-60743219D01*
X137747142Y-60743219D02*
X137747142Y-59743219D01*
X137747142Y-59743219D02*
X137547142Y-59743219D01*
X137547142Y-59743219D02*
X137490000Y-59790838D01*
X137490000Y-59790838D02*
X137461428Y-59838457D01*
X137461428Y-59838457D02*
X137432857Y-59933695D01*
X137432857Y-59933695D02*
X137432857Y-60028933D01*
X137432857Y-60028933D02*
X137461428Y-60124171D01*
X137461428Y-60124171D02*
X137490000Y-60171790D01*
X137490000Y-60171790D02*
X137547142Y-60219409D01*
X137547142Y-60219409D02*
X137747142Y-60219409D01*
X137147142Y-60362266D02*
X136690000Y-60362266D01*
X136404285Y-60219409D02*
X136204285Y-60219409D01*
X136118571Y-60743219D02*
X136404285Y-60743219D01*
X136404285Y-60743219D02*
X136404285Y-59743219D01*
X136404285Y-59743219D02*
X136118571Y-59743219D01*
X135918571Y-60743219D02*
X135604286Y-60076552D01*
X135918571Y-60076552D02*
X135604286Y-60743219D01*
X135461429Y-60076552D02*
X135232857Y-60076552D01*
X135375714Y-59743219D02*
X135375714Y-60600361D01*
X135375714Y-60600361D02*
X135347143Y-60695600D01*
X135347143Y-60695600D02*
X135290000Y-60743219D01*
X135290000Y-60743219D02*
X135232857Y-60743219D01*
X134804286Y-60695600D02*
X134861429Y-60743219D01*
X134861429Y-60743219D02*
X134975715Y-60743219D01*
X134975715Y-60743219D02*
X135032857Y-60695600D01*
X135032857Y-60695600D02*
X135061429Y-60600361D01*
X135061429Y-60600361D02*
X135061429Y-60219409D01*
X135061429Y-60219409D02*
X135032857Y-60124171D01*
X135032857Y-60124171D02*
X134975715Y-60076552D01*
X134975715Y-60076552D02*
X134861429Y-60076552D01*
X134861429Y-60076552D02*
X134804286Y-60124171D01*
X134804286Y-60124171D02*
X134775715Y-60219409D01*
X134775715Y-60219409D02*
X134775715Y-60314647D01*
X134775715Y-60314647D02*
X135061429Y-60409885D01*
X134518571Y-60076552D02*
X134518571Y-60743219D01*
X134518571Y-60171790D02*
X134490000Y-60124171D01*
X134490000Y-60124171D02*
X134432857Y-60076552D01*
X134432857Y-60076552D02*
X134347143Y-60076552D01*
X134347143Y-60076552D02*
X134290000Y-60124171D01*
X134290000Y-60124171D02*
X134261429Y-60219409D01*
X134261429Y-60219409D02*
X134261429Y-60743219D01*
X133718572Y-60743219D02*
X133718572Y-59743219D01*
X133718572Y-60695600D02*
X133775714Y-60743219D01*
X133775714Y-60743219D02*
X133890000Y-60743219D01*
X133890000Y-60743219D02*
X133947143Y-60695600D01*
X133947143Y-60695600D02*
X133975714Y-60647980D01*
X133975714Y-60647980D02*
X134004286Y-60552742D01*
X134004286Y-60552742D02*
X134004286Y-60267028D01*
X134004286Y-60267028D02*
X133975714Y-60171790D01*
X133975714Y-60171790D02*
X133947143Y-60124171D01*
X133947143Y-60124171D02*
X133890000Y-60076552D01*
X133890000Y-60076552D02*
X133775714Y-60076552D01*
X133775714Y-60076552D02*
X133718572Y-60124171D01*
X133204286Y-60695600D02*
X133261429Y-60743219D01*
X133261429Y-60743219D02*
X133375715Y-60743219D01*
X133375715Y-60743219D02*
X133432857Y-60695600D01*
X133432857Y-60695600D02*
X133461429Y-60600361D01*
X133461429Y-60600361D02*
X133461429Y-60219409D01*
X133461429Y-60219409D02*
X133432857Y-60124171D01*
X133432857Y-60124171D02*
X133375715Y-60076552D01*
X133375715Y-60076552D02*
X133261429Y-60076552D01*
X133261429Y-60076552D02*
X133204286Y-60124171D01*
X133204286Y-60124171D02*
X133175715Y-60219409D01*
X133175715Y-60219409D02*
X133175715Y-60314647D01*
X133175715Y-60314647D02*
X133461429Y-60409885D01*
X132918571Y-60743219D02*
X132918571Y-60076552D01*
X132918571Y-60267028D02*
X132890000Y-60171790D01*
X132890000Y-60171790D02*
X132861429Y-60124171D01*
X132861429Y-60124171D02*
X132804286Y-60076552D01*
X132804286Y-60076552D02*
X132747143Y-60076552D01*
X139790001Y-61353163D02*
X139675715Y-61353163D01*
X139675715Y-61353163D02*
X139618572Y-61400782D01*
X139618572Y-61400782D02*
X139561429Y-61496020D01*
X139561429Y-61496020D02*
X139532858Y-61686496D01*
X139532858Y-61686496D02*
X139532858Y-62019829D01*
X139532858Y-62019829D02*
X139561429Y-62210305D01*
X139561429Y-62210305D02*
X139618572Y-62305544D01*
X139618572Y-62305544D02*
X139675715Y-62353163D01*
X139675715Y-62353163D02*
X139790001Y-62353163D01*
X139790001Y-62353163D02*
X139847144Y-62305544D01*
X139847144Y-62305544D02*
X139904286Y-62210305D01*
X139904286Y-62210305D02*
X139932858Y-62019829D01*
X139932858Y-62019829D02*
X139932858Y-61686496D01*
X139932858Y-61686496D02*
X139904286Y-61496020D01*
X139904286Y-61496020D02*
X139847144Y-61400782D01*
X139847144Y-61400782D02*
X139790001Y-61353163D01*
X139275715Y-61829353D02*
X139075715Y-61829353D01*
X138990001Y-62353163D02*
X139275715Y-62353163D01*
X139275715Y-62353163D02*
X139275715Y-61353163D01*
X139275715Y-61353163D02*
X138990001Y-61353163D01*
X138704287Y-62353163D02*
X138590001Y-62353163D01*
X138590001Y-62353163D02*
X138532858Y-62305544D01*
X138532858Y-62305544D02*
X138504287Y-62257924D01*
X138504287Y-62257924D02*
X138447144Y-62115067D01*
X138447144Y-62115067D02*
X138418573Y-61924591D01*
X138418573Y-61924591D02*
X138418573Y-61543639D01*
X138418573Y-61543639D02*
X138447144Y-61448401D01*
X138447144Y-61448401D02*
X138475716Y-61400782D01*
X138475716Y-61400782D02*
X138532858Y-61353163D01*
X138532858Y-61353163D02*
X138647144Y-61353163D01*
X138647144Y-61353163D02*
X138704287Y-61400782D01*
X138704287Y-61400782D02*
X138732858Y-61448401D01*
X138732858Y-61448401D02*
X138761430Y-61543639D01*
X138761430Y-61543639D02*
X138761430Y-61781734D01*
X138761430Y-61781734D02*
X138732858Y-61876972D01*
X138732858Y-61876972D02*
X138704287Y-61924591D01*
X138704287Y-61924591D02*
X138647144Y-61972210D01*
X138647144Y-61972210D02*
X138532858Y-61972210D01*
X138532858Y-61972210D02*
X138475716Y-61924591D01*
X138475716Y-61924591D02*
X138447144Y-61876972D01*
X138447144Y-61876972D02*
X138418573Y-61781734D01*
X138190001Y-62305544D02*
X138104287Y-62353163D01*
X138104287Y-62353163D02*
X137961429Y-62353163D01*
X137961429Y-62353163D02*
X137904287Y-62305544D01*
X137904287Y-62305544D02*
X137875715Y-62257924D01*
X137875715Y-62257924D02*
X137847144Y-62162686D01*
X137847144Y-62162686D02*
X137847144Y-62067448D01*
X137847144Y-62067448D02*
X137875715Y-61972210D01*
X137875715Y-61972210D02*
X137904287Y-61924591D01*
X137904287Y-61924591D02*
X137961429Y-61876972D01*
X137961429Y-61876972D02*
X138075715Y-61829353D01*
X138075715Y-61829353D02*
X138132858Y-61781734D01*
X138132858Y-61781734D02*
X138161429Y-61734115D01*
X138161429Y-61734115D02*
X138190001Y-61638877D01*
X138190001Y-61638877D02*
X138190001Y-61543639D01*
X138190001Y-61543639D02*
X138161429Y-61448401D01*
X138161429Y-61448401D02*
X138132858Y-61400782D01*
X138132858Y-61400782D02*
X138075715Y-61353163D01*
X138075715Y-61353163D02*
X137932858Y-61353163D01*
X137932858Y-61353163D02*
X137847144Y-61400782D01*
X137618572Y-62067448D02*
X137332858Y-62067448D01*
X137675715Y-62353163D02*
X137475715Y-61353163D01*
X137475715Y-61353163D02*
X137275715Y-62353163D01*
X137075714Y-61353163D02*
X137075714Y-62162686D01*
X137075714Y-62162686D02*
X137047143Y-62257924D01*
X137047143Y-62257924D02*
X137018572Y-62305544D01*
X137018572Y-62305544D02*
X136961429Y-62353163D01*
X136961429Y-62353163D02*
X136847143Y-62353163D01*
X136847143Y-62353163D02*
X136790000Y-62305544D01*
X136790000Y-62305544D02*
X136761429Y-62257924D01*
X136761429Y-62257924D02*
X136732857Y-62162686D01*
X136732857Y-62162686D02*
X136732857Y-61353163D01*
X136047143Y-61686496D02*
X135904286Y-62353163D01*
X135904286Y-62353163D02*
X135761429Y-61686496D01*
X135218572Y-62353163D02*
X135561429Y-62353163D01*
X135390000Y-62353163D02*
X135390000Y-61353163D01*
X135390000Y-61353163D02*
X135447143Y-61496020D01*
X135447143Y-61496020D02*
X135504286Y-61591258D01*
X135504286Y-61591258D02*
X135561429Y-61638877D01*
X134190000Y-62353163D02*
X134532857Y-62353163D01*
X134361428Y-62353163D02*
X134361428Y-61353163D01*
X134361428Y-61353163D02*
X134418571Y-61496020D01*
X134418571Y-61496020D02*
X134475714Y-61591258D01*
X134475714Y-61591258D02*
X134532857Y-61638877D01*
X133818571Y-61353163D02*
X133761428Y-61353163D01*
X133761428Y-61353163D02*
X133704285Y-61400782D01*
X133704285Y-61400782D02*
X133675714Y-61448401D01*
X133675714Y-61448401D02*
X133647142Y-61543639D01*
X133647142Y-61543639D02*
X133618571Y-61734115D01*
X133618571Y-61734115D02*
X133618571Y-61972210D01*
X133618571Y-61972210D02*
X133647142Y-62162686D01*
X133647142Y-62162686D02*
X133675714Y-62257924D01*
X133675714Y-62257924D02*
X133704285Y-62305544D01*
X133704285Y-62305544D02*
X133761428Y-62353163D01*
X133761428Y-62353163D02*
X133818571Y-62353163D01*
X133818571Y-62353163D02*
X133875714Y-62305544D01*
X133875714Y-62305544D02*
X133904285Y-62257924D01*
X133904285Y-62257924D02*
X133932856Y-62162686D01*
X133932856Y-62162686D02*
X133961428Y-61972210D01*
X133961428Y-61972210D02*
X133961428Y-61734115D01*
X133961428Y-61734115D02*
X133932856Y-61543639D01*
X133932856Y-61543639D02*
X133904285Y-61448401D01*
X133904285Y-61448401D02*
X133875714Y-61400782D01*
X133875714Y-61400782D02*
X133818571Y-61353163D01*
X132932856Y-61305544D02*
X133447142Y-62591258D01*
X132761428Y-61448401D02*
X132732856Y-61400782D01*
X132732856Y-61400782D02*
X132675714Y-61353163D01*
X132675714Y-61353163D02*
X132532856Y-61353163D01*
X132532856Y-61353163D02*
X132475714Y-61400782D01*
X132475714Y-61400782D02*
X132447142Y-61448401D01*
X132447142Y-61448401D02*
X132418571Y-61543639D01*
X132418571Y-61543639D02*
X132418571Y-61638877D01*
X132418571Y-61638877D02*
X132447142Y-61781734D01*
X132447142Y-61781734D02*
X132789999Y-62353163D01*
X132789999Y-62353163D02*
X132418571Y-62353163D01*
X131904285Y-61686496D02*
X131904285Y-62353163D01*
X132047142Y-61305544D02*
X132189999Y-62019829D01*
X132189999Y-62019829D02*
X131818570Y-62019829D01*
D11*
%TO.C,g2*%
G36*
X127656201Y-77107678D02*
G01*
X127656201Y-77170750D01*
X127309305Y-77170750D01*
X126962409Y-77170750D01*
X126962409Y-77107678D01*
X126962409Y-77044606D01*
X127309305Y-77044606D01*
X127656201Y-77044606D01*
X127656201Y-77107678D01*
G37*
G36*
X127430944Y-77639285D02*
G01*
X127430944Y-77702357D01*
X127309305Y-77702357D01*
X127187666Y-77702357D01*
X127187666Y-77639285D01*
X127187666Y-77576213D01*
X127309305Y-77576213D01*
X127430944Y-77576213D01*
X127430944Y-77639285D01*
G37*
G36*
X127171030Y-77309060D02*
G01*
X127179217Y-77309600D01*
X127222725Y-77311683D01*
X127276711Y-77313371D01*
X127335091Y-77314502D01*
X127391782Y-77314914D01*
X127530057Y-77314914D01*
X127530057Y-77377986D01*
X127530057Y-77441058D01*
X127309305Y-77441058D01*
X127088553Y-77441058D01*
X127088553Y-77372132D01*
X127088553Y-77303206D01*
X127171030Y-77309060D01*
G37*
G36*
X127773335Y-76841801D02*
G01*
X127773335Y-76912221D01*
X127663797Y-76906331D01*
X127661669Y-76906220D01*
X127626257Y-76904896D01*
X127575821Y-76903680D01*
X127513131Y-76902607D01*
X127440959Y-76901712D01*
X127362076Y-76901029D01*
X127279253Y-76900594D01*
X127195262Y-76900441D01*
X126836265Y-76900441D01*
X126836265Y-76841874D01*
X126836265Y-76783307D01*
X127000703Y-76783293D01*
X127015910Y-76783270D01*
X127072248Y-76782952D01*
X127141439Y-76782300D01*
X127219609Y-76781362D01*
X127302882Y-76780188D01*
X127387384Y-76778828D01*
X127469238Y-76777330D01*
X127773335Y-76771381D01*
X127773335Y-76841801D01*
G37*
G36*
X129438898Y-72522179D02*
G01*
X129492369Y-72523324D01*
X129538870Y-72525197D01*
X129574736Y-72527792D01*
X129596303Y-72531102D01*
X129618791Y-72540103D01*
X129656708Y-72565336D01*
X129691196Y-72599200D01*
X129716378Y-72636534D01*
X129717469Y-72638855D01*
X129719348Y-72643808D01*
X129721070Y-72650292D01*
X129722641Y-72659058D01*
X129724069Y-72670855D01*
X129725361Y-72686432D01*
X129726523Y-72706539D01*
X129727562Y-72731925D01*
X129728486Y-72763340D01*
X129729300Y-72801533D01*
X129730012Y-72847253D01*
X129730629Y-72901251D01*
X129731157Y-72964276D01*
X129731603Y-73037077D01*
X129731975Y-73120404D01*
X129732278Y-73215005D01*
X129732520Y-73321632D01*
X129732708Y-73441032D01*
X129732847Y-73573956D01*
X129732947Y-73721154D01*
X129733012Y-73883373D01*
X129733050Y-74061365D01*
X129733068Y-74255879D01*
X129733072Y-74467664D01*
X129733072Y-76265216D01*
X129713422Y-76296752D01*
X129687958Y-76327392D01*
X129645668Y-76354023D01*
X129590148Y-76369139D01*
X129589432Y-76369246D01*
X129565162Y-76371374D01*
X129526747Y-76373085D01*
X129477889Y-76374286D01*
X129422290Y-76374885D01*
X129363651Y-76374789D01*
X129357059Y-76374735D01*
X129296512Y-76374091D01*
X129250864Y-76373115D01*
X129217262Y-76371527D01*
X129192856Y-76369047D01*
X129174792Y-76365396D01*
X129160219Y-76360294D01*
X129146285Y-76353461D01*
X129113589Y-76331951D01*
X129075010Y-76290394D01*
X129051366Y-76240028D01*
X129050484Y-76235348D01*
X129049182Y-76221432D01*
X129047984Y-76198994D01*
X129046885Y-76167442D01*
X129045882Y-76126180D01*
X129044972Y-76074615D01*
X129044150Y-76012154D01*
X129043413Y-75938203D01*
X129042757Y-75852168D01*
X129042177Y-75753456D01*
X129041671Y-75641472D01*
X129041235Y-75515624D01*
X129040865Y-75375317D01*
X129040556Y-75219958D01*
X129040306Y-75048953D01*
X129040110Y-74861709D01*
X129039964Y-74657632D01*
X129039866Y-74436128D01*
X129039280Y-72670111D01*
X129059292Y-72632689D01*
X129068908Y-72616833D01*
X129100991Y-72579110D01*
X129139625Y-72548597D01*
X129178940Y-72530317D01*
X129195216Y-72527623D01*
X129228583Y-72525022D01*
X129273298Y-72523184D01*
X129325698Y-72522102D01*
X129382119Y-72521770D01*
X129438898Y-72522179D01*
G37*
G36*
X125247313Y-72530457D02*
G01*
X125324972Y-72530730D01*
X125387022Y-72531669D01*
X125435483Y-72533623D01*
X125472373Y-72536936D01*
X125499713Y-72541957D01*
X125519521Y-72549033D01*
X125533818Y-72558510D01*
X125544622Y-72570735D01*
X125553953Y-72586056D01*
X125554497Y-72587089D01*
X125556388Y-72591490D01*
X125558126Y-72597431D01*
X125559718Y-72605661D01*
X125561172Y-72616929D01*
X125562496Y-72631984D01*
X125563698Y-72651575D01*
X125564786Y-72676452D01*
X125565768Y-72707364D01*
X125566651Y-72745059D01*
X125567444Y-72790287D01*
X125568154Y-72843797D01*
X125568790Y-72906338D01*
X125569358Y-72978660D01*
X125569868Y-73061510D01*
X125570326Y-73155639D01*
X125570742Y-73261796D01*
X125571122Y-73380730D01*
X125571475Y-73513189D01*
X125571808Y-73659923D01*
X125572130Y-73821681D01*
X125572448Y-73999213D01*
X125572770Y-74193266D01*
X125573104Y-74404592D01*
X125573372Y-74588914D01*
X125573627Y-74802349D01*
X125573792Y-74998692D01*
X125573865Y-75178458D01*
X125573845Y-75342163D01*
X125573729Y-75490322D01*
X125573514Y-75623448D01*
X125573200Y-75742059D01*
X125572783Y-75846667D01*
X125572262Y-75937789D01*
X125571635Y-76015939D01*
X125570899Y-76081632D01*
X125570052Y-76135384D01*
X125569092Y-76177708D01*
X125568017Y-76209121D01*
X125566825Y-76230136D01*
X125565514Y-76241270D01*
X125559338Y-76262389D01*
X125534985Y-76307123D01*
X125499606Y-76343498D01*
X125457266Y-76366801D01*
X125439781Y-76369778D01*
X125406821Y-76372038D01*
X125362257Y-76373422D01*
X125309382Y-76373982D01*
X125251487Y-76373771D01*
X125191862Y-76372842D01*
X125133798Y-76371246D01*
X125080586Y-76369036D01*
X125035518Y-76366265D01*
X125001883Y-76362984D01*
X124982974Y-76359247D01*
X124980695Y-76358332D01*
X124956092Y-76344394D01*
X124932037Y-76325462D01*
X124928962Y-76322687D01*
X124923245Y-76318071D01*
X124918000Y-76313994D01*
X124913206Y-76309712D01*
X124908843Y-76304484D01*
X124904890Y-76297567D01*
X124901328Y-76288218D01*
X124898136Y-76275697D01*
X124895294Y-76259259D01*
X124892783Y-76238164D01*
X124890581Y-76211667D01*
X124888668Y-76179028D01*
X124887026Y-76139504D01*
X124885632Y-76092352D01*
X124884468Y-76036830D01*
X124883513Y-75972196D01*
X124882746Y-75897707D01*
X124882148Y-75812621D01*
X124881699Y-75716196D01*
X124881378Y-75607689D01*
X124881166Y-75486358D01*
X124881041Y-75351461D01*
X124880984Y-75202254D01*
X124880975Y-75037997D01*
X124880994Y-74857946D01*
X124881020Y-74661359D01*
X124881033Y-74447495D01*
X124881033Y-72642394D01*
X124901306Y-72602857D01*
X124907091Y-72591824D01*
X124917849Y-72574085D01*
X124930066Y-72560138D01*
X124945812Y-72549529D01*
X124967158Y-72541802D01*
X124996173Y-72536501D01*
X125034928Y-72533171D01*
X125085492Y-72531357D01*
X125149936Y-72530602D01*
X125230330Y-72530452D01*
X125247313Y-72530457D01*
G37*
G36*
X127445509Y-69733287D02*
G01*
X127543544Y-69736685D01*
X127631617Y-69742078D01*
X127705758Y-69749485D01*
X127819123Y-69765375D01*
X128043755Y-69805674D01*
X128263431Y-69857472D01*
X128480892Y-69921621D01*
X128698880Y-69998970D01*
X128920136Y-70090371D01*
X129147404Y-70196674D01*
X129231507Y-70238679D01*
X129312313Y-70280509D01*
X129381566Y-70318356D01*
X129441942Y-70353798D01*
X129496117Y-70388410D01*
X129546766Y-70423772D01*
X129596564Y-70461461D01*
X129621860Y-70481590D01*
X129759610Y-70603314D01*
X129884010Y-70734651D01*
X129994322Y-70874482D01*
X130089805Y-71021686D01*
X130169721Y-71175144D01*
X130233329Y-71333734D01*
X130279890Y-71496337D01*
X130281113Y-71501704D01*
X130284783Y-71518899D01*
X130287947Y-71536490D01*
X130290655Y-71555944D01*
X130292963Y-71578731D01*
X130294923Y-71606319D01*
X130296587Y-71640177D01*
X130298009Y-71681774D01*
X130299241Y-71732579D01*
X130300338Y-71794061D01*
X130301351Y-71867687D01*
X130302333Y-71954927D01*
X130303339Y-72057250D01*
X130304420Y-72176124D01*
X130309731Y-72772382D01*
X130415655Y-72840098D01*
X130472907Y-72877936D01*
X130613970Y-72983525D01*
X130741268Y-73098328D01*
X130856982Y-73224244D01*
X130881354Y-73253928D01*
X130989847Y-73402654D01*
X131082492Y-73558865D01*
X131159151Y-73721436D01*
X131219690Y-73889244D01*
X131263970Y-74061165D01*
X131291856Y-74236077D01*
X131303211Y-74412856D01*
X131297900Y-74590379D01*
X131275784Y-74767521D01*
X131236729Y-74943161D01*
X131180598Y-75116173D01*
X131107254Y-75285436D01*
X131042039Y-75408182D01*
X130949405Y-75553732D01*
X130845291Y-75687528D01*
X130728253Y-75811217D01*
X130596842Y-75926448D01*
X130449612Y-76034871D01*
X130355777Y-76098526D01*
X130069343Y-76098526D01*
X129782908Y-76098526D01*
X129780516Y-73861722D01*
X129778124Y-71624918D01*
X129749387Y-71542434D01*
X129744992Y-71530099D01*
X129726944Y-71483174D01*
X129707267Y-71436392D01*
X129689500Y-71398269D01*
X129672644Y-71366141D01*
X129600644Y-71248591D01*
X129514054Y-71132333D01*
X129415474Y-71019970D01*
X129307506Y-70914105D01*
X129192751Y-70817342D01*
X129073812Y-70732283D01*
X128953289Y-70661534D01*
X128947159Y-70658367D01*
X128882144Y-70627071D01*
X128803248Y-70592465D01*
X128713637Y-70555810D01*
X128616478Y-70518367D01*
X128514939Y-70481396D01*
X128412187Y-70446158D01*
X128328266Y-70418916D01*
X128167567Y-70370766D01*
X128016836Y-70331651D01*
X127872674Y-70300980D01*
X127731683Y-70278157D01*
X127590462Y-70262590D01*
X127445614Y-70253686D01*
X127293738Y-70250849D01*
X127161521Y-70252980D01*
X127034075Y-70260081D01*
X126910916Y-70272811D01*
X126786968Y-70291826D01*
X126657155Y-70317783D01*
X126516400Y-70351337D01*
X126470353Y-70363419D01*
X126368598Y-70392384D01*
X126260848Y-70425716D01*
X126150469Y-70462217D01*
X126040827Y-70500688D01*
X125935287Y-70539931D01*
X125837215Y-70578746D01*
X125749977Y-70615935D01*
X125676939Y-70650299D01*
X125669780Y-70653922D01*
X125548736Y-70723213D01*
X125431034Y-70805265D01*
X125318475Y-70898077D01*
X125212854Y-70999647D01*
X125115969Y-71107975D01*
X125029620Y-71221060D01*
X124955602Y-71336900D01*
X124895714Y-71453494D01*
X124851755Y-71568841D01*
X124831555Y-71633928D01*
X124829123Y-73866227D01*
X124826691Y-76098526D01*
X124540257Y-76098526D01*
X124253823Y-76098526D01*
X124160079Y-76034933D01*
X124091839Y-75986713D01*
X123944290Y-75867473D01*
X123811325Y-75737845D01*
X123693211Y-75598286D01*
X123590215Y-75449255D01*
X123502604Y-75291210D01*
X123430645Y-75124608D01*
X123374604Y-74949908D01*
X123334749Y-74767568D01*
X123311345Y-74578046D01*
X123306402Y-74474403D01*
X123311932Y-74298785D01*
X123334384Y-74123025D01*
X123373265Y-73949140D01*
X123428085Y-73779150D01*
X123498352Y-73615072D01*
X123583576Y-73458925D01*
X123662167Y-73341715D01*
X123759858Y-73218634D01*
X123868132Y-73101813D01*
X123984045Y-72994182D01*
X124104654Y-72898671D01*
X124227018Y-72818211D01*
X124303112Y-72773425D01*
X124306766Y-72181151D01*
X124307162Y-72117582D01*
X124307883Y-72008161D01*
X124308593Y-71914498D01*
X124309344Y-71835107D01*
X124310188Y-71768500D01*
X124311175Y-71713188D01*
X124312359Y-71667683D01*
X124313790Y-71630498D01*
X124315521Y-71600144D01*
X124317602Y-71575135D01*
X124320086Y-71553981D01*
X124323025Y-71535195D01*
X124326469Y-71517288D01*
X124330471Y-71498774D01*
X124349220Y-71423546D01*
X124401941Y-71265209D01*
X124471278Y-71110807D01*
X124556353Y-70961654D01*
X124656285Y-70819063D01*
X124770196Y-70684349D01*
X124897206Y-70558826D01*
X125036435Y-70443809D01*
X125066801Y-70421357D01*
X125120731Y-70383806D01*
X125177469Y-70347531D01*
X125239796Y-70310926D01*
X125310491Y-70272387D01*
X125392336Y-70230309D01*
X125488109Y-70183088D01*
X125591632Y-70133972D01*
X125808006Y-70039285D01*
X126019131Y-69958374D01*
X126228065Y-69890287D01*
X126437867Y-69834078D01*
X126651594Y-69788795D01*
X126872306Y-69753491D01*
X126944942Y-69745558D01*
X127033200Y-69739266D01*
X127131358Y-69734874D01*
X127235444Y-69732401D01*
X127341485Y-69731866D01*
X127445509Y-69733287D01*
G37*
G36*
X127797419Y-71270379D02*
G01*
X127761736Y-71336037D01*
X127721946Y-71409077D01*
X127678841Y-71488036D01*
X127633217Y-71571451D01*
X127385893Y-72023200D01*
X127385893Y-72572830D01*
X127385893Y-73122460D01*
X127456816Y-73127929D01*
X127527768Y-73136091D01*
X127612186Y-73153258D01*
X127688106Y-73177164D01*
X127752485Y-73206809D01*
X127802280Y-73241198D01*
X127840345Y-73284916D01*
X127864405Y-73338657D01*
X127872414Y-73400537D01*
X127872168Y-73414388D01*
X127868621Y-73445548D01*
X127859160Y-73472742D01*
X127841622Y-73499615D01*
X127813844Y-73529810D01*
X127773664Y-73566973D01*
X127708540Y-73624851D01*
X127708989Y-73625141D01*
X127729675Y-73638515D01*
X127744608Y-73649054D01*
X127777346Y-73676589D01*
X127809951Y-73708656D01*
X127837553Y-73740292D01*
X127855280Y-73766533D01*
X127856863Y-73769795D01*
X127868078Y-73805359D01*
X127872448Y-73844243D01*
X127872441Y-73845685D01*
X127866102Y-73885166D01*
X127846917Y-73923469D01*
X127813429Y-73962758D01*
X127764180Y-74005201D01*
X127758920Y-74009297D01*
X127734212Y-74028861D01*
X127716831Y-74043164D01*
X127710745Y-74048897D01*
X127710263Y-74049351D01*
X127710895Y-74050217D01*
X127720903Y-74059524D01*
X127740555Y-74076549D01*
X127766577Y-74098437D01*
X127781827Y-74111393D01*
X127824101Y-74152123D01*
X127852129Y-74189148D01*
X127867660Y-74225190D01*
X127872448Y-74262972D01*
X127870066Y-74293315D01*
X127860985Y-74322654D01*
X127843143Y-74352104D01*
X127814489Y-74385001D01*
X127772972Y-74424678D01*
X127713833Y-74478402D01*
X127710776Y-74481179D01*
X127761600Y-74521725D01*
X127788558Y-74544685D01*
X127818181Y-74572833D01*
X127840183Y-74596897D01*
X127853548Y-74614925D01*
X127862884Y-74634195D01*
X127867013Y-74657657D01*
X127867943Y-74692206D01*
X127867483Y-74718205D01*
X127864307Y-74744943D01*
X127856455Y-74765516D01*
X127842022Y-74786874D01*
X127822666Y-74808651D01*
X127793965Y-74836081D01*
X127763189Y-74861948D01*
X127719115Y-74896175D01*
X127710276Y-74903039D01*
X127754754Y-74932991D01*
X127779594Y-74951464D01*
X127825777Y-74999128D01*
X127856652Y-75052712D01*
X127871569Y-75110221D01*
X127869880Y-75169660D01*
X127850938Y-75229033D01*
X127850586Y-75229773D01*
X127818978Y-75280283D01*
X127776017Y-75321910D01*
X127720596Y-75355180D01*
X127651603Y-75380617D01*
X127567930Y-75398748D01*
X127468467Y-75410096D01*
X127385893Y-75416329D01*
X127385893Y-75960159D01*
X127385893Y-76503989D01*
X127642686Y-76503989D01*
X127899479Y-76503989D01*
X127899479Y-76571566D01*
X127899479Y-76639143D01*
X127304800Y-76639143D01*
X126710121Y-76639143D01*
X126710121Y-76571566D01*
X126710121Y-76503989D01*
X126975924Y-76503989D01*
X127241728Y-76503989D01*
X127241728Y-75892700D01*
X127241728Y-75281411D01*
X127379135Y-75275488D01*
X127454612Y-75271009D01*
X127527461Y-75263189D01*
X127586006Y-75252211D01*
X127632155Y-75237704D01*
X127667816Y-75219295D01*
X127675923Y-75213600D01*
X127707719Y-75183160D01*
X127729290Y-75148633D01*
X127737260Y-75115085D01*
X127733141Y-75098173D01*
X127714663Y-75072407D01*
X127684494Y-75046771D01*
X127646104Y-75023614D01*
X127602964Y-75005285D01*
X127558545Y-74994134D01*
X127528689Y-74994330D01*
X127482918Y-75001583D01*
X127421934Y-75015793D01*
X127347646Y-75034095D01*
X127258435Y-75052903D01*
X127177961Y-75065521D01*
X127101788Y-75072610D01*
X127025481Y-75074829D01*
X126981366Y-75074492D01*
X126942261Y-75072901D01*
X126912625Y-75069478D01*
X126887841Y-75063655D01*
X126863296Y-75054865D01*
X126845318Y-75047194D01*
X126798170Y-75020540D01*
X126766673Y-74989452D01*
X126749066Y-74951730D01*
X126743588Y-74905173D01*
X126743624Y-74904663D01*
X126881316Y-74904663D01*
X126887380Y-74916370D01*
X126904429Y-74927411D01*
X126924591Y-74932379D01*
X126957980Y-74935876D01*
X126999250Y-74937132D01*
X127045524Y-74936394D01*
X127093922Y-74933909D01*
X127141569Y-74929924D01*
X127185584Y-74924689D01*
X127223091Y-74918448D01*
X127251211Y-74911451D01*
X127267067Y-74903944D01*
X127267780Y-74896175D01*
X127267303Y-74895754D01*
X127252303Y-74890382D01*
X127223170Y-74885176D01*
X127183505Y-74880495D01*
X127136910Y-74876699D01*
X127086984Y-74874145D01*
X127037330Y-74873195D01*
X126977515Y-74874180D01*
X126933012Y-74877494D01*
X126903218Y-74883462D01*
X126886523Y-74892410D01*
X126881316Y-74904663D01*
X126743624Y-74904663D01*
X126745582Y-74877120D01*
X126761059Y-74829002D01*
X126791683Y-74790315D01*
X126837247Y-74761172D01*
X126897546Y-74741685D01*
X126972373Y-74731967D01*
X127061522Y-74732129D01*
X127078518Y-74733076D01*
X127133124Y-74736930D01*
X127181340Y-74742140D01*
X127227873Y-74749546D01*
X127277429Y-74759988D01*
X127334715Y-74774305D01*
X127404438Y-74793338D01*
X127535611Y-74830014D01*
X127608001Y-74793617D01*
X127661397Y-74764673D01*
X127703182Y-74736892D01*
X127728671Y-74712778D01*
X127737294Y-74692776D01*
X127735743Y-74685476D01*
X127721060Y-74664863D01*
X127692686Y-74640440D01*
X127652842Y-74613963D01*
X127603747Y-74587187D01*
X127580919Y-74575990D01*
X127554994Y-74564627D01*
X127536398Y-74559807D01*
X127519866Y-74560421D01*
X127500128Y-74565359D01*
X127491244Y-74567941D01*
X127393872Y-74594969D01*
X127309210Y-74615680D01*
X127233664Y-74630701D01*
X127163640Y-74640656D01*
X127095543Y-74646170D01*
X127025778Y-74647869D01*
X126974789Y-74646367D01*
X126898041Y-74636536D01*
X126836712Y-74617492D01*
X126790729Y-74589184D01*
X126760016Y-74551557D01*
X126744498Y-74504559D01*
X126744342Y-74482386D01*
X126885573Y-74482386D01*
X126901042Y-74495909D01*
X126914918Y-74499935D01*
X126944454Y-74503942D01*
X126984352Y-74507046D01*
X127030478Y-74509123D01*
X127078698Y-74510050D01*
X127124881Y-74509703D01*
X127164894Y-74507959D01*
X127194603Y-74504693D01*
X127218173Y-74499223D01*
X127240843Y-74489383D01*
X127249380Y-74478402D01*
X127241887Y-74467762D01*
X127241343Y-74467432D01*
X127215579Y-74457634D01*
X127176649Y-74449524D01*
X127128962Y-74443341D01*
X127076929Y-74439327D01*
X127024958Y-74437724D01*
X126977459Y-74438773D01*
X126938842Y-74442715D01*
X126913518Y-74449792D01*
X126907768Y-74452838D01*
X126887773Y-74468182D01*
X126885573Y-74482386D01*
X126744342Y-74482386D01*
X126744102Y-74448137D01*
X126753376Y-74415029D01*
X126779670Y-74377264D01*
X126820719Y-74345636D01*
X126874958Y-74321278D01*
X126940822Y-74305329D01*
X126997967Y-74300554D01*
X127070027Y-74302111D01*
X127151298Y-74309842D01*
X127238034Y-74323271D01*
X127326491Y-74341923D01*
X127412923Y-74365322D01*
X127462929Y-74379342D01*
X127509806Y-74387922D01*
X127549921Y-74387640D01*
X127588360Y-74377753D01*
X127630211Y-74357517D01*
X127680562Y-74326188D01*
X127710967Y-74303686D01*
X127730550Y-74281058D01*
X127734552Y-74259464D01*
X127722600Y-74237205D01*
X127694321Y-74212581D01*
X127649342Y-74183890D01*
X127610694Y-74163106D01*
X127575556Y-74149667D01*
X127540560Y-74143836D01*
X127501485Y-74145378D01*
X127454110Y-74154057D01*
X127394213Y-74169638D01*
X127352060Y-74180995D01*
X127239816Y-74206332D01*
X127136390Y-74222319D01*
X127042887Y-74228968D01*
X126960415Y-74226293D01*
X126890077Y-74214306D01*
X126832980Y-74193021D01*
X126790230Y-74162450D01*
X126760049Y-74122090D01*
X126743756Y-74076439D01*
X126743249Y-74059176D01*
X126885858Y-74059176D01*
X126898538Y-74074012D01*
X126924738Y-74083673D01*
X126942609Y-74086629D01*
X126986070Y-74090914D01*
X127032639Y-74092294D01*
X127079968Y-74091106D01*
X127125709Y-74087687D01*
X127167514Y-74082373D01*
X127203037Y-74075501D01*
X127229930Y-74067407D01*
X127245845Y-74058427D01*
X127248434Y-74048897D01*
X127235351Y-74039156D01*
X127225205Y-74037075D01*
X127198988Y-74034455D01*
X127160704Y-74031963D01*
X127113638Y-74029807D01*
X127061073Y-74028192D01*
X127051021Y-74027959D01*
X126995495Y-74026916D01*
X126954977Y-74026799D01*
X126926868Y-74027769D01*
X126908572Y-74029989D01*
X126897491Y-74033623D01*
X126891027Y-74038832D01*
X126888757Y-74041907D01*
X126885858Y-74059176D01*
X126743249Y-74059176D01*
X126742392Y-74029952D01*
X126756046Y-73986135D01*
X126784807Y-73948497D01*
X126793436Y-73940948D01*
X126834640Y-73913915D01*
X126884050Y-73895635D01*
X126944559Y-73885286D01*
X127019061Y-73882048D01*
X127052618Y-73882394D01*
X127117701Y-73885331D01*
X127181862Y-73891769D01*
X127248642Y-73902315D01*
X127321585Y-73917579D01*
X127404233Y-73938170D01*
X127500128Y-73964695D01*
X127513041Y-73968137D01*
X127530257Y-73970422D01*
X127547596Y-73967688D01*
X127570333Y-73958814D01*
X127603747Y-73942678D01*
X127625992Y-73931163D01*
X127671356Y-73904300D01*
X127706507Y-73878497D01*
X127729227Y-73855507D01*
X127737294Y-73837088D01*
X127737242Y-73835702D01*
X127727402Y-73815428D01*
X127701256Y-73791390D01*
X127659836Y-73764379D01*
X127604177Y-73735184D01*
X127529627Y-73699336D01*
X127405950Y-73736331D01*
X127388095Y-73741640D01*
X127320196Y-73760907D01*
X127263101Y-73774970D01*
X127211847Y-73784636D01*
X127161471Y-73790714D01*
X127107010Y-73794011D01*
X127043502Y-73795336D01*
X126991881Y-73795083D01*
X126931998Y-73791815D01*
X126884690Y-73784430D01*
X126846893Y-73772142D01*
X126815545Y-73754165D01*
X126787582Y-73729715D01*
X126774179Y-73713949D01*
X126751523Y-73670198D01*
X126743837Y-73626160D01*
X126876224Y-73626160D01*
X126885077Y-73637354D01*
X126888221Y-73640059D01*
X126898874Y-73645249D01*
X126916261Y-73648923D01*
X126943204Y-73651389D01*
X126982524Y-73652954D01*
X127037041Y-73653927D01*
X127085054Y-73653939D01*
X127145668Y-73651969D01*
X127195520Y-73647874D01*
X127232806Y-73641884D01*
X127255722Y-73634229D01*
X127262461Y-73625141D01*
X127259907Y-73620676D01*
X127246952Y-73613884D01*
X127221934Y-73608290D01*
X127183366Y-73603684D01*
X127129758Y-73599856D01*
X127059621Y-73596596D01*
X127007541Y-73594775D01*
X126967035Y-73594019D01*
X126938524Y-73594654D01*
X126918927Y-73596869D01*
X126905161Y-73600856D01*
X126894143Y-73606804D01*
X126879624Y-73617356D01*
X126876224Y-73626160D01*
X126743837Y-73626160D01*
X126743161Y-73622286D01*
X126749474Y-73574699D01*
X126770839Y-73531928D01*
X126778980Y-73522211D01*
X126817555Y-73493086D01*
X126870501Y-73471882D01*
X126936384Y-73458640D01*
X127013769Y-73453403D01*
X127101223Y-73456212D01*
X127197311Y-73467108D01*
X127300599Y-73486134D01*
X127409653Y-73513332D01*
X127438821Y-73521165D01*
X127478424Y-73530681D01*
X127510861Y-73537191D01*
X127531087Y-73539604D01*
X127539614Y-73538754D01*
X127568723Y-73530186D01*
X127605206Y-73514458D01*
X127644015Y-73494125D01*
X127680100Y-73471742D01*
X127708412Y-73449866D01*
X127723441Y-73433812D01*
X127735820Y-73406648D01*
X127731100Y-73378182D01*
X127709301Y-73346163D01*
X127697103Y-73334228D01*
X127666928Y-73314509D01*
X127625924Y-73297867D01*
X127572665Y-73283965D01*
X127505722Y-73272464D01*
X127423667Y-73263028D01*
X127325073Y-73255318D01*
X127232718Y-73249331D01*
X127232718Y-72640199D01*
X127232718Y-72031067D01*
X126975924Y-71563999D01*
X126932744Y-71485403D01*
X126888863Y-71405407D01*
X126848376Y-71331469D01*
X126812040Y-71264978D01*
X126795811Y-71235205D01*
X126955786Y-71235205D01*
X126956183Y-71236100D01*
X126963240Y-71249491D01*
X126977825Y-71276040D01*
X126998769Y-71313655D01*
X127024901Y-71360243D01*
X127055055Y-71413710D01*
X127088059Y-71471966D01*
X127094670Y-71483601D01*
X127127392Y-71540932D01*
X127157281Y-71592891D01*
X127183133Y-71637413D01*
X127203745Y-71672433D01*
X127217910Y-71695887D01*
X127224426Y-71705711D01*
X127225858Y-71704921D01*
X127228178Y-71690186D01*
X127229835Y-71658662D01*
X127230808Y-71611158D01*
X127231076Y-71548482D01*
X127230616Y-71471443D01*
X127228212Y-71228465D01*
X127089749Y-71225972D01*
X127072318Y-71225680D01*
X127022946Y-71225252D01*
X126988777Y-71225842D01*
X126967641Y-71227597D01*
X126957367Y-71230668D01*
X126955786Y-71235205D01*
X126795811Y-71235205D01*
X126789681Y-71223960D01*
X127385893Y-71223960D01*
X127385893Y-71467238D01*
X127385893Y-71469722D01*
X127386033Y-71533625D01*
X127386130Y-71548482D01*
X127386410Y-71591115D01*
X127386989Y-71639870D01*
X127387734Y-71677570D01*
X127388610Y-71701892D01*
X127389582Y-71710516D01*
X127389987Y-71710186D01*
X127396801Y-71699720D01*
X127410690Y-71676287D01*
X127430338Y-71642239D01*
X127454432Y-71599930D01*
X127481660Y-71551713D01*
X127510706Y-71499942D01*
X127540257Y-71446970D01*
X127569000Y-71395151D01*
X127595621Y-71346839D01*
X127618806Y-71304386D01*
X127637241Y-71270146D01*
X127649614Y-71246472D01*
X127654609Y-71235719D01*
X127654727Y-71234998D01*
X127651160Y-71230514D01*
X127638239Y-71227359D01*
X127613799Y-71225343D01*
X127575677Y-71224274D01*
X127521707Y-71223960D01*
X127385893Y-71223960D01*
X126789681Y-71223960D01*
X126780613Y-71207325D01*
X126754850Y-71159898D01*
X126735511Y-71124086D01*
X126723352Y-71101280D01*
X126719131Y-71092869D01*
X126720387Y-71092603D01*
X126735523Y-71091916D01*
X126766625Y-71091272D01*
X126812196Y-71090680D01*
X126870742Y-71090150D01*
X126940767Y-71089694D01*
X127020777Y-71089321D01*
X127109276Y-71089042D01*
X127204770Y-71088867D01*
X127305764Y-71088806D01*
X127316794Y-71088806D01*
X127432624Y-71088833D01*
X127531811Y-71088930D01*
X127615621Y-71089131D01*
X127685319Y-71089469D01*
X127742172Y-71089978D01*
X127787445Y-71090692D01*
X127822405Y-71091645D01*
X127848317Y-71092870D01*
X127866447Y-71094400D01*
X127878062Y-71096270D01*
X127884426Y-71098513D01*
X127886806Y-71101163D01*
X127886469Y-71104254D01*
X127883224Y-71110825D01*
X127871898Y-71132326D01*
X127853293Y-71167061D01*
X127828203Y-71213566D01*
X127816590Y-71234998D01*
X127797419Y-71270379D01*
G37*
%TD*%
M02*
