M48
; DRILL file {KiCad 8.0.5} date 2024-10-10T08:08:47+0200
; FORMAT={-:-/ absolute / inch / decimal}
; #@! TF.CreationDate,2024-10-10T08:08:47+02:00
; #@! TF.GenerationSoftware,Kicad,Pcbnew,8.0.5
; #@! TF.FileFunction,Plated,1,2,PTH
FMAT,2
INCH
; #@! TA.AperFunction,Plated,PTH,ViaDrill
T1C0.0079
; #@! TA.AperFunction,Plated,PTH,ComponentDrill
T2C0.0350
; #@! TA.AperFunction,Plated,PTH,ComponentDrill
T3C0.0394
; #@! TA.AperFunction,Plated,PTH,ComponentDrill
T4C0.0618
; #@! TA.AperFunction,Plated,PTH,ComponentDrill
T5C0.0866
%
G90
G05
T1
X4.404Y-2.554
X4.465Y-2.829
X4.6582Y-2.7498
X4.694Y-2.81
X4.717Y-2.909
X5.069Y-3.457
X5.372Y-3.4705
T2
X5.2672Y-2.6279
X5.2672Y-2.7181
X5.2672Y-3.0779
X5.2672Y-3.1681
X5.457Y-2.7978
X5.457Y-2.8778
X5.457Y-2.9578
X5.457Y-3.0378
X5.5271Y-2.7578
X5.5271Y-2.8378
X5.5271Y-2.9178
X5.5271Y-2.9978
T3
X4.3472Y-3.06
X4.3472Y-3.16
X4.3472Y-3.26
X4.3472Y-3.36
X4.557Y-2.445
X4.5582Y-2.592
X4.657Y-2.445
X4.6582Y-2.592
X4.757Y-2.445
X4.955Y-2.443
X5.055Y-2.443
T4
X5.492Y-2.5779
X5.492Y-3.2181
T5
X4.207Y-2.889
X5.648Y-2.398
X5.65Y-3.402
M30
