%TF.GenerationSoftware,KiCad,Pcbnew,8.0.5*%
%TF.CreationDate,2024-10-10T09:02:51+02:00*%
%TF.ProjectId,USB-Extender_v1,5553422d-4578-4746-956e-6465725f7631,rev?*%
%TF.SameCoordinates,Original*%
%TF.FileFunction,Drillmap*%
%TF.FilePolarity,Positive*%
%FSLAX45Y45*%
G04 Gerber Fmt 4.5, Leading zero omitted, Abs format (unit mm)*
G04 Created by KiCad (PCBNEW 8.0.5) date 2024-10-10 09:02:51*
%MOMM*%
%LPD*%
G01*
G04 APERTURE LIST*
%ADD10C,0.050000*%
%ADD11C,0.200000*%
%ADD12C,0.100000*%
%ADD13C,0.157000*%
%ADD14C,0.220000*%
G04 APERTURE END LIST*
D10*
X10160000Y-5842000D02*
X14610080Y-5842000D01*
X14610080Y-8890000D01*
X10160000Y-8890000D01*
X10160000Y-5842000D01*
D11*
D12*
X11171160Y-6472160D02*
X11201160Y-6502160D01*
X11201160Y-6472160D02*
X11171160Y-6502160D01*
X11326100Y-7170660D02*
X11356100Y-7200660D01*
X11356100Y-7170660D02*
X11326100Y-7200660D01*
X11813780Y-6970000D02*
X11843780Y-7000000D01*
X11843780Y-6970000D02*
X11813780Y-7000000D01*
X11907760Y-7122400D02*
X11937760Y-7152400D01*
X11937760Y-7122400D02*
X11907760Y-7152400D01*
X11966180Y-7373860D02*
X11996180Y-7403860D01*
X11996180Y-7373860D02*
X11966180Y-7403860D01*
X12860260Y-8765780D02*
X12890260Y-8795780D01*
X12890260Y-8765780D02*
X12860260Y-8795780D01*
X13629880Y-8800000D02*
X13659880Y-8830000D01*
X13659880Y-8800000D02*
X13629880Y-8830000D01*
X13423280Y-6674920D02*
G75*
G02*
X13334280Y-6674920I-44500J0D01*
G01*
X13334280Y-6674920D02*
G75*
G02*
X13423280Y-6674920I44500J0D01*
G01*
X13423280Y-6903920D02*
G75*
G02*
X13334280Y-6903920I-44500J0D01*
G01*
X13334280Y-6903920D02*
G75*
G02*
X13423280Y-6903920I44500J0D01*
G01*
X13423280Y-7817920D02*
G75*
G02*
X13334280Y-7817920I-44500J0D01*
G01*
X13334280Y-7817920D02*
G75*
G02*
X13423280Y-7817920I44500J0D01*
G01*
X13423280Y-8046920D02*
G75*
G02*
X13334280Y-8046920I-44500J0D01*
G01*
X13334280Y-8046920D02*
G75*
G02*
X13423280Y-8046920I44500J0D01*
G01*
X13905280Y-7106520D02*
G75*
G02*
X13816280Y-7106520I-44500J0D01*
G01*
X13816280Y-7106520D02*
G75*
G02*
X13905280Y-7106520I44500J0D01*
G01*
X13905280Y-7309720D02*
G75*
G02*
X13816280Y-7309720I-44500J0D01*
G01*
X13816280Y-7309720D02*
G75*
G02*
X13905280Y-7309720I44500J0D01*
G01*
X13905280Y-7512920D02*
G75*
G02*
X13816280Y-7512920I-44500J0D01*
G01*
X13816280Y-7512920D02*
G75*
G02*
X13905280Y-7512920I44500J0D01*
G01*
X13905280Y-7716120D02*
G75*
G02*
X13816280Y-7716120I-44500J0D01*
G01*
X13816280Y-7716120D02*
G75*
G02*
X13905280Y-7716120I44500J0D01*
G01*
X14083280Y-7004920D02*
G75*
G02*
X13994280Y-7004920I-44500J0D01*
G01*
X13994280Y-7004920D02*
G75*
G02*
X14083280Y-7004920I44500J0D01*
G01*
X14083280Y-7208120D02*
G75*
G02*
X13994280Y-7208120I-44500J0D01*
G01*
X13994280Y-7208120D02*
G75*
G02*
X14083280Y-7208120I44500J0D01*
G01*
X14083280Y-7411320D02*
G75*
G02*
X13994280Y-7411320I-44500J0D01*
G01*
X13994280Y-7411320D02*
G75*
G02*
X14083280Y-7411320I44500J0D01*
G01*
X14083280Y-7614520D02*
G75*
G02*
X13994280Y-7614520I-44500J0D01*
G01*
X13994280Y-7614520D02*
G75*
G02*
X14083280Y-7614520I44500J0D01*
G01*
X11042000Y-7722400D02*
X11042000Y-7822400D01*
X10992000Y-7772400D02*
X11092000Y-7772400D01*
X11042000Y-7976400D02*
X11042000Y-8076400D01*
X10992000Y-8026400D02*
X11092000Y-8026400D01*
X11042000Y-8230400D02*
X11042000Y-8330400D01*
X10992000Y-8280400D02*
X11092000Y-8280400D01*
X11042000Y-8484400D02*
X11042000Y-8584400D01*
X10992000Y-8534400D02*
X11092000Y-8534400D01*
X11574780Y-6160300D02*
X11574780Y-6260300D01*
X11524780Y-6210300D02*
X11624780Y-6210300D01*
X11577820Y-6533680D02*
X11577820Y-6633680D01*
X11527820Y-6583680D02*
X11627820Y-6583680D01*
X11828780Y-6160300D02*
X11828780Y-6260300D01*
X11778780Y-6210300D02*
X11878780Y-6210300D01*
X11831820Y-6533680D02*
X11831820Y-6633680D01*
X11781820Y-6583680D02*
X11881820Y-6583680D01*
X12082780Y-6160300D02*
X12082780Y-6260300D01*
X12032780Y-6210300D02*
X12132780Y-6210300D01*
X12585700Y-6155220D02*
X12585700Y-6255220D01*
X12535700Y-6205220D02*
X12635700Y-6205220D01*
X12839700Y-6155220D02*
X12839700Y-6255220D01*
X12789700Y-6205220D02*
X12889700Y-6205220D01*
D13*
X14005288Y-6603428D02*
X14005288Y-6492412D01*
X13894272Y-6492412D01*
X13894272Y-6603428D01*
X14005288Y-6603428D01*
X14005288Y-8229428D02*
X14005288Y-8118412D01*
X13894272Y-8118412D01*
X13894272Y-8229428D01*
X14005288Y-8229428D01*
D14*
X10685780Y-7448060D02*
X10795780Y-7338060D01*
X10685780Y-7228060D01*
X10575780Y-7338060D01*
X10685780Y-7448060D01*
X14345920Y-6200920D02*
X14455920Y-6090920D01*
X14345920Y-5980920D01*
X14235920Y-6090920D01*
X14345920Y-6200920D01*
X14351000Y-8751080D02*
X14461000Y-8641080D01*
X14351000Y-8531080D01*
X14241000Y-8641080D01*
X14351000Y-8751080D01*
D11*
X10418277Y-9203984D02*
X10418277Y-9003984D01*
X10418277Y-9003984D02*
X10465896Y-9003984D01*
X10465896Y-9003984D02*
X10494467Y-9013508D01*
X10494467Y-9013508D02*
X10513515Y-9032555D01*
X10513515Y-9032555D02*
X10523039Y-9051603D01*
X10523039Y-9051603D02*
X10532563Y-9089698D01*
X10532563Y-9089698D02*
X10532563Y-9118270D01*
X10532563Y-9118270D02*
X10523039Y-9156365D01*
X10523039Y-9156365D02*
X10513515Y-9175412D01*
X10513515Y-9175412D02*
X10494467Y-9194460D01*
X10494467Y-9194460D02*
X10465896Y-9203984D01*
X10465896Y-9203984D02*
X10418277Y-9203984D01*
X10618277Y-9203984D02*
X10618277Y-9070650D01*
X10618277Y-9108746D02*
X10627801Y-9089698D01*
X10627801Y-9089698D02*
X10637324Y-9080174D01*
X10637324Y-9080174D02*
X10656372Y-9070650D01*
X10656372Y-9070650D02*
X10675420Y-9070650D01*
X10742086Y-9203984D02*
X10742086Y-9070650D01*
X10742086Y-9003984D02*
X10732563Y-9013508D01*
X10732563Y-9013508D02*
X10742086Y-9023031D01*
X10742086Y-9023031D02*
X10751610Y-9013508D01*
X10751610Y-9013508D02*
X10742086Y-9003984D01*
X10742086Y-9003984D02*
X10742086Y-9023031D01*
X10865896Y-9203984D02*
X10846848Y-9194460D01*
X10846848Y-9194460D02*
X10837324Y-9175412D01*
X10837324Y-9175412D02*
X10837324Y-9003984D01*
X10970658Y-9203984D02*
X10951610Y-9194460D01*
X10951610Y-9194460D02*
X10942086Y-9175412D01*
X10942086Y-9175412D02*
X10942086Y-9003984D01*
X11199229Y-9203984D02*
X11199229Y-9003984D01*
X11199229Y-9003984D02*
X11265896Y-9146841D01*
X11265896Y-9146841D02*
X11332562Y-9003984D01*
X11332562Y-9003984D02*
X11332562Y-9203984D01*
X11513515Y-9203984D02*
X11513515Y-9099222D01*
X11513515Y-9099222D02*
X11503991Y-9080174D01*
X11503991Y-9080174D02*
X11484943Y-9070650D01*
X11484943Y-9070650D02*
X11446848Y-9070650D01*
X11446848Y-9070650D02*
X11427801Y-9080174D01*
X11513515Y-9194460D02*
X11494467Y-9203984D01*
X11494467Y-9203984D02*
X11446848Y-9203984D01*
X11446848Y-9203984D02*
X11427801Y-9194460D01*
X11427801Y-9194460D02*
X11418277Y-9175412D01*
X11418277Y-9175412D02*
X11418277Y-9156365D01*
X11418277Y-9156365D02*
X11427801Y-9137317D01*
X11427801Y-9137317D02*
X11446848Y-9127793D01*
X11446848Y-9127793D02*
X11494467Y-9127793D01*
X11494467Y-9127793D02*
X11513515Y-9118270D01*
X11608753Y-9070650D02*
X11608753Y-9270650D01*
X11608753Y-9080174D02*
X11627801Y-9070650D01*
X11627801Y-9070650D02*
X11665896Y-9070650D01*
X11665896Y-9070650D02*
X11684943Y-9080174D01*
X11684943Y-9080174D02*
X11694467Y-9089698D01*
X11694467Y-9089698D02*
X11703991Y-9108746D01*
X11703991Y-9108746D02*
X11703991Y-9165889D01*
X11703991Y-9165889D02*
X11694467Y-9184936D01*
X11694467Y-9184936D02*
X11684943Y-9194460D01*
X11684943Y-9194460D02*
X11665896Y-9203984D01*
X11665896Y-9203984D02*
X11627801Y-9203984D01*
X11627801Y-9203984D02*
X11608753Y-9194460D01*
X11789705Y-9184936D02*
X11799229Y-9194460D01*
X11799229Y-9194460D02*
X11789705Y-9203984D01*
X11789705Y-9203984D02*
X11780182Y-9194460D01*
X11780182Y-9194460D02*
X11789705Y-9184936D01*
X11789705Y-9184936D02*
X11789705Y-9203984D01*
X11789705Y-9080174D02*
X11799229Y-9089698D01*
X11799229Y-9089698D02*
X11789705Y-9099222D01*
X11789705Y-9099222D02*
X11780182Y-9089698D01*
X11780182Y-9089698D02*
X11789705Y-9080174D01*
X11789705Y-9080174D02*
X11789705Y-9099222D01*
D12*
X10127500Y-9517500D02*
X10157500Y-9547500D01*
X10157500Y-9517500D02*
X10127500Y-9547500D01*
D11*
X10456372Y-9423984D02*
X10475420Y-9423984D01*
X10475420Y-9423984D02*
X10494467Y-9433508D01*
X10494467Y-9433508D02*
X10503991Y-9443031D01*
X10503991Y-9443031D02*
X10513515Y-9462079D01*
X10513515Y-9462079D02*
X10523039Y-9500174D01*
X10523039Y-9500174D02*
X10523039Y-9547793D01*
X10523039Y-9547793D02*
X10513515Y-9585889D01*
X10513515Y-9585889D02*
X10503991Y-9604936D01*
X10503991Y-9604936D02*
X10494467Y-9614460D01*
X10494467Y-9614460D02*
X10475420Y-9623984D01*
X10475420Y-9623984D02*
X10456372Y-9623984D01*
X10456372Y-9623984D02*
X10437324Y-9614460D01*
X10437324Y-9614460D02*
X10427801Y-9604936D01*
X10427801Y-9604936D02*
X10418277Y-9585889D01*
X10418277Y-9585889D02*
X10408753Y-9547793D01*
X10408753Y-9547793D02*
X10408753Y-9500174D01*
X10408753Y-9500174D02*
X10418277Y-9462079D01*
X10418277Y-9462079D02*
X10427801Y-9443031D01*
X10427801Y-9443031D02*
X10437324Y-9433508D01*
X10437324Y-9433508D02*
X10456372Y-9423984D01*
X10608753Y-9604936D02*
X10618277Y-9614460D01*
X10618277Y-9614460D02*
X10608753Y-9623984D01*
X10608753Y-9623984D02*
X10599229Y-9614460D01*
X10599229Y-9614460D02*
X10608753Y-9604936D01*
X10608753Y-9604936D02*
X10608753Y-9623984D01*
X10684944Y-9423984D02*
X10808753Y-9423984D01*
X10808753Y-9423984D02*
X10742086Y-9500174D01*
X10742086Y-9500174D02*
X10770658Y-9500174D01*
X10770658Y-9500174D02*
X10789705Y-9509698D01*
X10789705Y-9509698D02*
X10799229Y-9519222D01*
X10799229Y-9519222D02*
X10808753Y-9538270D01*
X10808753Y-9538270D02*
X10808753Y-9585889D01*
X10808753Y-9585889D02*
X10799229Y-9604936D01*
X10799229Y-9604936D02*
X10789705Y-9614460D01*
X10789705Y-9614460D02*
X10770658Y-9623984D01*
X10770658Y-9623984D02*
X10713515Y-9623984D01*
X10713515Y-9623984D02*
X10694467Y-9614460D01*
X10694467Y-9614460D02*
X10684944Y-9604936D01*
X10932563Y-9423984D02*
X10951610Y-9423984D01*
X10951610Y-9423984D02*
X10970658Y-9433508D01*
X10970658Y-9433508D02*
X10980182Y-9443031D01*
X10980182Y-9443031D02*
X10989705Y-9462079D01*
X10989705Y-9462079D02*
X10999229Y-9500174D01*
X10999229Y-9500174D02*
X10999229Y-9547793D01*
X10999229Y-9547793D02*
X10989705Y-9585889D01*
X10989705Y-9585889D02*
X10980182Y-9604936D01*
X10980182Y-9604936D02*
X10970658Y-9614460D01*
X10970658Y-9614460D02*
X10951610Y-9623984D01*
X10951610Y-9623984D02*
X10932563Y-9623984D01*
X10932563Y-9623984D02*
X10913515Y-9614460D01*
X10913515Y-9614460D02*
X10903991Y-9604936D01*
X10903991Y-9604936D02*
X10894467Y-9585889D01*
X10894467Y-9585889D02*
X10884944Y-9547793D01*
X10884944Y-9547793D02*
X10884944Y-9500174D01*
X10884944Y-9500174D02*
X10894467Y-9462079D01*
X10894467Y-9462079D02*
X10903991Y-9443031D01*
X10903991Y-9443031D02*
X10913515Y-9433508D01*
X10913515Y-9433508D02*
X10932563Y-9423984D01*
X11123039Y-9423984D02*
X11142086Y-9423984D01*
X11142086Y-9423984D02*
X11161134Y-9433508D01*
X11161134Y-9433508D02*
X11170658Y-9443031D01*
X11170658Y-9443031D02*
X11180182Y-9462079D01*
X11180182Y-9462079D02*
X11189705Y-9500174D01*
X11189705Y-9500174D02*
X11189705Y-9547793D01*
X11189705Y-9547793D02*
X11180182Y-9585889D01*
X11180182Y-9585889D02*
X11170658Y-9604936D01*
X11170658Y-9604936D02*
X11161134Y-9614460D01*
X11161134Y-9614460D02*
X11142086Y-9623984D01*
X11142086Y-9623984D02*
X11123039Y-9623984D01*
X11123039Y-9623984D02*
X11103991Y-9614460D01*
X11103991Y-9614460D02*
X11094467Y-9604936D01*
X11094467Y-9604936D02*
X11084944Y-9585889D01*
X11084944Y-9585889D02*
X11075420Y-9547793D01*
X11075420Y-9547793D02*
X11075420Y-9500174D01*
X11075420Y-9500174D02*
X11084944Y-9462079D01*
X11084944Y-9462079D02*
X11094467Y-9443031D01*
X11094467Y-9443031D02*
X11103991Y-9433508D01*
X11103991Y-9433508D02*
X11123039Y-9423984D01*
X11275420Y-9623984D02*
X11275420Y-9490650D01*
X11275420Y-9509698D02*
X11284943Y-9500174D01*
X11284943Y-9500174D02*
X11303991Y-9490650D01*
X11303991Y-9490650D02*
X11332563Y-9490650D01*
X11332563Y-9490650D02*
X11351610Y-9500174D01*
X11351610Y-9500174D02*
X11361134Y-9519222D01*
X11361134Y-9519222D02*
X11361134Y-9623984D01*
X11361134Y-9519222D02*
X11370658Y-9500174D01*
X11370658Y-9500174D02*
X11389705Y-9490650D01*
X11389705Y-9490650D02*
X11418277Y-9490650D01*
X11418277Y-9490650D02*
X11437324Y-9500174D01*
X11437324Y-9500174D02*
X11446848Y-9519222D01*
X11446848Y-9519222D02*
X11446848Y-9623984D01*
X11542086Y-9623984D02*
X11542086Y-9490650D01*
X11542086Y-9509698D02*
X11551610Y-9500174D01*
X11551610Y-9500174D02*
X11570658Y-9490650D01*
X11570658Y-9490650D02*
X11599229Y-9490650D01*
X11599229Y-9490650D02*
X11618277Y-9500174D01*
X11618277Y-9500174D02*
X11627801Y-9519222D01*
X11627801Y-9519222D02*
X11627801Y-9623984D01*
X11627801Y-9519222D02*
X11637324Y-9500174D01*
X11637324Y-9500174D02*
X11656372Y-9490650D01*
X11656372Y-9490650D02*
X11684943Y-9490650D01*
X11684943Y-9490650D02*
X11703991Y-9500174D01*
X11703991Y-9500174D02*
X11713515Y-9519222D01*
X11713515Y-9519222D02*
X11713515Y-9623984D01*
X12103991Y-9414460D02*
X11932563Y-9671603D01*
X12361134Y-9423984D02*
X12380182Y-9423984D01*
X12380182Y-9423984D02*
X12399229Y-9433508D01*
X12399229Y-9433508D02*
X12408753Y-9443031D01*
X12408753Y-9443031D02*
X12418277Y-9462079D01*
X12418277Y-9462079D02*
X12427801Y-9500174D01*
X12427801Y-9500174D02*
X12427801Y-9547793D01*
X12427801Y-9547793D02*
X12418277Y-9585889D01*
X12418277Y-9585889D02*
X12408753Y-9604936D01*
X12408753Y-9604936D02*
X12399229Y-9614460D01*
X12399229Y-9614460D02*
X12380182Y-9623984D01*
X12380182Y-9623984D02*
X12361134Y-9623984D01*
X12361134Y-9623984D02*
X12342086Y-9614460D01*
X12342086Y-9614460D02*
X12332563Y-9604936D01*
X12332563Y-9604936D02*
X12323039Y-9585889D01*
X12323039Y-9585889D02*
X12313515Y-9547793D01*
X12313515Y-9547793D02*
X12313515Y-9500174D01*
X12313515Y-9500174D02*
X12323039Y-9462079D01*
X12323039Y-9462079D02*
X12332563Y-9443031D01*
X12332563Y-9443031D02*
X12342086Y-9433508D01*
X12342086Y-9433508D02*
X12361134Y-9423984D01*
X12513515Y-9604936D02*
X12523039Y-9614460D01*
X12523039Y-9614460D02*
X12513515Y-9623984D01*
X12513515Y-9623984D02*
X12503991Y-9614460D01*
X12503991Y-9614460D02*
X12513515Y-9604936D01*
X12513515Y-9604936D02*
X12513515Y-9623984D01*
X12646848Y-9423984D02*
X12665896Y-9423984D01*
X12665896Y-9423984D02*
X12684944Y-9433508D01*
X12684944Y-9433508D02*
X12694467Y-9443031D01*
X12694467Y-9443031D02*
X12703991Y-9462079D01*
X12703991Y-9462079D02*
X12713515Y-9500174D01*
X12713515Y-9500174D02*
X12713515Y-9547793D01*
X12713515Y-9547793D02*
X12703991Y-9585889D01*
X12703991Y-9585889D02*
X12694467Y-9604936D01*
X12694467Y-9604936D02*
X12684944Y-9614460D01*
X12684944Y-9614460D02*
X12665896Y-9623984D01*
X12665896Y-9623984D02*
X12646848Y-9623984D01*
X12646848Y-9623984D02*
X12627801Y-9614460D01*
X12627801Y-9614460D02*
X12618277Y-9604936D01*
X12618277Y-9604936D02*
X12608753Y-9585889D01*
X12608753Y-9585889D02*
X12599229Y-9547793D01*
X12599229Y-9547793D02*
X12599229Y-9500174D01*
X12599229Y-9500174D02*
X12608753Y-9462079D01*
X12608753Y-9462079D02*
X12618277Y-9443031D01*
X12618277Y-9443031D02*
X12627801Y-9433508D01*
X12627801Y-9433508D02*
X12646848Y-9423984D01*
X12903991Y-9623984D02*
X12789706Y-9623984D01*
X12846848Y-9623984D02*
X12846848Y-9423984D01*
X12846848Y-9423984D02*
X12827801Y-9452555D01*
X12827801Y-9452555D02*
X12808753Y-9471603D01*
X12808753Y-9471603D02*
X12789706Y-9481127D01*
X13094467Y-9623984D02*
X12980182Y-9623984D01*
X13037325Y-9623984D02*
X13037325Y-9423984D01*
X13037325Y-9423984D02*
X13018277Y-9452555D01*
X13018277Y-9452555D02*
X12999229Y-9471603D01*
X12999229Y-9471603D02*
X12980182Y-9481127D01*
X13208753Y-9509698D02*
X13189706Y-9500174D01*
X13189706Y-9500174D02*
X13180182Y-9490650D01*
X13180182Y-9490650D02*
X13170658Y-9471603D01*
X13170658Y-9471603D02*
X13170658Y-9462079D01*
X13170658Y-9462079D02*
X13180182Y-9443031D01*
X13180182Y-9443031D02*
X13189706Y-9433508D01*
X13189706Y-9433508D02*
X13208753Y-9423984D01*
X13208753Y-9423984D02*
X13246848Y-9423984D01*
X13246848Y-9423984D02*
X13265896Y-9433508D01*
X13265896Y-9433508D02*
X13275420Y-9443031D01*
X13275420Y-9443031D02*
X13284944Y-9462079D01*
X13284944Y-9462079D02*
X13284944Y-9471603D01*
X13284944Y-9471603D02*
X13275420Y-9490650D01*
X13275420Y-9490650D02*
X13265896Y-9500174D01*
X13265896Y-9500174D02*
X13246848Y-9509698D01*
X13246848Y-9509698D02*
X13208753Y-9509698D01*
X13208753Y-9509698D02*
X13189706Y-9519222D01*
X13189706Y-9519222D02*
X13180182Y-9528746D01*
X13180182Y-9528746D02*
X13170658Y-9547793D01*
X13170658Y-9547793D02*
X13170658Y-9585889D01*
X13170658Y-9585889D02*
X13180182Y-9604936D01*
X13180182Y-9604936D02*
X13189706Y-9614460D01*
X13189706Y-9614460D02*
X13208753Y-9623984D01*
X13208753Y-9623984D02*
X13246848Y-9623984D01*
X13246848Y-9623984D02*
X13265896Y-9614460D01*
X13265896Y-9614460D02*
X13275420Y-9604936D01*
X13275420Y-9604936D02*
X13284944Y-9585889D01*
X13284944Y-9585889D02*
X13284944Y-9547793D01*
X13284944Y-9547793D02*
X13275420Y-9528746D01*
X13275420Y-9528746D02*
X13265896Y-9519222D01*
X13265896Y-9519222D02*
X13246848Y-9509698D01*
X13361134Y-9423984D02*
X13361134Y-9462079D01*
X13437325Y-9423984D02*
X13437325Y-9462079D01*
X13732563Y-9700174D02*
X13723039Y-9690650D01*
X13723039Y-9690650D02*
X13703991Y-9662079D01*
X13703991Y-9662079D02*
X13694468Y-9643031D01*
X13694468Y-9643031D02*
X13684944Y-9614460D01*
X13684944Y-9614460D02*
X13675420Y-9566841D01*
X13675420Y-9566841D02*
X13675420Y-9528746D01*
X13675420Y-9528746D02*
X13684944Y-9481127D01*
X13684944Y-9481127D02*
X13694468Y-9452555D01*
X13694468Y-9452555D02*
X13703991Y-9433508D01*
X13703991Y-9433508D02*
X13723039Y-9404936D01*
X13723039Y-9404936D02*
X13732563Y-9395412D01*
X13789706Y-9423984D02*
X13923039Y-9423984D01*
X13923039Y-9423984D02*
X13837325Y-9623984D01*
X14151610Y-9623984D02*
X14151610Y-9423984D01*
X14237325Y-9623984D02*
X14237325Y-9519222D01*
X14237325Y-9519222D02*
X14227801Y-9500174D01*
X14227801Y-9500174D02*
X14208753Y-9490650D01*
X14208753Y-9490650D02*
X14180182Y-9490650D01*
X14180182Y-9490650D02*
X14161134Y-9500174D01*
X14161134Y-9500174D02*
X14151610Y-9509698D01*
X14361134Y-9623984D02*
X14342087Y-9614460D01*
X14342087Y-9614460D02*
X14332563Y-9604936D01*
X14332563Y-9604936D02*
X14323039Y-9585889D01*
X14323039Y-9585889D02*
X14323039Y-9528746D01*
X14323039Y-9528746D02*
X14332563Y-9509698D01*
X14332563Y-9509698D02*
X14342087Y-9500174D01*
X14342087Y-9500174D02*
X14361134Y-9490650D01*
X14361134Y-9490650D02*
X14389706Y-9490650D01*
X14389706Y-9490650D02*
X14408753Y-9500174D01*
X14408753Y-9500174D02*
X14418277Y-9509698D01*
X14418277Y-9509698D02*
X14427801Y-9528746D01*
X14427801Y-9528746D02*
X14427801Y-9585889D01*
X14427801Y-9585889D02*
X14418277Y-9604936D01*
X14418277Y-9604936D02*
X14408753Y-9614460D01*
X14408753Y-9614460D02*
X14389706Y-9623984D01*
X14389706Y-9623984D02*
X14361134Y-9623984D01*
X14542087Y-9623984D02*
X14523039Y-9614460D01*
X14523039Y-9614460D02*
X14513515Y-9595412D01*
X14513515Y-9595412D02*
X14513515Y-9423984D01*
X14694468Y-9614460D02*
X14675420Y-9623984D01*
X14675420Y-9623984D02*
X14637325Y-9623984D01*
X14637325Y-9623984D02*
X14618277Y-9614460D01*
X14618277Y-9614460D02*
X14608753Y-9595412D01*
X14608753Y-9595412D02*
X14608753Y-9519222D01*
X14608753Y-9519222D02*
X14618277Y-9500174D01*
X14618277Y-9500174D02*
X14637325Y-9490650D01*
X14637325Y-9490650D02*
X14675420Y-9490650D01*
X14675420Y-9490650D02*
X14694468Y-9500174D01*
X14694468Y-9500174D02*
X14703991Y-9519222D01*
X14703991Y-9519222D02*
X14703991Y-9538270D01*
X14703991Y-9538270D02*
X14608753Y-9557317D01*
X14780182Y-9614460D02*
X14799230Y-9623984D01*
X14799230Y-9623984D02*
X14837325Y-9623984D01*
X14837325Y-9623984D02*
X14856372Y-9614460D01*
X14856372Y-9614460D02*
X14865896Y-9595412D01*
X14865896Y-9595412D02*
X14865896Y-9585889D01*
X14865896Y-9585889D02*
X14856372Y-9566841D01*
X14856372Y-9566841D02*
X14837325Y-9557317D01*
X14837325Y-9557317D02*
X14808753Y-9557317D01*
X14808753Y-9557317D02*
X14789706Y-9547793D01*
X14789706Y-9547793D02*
X14780182Y-9528746D01*
X14780182Y-9528746D02*
X14780182Y-9519222D01*
X14780182Y-9519222D02*
X14789706Y-9500174D01*
X14789706Y-9500174D02*
X14808753Y-9490650D01*
X14808753Y-9490650D02*
X14837325Y-9490650D01*
X14837325Y-9490650D02*
X14856372Y-9500174D01*
X14932563Y-9700174D02*
X14942087Y-9690650D01*
X14942087Y-9690650D02*
X14961134Y-9662079D01*
X14961134Y-9662079D02*
X14970658Y-9643031D01*
X14970658Y-9643031D02*
X14980182Y-9614460D01*
X14980182Y-9614460D02*
X14989706Y-9566841D01*
X14989706Y-9566841D02*
X14989706Y-9528746D01*
X14989706Y-9528746D02*
X14980182Y-9481127D01*
X14980182Y-9481127D02*
X14970658Y-9452555D01*
X14970658Y-9452555D02*
X14961134Y-9433508D01*
X14961134Y-9433508D02*
X14942087Y-9404936D01*
X14942087Y-9404936D02*
X14932563Y-9395412D01*
D12*
X10157500Y-9796500D02*
G75*
G02*
X10068500Y-9796500I-44500J0D01*
G01*
X10068500Y-9796500D02*
G75*
G02*
X10157500Y-9796500I44500J0D01*
G01*
D11*
X10456372Y-9687984D02*
X10475420Y-9687984D01*
X10475420Y-9687984D02*
X10494467Y-9697508D01*
X10494467Y-9697508D02*
X10503991Y-9707031D01*
X10503991Y-9707031D02*
X10513515Y-9726079D01*
X10513515Y-9726079D02*
X10523039Y-9764174D01*
X10523039Y-9764174D02*
X10523039Y-9811793D01*
X10523039Y-9811793D02*
X10513515Y-9849889D01*
X10513515Y-9849889D02*
X10503991Y-9868936D01*
X10503991Y-9868936D02*
X10494467Y-9878460D01*
X10494467Y-9878460D02*
X10475420Y-9887984D01*
X10475420Y-9887984D02*
X10456372Y-9887984D01*
X10456372Y-9887984D02*
X10437324Y-9878460D01*
X10437324Y-9878460D02*
X10427801Y-9868936D01*
X10427801Y-9868936D02*
X10418277Y-9849889D01*
X10418277Y-9849889D02*
X10408753Y-9811793D01*
X10408753Y-9811793D02*
X10408753Y-9764174D01*
X10408753Y-9764174D02*
X10418277Y-9726079D01*
X10418277Y-9726079D02*
X10427801Y-9707031D01*
X10427801Y-9707031D02*
X10437324Y-9697508D01*
X10437324Y-9697508D02*
X10456372Y-9687984D01*
X10608753Y-9868936D02*
X10618277Y-9878460D01*
X10618277Y-9878460D02*
X10608753Y-9887984D01*
X10608753Y-9887984D02*
X10599229Y-9878460D01*
X10599229Y-9878460D02*
X10608753Y-9868936D01*
X10608753Y-9868936D02*
X10608753Y-9887984D01*
X10732563Y-9773698D02*
X10713515Y-9764174D01*
X10713515Y-9764174D02*
X10703991Y-9754650D01*
X10703991Y-9754650D02*
X10694467Y-9735603D01*
X10694467Y-9735603D02*
X10694467Y-9726079D01*
X10694467Y-9726079D02*
X10703991Y-9707031D01*
X10703991Y-9707031D02*
X10713515Y-9697508D01*
X10713515Y-9697508D02*
X10732563Y-9687984D01*
X10732563Y-9687984D02*
X10770658Y-9687984D01*
X10770658Y-9687984D02*
X10789705Y-9697508D01*
X10789705Y-9697508D02*
X10799229Y-9707031D01*
X10799229Y-9707031D02*
X10808753Y-9726079D01*
X10808753Y-9726079D02*
X10808753Y-9735603D01*
X10808753Y-9735603D02*
X10799229Y-9754650D01*
X10799229Y-9754650D02*
X10789705Y-9764174D01*
X10789705Y-9764174D02*
X10770658Y-9773698D01*
X10770658Y-9773698D02*
X10732563Y-9773698D01*
X10732563Y-9773698D02*
X10713515Y-9783222D01*
X10713515Y-9783222D02*
X10703991Y-9792746D01*
X10703991Y-9792746D02*
X10694467Y-9811793D01*
X10694467Y-9811793D02*
X10694467Y-9849889D01*
X10694467Y-9849889D02*
X10703991Y-9868936D01*
X10703991Y-9868936D02*
X10713515Y-9878460D01*
X10713515Y-9878460D02*
X10732563Y-9887984D01*
X10732563Y-9887984D02*
X10770658Y-9887984D01*
X10770658Y-9887984D02*
X10789705Y-9878460D01*
X10789705Y-9878460D02*
X10799229Y-9868936D01*
X10799229Y-9868936D02*
X10808753Y-9849889D01*
X10808753Y-9849889D02*
X10808753Y-9811793D01*
X10808753Y-9811793D02*
X10799229Y-9792746D01*
X10799229Y-9792746D02*
X10789705Y-9783222D01*
X10789705Y-9783222D02*
X10770658Y-9773698D01*
X10903991Y-9887984D02*
X10942086Y-9887984D01*
X10942086Y-9887984D02*
X10961134Y-9878460D01*
X10961134Y-9878460D02*
X10970658Y-9868936D01*
X10970658Y-9868936D02*
X10989705Y-9840365D01*
X10989705Y-9840365D02*
X10999229Y-9802270D01*
X10999229Y-9802270D02*
X10999229Y-9726079D01*
X10999229Y-9726079D02*
X10989705Y-9707031D01*
X10989705Y-9707031D02*
X10980182Y-9697508D01*
X10980182Y-9697508D02*
X10961134Y-9687984D01*
X10961134Y-9687984D02*
X10923039Y-9687984D01*
X10923039Y-9687984D02*
X10903991Y-9697508D01*
X10903991Y-9697508D02*
X10894467Y-9707031D01*
X10894467Y-9707031D02*
X10884944Y-9726079D01*
X10884944Y-9726079D02*
X10884944Y-9773698D01*
X10884944Y-9773698D02*
X10894467Y-9792746D01*
X10894467Y-9792746D02*
X10903991Y-9802270D01*
X10903991Y-9802270D02*
X10923039Y-9811793D01*
X10923039Y-9811793D02*
X10961134Y-9811793D01*
X10961134Y-9811793D02*
X10980182Y-9802270D01*
X10980182Y-9802270D02*
X10989705Y-9792746D01*
X10989705Y-9792746D02*
X10999229Y-9773698D01*
X11123039Y-9687984D02*
X11142086Y-9687984D01*
X11142086Y-9687984D02*
X11161134Y-9697508D01*
X11161134Y-9697508D02*
X11170658Y-9707031D01*
X11170658Y-9707031D02*
X11180182Y-9726079D01*
X11180182Y-9726079D02*
X11189705Y-9764174D01*
X11189705Y-9764174D02*
X11189705Y-9811793D01*
X11189705Y-9811793D02*
X11180182Y-9849889D01*
X11180182Y-9849889D02*
X11170658Y-9868936D01*
X11170658Y-9868936D02*
X11161134Y-9878460D01*
X11161134Y-9878460D02*
X11142086Y-9887984D01*
X11142086Y-9887984D02*
X11123039Y-9887984D01*
X11123039Y-9887984D02*
X11103991Y-9878460D01*
X11103991Y-9878460D02*
X11094467Y-9868936D01*
X11094467Y-9868936D02*
X11084944Y-9849889D01*
X11084944Y-9849889D02*
X11075420Y-9811793D01*
X11075420Y-9811793D02*
X11075420Y-9764174D01*
X11075420Y-9764174D02*
X11084944Y-9726079D01*
X11084944Y-9726079D02*
X11094467Y-9707031D01*
X11094467Y-9707031D02*
X11103991Y-9697508D01*
X11103991Y-9697508D02*
X11123039Y-9687984D01*
X11275420Y-9887984D02*
X11275420Y-9754650D01*
X11275420Y-9773698D02*
X11284943Y-9764174D01*
X11284943Y-9764174D02*
X11303991Y-9754650D01*
X11303991Y-9754650D02*
X11332563Y-9754650D01*
X11332563Y-9754650D02*
X11351610Y-9764174D01*
X11351610Y-9764174D02*
X11361134Y-9783222D01*
X11361134Y-9783222D02*
X11361134Y-9887984D01*
X11361134Y-9783222D02*
X11370658Y-9764174D01*
X11370658Y-9764174D02*
X11389705Y-9754650D01*
X11389705Y-9754650D02*
X11418277Y-9754650D01*
X11418277Y-9754650D02*
X11437324Y-9764174D01*
X11437324Y-9764174D02*
X11446848Y-9783222D01*
X11446848Y-9783222D02*
X11446848Y-9887984D01*
X11542086Y-9887984D02*
X11542086Y-9754650D01*
X11542086Y-9773698D02*
X11551610Y-9764174D01*
X11551610Y-9764174D02*
X11570658Y-9754650D01*
X11570658Y-9754650D02*
X11599229Y-9754650D01*
X11599229Y-9754650D02*
X11618277Y-9764174D01*
X11618277Y-9764174D02*
X11627801Y-9783222D01*
X11627801Y-9783222D02*
X11627801Y-9887984D01*
X11627801Y-9783222D02*
X11637324Y-9764174D01*
X11637324Y-9764174D02*
X11656372Y-9754650D01*
X11656372Y-9754650D02*
X11684943Y-9754650D01*
X11684943Y-9754650D02*
X11703991Y-9764174D01*
X11703991Y-9764174D02*
X11713515Y-9783222D01*
X11713515Y-9783222D02*
X11713515Y-9887984D01*
X12103991Y-9678460D02*
X11932563Y-9935603D01*
X12361134Y-9687984D02*
X12380182Y-9687984D01*
X12380182Y-9687984D02*
X12399229Y-9697508D01*
X12399229Y-9697508D02*
X12408753Y-9707031D01*
X12408753Y-9707031D02*
X12418277Y-9726079D01*
X12418277Y-9726079D02*
X12427801Y-9764174D01*
X12427801Y-9764174D02*
X12427801Y-9811793D01*
X12427801Y-9811793D02*
X12418277Y-9849889D01*
X12418277Y-9849889D02*
X12408753Y-9868936D01*
X12408753Y-9868936D02*
X12399229Y-9878460D01*
X12399229Y-9878460D02*
X12380182Y-9887984D01*
X12380182Y-9887984D02*
X12361134Y-9887984D01*
X12361134Y-9887984D02*
X12342086Y-9878460D01*
X12342086Y-9878460D02*
X12332563Y-9868936D01*
X12332563Y-9868936D02*
X12323039Y-9849889D01*
X12323039Y-9849889D02*
X12313515Y-9811793D01*
X12313515Y-9811793D02*
X12313515Y-9764174D01*
X12313515Y-9764174D02*
X12323039Y-9726079D01*
X12323039Y-9726079D02*
X12332563Y-9707031D01*
X12332563Y-9707031D02*
X12342086Y-9697508D01*
X12342086Y-9697508D02*
X12361134Y-9687984D01*
X12513515Y-9868936D02*
X12523039Y-9878460D01*
X12523039Y-9878460D02*
X12513515Y-9887984D01*
X12513515Y-9887984D02*
X12503991Y-9878460D01*
X12503991Y-9878460D02*
X12513515Y-9868936D01*
X12513515Y-9868936D02*
X12513515Y-9887984D01*
X12646848Y-9687984D02*
X12665896Y-9687984D01*
X12665896Y-9687984D02*
X12684944Y-9697508D01*
X12684944Y-9697508D02*
X12694467Y-9707031D01*
X12694467Y-9707031D02*
X12703991Y-9726079D01*
X12703991Y-9726079D02*
X12713515Y-9764174D01*
X12713515Y-9764174D02*
X12713515Y-9811793D01*
X12713515Y-9811793D02*
X12703991Y-9849889D01*
X12703991Y-9849889D02*
X12694467Y-9868936D01*
X12694467Y-9868936D02*
X12684944Y-9878460D01*
X12684944Y-9878460D02*
X12665896Y-9887984D01*
X12665896Y-9887984D02*
X12646848Y-9887984D01*
X12646848Y-9887984D02*
X12627801Y-9878460D01*
X12627801Y-9878460D02*
X12618277Y-9868936D01*
X12618277Y-9868936D02*
X12608753Y-9849889D01*
X12608753Y-9849889D02*
X12599229Y-9811793D01*
X12599229Y-9811793D02*
X12599229Y-9764174D01*
X12599229Y-9764174D02*
X12608753Y-9726079D01*
X12608753Y-9726079D02*
X12618277Y-9707031D01*
X12618277Y-9707031D02*
X12627801Y-9697508D01*
X12627801Y-9697508D02*
X12646848Y-9687984D01*
X12780182Y-9687984D02*
X12903991Y-9687984D01*
X12903991Y-9687984D02*
X12837325Y-9764174D01*
X12837325Y-9764174D02*
X12865896Y-9764174D01*
X12865896Y-9764174D02*
X12884944Y-9773698D01*
X12884944Y-9773698D02*
X12894467Y-9783222D01*
X12894467Y-9783222D02*
X12903991Y-9802270D01*
X12903991Y-9802270D02*
X12903991Y-9849889D01*
X12903991Y-9849889D02*
X12894467Y-9868936D01*
X12894467Y-9868936D02*
X12884944Y-9878460D01*
X12884944Y-9878460D02*
X12865896Y-9887984D01*
X12865896Y-9887984D02*
X12808753Y-9887984D01*
X12808753Y-9887984D02*
X12789706Y-9878460D01*
X12789706Y-9878460D02*
X12780182Y-9868936D01*
X13084944Y-9687984D02*
X12989706Y-9687984D01*
X12989706Y-9687984D02*
X12980182Y-9783222D01*
X12980182Y-9783222D02*
X12989706Y-9773698D01*
X12989706Y-9773698D02*
X13008753Y-9764174D01*
X13008753Y-9764174D02*
X13056372Y-9764174D01*
X13056372Y-9764174D02*
X13075420Y-9773698D01*
X13075420Y-9773698D02*
X13084944Y-9783222D01*
X13084944Y-9783222D02*
X13094467Y-9802270D01*
X13094467Y-9802270D02*
X13094467Y-9849889D01*
X13094467Y-9849889D02*
X13084944Y-9868936D01*
X13084944Y-9868936D02*
X13075420Y-9878460D01*
X13075420Y-9878460D02*
X13056372Y-9887984D01*
X13056372Y-9887984D02*
X13008753Y-9887984D01*
X13008753Y-9887984D02*
X12989706Y-9878460D01*
X12989706Y-9878460D02*
X12980182Y-9868936D01*
X13218277Y-9687984D02*
X13237325Y-9687984D01*
X13237325Y-9687984D02*
X13256372Y-9697508D01*
X13256372Y-9697508D02*
X13265896Y-9707031D01*
X13265896Y-9707031D02*
X13275420Y-9726079D01*
X13275420Y-9726079D02*
X13284944Y-9764174D01*
X13284944Y-9764174D02*
X13284944Y-9811793D01*
X13284944Y-9811793D02*
X13275420Y-9849889D01*
X13275420Y-9849889D02*
X13265896Y-9868936D01*
X13265896Y-9868936D02*
X13256372Y-9878460D01*
X13256372Y-9878460D02*
X13237325Y-9887984D01*
X13237325Y-9887984D02*
X13218277Y-9887984D01*
X13218277Y-9887984D02*
X13199229Y-9878460D01*
X13199229Y-9878460D02*
X13189706Y-9868936D01*
X13189706Y-9868936D02*
X13180182Y-9849889D01*
X13180182Y-9849889D02*
X13170658Y-9811793D01*
X13170658Y-9811793D02*
X13170658Y-9764174D01*
X13170658Y-9764174D02*
X13180182Y-9726079D01*
X13180182Y-9726079D02*
X13189706Y-9707031D01*
X13189706Y-9707031D02*
X13199229Y-9697508D01*
X13199229Y-9697508D02*
X13218277Y-9687984D01*
X13361134Y-9687984D02*
X13361134Y-9726079D01*
X13437325Y-9687984D02*
X13437325Y-9726079D01*
X13732563Y-9964174D02*
X13723039Y-9954650D01*
X13723039Y-9954650D02*
X13703991Y-9926079D01*
X13703991Y-9926079D02*
X13694468Y-9907031D01*
X13694468Y-9907031D02*
X13684944Y-9878460D01*
X13684944Y-9878460D02*
X13675420Y-9830841D01*
X13675420Y-9830841D02*
X13675420Y-9792746D01*
X13675420Y-9792746D02*
X13684944Y-9745127D01*
X13684944Y-9745127D02*
X13694468Y-9716555D01*
X13694468Y-9716555D02*
X13703991Y-9697508D01*
X13703991Y-9697508D02*
X13723039Y-9668936D01*
X13723039Y-9668936D02*
X13732563Y-9659412D01*
X13913515Y-9887984D02*
X13799229Y-9887984D01*
X13856372Y-9887984D02*
X13856372Y-9687984D01*
X13856372Y-9687984D02*
X13837325Y-9716555D01*
X13837325Y-9716555D02*
X13818277Y-9735603D01*
X13818277Y-9735603D02*
X13799229Y-9745127D01*
X13989706Y-9707031D02*
X13999229Y-9697508D01*
X13999229Y-9697508D02*
X14018277Y-9687984D01*
X14018277Y-9687984D02*
X14065896Y-9687984D01*
X14065896Y-9687984D02*
X14084944Y-9697508D01*
X14084944Y-9697508D02*
X14094468Y-9707031D01*
X14094468Y-9707031D02*
X14103991Y-9726079D01*
X14103991Y-9726079D02*
X14103991Y-9745127D01*
X14103991Y-9745127D02*
X14094468Y-9773698D01*
X14094468Y-9773698D02*
X13980182Y-9887984D01*
X13980182Y-9887984D02*
X14103991Y-9887984D01*
X14342087Y-9887984D02*
X14342087Y-9687984D01*
X14427801Y-9887984D02*
X14427801Y-9783222D01*
X14427801Y-9783222D02*
X14418277Y-9764174D01*
X14418277Y-9764174D02*
X14399230Y-9754650D01*
X14399230Y-9754650D02*
X14370658Y-9754650D01*
X14370658Y-9754650D02*
X14351610Y-9764174D01*
X14351610Y-9764174D02*
X14342087Y-9773698D01*
X14551610Y-9887984D02*
X14532563Y-9878460D01*
X14532563Y-9878460D02*
X14523039Y-9868936D01*
X14523039Y-9868936D02*
X14513515Y-9849889D01*
X14513515Y-9849889D02*
X14513515Y-9792746D01*
X14513515Y-9792746D02*
X14523039Y-9773698D01*
X14523039Y-9773698D02*
X14532563Y-9764174D01*
X14532563Y-9764174D02*
X14551610Y-9754650D01*
X14551610Y-9754650D02*
X14580182Y-9754650D01*
X14580182Y-9754650D02*
X14599230Y-9764174D01*
X14599230Y-9764174D02*
X14608753Y-9773698D01*
X14608753Y-9773698D02*
X14618277Y-9792746D01*
X14618277Y-9792746D02*
X14618277Y-9849889D01*
X14618277Y-9849889D02*
X14608753Y-9868936D01*
X14608753Y-9868936D02*
X14599230Y-9878460D01*
X14599230Y-9878460D02*
X14580182Y-9887984D01*
X14580182Y-9887984D02*
X14551610Y-9887984D01*
X14732563Y-9887984D02*
X14713515Y-9878460D01*
X14713515Y-9878460D02*
X14703991Y-9859412D01*
X14703991Y-9859412D02*
X14703991Y-9687984D01*
X14884944Y-9878460D02*
X14865896Y-9887984D01*
X14865896Y-9887984D02*
X14827801Y-9887984D01*
X14827801Y-9887984D02*
X14808753Y-9878460D01*
X14808753Y-9878460D02*
X14799230Y-9859412D01*
X14799230Y-9859412D02*
X14799230Y-9783222D01*
X14799230Y-9783222D02*
X14808753Y-9764174D01*
X14808753Y-9764174D02*
X14827801Y-9754650D01*
X14827801Y-9754650D02*
X14865896Y-9754650D01*
X14865896Y-9754650D02*
X14884944Y-9764174D01*
X14884944Y-9764174D02*
X14894468Y-9783222D01*
X14894468Y-9783222D02*
X14894468Y-9802270D01*
X14894468Y-9802270D02*
X14799230Y-9821317D01*
X14970658Y-9878460D02*
X14989706Y-9887984D01*
X14989706Y-9887984D02*
X15027801Y-9887984D01*
X15027801Y-9887984D02*
X15046849Y-9878460D01*
X15046849Y-9878460D02*
X15056372Y-9859412D01*
X15056372Y-9859412D02*
X15056372Y-9849889D01*
X15056372Y-9849889D02*
X15046849Y-9830841D01*
X15046849Y-9830841D02*
X15027801Y-9821317D01*
X15027801Y-9821317D02*
X14999230Y-9821317D01*
X14999230Y-9821317D02*
X14980182Y-9811793D01*
X14980182Y-9811793D02*
X14970658Y-9792746D01*
X14970658Y-9792746D02*
X14970658Y-9783222D01*
X14970658Y-9783222D02*
X14980182Y-9764174D01*
X14980182Y-9764174D02*
X14999230Y-9754650D01*
X14999230Y-9754650D02*
X15027801Y-9754650D01*
X15027801Y-9754650D02*
X15046849Y-9764174D01*
X15123039Y-9964174D02*
X15132563Y-9954650D01*
X15132563Y-9954650D02*
X15151611Y-9926079D01*
X15151611Y-9926079D02*
X15161134Y-9907031D01*
X15161134Y-9907031D02*
X15170658Y-9878460D01*
X15170658Y-9878460D02*
X15180182Y-9830841D01*
X15180182Y-9830841D02*
X15180182Y-9792746D01*
X15180182Y-9792746D02*
X15170658Y-9745127D01*
X15170658Y-9745127D02*
X15161134Y-9716555D01*
X15161134Y-9716555D02*
X15151611Y-9697508D01*
X15151611Y-9697508D02*
X15132563Y-9668936D01*
X15132563Y-9668936D02*
X15123039Y-9659412D01*
D12*
X10107500Y-10010500D02*
X10107500Y-10110500D01*
X10057500Y-10060500D02*
X10157500Y-10060500D01*
D11*
X10523039Y-10151984D02*
X10408753Y-10151984D01*
X10465896Y-10151984D02*
X10465896Y-9951984D01*
X10465896Y-9951984D02*
X10446848Y-9980555D01*
X10446848Y-9980555D02*
X10427801Y-9999603D01*
X10427801Y-9999603D02*
X10408753Y-10009127D01*
X10608753Y-10132936D02*
X10618277Y-10142460D01*
X10618277Y-10142460D02*
X10608753Y-10151984D01*
X10608753Y-10151984D02*
X10599229Y-10142460D01*
X10599229Y-10142460D02*
X10608753Y-10132936D01*
X10608753Y-10132936D02*
X10608753Y-10151984D01*
X10742086Y-9951984D02*
X10761134Y-9951984D01*
X10761134Y-9951984D02*
X10780182Y-9961508D01*
X10780182Y-9961508D02*
X10789705Y-9971031D01*
X10789705Y-9971031D02*
X10799229Y-9990079D01*
X10799229Y-9990079D02*
X10808753Y-10028174D01*
X10808753Y-10028174D02*
X10808753Y-10075793D01*
X10808753Y-10075793D02*
X10799229Y-10113889D01*
X10799229Y-10113889D02*
X10789705Y-10132936D01*
X10789705Y-10132936D02*
X10780182Y-10142460D01*
X10780182Y-10142460D02*
X10761134Y-10151984D01*
X10761134Y-10151984D02*
X10742086Y-10151984D01*
X10742086Y-10151984D02*
X10723039Y-10142460D01*
X10723039Y-10142460D02*
X10713515Y-10132936D01*
X10713515Y-10132936D02*
X10703991Y-10113889D01*
X10703991Y-10113889D02*
X10694467Y-10075793D01*
X10694467Y-10075793D02*
X10694467Y-10028174D01*
X10694467Y-10028174D02*
X10703991Y-9990079D01*
X10703991Y-9990079D02*
X10713515Y-9971031D01*
X10713515Y-9971031D02*
X10723039Y-9961508D01*
X10723039Y-9961508D02*
X10742086Y-9951984D01*
X10932563Y-9951984D02*
X10951610Y-9951984D01*
X10951610Y-9951984D02*
X10970658Y-9961508D01*
X10970658Y-9961508D02*
X10980182Y-9971031D01*
X10980182Y-9971031D02*
X10989705Y-9990079D01*
X10989705Y-9990079D02*
X10999229Y-10028174D01*
X10999229Y-10028174D02*
X10999229Y-10075793D01*
X10999229Y-10075793D02*
X10989705Y-10113889D01*
X10989705Y-10113889D02*
X10980182Y-10132936D01*
X10980182Y-10132936D02*
X10970658Y-10142460D01*
X10970658Y-10142460D02*
X10951610Y-10151984D01*
X10951610Y-10151984D02*
X10932563Y-10151984D01*
X10932563Y-10151984D02*
X10913515Y-10142460D01*
X10913515Y-10142460D02*
X10903991Y-10132936D01*
X10903991Y-10132936D02*
X10894467Y-10113889D01*
X10894467Y-10113889D02*
X10884944Y-10075793D01*
X10884944Y-10075793D02*
X10884944Y-10028174D01*
X10884944Y-10028174D02*
X10894467Y-9990079D01*
X10894467Y-9990079D02*
X10903991Y-9971031D01*
X10903991Y-9971031D02*
X10913515Y-9961508D01*
X10913515Y-9961508D02*
X10932563Y-9951984D01*
X11123039Y-9951984D02*
X11142086Y-9951984D01*
X11142086Y-9951984D02*
X11161134Y-9961508D01*
X11161134Y-9961508D02*
X11170658Y-9971031D01*
X11170658Y-9971031D02*
X11180182Y-9990079D01*
X11180182Y-9990079D02*
X11189705Y-10028174D01*
X11189705Y-10028174D02*
X11189705Y-10075793D01*
X11189705Y-10075793D02*
X11180182Y-10113889D01*
X11180182Y-10113889D02*
X11170658Y-10132936D01*
X11170658Y-10132936D02*
X11161134Y-10142460D01*
X11161134Y-10142460D02*
X11142086Y-10151984D01*
X11142086Y-10151984D02*
X11123039Y-10151984D01*
X11123039Y-10151984D02*
X11103991Y-10142460D01*
X11103991Y-10142460D02*
X11094467Y-10132936D01*
X11094467Y-10132936D02*
X11084944Y-10113889D01*
X11084944Y-10113889D02*
X11075420Y-10075793D01*
X11075420Y-10075793D02*
X11075420Y-10028174D01*
X11075420Y-10028174D02*
X11084944Y-9990079D01*
X11084944Y-9990079D02*
X11094467Y-9971031D01*
X11094467Y-9971031D02*
X11103991Y-9961508D01*
X11103991Y-9961508D02*
X11123039Y-9951984D01*
X11275420Y-10151984D02*
X11275420Y-10018650D01*
X11275420Y-10037698D02*
X11284943Y-10028174D01*
X11284943Y-10028174D02*
X11303991Y-10018650D01*
X11303991Y-10018650D02*
X11332563Y-10018650D01*
X11332563Y-10018650D02*
X11351610Y-10028174D01*
X11351610Y-10028174D02*
X11361134Y-10047222D01*
X11361134Y-10047222D02*
X11361134Y-10151984D01*
X11361134Y-10047222D02*
X11370658Y-10028174D01*
X11370658Y-10028174D02*
X11389705Y-10018650D01*
X11389705Y-10018650D02*
X11418277Y-10018650D01*
X11418277Y-10018650D02*
X11437324Y-10028174D01*
X11437324Y-10028174D02*
X11446848Y-10047222D01*
X11446848Y-10047222D02*
X11446848Y-10151984D01*
X11542086Y-10151984D02*
X11542086Y-10018650D01*
X11542086Y-10037698D02*
X11551610Y-10028174D01*
X11551610Y-10028174D02*
X11570658Y-10018650D01*
X11570658Y-10018650D02*
X11599229Y-10018650D01*
X11599229Y-10018650D02*
X11618277Y-10028174D01*
X11618277Y-10028174D02*
X11627801Y-10047222D01*
X11627801Y-10047222D02*
X11627801Y-10151984D01*
X11627801Y-10047222D02*
X11637324Y-10028174D01*
X11637324Y-10028174D02*
X11656372Y-10018650D01*
X11656372Y-10018650D02*
X11684943Y-10018650D01*
X11684943Y-10018650D02*
X11703991Y-10028174D01*
X11703991Y-10028174D02*
X11713515Y-10047222D01*
X11713515Y-10047222D02*
X11713515Y-10151984D01*
X12103991Y-9942460D02*
X11932563Y-10199603D01*
X12361134Y-9951984D02*
X12380182Y-9951984D01*
X12380182Y-9951984D02*
X12399229Y-9961508D01*
X12399229Y-9961508D02*
X12408753Y-9971031D01*
X12408753Y-9971031D02*
X12418277Y-9990079D01*
X12418277Y-9990079D02*
X12427801Y-10028174D01*
X12427801Y-10028174D02*
X12427801Y-10075793D01*
X12427801Y-10075793D02*
X12418277Y-10113889D01*
X12418277Y-10113889D02*
X12408753Y-10132936D01*
X12408753Y-10132936D02*
X12399229Y-10142460D01*
X12399229Y-10142460D02*
X12380182Y-10151984D01*
X12380182Y-10151984D02*
X12361134Y-10151984D01*
X12361134Y-10151984D02*
X12342086Y-10142460D01*
X12342086Y-10142460D02*
X12332563Y-10132936D01*
X12332563Y-10132936D02*
X12323039Y-10113889D01*
X12323039Y-10113889D02*
X12313515Y-10075793D01*
X12313515Y-10075793D02*
X12313515Y-10028174D01*
X12313515Y-10028174D02*
X12323039Y-9990079D01*
X12323039Y-9990079D02*
X12332563Y-9971031D01*
X12332563Y-9971031D02*
X12342086Y-9961508D01*
X12342086Y-9961508D02*
X12361134Y-9951984D01*
X12513515Y-10132936D02*
X12523039Y-10142460D01*
X12523039Y-10142460D02*
X12513515Y-10151984D01*
X12513515Y-10151984D02*
X12503991Y-10142460D01*
X12503991Y-10142460D02*
X12513515Y-10132936D01*
X12513515Y-10132936D02*
X12513515Y-10151984D01*
X12646848Y-9951984D02*
X12665896Y-9951984D01*
X12665896Y-9951984D02*
X12684944Y-9961508D01*
X12684944Y-9961508D02*
X12694467Y-9971031D01*
X12694467Y-9971031D02*
X12703991Y-9990079D01*
X12703991Y-9990079D02*
X12713515Y-10028174D01*
X12713515Y-10028174D02*
X12713515Y-10075793D01*
X12713515Y-10075793D02*
X12703991Y-10113889D01*
X12703991Y-10113889D02*
X12694467Y-10132936D01*
X12694467Y-10132936D02*
X12684944Y-10142460D01*
X12684944Y-10142460D02*
X12665896Y-10151984D01*
X12665896Y-10151984D02*
X12646848Y-10151984D01*
X12646848Y-10151984D02*
X12627801Y-10142460D01*
X12627801Y-10142460D02*
X12618277Y-10132936D01*
X12618277Y-10132936D02*
X12608753Y-10113889D01*
X12608753Y-10113889D02*
X12599229Y-10075793D01*
X12599229Y-10075793D02*
X12599229Y-10028174D01*
X12599229Y-10028174D02*
X12608753Y-9990079D01*
X12608753Y-9990079D02*
X12618277Y-9971031D01*
X12618277Y-9971031D02*
X12627801Y-9961508D01*
X12627801Y-9961508D02*
X12646848Y-9951984D01*
X12780182Y-9951984D02*
X12903991Y-9951984D01*
X12903991Y-9951984D02*
X12837325Y-10028174D01*
X12837325Y-10028174D02*
X12865896Y-10028174D01*
X12865896Y-10028174D02*
X12884944Y-10037698D01*
X12884944Y-10037698D02*
X12894467Y-10047222D01*
X12894467Y-10047222D02*
X12903991Y-10066270D01*
X12903991Y-10066270D02*
X12903991Y-10113889D01*
X12903991Y-10113889D02*
X12894467Y-10132936D01*
X12894467Y-10132936D02*
X12884944Y-10142460D01*
X12884944Y-10142460D02*
X12865896Y-10151984D01*
X12865896Y-10151984D02*
X12808753Y-10151984D01*
X12808753Y-10151984D02*
X12789706Y-10142460D01*
X12789706Y-10142460D02*
X12780182Y-10132936D01*
X12999229Y-10151984D02*
X13037325Y-10151984D01*
X13037325Y-10151984D02*
X13056372Y-10142460D01*
X13056372Y-10142460D02*
X13065896Y-10132936D01*
X13065896Y-10132936D02*
X13084944Y-10104365D01*
X13084944Y-10104365D02*
X13094467Y-10066270D01*
X13094467Y-10066270D02*
X13094467Y-9990079D01*
X13094467Y-9990079D02*
X13084944Y-9971031D01*
X13084944Y-9971031D02*
X13075420Y-9961508D01*
X13075420Y-9961508D02*
X13056372Y-9951984D01*
X13056372Y-9951984D02*
X13018277Y-9951984D01*
X13018277Y-9951984D02*
X12999229Y-9961508D01*
X12999229Y-9961508D02*
X12989706Y-9971031D01*
X12989706Y-9971031D02*
X12980182Y-9990079D01*
X12980182Y-9990079D02*
X12980182Y-10037698D01*
X12980182Y-10037698D02*
X12989706Y-10056746D01*
X12989706Y-10056746D02*
X12999229Y-10066270D01*
X12999229Y-10066270D02*
X13018277Y-10075793D01*
X13018277Y-10075793D02*
X13056372Y-10075793D01*
X13056372Y-10075793D02*
X13075420Y-10066270D01*
X13075420Y-10066270D02*
X13084944Y-10056746D01*
X13084944Y-10056746D02*
X13094467Y-10037698D01*
X13265896Y-10018650D02*
X13265896Y-10151984D01*
X13218277Y-9942460D02*
X13170658Y-10085317D01*
X13170658Y-10085317D02*
X13294467Y-10085317D01*
X13361134Y-9951984D02*
X13361134Y-9990079D01*
X13437325Y-9951984D02*
X13437325Y-9990079D01*
X13732563Y-10228174D02*
X13723039Y-10218650D01*
X13723039Y-10218650D02*
X13703991Y-10190079D01*
X13703991Y-10190079D02*
X13694468Y-10171031D01*
X13694468Y-10171031D02*
X13684944Y-10142460D01*
X13684944Y-10142460D02*
X13675420Y-10094841D01*
X13675420Y-10094841D02*
X13675420Y-10056746D01*
X13675420Y-10056746D02*
X13684944Y-10009127D01*
X13684944Y-10009127D02*
X13694468Y-9980555D01*
X13694468Y-9980555D02*
X13703991Y-9961508D01*
X13703991Y-9961508D02*
X13723039Y-9932936D01*
X13723039Y-9932936D02*
X13732563Y-9923412D01*
X13913515Y-10151984D02*
X13799229Y-10151984D01*
X13856372Y-10151984D02*
X13856372Y-9951984D01*
X13856372Y-9951984D02*
X13837325Y-9980555D01*
X13837325Y-9980555D02*
X13818277Y-9999603D01*
X13818277Y-9999603D02*
X13799229Y-10009127D01*
X14103991Y-10151984D02*
X13989706Y-10151984D01*
X14046848Y-10151984D02*
X14046848Y-9951984D01*
X14046848Y-9951984D02*
X14027801Y-9980555D01*
X14027801Y-9980555D02*
X14008753Y-9999603D01*
X14008753Y-9999603D02*
X13989706Y-10009127D01*
X14342087Y-10151984D02*
X14342087Y-9951984D01*
X14427801Y-10151984D02*
X14427801Y-10047222D01*
X14427801Y-10047222D02*
X14418277Y-10028174D01*
X14418277Y-10028174D02*
X14399230Y-10018650D01*
X14399230Y-10018650D02*
X14370658Y-10018650D01*
X14370658Y-10018650D02*
X14351610Y-10028174D01*
X14351610Y-10028174D02*
X14342087Y-10037698D01*
X14551610Y-10151984D02*
X14532563Y-10142460D01*
X14532563Y-10142460D02*
X14523039Y-10132936D01*
X14523039Y-10132936D02*
X14513515Y-10113889D01*
X14513515Y-10113889D02*
X14513515Y-10056746D01*
X14513515Y-10056746D02*
X14523039Y-10037698D01*
X14523039Y-10037698D02*
X14532563Y-10028174D01*
X14532563Y-10028174D02*
X14551610Y-10018650D01*
X14551610Y-10018650D02*
X14580182Y-10018650D01*
X14580182Y-10018650D02*
X14599230Y-10028174D01*
X14599230Y-10028174D02*
X14608753Y-10037698D01*
X14608753Y-10037698D02*
X14618277Y-10056746D01*
X14618277Y-10056746D02*
X14618277Y-10113889D01*
X14618277Y-10113889D02*
X14608753Y-10132936D01*
X14608753Y-10132936D02*
X14599230Y-10142460D01*
X14599230Y-10142460D02*
X14580182Y-10151984D01*
X14580182Y-10151984D02*
X14551610Y-10151984D01*
X14732563Y-10151984D02*
X14713515Y-10142460D01*
X14713515Y-10142460D02*
X14703991Y-10123412D01*
X14703991Y-10123412D02*
X14703991Y-9951984D01*
X14884944Y-10142460D02*
X14865896Y-10151984D01*
X14865896Y-10151984D02*
X14827801Y-10151984D01*
X14827801Y-10151984D02*
X14808753Y-10142460D01*
X14808753Y-10142460D02*
X14799230Y-10123412D01*
X14799230Y-10123412D02*
X14799230Y-10047222D01*
X14799230Y-10047222D02*
X14808753Y-10028174D01*
X14808753Y-10028174D02*
X14827801Y-10018650D01*
X14827801Y-10018650D02*
X14865896Y-10018650D01*
X14865896Y-10018650D02*
X14884944Y-10028174D01*
X14884944Y-10028174D02*
X14894468Y-10047222D01*
X14894468Y-10047222D02*
X14894468Y-10066270D01*
X14894468Y-10066270D02*
X14799230Y-10085317D01*
X14970658Y-10142460D02*
X14989706Y-10151984D01*
X14989706Y-10151984D02*
X15027801Y-10151984D01*
X15027801Y-10151984D02*
X15046849Y-10142460D01*
X15046849Y-10142460D02*
X15056372Y-10123412D01*
X15056372Y-10123412D02*
X15056372Y-10113889D01*
X15056372Y-10113889D02*
X15046849Y-10094841D01*
X15046849Y-10094841D02*
X15027801Y-10085317D01*
X15027801Y-10085317D02*
X14999230Y-10085317D01*
X14999230Y-10085317D02*
X14980182Y-10075793D01*
X14980182Y-10075793D02*
X14970658Y-10056746D01*
X14970658Y-10056746D02*
X14970658Y-10047222D01*
X14970658Y-10047222D02*
X14980182Y-10028174D01*
X14980182Y-10028174D02*
X14999230Y-10018650D01*
X14999230Y-10018650D02*
X15027801Y-10018650D01*
X15027801Y-10018650D02*
X15046849Y-10028174D01*
X15123039Y-10228174D02*
X15132563Y-10218650D01*
X15132563Y-10218650D02*
X15151611Y-10190079D01*
X15151611Y-10190079D02*
X15161134Y-10171031D01*
X15161134Y-10171031D02*
X15170658Y-10142460D01*
X15170658Y-10142460D02*
X15180182Y-10094841D01*
X15180182Y-10094841D02*
X15180182Y-10056746D01*
X15180182Y-10056746D02*
X15170658Y-10009127D01*
X15170658Y-10009127D02*
X15161134Y-9980555D01*
X15161134Y-9980555D02*
X15151611Y-9961508D01*
X15151611Y-9961508D02*
X15132563Y-9932936D01*
X15132563Y-9932936D02*
X15123039Y-9923412D01*
D13*
X10134508Y-10380008D02*
X10134508Y-10268992D01*
X10023492Y-10268992D01*
X10023492Y-10380008D01*
X10134508Y-10380008D01*
D11*
X10523039Y-10415984D02*
X10408753Y-10415984D01*
X10465896Y-10415984D02*
X10465896Y-10215984D01*
X10465896Y-10215984D02*
X10446848Y-10244555D01*
X10446848Y-10244555D02*
X10427801Y-10263603D01*
X10427801Y-10263603D02*
X10408753Y-10273127D01*
X10608753Y-10396936D02*
X10618277Y-10406460D01*
X10618277Y-10406460D02*
X10608753Y-10415984D01*
X10608753Y-10415984D02*
X10599229Y-10406460D01*
X10599229Y-10406460D02*
X10608753Y-10396936D01*
X10608753Y-10396936D02*
X10608753Y-10415984D01*
X10799229Y-10215984D02*
X10703991Y-10215984D01*
X10703991Y-10215984D02*
X10694467Y-10311222D01*
X10694467Y-10311222D02*
X10703991Y-10301698D01*
X10703991Y-10301698D02*
X10723039Y-10292174D01*
X10723039Y-10292174D02*
X10770658Y-10292174D01*
X10770658Y-10292174D02*
X10789705Y-10301698D01*
X10789705Y-10301698D02*
X10799229Y-10311222D01*
X10799229Y-10311222D02*
X10808753Y-10330270D01*
X10808753Y-10330270D02*
X10808753Y-10377889D01*
X10808753Y-10377889D02*
X10799229Y-10396936D01*
X10799229Y-10396936D02*
X10789705Y-10406460D01*
X10789705Y-10406460D02*
X10770658Y-10415984D01*
X10770658Y-10415984D02*
X10723039Y-10415984D01*
X10723039Y-10415984D02*
X10703991Y-10406460D01*
X10703991Y-10406460D02*
X10694467Y-10396936D01*
X10875420Y-10215984D02*
X11008753Y-10215984D01*
X11008753Y-10215984D02*
X10923039Y-10415984D01*
X11123039Y-10215984D02*
X11142086Y-10215984D01*
X11142086Y-10215984D02*
X11161134Y-10225508D01*
X11161134Y-10225508D02*
X11170658Y-10235031D01*
X11170658Y-10235031D02*
X11180182Y-10254079D01*
X11180182Y-10254079D02*
X11189705Y-10292174D01*
X11189705Y-10292174D02*
X11189705Y-10339793D01*
X11189705Y-10339793D02*
X11180182Y-10377889D01*
X11180182Y-10377889D02*
X11170658Y-10396936D01*
X11170658Y-10396936D02*
X11161134Y-10406460D01*
X11161134Y-10406460D02*
X11142086Y-10415984D01*
X11142086Y-10415984D02*
X11123039Y-10415984D01*
X11123039Y-10415984D02*
X11103991Y-10406460D01*
X11103991Y-10406460D02*
X11094467Y-10396936D01*
X11094467Y-10396936D02*
X11084944Y-10377889D01*
X11084944Y-10377889D02*
X11075420Y-10339793D01*
X11075420Y-10339793D02*
X11075420Y-10292174D01*
X11075420Y-10292174D02*
X11084944Y-10254079D01*
X11084944Y-10254079D02*
X11094467Y-10235031D01*
X11094467Y-10235031D02*
X11103991Y-10225508D01*
X11103991Y-10225508D02*
X11123039Y-10215984D01*
X11275420Y-10415984D02*
X11275420Y-10282650D01*
X11275420Y-10301698D02*
X11284943Y-10292174D01*
X11284943Y-10292174D02*
X11303991Y-10282650D01*
X11303991Y-10282650D02*
X11332563Y-10282650D01*
X11332563Y-10282650D02*
X11351610Y-10292174D01*
X11351610Y-10292174D02*
X11361134Y-10311222D01*
X11361134Y-10311222D02*
X11361134Y-10415984D01*
X11361134Y-10311222D02*
X11370658Y-10292174D01*
X11370658Y-10292174D02*
X11389705Y-10282650D01*
X11389705Y-10282650D02*
X11418277Y-10282650D01*
X11418277Y-10282650D02*
X11437324Y-10292174D01*
X11437324Y-10292174D02*
X11446848Y-10311222D01*
X11446848Y-10311222D02*
X11446848Y-10415984D01*
X11542086Y-10415984D02*
X11542086Y-10282650D01*
X11542086Y-10301698D02*
X11551610Y-10292174D01*
X11551610Y-10292174D02*
X11570658Y-10282650D01*
X11570658Y-10282650D02*
X11599229Y-10282650D01*
X11599229Y-10282650D02*
X11618277Y-10292174D01*
X11618277Y-10292174D02*
X11627801Y-10311222D01*
X11627801Y-10311222D02*
X11627801Y-10415984D01*
X11627801Y-10311222D02*
X11637324Y-10292174D01*
X11637324Y-10292174D02*
X11656372Y-10282650D01*
X11656372Y-10282650D02*
X11684943Y-10282650D01*
X11684943Y-10282650D02*
X11703991Y-10292174D01*
X11703991Y-10292174D02*
X11713515Y-10311222D01*
X11713515Y-10311222D02*
X11713515Y-10415984D01*
X12103991Y-10206460D02*
X11932563Y-10463603D01*
X12361134Y-10215984D02*
X12380182Y-10215984D01*
X12380182Y-10215984D02*
X12399229Y-10225508D01*
X12399229Y-10225508D02*
X12408753Y-10235031D01*
X12408753Y-10235031D02*
X12418277Y-10254079D01*
X12418277Y-10254079D02*
X12427801Y-10292174D01*
X12427801Y-10292174D02*
X12427801Y-10339793D01*
X12427801Y-10339793D02*
X12418277Y-10377889D01*
X12418277Y-10377889D02*
X12408753Y-10396936D01*
X12408753Y-10396936D02*
X12399229Y-10406460D01*
X12399229Y-10406460D02*
X12380182Y-10415984D01*
X12380182Y-10415984D02*
X12361134Y-10415984D01*
X12361134Y-10415984D02*
X12342086Y-10406460D01*
X12342086Y-10406460D02*
X12332563Y-10396936D01*
X12332563Y-10396936D02*
X12323039Y-10377889D01*
X12323039Y-10377889D02*
X12313515Y-10339793D01*
X12313515Y-10339793D02*
X12313515Y-10292174D01*
X12313515Y-10292174D02*
X12323039Y-10254079D01*
X12323039Y-10254079D02*
X12332563Y-10235031D01*
X12332563Y-10235031D02*
X12342086Y-10225508D01*
X12342086Y-10225508D02*
X12361134Y-10215984D01*
X12513515Y-10396936D02*
X12523039Y-10406460D01*
X12523039Y-10406460D02*
X12513515Y-10415984D01*
X12513515Y-10415984D02*
X12503991Y-10406460D01*
X12503991Y-10406460D02*
X12513515Y-10396936D01*
X12513515Y-10396936D02*
X12513515Y-10415984D01*
X12646848Y-10215984D02*
X12665896Y-10215984D01*
X12665896Y-10215984D02*
X12684944Y-10225508D01*
X12684944Y-10225508D02*
X12694467Y-10235031D01*
X12694467Y-10235031D02*
X12703991Y-10254079D01*
X12703991Y-10254079D02*
X12713515Y-10292174D01*
X12713515Y-10292174D02*
X12713515Y-10339793D01*
X12713515Y-10339793D02*
X12703991Y-10377889D01*
X12703991Y-10377889D02*
X12694467Y-10396936D01*
X12694467Y-10396936D02*
X12684944Y-10406460D01*
X12684944Y-10406460D02*
X12665896Y-10415984D01*
X12665896Y-10415984D02*
X12646848Y-10415984D01*
X12646848Y-10415984D02*
X12627801Y-10406460D01*
X12627801Y-10406460D02*
X12618277Y-10396936D01*
X12618277Y-10396936D02*
X12608753Y-10377889D01*
X12608753Y-10377889D02*
X12599229Y-10339793D01*
X12599229Y-10339793D02*
X12599229Y-10292174D01*
X12599229Y-10292174D02*
X12608753Y-10254079D01*
X12608753Y-10254079D02*
X12618277Y-10235031D01*
X12618277Y-10235031D02*
X12627801Y-10225508D01*
X12627801Y-10225508D02*
X12646848Y-10215984D01*
X12884944Y-10215984D02*
X12846848Y-10215984D01*
X12846848Y-10215984D02*
X12827801Y-10225508D01*
X12827801Y-10225508D02*
X12818277Y-10235031D01*
X12818277Y-10235031D02*
X12799229Y-10263603D01*
X12799229Y-10263603D02*
X12789706Y-10301698D01*
X12789706Y-10301698D02*
X12789706Y-10377889D01*
X12789706Y-10377889D02*
X12799229Y-10396936D01*
X12799229Y-10396936D02*
X12808753Y-10406460D01*
X12808753Y-10406460D02*
X12827801Y-10415984D01*
X12827801Y-10415984D02*
X12865896Y-10415984D01*
X12865896Y-10415984D02*
X12884944Y-10406460D01*
X12884944Y-10406460D02*
X12894467Y-10396936D01*
X12894467Y-10396936D02*
X12903991Y-10377889D01*
X12903991Y-10377889D02*
X12903991Y-10330270D01*
X12903991Y-10330270D02*
X12894467Y-10311222D01*
X12894467Y-10311222D02*
X12884944Y-10301698D01*
X12884944Y-10301698D02*
X12865896Y-10292174D01*
X12865896Y-10292174D02*
X12827801Y-10292174D01*
X12827801Y-10292174D02*
X12808753Y-10301698D01*
X12808753Y-10301698D02*
X12799229Y-10311222D01*
X12799229Y-10311222D02*
X12789706Y-10330270D01*
X13094467Y-10415984D02*
X12980182Y-10415984D01*
X13037325Y-10415984D02*
X13037325Y-10215984D01*
X13037325Y-10215984D02*
X13018277Y-10244555D01*
X13018277Y-10244555D02*
X12999229Y-10263603D01*
X12999229Y-10263603D02*
X12980182Y-10273127D01*
X13208753Y-10301698D02*
X13189706Y-10292174D01*
X13189706Y-10292174D02*
X13180182Y-10282650D01*
X13180182Y-10282650D02*
X13170658Y-10263603D01*
X13170658Y-10263603D02*
X13170658Y-10254079D01*
X13170658Y-10254079D02*
X13180182Y-10235031D01*
X13180182Y-10235031D02*
X13189706Y-10225508D01*
X13189706Y-10225508D02*
X13208753Y-10215984D01*
X13208753Y-10215984D02*
X13246848Y-10215984D01*
X13246848Y-10215984D02*
X13265896Y-10225508D01*
X13265896Y-10225508D02*
X13275420Y-10235031D01*
X13275420Y-10235031D02*
X13284944Y-10254079D01*
X13284944Y-10254079D02*
X13284944Y-10263603D01*
X13284944Y-10263603D02*
X13275420Y-10282650D01*
X13275420Y-10282650D02*
X13265896Y-10292174D01*
X13265896Y-10292174D02*
X13246848Y-10301698D01*
X13246848Y-10301698D02*
X13208753Y-10301698D01*
X13208753Y-10301698D02*
X13189706Y-10311222D01*
X13189706Y-10311222D02*
X13180182Y-10320746D01*
X13180182Y-10320746D02*
X13170658Y-10339793D01*
X13170658Y-10339793D02*
X13170658Y-10377889D01*
X13170658Y-10377889D02*
X13180182Y-10396936D01*
X13180182Y-10396936D02*
X13189706Y-10406460D01*
X13189706Y-10406460D02*
X13208753Y-10415984D01*
X13208753Y-10415984D02*
X13246848Y-10415984D01*
X13246848Y-10415984D02*
X13265896Y-10406460D01*
X13265896Y-10406460D02*
X13275420Y-10396936D01*
X13275420Y-10396936D02*
X13284944Y-10377889D01*
X13284944Y-10377889D02*
X13284944Y-10339793D01*
X13284944Y-10339793D02*
X13275420Y-10320746D01*
X13275420Y-10320746D02*
X13265896Y-10311222D01*
X13265896Y-10311222D02*
X13246848Y-10301698D01*
X13361134Y-10215984D02*
X13361134Y-10254079D01*
X13437325Y-10215984D02*
X13437325Y-10254079D01*
X13732563Y-10492174D02*
X13723039Y-10482650D01*
X13723039Y-10482650D02*
X13703991Y-10454079D01*
X13703991Y-10454079D02*
X13694468Y-10435031D01*
X13694468Y-10435031D02*
X13684944Y-10406460D01*
X13684944Y-10406460D02*
X13675420Y-10358841D01*
X13675420Y-10358841D02*
X13675420Y-10320746D01*
X13675420Y-10320746D02*
X13684944Y-10273127D01*
X13684944Y-10273127D02*
X13694468Y-10244555D01*
X13694468Y-10244555D02*
X13703991Y-10225508D01*
X13703991Y-10225508D02*
X13723039Y-10196936D01*
X13723039Y-10196936D02*
X13732563Y-10187412D01*
X13799229Y-10235031D02*
X13808753Y-10225508D01*
X13808753Y-10225508D02*
X13827801Y-10215984D01*
X13827801Y-10215984D02*
X13875420Y-10215984D01*
X13875420Y-10215984D02*
X13894468Y-10225508D01*
X13894468Y-10225508D02*
X13903991Y-10235031D01*
X13903991Y-10235031D02*
X13913515Y-10254079D01*
X13913515Y-10254079D02*
X13913515Y-10273127D01*
X13913515Y-10273127D02*
X13903991Y-10301698D01*
X13903991Y-10301698D02*
X13789706Y-10415984D01*
X13789706Y-10415984D02*
X13913515Y-10415984D01*
X14151610Y-10415984D02*
X14151610Y-10215984D01*
X14237325Y-10415984D02*
X14237325Y-10311222D01*
X14237325Y-10311222D02*
X14227801Y-10292174D01*
X14227801Y-10292174D02*
X14208753Y-10282650D01*
X14208753Y-10282650D02*
X14180182Y-10282650D01*
X14180182Y-10282650D02*
X14161134Y-10292174D01*
X14161134Y-10292174D02*
X14151610Y-10301698D01*
X14361134Y-10415984D02*
X14342087Y-10406460D01*
X14342087Y-10406460D02*
X14332563Y-10396936D01*
X14332563Y-10396936D02*
X14323039Y-10377889D01*
X14323039Y-10377889D02*
X14323039Y-10320746D01*
X14323039Y-10320746D02*
X14332563Y-10301698D01*
X14332563Y-10301698D02*
X14342087Y-10292174D01*
X14342087Y-10292174D02*
X14361134Y-10282650D01*
X14361134Y-10282650D02*
X14389706Y-10282650D01*
X14389706Y-10282650D02*
X14408753Y-10292174D01*
X14408753Y-10292174D02*
X14418277Y-10301698D01*
X14418277Y-10301698D02*
X14427801Y-10320746D01*
X14427801Y-10320746D02*
X14427801Y-10377889D01*
X14427801Y-10377889D02*
X14418277Y-10396936D01*
X14418277Y-10396936D02*
X14408753Y-10406460D01*
X14408753Y-10406460D02*
X14389706Y-10415984D01*
X14389706Y-10415984D02*
X14361134Y-10415984D01*
X14542087Y-10415984D02*
X14523039Y-10406460D01*
X14523039Y-10406460D02*
X14513515Y-10387412D01*
X14513515Y-10387412D02*
X14513515Y-10215984D01*
X14694468Y-10406460D02*
X14675420Y-10415984D01*
X14675420Y-10415984D02*
X14637325Y-10415984D01*
X14637325Y-10415984D02*
X14618277Y-10406460D01*
X14618277Y-10406460D02*
X14608753Y-10387412D01*
X14608753Y-10387412D02*
X14608753Y-10311222D01*
X14608753Y-10311222D02*
X14618277Y-10292174D01*
X14618277Y-10292174D02*
X14637325Y-10282650D01*
X14637325Y-10282650D02*
X14675420Y-10282650D01*
X14675420Y-10282650D02*
X14694468Y-10292174D01*
X14694468Y-10292174D02*
X14703991Y-10311222D01*
X14703991Y-10311222D02*
X14703991Y-10330270D01*
X14703991Y-10330270D02*
X14608753Y-10349317D01*
X14780182Y-10406460D02*
X14799230Y-10415984D01*
X14799230Y-10415984D02*
X14837325Y-10415984D01*
X14837325Y-10415984D02*
X14856372Y-10406460D01*
X14856372Y-10406460D02*
X14865896Y-10387412D01*
X14865896Y-10387412D02*
X14865896Y-10377889D01*
X14865896Y-10377889D02*
X14856372Y-10358841D01*
X14856372Y-10358841D02*
X14837325Y-10349317D01*
X14837325Y-10349317D02*
X14808753Y-10349317D01*
X14808753Y-10349317D02*
X14789706Y-10339793D01*
X14789706Y-10339793D02*
X14780182Y-10320746D01*
X14780182Y-10320746D02*
X14780182Y-10311222D01*
X14780182Y-10311222D02*
X14789706Y-10292174D01*
X14789706Y-10292174D02*
X14808753Y-10282650D01*
X14808753Y-10282650D02*
X14837325Y-10282650D01*
X14837325Y-10282650D02*
X14856372Y-10292174D01*
X14932563Y-10492174D02*
X14942087Y-10482650D01*
X14942087Y-10482650D02*
X14961134Y-10454079D01*
X14961134Y-10454079D02*
X14970658Y-10435031D01*
X14970658Y-10435031D02*
X14980182Y-10406460D01*
X14980182Y-10406460D02*
X14989706Y-10358841D01*
X14989706Y-10358841D02*
X14989706Y-10320746D01*
X14989706Y-10320746D02*
X14980182Y-10273127D01*
X14980182Y-10273127D02*
X14970658Y-10244555D01*
X14970658Y-10244555D02*
X14961134Y-10225508D01*
X14961134Y-10225508D02*
X14942087Y-10196936D01*
X14942087Y-10196936D02*
X14932563Y-10187412D01*
X10057500Y-10701500D02*
X10157500Y-10601500D01*
X10057500Y-10501500D01*
X9957500Y-10601500D01*
X10057500Y-10701500D01*
X10408753Y-10512031D02*
X10418277Y-10502508D01*
X10418277Y-10502508D02*
X10437324Y-10492984D01*
X10437324Y-10492984D02*
X10484944Y-10492984D01*
X10484944Y-10492984D02*
X10503991Y-10502508D01*
X10503991Y-10502508D02*
X10513515Y-10512031D01*
X10513515Y-10512031D02*
X10523039Y-10531079D01*
X10523039Y-10531079D02*
X10523039Y-10550127D01*
X10523039Y-10550127D02*
X10513515Y-10578698D01*
X10513515Y-10578698D02*
X10399229Y-10692984D01*
X10399229Y-10692984D02*
X10523039Y-10692984D01*
X10608753Y-10673936D02*
X10618277Y-10683460D01*
X10618277Y-10683460D02*
X10608753Y-10692984D01*
X10608753Y-10692984D02*
X10599229Y-10683460D01*
X10599229Y-10683460D02*
X10608753Y-10673936D01*
X10608753Y-10673936D02*
X10608753Y-10692984D01*
X10694467Y-10512031D02*
X10703991Y-10502508D01*
X10703991Y-10502508D02*
X10723039Y-10492984D01*
X10723039Y-10492984D02*
X10770658Y-10492984D01*
X10770658Y-10492984D02*
X10789705Y-10502508D01*
X10789705Y-10502508D02*
X10799229Y-10512031D01*
X10799229Y-10512031D02*
X10808753Y-10531079D01*
X10808753Y-10531079D02*
X10808753Y-10550127D01*
X10808753Y-10550127D02*
X10799229Y-10578698D01*
X10799229Y-10578698D02*
X10684944Y-10692984D01*
X10684944Y-10692984D02*
X10808753Y-10692984D01*
X10932563Y-10492984D02*
X10951610Y-10492984D01*
X10951610Y-10492984D02*
X10970658Y-10502508D01*
X10970658Y-10502508D02*
X10980182Y-10512031D01*
X10980182Y-10512031D02*
X10989705Y-10531079D01*
X10989705Y-10531079D02*
X10999229Y-10569174D01*
X10999229Y-10569174D02*
X10999229Y-10616793D01*
X10999229Y-10616793D02*
X10989705Y-10654889D01*
X10989705Y-10654889D02*
X10980182Y-10673936D01*
X10980182Y-10673936D02*
X10970658Y-10683460D01*
X10970658Y-10683460D02*
X10951610Y-10692984D01*
X10951610Y-10692984D02*
X10932563Y-10692984D01*
X10932563Y-10692984D02*
X10913515Y-10683460D01*
X10913515Y-10683460D02*
X10903991Y-10673936D01*
X10903991Y-10673936D02*
X10894467Y-10654889D01*
X10894467Y-10654889D02*
X10884944Y-10616793D01*
X10884944Y-10616793D02*
X10884944Y-10569174D01*
X10884944Y-10569174D02*
X10894467Y-10531079D01*
X10894467Y-10531079D02*
X10903991Y-10512031D01*
X10903991Y-10512031D02*
X10913515Y-10502508D01*
X10913515Y-10502508D02*
X10932563Y-10492984D01*
X11123039Y-10492984D02*
X11142086Y-10492984D01*
X11142086Y-10492984D02*
X11161134Y-10502508D01*
X11161134Y-10502508D02*
X11170658Y-10512031D01*
X11170658Y-10512031D02*
X11180182Y-10531079D01*
X11180182Y-10531079D02*
X11189705Y-10569174D01*
X11189705Y-10569174D02*
X11189705Y-10616793D01*
X11189705Y-10616793D02*
X11180182Y-10654889D01*
X11180182Y-10654889D02*
X11170658Y-10673936D01*
X11170658Y-10673936D02*
X11161134Y-10683460D01*
X11161134Y-10683460D02*
X11142086Y-10692984D01*
X11142086Y-10692984D02*
X11123039Y-10692984D01*
X11123039Y-10692984D02*
X11103991Y-10683460D01*
X11103991Y-10683460D02*
X11094467Y-10673936D01*
X11094467Y-10673936D02*
X11084944Y-10654889D01*
X11084944Y-10654889D02*
X11075420Y-10616793D01*
X11075420Y-10616793D02*
X11075420Y-10569174D01*
X11075420Y-10569174D02*
X11084944Y-10531079D01*
X11084944Y-10531079D02*
X11094467Y-10512031D01*
X11094467Y-10512031D02*
X11103991Y-10502508D01*
X11103991Y-10502508D02*
X11123039Y-10492984D01*
X11275420Y-10692984D02*
X11275420Y-10559650D01*
X11275420Y-10578698D02*
X11284943Y-10569174D01*
X11284943Y-10569174D02*
X11303991Y-10559650D01*
X11303991Y-10559650D02*
X11332563Y-10559650D01*
X11332563Y-10559650D02*
X11351610Y-10569174D01*
X11351610Y-10569174D02*
X11361134Y-10588222D01*
X11361134Y-10588222D02*
X11361134Y-10692984D01*
X11361134Y-10588222D02*
X11370658Y-10569174D01*
X11370658Y-10569174D02*
X11389705Y-10559650D01*
X11389705Y-10559650D02*
X11418277Y-10559650D01*
X11418277Y-10559650D02*
X11437324Y-10569174D01*
X11437324Y-10569174D02*
X11446848Y-10588222D01*
X11446848Y-10588222D02*
X11446848Y-10692984D01*
X11542086Y-10692984D02*
X11542086Y-10559650D01*
X11542086Y-10578698D02*
X11551610Y-10569174D01*
X11551610Y-10569174D02*
X11570658Y-10559650D01*
X11570658Y-10559650D02*
X11599229Y-10559650D01*
X11599229Y-10559650D02*
X11618277Y-10569174D01*
X11618277Y-10569174D02*
X11627801Y-10588222D01*
X11627801Y-10588222D02*
X11627801Y-10692984D01*
X11627801Y-10588222D02*
X11637324Y-10569174D01*
X11637324Y-10569174D02*
X11656372Y-10559650D01*
X11656372Y-10559650D02*
X11684943Y-10559650D01*
X11684943Y-10559650D02*
X11703991Y-10569174D01*
X11703991Y-10569174D02*
X11713515Y-10588222D01*
X11713515Y-10588222D02*
X11713515Y-10692984D01*
X12103991Y-10483460D02*
X11932563Y-10740603D01*
X12361134Y-10492984D02*
X12380182Y-10492984D01*
X12380182Y-10492984D02*
X12399229Y-10502508D01*
X12399229Y-10502508D02*
X12408753Y-10512031D01*
X12408753Y-10512031D02*
X12418277Y-10531079D01*
X12418277Y-10531079D02*
X12427801Y-10569174D01*
X12427801Y-10569174D02*
X12427801Y-10616793D01*
X12427801Y-10616793D02*
X12418277Y-10654889D01*
X12418277Y-10654889D02*
X12408753Y-10673936D01*
X12408753Y-10673936D02*
X12399229Y-10683460D01*
X12399229Y-10683460D02*
X12380182Y-10692984D01*
X12380182Y-10692984D02*
X12361134Y-10692984D01*
X12361134Y-10692984D02*
X12342086Y-10683460D01*
X12342086Y-10683460D02*
X12332563Y-10673936D01*
X12332563Y-10673936D02*
X12323039Y-10654889D01*
X12323039Y-10654889D02*
X12313515Y-10616793D01*
X12313515Y-10616793D02*
X12313515Y-10569174D01*
X12313515Y-10569174D02*
X12323039Y-10531079D01*
X12323039Y-10531079D02*
X12332563Y-10512031D01*
X12332563Y-10512031D02*
X12342086Y-10502508D01*
X12342086Y-10502508D02*
X12361134Y-10492984D01*
X12513515Y-10673936D02*
X12523039Y-10683460D01*
X12523039Y-10683460D02*
X12513515Y-10692984D01*
X12513515Y-10692984D02*
X12503991Y-10683460D01*
X12503991Y-10683460D02*
X12513515Y-10673936D01*
X12513515Y-10673936D02*
X12513515Y-10692984D01*
X12646848Y-10492984D02*
X12665896Y-10492984D01*
X12665896Y-10492984D02*
X12684944Y-10502508D01*
X12684944Y-10502508D02*
X12694467Y-10512031D01*
X12694467Y-10512031D02*
X12703991Y-10531079D01*
X12703991Y-10531079D02*
X12713515Y-10569174D01*
X12713515Y-10569174D02*
X12713515Y-10616793D01*
X12713515Y-10616793D02*
X12703991Y-10654889D01*
X12703991Y-10654889D02*
X12694467Y-10673936D01*
X12694467Y-10673936D02*
X12684944Y-10683460D01*
X12684944Y-10683460D02*
X12665896Y-10692984D01*
X12665896Y-10692984D02*
X12646848Y-10692984D01*
X12646848Y-10692984D02*
X12627801Y-10683460D01*
X12627801Y-10683460D02*
X12618277Y-10673936D01*
X12618277Y-10673936D02*
X12608753Y-10654889D01*
X12608753Y-10654889D02*
X12599229Y-10616793D01*
X12599229Y-10616793D02*
X12599229Y-10569174D01*
X12599229Y-10569174D02*
X12608753Y-10531079D01*
X12608753Y-10531079D02*
X12618277Y-10512031D01*
X12618277Y-10512031D02*
X12627801Y-10502508D01*
X12627801Y-10502508D02*
X12646848Y-10492984D01*
X12827801Y-10578698D02*
X12808753Y-10569174D01*
X12808753Y-10569174D02*
X12799229Y-10559650D01*
X12799229Y-10559650D02*
X12789706Y-10540603D01*
X12789706Y-10540603D02*
X12789706Y-10531079D01*
X12789706Y-10531079D02*
X12799229Y-10512031D01*
X12799229Y-10512031D02*
X12808753Y-10502508D01*
X12808753Y-10502508D02*
X12827801Y-10492984D01*
X12827801Y-10492984D02*
X12865896Y-10492984D01*
X12865896Y-10492984D02*
X12884944Y-10502508D01*
X12884944Y-10502508D02*
X12894467Y-10512031D01*
X12894467Y-10512031D02*
X12903991Y-10531079D01*
X12903991Y-10531079D02*
X12903991Y-10540603D01*
X12903991Y-10540603D02*
X12894467Y-10559650D01*
X12894467Y-10559650D02*
X12884944Y-10569174D01*
X12884944Y-10569174D02*
X12865896Y-10578698D01*
X12865896Y-10578698D02*
X12827801Y-10578698D01*
X12827801Y-10578698D02*
X12808753Y-10588222D01*
X12808753Y-10588222D02*
X12799229Y-10597746D01*
X12799229Y-10597746D02*
X12789706Y-10616793D01*
X12789706Y-10616793D02*
X12789706Y-10654889D01*
X12789706Y-10654889D02*
X12799229Y-10673936D01*
X12799229Y-10673936D02*
X12808753Y-10683460D01*
X12808753Y-10683460D02*
X12827801Y-10692984D01*
X12827801Y-10692984D02*
X12865896Y-10692984D01*
X12865896Y-10692984D02*
X12884944Y-10683460D01*
X12884944Y-10683460D02*
X12894467Y-10673936D01*
X12894467Y-10673936D02*
X12903991Y-10654889D01*
X12903991Y-10654889D02*
X12903991Y-10616793D01*
X12903991Y-10616793D02*
X12894467Y-10597746D01*
X12894467Y-10597746D02*
X12884944Y-10588222D01*
X12884944Y-10588222D02*
X12865896Y-10578698D01*
X13075420Y-10492984D02*
X13037325Y-10492984D01*
X13037325Y-10492984D02*
X13018277Y-10502508D01*
X13018277Y-10502508D02*
X13008753Y-10512031D01*
X13008753Y-10512031D02*
X12989706Y-10540603D01*
X12989706Y-10540603D02*
X12980182Y-10578698D01*
X12980182Y-10578698D02*
X12980182Y-10654889D01*
X12980182Y-10654889D02*
X12989706Y-10673936D01*
X12989706Y-10673936D02*
X12999229Y-10683460D01*
X12999229Y-10683460D02*
X13018277Y-10692984D01*
X13018277Y-10692984D02*
X13056372Y-10692984D01*
X13056372Y-10692984D02*
X13075420Y-10683460D01*
X13075420Y-10683460D02*
X13084944Y-10673936D01*
X13084944Y-10673936D02*
X13094467Y-10654889D01*
X13094467Y-10654889D02*
X13094467Y-10607270D01*
X13094467Y-10607270D02*
X13084944Y-10588222D01*
X13084944Y-10588222D02*
X13075420Y-10578698D01*
X13075420Y-10578698D02*
X13056372Y-10569174D01*
X13056372Y-10569174D02*
X13018277Y-10569174D01*
X13018277Y-10569174D02*
X12999229Y-10578698D01*
X12999229Y-10578698D02*
X12989706Y-10588222D01*
X12989706Y-10588222D02*
X12980182Y-10607270D01*
X13265896Y-10492984D02*
X13227801Y-10492984D01*
X13227801Y-10492984D02*
X13208753Y-10502508D01*
X13208753Y-10502508D02*
X13199229Y-10512031D01*
X13199229Y-10512031D02*
X13180182Y-10540603D01*
X13180182Y-10540603D02*
X13170658Y-10578698D01*
X13170658Y-10578698D02*
X13170658Y-10654889D01*
X13170658Y-10654889D02*
X13180182Y-10673936D01*
X13180182Y-10673936D02*
X13189706Y-10683460D01*
X13189706Y-10683460D02*
X13208753Y-10692984D01*
X13208753Y-10692984D02*
X13246848Y-10692984D01*
X13246848Y-10692984D02*
X13265896Y-10683460D01*
X13265896Y-10683460D02*
X13275420Y-10673936D01*
X13275420Y-10673936D02*
X13284944Y-10654889D01*
X13284944Y-10654889D02*
X13284944Y-10607270D01*
X13284944Y-10607270D02*
X13275420Y-10588222D01*
X13275420Y-10588222D02*
X13265896Y-10578698D01*
X13265896Y-10578698D02*
X13246848Y-10569174D01*
X13246848Y-10569174D02*
X13208753Y-10569174D01*
X13208753Y-10569174D02*
X13189706Y-10578698D01*
X13189706Y-10578698D02*
X13180182Y-10588222D01*
X13180182Y-10588222D02*
X13170658Y-10607270D01*
X13361134Y-10492984D02*
X13361134Y-10531079D01*
X13437325Y-10492984D02*
X13437325Y-10531079D01*
X13732563Y-10769174D02*
X13723039Y-10759650D01*
X13723039Y-10759650D02*
X13703991Y-10731079D01*
X13703991Y-10731079D02*
X13694468Y-10712031D01*
X13694468Y-10712031D02*
X13684944Y-10683460D01*
X13684944Y-10683460D02*
X13675420Y-10635841D01*
X13675420Y-10635841D02*
X13675420Y-10597746D01*
X13675420Y-10597746D02*
X13684944Y-10550127D01*
X13684944Y-10550127D02*
X13694468Y-10521555D01*
X13694468Y-10521555D02*
X13703991Y-10502508D01*
X13703991Y-10502508D02*
X13723039Y-10473936D01*
X13723039Y-10473936D02*
X13732563Y-10464412D01*
X13789706Y-10492984D02*
X13913515Y-10492984D01*
X13913515Y-10492984D02*
X13846848Y-10569174D01*
X13846848Y-10569174D02*
X13875420Y-10569174D01*
X13875420Y-10569174D02*
X13894468Y-10578698D01*
X13894468Y-10578698D02*
X13903991Y-10588222D01*
X13903991Y-10588222D02*
X13913515Y-10607270D01*
X13913515Y-10607270D02*
X13913515Y-10654889D01*
X13913515Y-10654889D02*
X13903991Y-10673936D01*
X13903991Y-10673936D02*
X13894468Y-10683460D01*
X13894468Y-10683460D02*
X13875420Y-10692984D01*
X13875420Y-10692984D02*
X13818277Y-10692984D01*
X13818277Y-10692984D02*
X13799229Y-10683460D01*
X13799229Y-10683460D02*
X13789706Y-10673936D01*
X14151610Y-10692984D02*
X14151610Y-10492984D01*
X14237325Y-10692984D02*
X14237325Y-10588222D01*
X14237325Y-10588222D02*
X14227801Y-10569174D01*
X14227801Y-10569174D02*
X14208753Y-10559650D01*
X14208753Y-10559650D02*
X14180182Y-10559650D01*
X14180182Y-10559650D02*
X14161134Y-10569174D01*
X14161134Y-10569174D02*
X14151610Y-10578698D01*
X14361134Y-10692984D02*
X14342087Y-10683460D01*
X14342087Y-10683460D02*
X14332563Y-10673936D01*
X14332563Y-10673936D02*
X14323039Y-10654889D01*
X14323039Y-10654889D02*
X14323039Y-10597746D01*
X14323039Y-10597746D02*
X14332563Y-10578698D01*
X14332563Y-10578698D02*
X14342087Y-10569174D01*
X14342087Y-10569174D02*
X14361134Y-10559650D01*
X14361134Y-10559650D02*
X14389706Y-10559650D01*
X14389706Y-10559650D02*
X14408753Y-10569174D01*
X14408753Y-10569174D02*
X14418277Y-10578698D01*
X14418277Y-10578698D02*
X14427801Y-10597746D01*
X14427801Y-10597746D02*
X14427801Y-10654889D01*
X14427801Y-10654889D02*
X14418277Y-10673936D01*
X14418277Y-10673936D02*
X14408753Y-10683460D01*
X14408753Y-10683460D02*
X14389706Y-10692984D01*
X14389706Y-10692984D02*
X14361134Y-10692984D01*
X14542087Y-10692984D02*
X14523039Y-10683460D01*
X14523039Y-10683460D02*
X14513515Y-10664412D01*
X14513515Y-10664412D02*
X14513515Y-10492984D01*
X14694468Y-10683460D02*
X14675420Y-10692984D01*
X14675420Y-10692984D02*
X14637325Y-10692984D01*
X14637325Y-10692984D02*
X14618277Y-10683460D01*
X14618277Y-10683460D02*
X14608753Y-10664412D01*
X14608753Y-10664412D02*
X14608753Y-10588222D01*
X14608753Y-10588222D02*
X14618277Y-10569174D01*
X14618277Y-10569174D02*
X14637325Y-10559650D01*
X14637325Y-10559650D02*
X14675420Y-10559650D01*
X14675420Y-10559650D02*
X14694468Y-10569174D01*
X14694468Y-10569174D02*
X14703991Y-10588222D01*
X14703991Y-10588222D02*
X14703991Y-10607270D01*
X14703991Y-10607270D02*
X14608753Y-10626317D01*
X14780182Y-10683460D02*
X14799230Y-10692984D01*
X14799230Y-10692984D02*
X14837325Y-10692984D01*
X14837325Y-10692984D02*
X14856372Y-10683460D01*
X14856372Y-10683460D02*
X14865896Y-10664412D01*
X14865896Y-10664412D02*
X14865896Y-10654889D01*
X14865896Y-10654889D02*
X14856372Y-10635841D01*
X14856372Y-10635841D02*
X14837325Y-10626317D01*
X14837325Y-10626317D02*
X14808753Y-10626317D01*
X14808753Y-10626317D02*
X14789706Y-10616793D01*
X14789706Y-10616793D02*
X14780182Y-10597746D01*
X14780182Y-10597746D02*
X14780182Y-10588222D01*
X14780182Y-10588222D02*
X14789706Y-10569174D01*
X14789706Y-10569174D02*
X14808753Y-10559650D01*
X14808753Y-10559650D02*
X14837325Y-10559650D01*
X14837325Y-10559650D02*
X14856372Y-10569174D01*
X14932563Y-10769174D02*
X14942087Y-10759650D01*
X14942087Y-10759650D02*
X14961134Y-10731079D01*
X14961134Y-10731079D02*
X14970658Y-10712031D01*
X14970658Y-10712031D02*
X14980182Y-10683460D01*
X14980182Y-10683460D02*
X14989706Y-10635841D01*
X14989706Y-10635841D02*
X14989706Y-10597746D01*
X14989706Y-10597746D02*
X14980182Y-10550127D01*
X14980182Y-10550127D02*
X14970658Y-10521555D01*
X14970658Y-10521555D02*
X14961134Y-10502508D01*
X14961134Y-10502508D02*
X14942087Y-10473936D01*
X14942087Y-10473936D02*
X14932563Y-10464412D01*
M02*
