%TF.GenerationSoftware,KiCad,Pcbnew,8.0.5*%
%TF.CreationDate,2024-10-10T08:51:45+02:00*%
%TF.ProjectId,USB-Extender_v1,5553422d-4578-4746-956e-6465725f7631,rev?*%
%TF.SameCoordinates,Original*%
%TF.FileFunction,Paste,Top*%
%TF.FilePolarity,Positive*%
%FSLAX46Y46*%
G04 Gerber Fmt 4.6, Leading zero omitted, Abs format (unit mm)*
G04 Created by KiCad (PCBNEW 8.0.5) date 2024-10-10 08:51:45*
%MOMM*%
%LPD*%
G01*
G04 APERTURE LIST*
G04 Aperture macros list*
%AMRoundRect*
0 Rectangle with rounded corners*
0 $1 Rounding radius*
0 $2 $3 $4 $5 $6 $7 $8 $9 X,Y pos of 4 corners*
0 Add a 4 corners polygon primitive as box body*
4,1,4,$2,$3,$4,$5,$6,$7,$8,$9,$2,$3,0*
0 Add four circle primitives for the rounded corners*
1,1,$1+$1,$2,$3*
1,1,$1+$1,$4,$5*
1,1,$1+$1,$6,$7*
1,1,$1+$1,$8,$9*
0 Add four rect primitives between the rounded corners*
20,1,$1+$1,$2,$3,$4,$5,0*
20,1,$1+$1,$4,$5,$6,$7,0*
20,1,$1+$1,$6,$7,$8,$9,0*
20,1,$1+$1,$8,$9,$2,$3,0*%
G04 Aperture macros list end*
%ADD10RoundRect,0.250000X-0.475000X0.337500X-0.475000X-0.337500X0.475000X-0.337500X0.475000X0.337500X0*%
%ADD11RoundRect,0.250000X0.550000X-1.500000X0.550000X1.500000X-0.550000X1.500000X-0.550000X-1.500000X0*%
%ADD12RoundRect,0.250000X-0.450000X0.350000X-0.450000X-0.350000X0.450000X-0.350000X0.450000X0.350000X0*%
%ADD13R,2.500000X0.500000*%
%ADD14R,2.500000X2.000000*%
%ADD15RoundRect,0.150000X0.825000X0.150000X-0.825000X0.150000X-0.825000X-0.150000X0.825000X-0.150000X0*%
%ADD16RoundRect,0.250000X0.475000X-0.337500X0.475000X0.337500X-0.475000X0.337500X-0.475000X-0.337500X0*%
%ADD17RoundRect,0.093750X-0.156250X-0.093750X0.156250X-0.093750X0.156250X0.093750X-0.156250X0.093750X0*%
%ADD18RoundRect,0.075000X-0.250000X-0.075000X0.250000X-0.075000X0.250000X0.075000X-0.250000X0.075000X0*%
G04 APERTURE END LIST*
D10*
%TO.C,C2*%
X128270000Y-65387400D03*
X128270000Y-67462400D03*
%TD*%
%TO.C,C1*%
X135229600Y-84664800D03*
X135229600Y-86739800D03*
%TD*%
D11*
%TO.C,C6*%
X126492000Y-86360000D03*
X126492000Y-80960000D03*
%TD*%
D10*
%TO.C,C4*%
X132867400Y-84664800D03*
X132867400Y-86739800D03*
%TD*%
%TO.C,C3*%
X125882400Y-65408900D03*
X125882400Y-67483900D03*
%TD*%
D12*
%TO.C,R1*%
X139954000Y-84683600D03*
X139954000Y-86683600D03*
%TD*%
D13*
%TO.C,J3*%
X108882600Y-63474800D03*
X108882600Y-64274800D03*
X108882600Y-65074800D03*
X108882600Y-65874800D03*
X108882600Y-66674800D03*
D14*
X108882600Y-60674800D03*
X103382600Y-60674800D03*
X108882600Y-69474800D03*
X103382600Y-69474800D03*
%TD*%
D15*
%TO.C,U1*%
X121310400Y-76454000D03*
X121310400Y-75184000D03*
X121310400Y-73914000D03*
X121310400Y-72644000D03*
X121310400Y-71374000D03*
X121310400Y-70104000D03*
X121310400Y-68834000D03*
X116360400Y-68834000D03*
X116360400Y-70104000D03*
X116360400Y-71374000D03*
X116360400Y-72644000D03*
X116360400Y-73914000D03*
X116360400Y-75184000D03*
X116360400Y-76454000D03*
%TD*%
D12*
%TO.C,R2*%
X137617200Y-84683600D03*
X137617200Y-86683600D03*
%TD*%
D16*
%TO.C,C7*%
X113588800Y-70612000D03*
X113588800Y-68537000D03*
%TD*%
D17*
%TO.C,U2*%
X111584000Y-72898000D03*
D18*
X111509000Y-73435500D03*
D17*
X111584000Y-73973000D03*
X113284000Y-73973000D03*
D18*
X113359000Y-73435500D03*
D17*
X113284000Y-72898000D03*
%TD*%
D11*
%TO.C,C5*%
X118160800Y-86301600D03*
X118160800Y-80901600D03*
%TD*%
M02*
