%TF.GenerationSoftware,KiCad,Pcbnew,8.0.5*%
%TF.CreationDate,2024-10-09T12:38:14+02:00*%
%TF.ProjectId,USB-Extender_v1,5553422d-4578-4746-956e-6465725f7631,rev?*%
%TF.SameCoordinates,Original*%
%TF.FileFunction,Drillmap*%
%TF.FilePolarity,Positive*%
%FSLAX45Y45*%
G04 Gerber Fmt 4.5, Leading zero omitted, Abs format (unit mm)*
G04 Created by KiCad (PCBNEW 8.0.5) date 2024-10-09 12:38:14*
%MOMM*%
%LPD*%
G01*
G04 APERTURE LIST*
%ADD10C,0.050000*%
%ADD11C,0.200000*%
%ADD12C,0.100000*%
%ADD13C,0.325000*%
G04 APERTURE END LIST*
D10*
X10160000Y-5842000D02*
X14610080Y-5842000D01*
X14610080Y-8890000D01*
X10160000Y-8890000D01*
X10160000Y-5842000D01*
D11*
D12*
X10583260Y-6242480D02*
X10673260Y-6332480D01*
X10673260Y-6242480D02*
X10583260Y-6332480D01*
X10583260Y-6682480D02*
X10673260Y-6772480D01*
X10673260Y-6682480D02*
X10583260Y-6772480D01*
D13*
X14455280Y-6725920D02*
G75*
G02*
X14130280Y-6725920I-162500J0D01*
G01*
X14130280Y-6725920D02*
G75*
G02*
X14455280Y-6725920I162500J0D01*
G01*
X14455280Y-7995920D02*
G75*
G02*
X14130280Y-7995920I-162500J0D01*
G01*
X14130280Y-7995920D02*
G75*
G02*
X14455280Y-7995920I162500J0D01*
G01*
D11*
X10418277Y-9203984D02*
X10418277Y-9003984D01*
X10418277Y-9003984D02*
X10465896Y-9003984D01*
X10465896Y-9003984D02*
X10494467Y-9013508D01*
X10494467Y-9013508D02*
X10513515Y-9032555D01*
X10513515Y-9032555D02*
X10523039Y-9051603D01*
X10523039Y-9051603D02*
X10532563Y-9089698D01*
X10532563Y-9089698D02*
X10532563Y-9118270D01*
X10532563Y-9118270D02*
X10523039Y-9156365D01*
X10523039Y-9156365D02*
X10513515Y-9175412D01*
X10513515Y-9175412D02*
X10494467Y-9194460D01*
X10494467Y-9194460D02*
X10465896Y-9203984D01*
X10465896Y-9203984D02*
X10418277Y-9203984D01*
X10618277Y-9203984D02*
X10618277Y-9070650D01*
X10618277Y-9108746D02*
X10627801Y-9089698D01*
X10627801Y-9089698D02*
X10637324Y-9080174D01*
X10637324Y-9080174D02*
X10656372Y-9070650D01*
X10656372Y-9070650D02*
X10675420Y-9070650D01*
X10742086Y-9203984D02*
X10742086Y-9070650D01*
X10742086Y-9003984D02*
X10732563Y-9013508D01*
X10732563Y-9013508D02*
X10742086Y-9023031D01*
X10742086Y-9023031D02*
X10751610Y-9013508D01*
X10751610Y-9013508D02*
X10742086Y-9003984D01*
X10742086Y-9003984D02*
X10742086Y-9023031D01*
X10865896Y-9203984D02*
X10846848Y-9194460D01*
X10846848Y-9194460D02*
X10837324Y-9175412D01*
X10837324Y-9175412D02*
X10837324Y-9003984D01*
X10970658Y-9203984D02*
X10951610Y-9194460D01*
X10951610Y-9194460D02*
X10942086Y-9175412D01*
X10942086Y-9175412D02*
X10942086Y-9003984D01*
X11199229Y-9203984D02*
X11199229Y-9003984D01*
X11199229Y-9003984D02*
X11265896Y-9146841D01*
X11265896Y-9146841D02*
X11332562Y-9003984D01*
X11332562Y-9003984D02*
X11332562Y-9203984D01*
X11513515Y-9203984D02*
X11513515Y-9099222D01*
X11513515Y-9099222D02*
X11503991Y-9080174D01*
X11503991Y-9080174D02*
X11484943Y-9070650D01*
X11484943Y-9070650D02*
X11446848Y-9070650D01*
X11446848Y-9070650D02*
X11427801Y-9080174D01*
X11513515Y-9194460D02*
X11494467Y-9203984D01*
X11494467Y-9203984D02*
X11446848Y-9203984D01*
X11446848Y-9203984D02*
X11427801Y-9194460D01*
X11427801Y-9194460D02*
X11418277Y-9175412D01*
X11418277Y-9175412D02*
X11418277Y-9156365D01*
X11418277Y-9156365D02*
X11427801Y-9137317D01*
X11427801Y-9137317D02*
X11446848Y-9127793D01*
X11446848Y-9127793D02*
X11494467Y-9127793D01*
X11494467Y-9127793D02*
X11513515Y-9118270D01*
X11608753Y-9070650D02*
X11608753Y-9270650D01*
X11608753Y-9080174D02*
X11627801Y-9070650D01*
X11627801Y-9070650D02*
X11665896Y-9070650D01*
X11665896Y-9070650D02*
X11684943Y-9080174D01*
X11684943Y-9080174D02*
X11694467Y-9089698D01*
X11694467Y-9089698D02*
X11703991Y-9108746D01*
X11703991Y-9108746D02*
X11703991Y-9165889D01*
X11703991Y-9165889D02*
X11694467Y-9184936D01*
X11694467Y-9184936D02*
X11684943Y-9194460D01*
X11684943Y-9194460D02*
X11665896Y-9203984D01*
X11665896Y-9203984D02*
X11627801Y-9203984D01*
X11627801Y-9203984D02*
X11608753Y-9194460D01*
X11789705Y-9184936D02*
X11799229Y-9194460D01*
X11799229Y-9194460D02*
X11789705Y-9203984D01*
X11789705Y-9203984D02*
X11780182Y-9194460D01*
X11780182Y-9194460D02*
X11789705Y-9184936D01*
X11789705Y-9184936D02*
X11789705Y-9203984D01*
X11789705Y-9080174D02*
X11799229Y-9089698D01*
X11799229Y-9089698D02*
X11789705Y-9099222D01*
X11789705Y-9099222D02*
X11780182Y-9089698D01*
X11780182Y-9089698D02*
X11789705Y-9080174D01*
X11789705Y-9080174D02*
X11789705Y-9099222D01*
D12*
X10067500Y-9487500D02*
X10157500Y-9577500D01*
X10157500Y-9487500D02*
X10067500Y-9577500D01*
D11*
X10456372Y-9423984D02*
X10475420Y-9423984D01*
X10475420Y-9423984D02*
X10494467Y-9433508D01*
X10494467Y-9433508D02*
X10503991Y-9443031D01*
X10503991Y-9443031D02*
X10513515Y-9462079D01*
X10513515Y-9462079D02*
X10523039Y-9500174D01*
X10523039Y-9500174D02*
X10523039Y-9547793D01*
X10523039Y-9547793D02*
X10513515Y-9585889D01*
X10513515Y-9585889D02*
X10503991Y-9604936D01*
X10503991Y-9604936D02*
X10494467Y-9614460D01*
X10494467Y-9614460D02*
X10475420Y-9623984D01*
X10475420Y-9623984D02*
X10456372Y-9623984D01*
X10456372Y-9623984D02*
X10437324Y-9614460D01*
X10437324Y-9614460D02*
X10427801Y-9604936D01*
X10427801Y-9604936D02*
X10418277Y-9585889D01*
X10418277Y-9585889D02*
X10408753Y-9547793D01*
X10408753Y-9547793D02*
X10408753Y-9500174D01*
X10408753Y-9500174D02*
X10418277Y-9462079D01*
X10418277Y-9462079D02*
X10427801Y-9443031D01*
X10427801Y-9443031D02*
X10437324Y-9433508D01*
X10437324Y-9433508D02*
X10456372Y-9423984D01*
X10608753Y-9604936D02*
X10618277Y-9614460D01*
X10618277Y-9614460D02*
X10608753Y-9623984D01*
X10608753Y-9623984D02*
X10599229Y-9614460D01*
X10599229Y-9614460D02*
X10608753Y-9604936D01*
X10608753Y-9604936D02*
X10608753Y-9623984D01*
X10713515Y-9623984D02*
X10751610Y-9623984D01*
X10751610Y-9623984D02*
X10770658Y-9614460D01*
X10770658Y-9614460D02*
X10780182Y-9604936D01*
X10780182Y-9604936D02*
X10799229Y-9576365D01*
X10799229Y-9576365D02*
X10808753Y-9538270D01*
X10808753Y-9538270D02*
X10808753Y-9462079D01*
X10808753Y-9462079D02*
X10799229Y-9443031D01*
X10799229Y-9443031D02*
X10789705Y-9433508D01*
X10789705Y-9433508D02*
X10770658Y-9423984D01*
X10770658Y-9423984D02*
X10732563Y-9423984D01*
X10732563Y-9423984D02*
X10713515Y-9433508D01*
X10713515Y-9433508D02*
X10703991Y-9443031D01*
X10703991Y-9443031D02*
X10694467Y-9462079D01*
X10694467Y-9462079D02*
X10694467Y-9509698D01*
X10694467Y-9509698D02*
X10703991Y-9528746D01*
X10703991Y-9528746D02*
X10713515Y-9538270D01*
X10713515Y-9538270D02*
X10732563Y-9547793D01*
X10732563Y-9547793D02*
X10770658Y-9547793D01*
X10770658Y-9547793D02*
X10789705Y-9538270D01*
X10789705Y-9538270D02*
X10799229Y-9528746D01*
X10799229Y-9528746D02*
X10808753Y-9509698D01*
X10932563Y-9423984D02*
X10951610Y-9423984D01*
X10951610Y-9423984D02*
X10970658Y-9433508D01*
X10970658Y-9433508D02*
X10980182Y-9443031D01*
X10980182Y-9443031D02*
X10989705Y-9462079D01*
X10989705Y-9462079D02*
X10999229Y-9500174D01*
X10999229Y-9500174D02*
X10999229Y-9547793D01*
X10999229Y-9547793D02*
X10989705Y-9585889D01*
X10989705Y-9585889D02*
X10980182Y-9604936D01*
X10980182Y-9604936D02*
X10970658Y-9614460D01*
X10970658Y-9614460D02*
X10951610Y-9623984D01*
X10951610Y-9623984D02*
X10932563Y-9623984D01*
X10932563Y-9623984D02*
X10913515Y-9614460D01*
X10913515Y-9614460D02*
X10903991Y-9604936D01*
X10903991Y-9604936D02*
X10894467Y-9585889D01*
X10894467Y-9585889D02*
X10884944Y-9547793D01*
X10884944Y-9547793D02*
X10884944Y-9500174D01*
X10884944Y-9500174D02*
X10894467Y-9462079D01*
X10894467Y-9462079D02*
X10903991Y-9443031D01*
X10903991Y-9443031D02*
X10913515Y-9433508D01*
X10913515Y-9433508D02*
X10932563Y-9423984D01*
X11123039Y-9423984D02*
X11142086Y-9423984D01*
X11142086Y-9423984D02*
X11161134Y-9433508D01*
X11161134Y-9433508D02*
X11170658Y-9443031D01*
X11170658Y-9443031D02*
X11180182Y-9462079D01*
X11180182Y-9462079D02*
X11189705Y-9500174D01*
X11189705Y-9500174D02*
X11189705Y-9547793D01*
X11189705Y-9547793D02*
X11180182Y-9585889D01*
X11180182Y-9585889D02*
X11170658Y-9604936D01*
X11170658Y-9604936D02*
X11161134Y-9614460D01*
X11161134Y-9614460D02*
X11142086Y-9623984D01*
X11142086Y-9623984D02*
X11123039Y-9623984D01*
X11123039Y-9623984D02*
X11103991Y-9614460D01*
X11103991Y-9614460D02*
X11094467Y-9604936D01*
X11094467Y-9604936D02*
X11084944Y-9585889D01*
X11084944Y-9585889D02*
X11075420Y-9547793D01*
X11075420Y-9547793D02*
X11075420Y-9500174D01*
X11075420Y-9500174D02*
X11084944Y-9462079D01*
X11084944Y-9462079D02*
X11094467Y-9443031D01*
X11094467Y-9443031D02*
X11103991Y-9433508D01*
X11103991Y-9433508D02*
X11123039Y-9423984D01*
X11275420Y-9623984D02*
X11275420Y-9490650D01*
X11275420Y-9509698D02*
X11284943Y-9500174D01*
X11284943Y-9500174D02*
X11303991Y-9490650D01*
X11303991Y-9490650D02*
X11332563Y-9490650D01*
X11332563Y-9490650D02*
X11351610Y-9500174D01*
X11351610Y-9500174D02*
X11361134Y-9519222D01*
X11361134Y-9519222D02*
X11361134Y-9623984D01*
X11361134Y-9519222D02*
X11370658Y-9500174D01*
X11370658Y-9500174D02*
X11389705Y-9490650D01*
X11389705Y-9490650D02*
X11418277Y-9490650D01*
X11418277Y-9490650D02*
X11437324Y-9500174D01*
X11437324Y-9500174D02*
X11446848Y-9519222D01*
X11446848Y-9519222D02*
X11446848Y-9623984D01*
X11542086Y-9623984D02*
X11542086Y-9490650D01*
X11542086Y-9509698D02*
X11551610Y-9500174D01*
X11551610Y-9500174D02*
X11570658Y-9490650D01*
X11570658Y-9490650D02*
X11599229Y-9490650D01*
X11599229Y-9490650D02*
X11618277Y-9500174D01*
X11618277Y-9500174D02*
X11627801Y-9519222D01*
X11627801Y-9519222D02*
X11627801Y-9623984D01*
X11627801Y-9519222D02*
X11637324Y-9500174D01*
X11637324Y-9500174D02*
X11656372Y-9490650D01*
X11656372Y-9490650D02*
X11684943Y-9490650D01*
X11684943Y-9490650D02*
X11703991Y-9500174D01*
X11703991Y-9500174D02*
X11713515Y-9519222D01*
X11713515Y-9519222D02*
X11713515Y-9623984D01*
X12103991Y-9414460D02*
X11932563Y-9671603D01*
X12361134Y-9423984D02*
X12380182Y-9423984D01*
X12380182Y-9423984D02*
X12399229Y-9433508D01*
X12399229Y-9433508D02*
X12408753Y-9443031D01*
X12408753Y-9443031D02*
X12418277Y-9462079D01*
X12418277Y-9462079D02*
X12427801Y-9500174D01*
X12427801Y-9500174D02*
X12427801Y-9547793D01*
X12427801Y-9547793D02*
X12418277Y-9585889D01*
X12418277Y-9585889D02*
X12408753Y-9604936D01*
X12408753Y-9604936D02*
X12399229Y-9614460D01*
X12399229Y-9614460D02*
X12380182Y-9623984D01*
X12380182Y-9623984D02*
X12361134Y-9623984D01*
X12361134Y-9623984D02*
X12342086Y-9614460D01*
X12342086Y-9614460D02*
X12332563Y-9604936D01*
X12332563Y-9604936D02*
X12323039Y-9585889D01*
X12323039Y-9585889D02*
X12313515Y-9547793D01*
X12313515Y-9547793D02*
X12313515Y-9500174D01*
X12313515Y-9500174D02*
X12323039Y-9462079D01*
X12323039Y-9462079D02*
X12332563Y-9443031D01*
X12332563Y-9443031D02*
X12342086Y-9433508D01*
X12342086Y-9433508D02*
X12361134Y-9423984D01*
X12513515Y-9604936D02*
X12523039Y-9614460D01*
X12523039Y-9614460D02*
X12513515Y-9623984D01*
X12513515Y-9623984D02*
X12503991Y-9614460D01*
X12503991Y-9614460D02*
X12513515Y-9604936D01*
X12513515Y-9604936D02*
X12513515Y-9623984D01*
X12646848Y-9423984D02*
X12665896Y-9423984D01*
X12665896Y-9423984D02*
X12684944Y-9433508D01*
X12684944Y-9433508D02*
X12694467Y-9443031D01*
X12694467Y-9443031D02*
X12703991Y-9462079D01*
X12703991Y-9462079D02*
X12713515Y-9500174D01*
X12713515Y-9500174D02*
X12713515Y-9547793D01*
X12713515Y-9547793D02*
X12703991Y-9585889D01*
X12703991Y-9585889D02*
X12694467Y-9604936D01*
X12694467Y-9604936D02*
X12684944Y-9614460D01*
X12684944Y-9614460D02*
X12665896Y-9623984D01*
X12665896Y-9623984D02*
X12646848Y-9623984D01*
X12646848Y-9623984D02*
X12627801Y-9614460D01*
X12627801Y-9614460D02*
X12618277Y-9604936D01*
X12618277Y-9604936D02*
X12608753Y-9585889D01*
X12608753Y-9585889D02*
X12599229Y-9547793D01*
X12599229Y-9547793D02*
X12599229Y-9500174D01*
X12599229Y-9500174D02*
X12608753Y-9462079D01*
X12608753Y-9462079D02*
X12618277Y-9443031D01*
X12618277Y-9443031D02*
X12627801Y-9433508D01*
X12627801Y-9433508D02*
X12646848Y-9423984D01*
X12780182Y-9423984D02*
X12903991Y-9423984D01*
X12903991Y-9423984D02*
X12837325Y-9500174D01*
X12837325Y-9500174D02*
X12865896Y-9500174D01*
X12865896Y-9500174D02*
X12884944Y-9509698D01*
X12884944Y-9509698D02*
X12894467Y-9519222D01*
X12894467Y-9519222D02*
X12903991Y-9538270D01*
X12903991Y-9538270D02*
X12903991Y-9585889D01*
X12903991Y-9585889D02*
X12894467Y-9604936D01*
X12894467Y-9604936D02*
X12884944Y-9614460D01*
X12884944Y-9614460D02*
X12865896Y-9623984D01*
X12865896Y-9623984D02*
X12808753Y-9623984D01*
X12808753Y-9623984D02*
X12789706Y-9614460D01*
X12789706Y-9614460D02*
X12780182Y-9604936D01*
X13084944Y-9423984D02*
X12989706Y-9423984D01*
X12989706Y-9423984D02*
X12980182Y-9519222D01*
X12980182Y-9519222D02*
X12989706Y-9509698D01*
X12989706Y-9509698D02*
X13008753Y-9500174D01*
X13008753Y-9500174D02*
X13056372Y-9500174D01*
X13056372Y-9500174D02*
X13075420Y-9509698D01*
X13075420Y-9509698D02*
X13084944Y-9519222D01*
X13084944Y-9519222D02*
X13094467Y-9538270D01*
X13094467Y-9538270D02*
X13094467Y-9585889D01*
X13094467Y-9585889D02*
X13084944Y-9604936D01*
X13084944Y-9604936D02*
X13075420Y-9614460D01*
X13075420Y-9614460D02*
X13056372Y-9623984D01*
X13056372Y-9623984D02*
X13008753Y-9623984D01*
X13008753Y-9623984D02*
X12989706Y-9614460D01*
X12989706Y-9614460D02*
X12980182Y-9604936D01*
X13265896Y-9490650D02*
X13265896Y-9623984D01*
X13218277Y-9414460D02*
X13170658Y-9557317D01*
X13170658Y-9557317D02*
X13294467Y-9557317D01*
X13361134Y-9423984D02*
X13361134Y-9462079D01*
X13437325Y-9423984D02*
X13437325Y-9462079D01*
X13732563Y-9700174D02*
X13723039Y-9690650D01*
X13723039Y-9690650D02*
X13703991Y-9662079D01*
X13703991Y-9662079D02*
X13694468Y-9643031D01*
X13694468Y-9643031D02*
X13684944Y-9614460D01*
X13684944Y-9614460D02*
X13675420Y-9566841D01*
X13675420Y-9566841D02*
X13675420Y-9528746D01*
X13675420Y-9528746D02*
X13684944Y-9481127D01*
X13684944Y-9481127D02*
X13694468Y-9452555D01*
X13694468Y-9452555D02*
X13703991Y-9433508D01*
X13703991Y-9433508D02*
X13723039Y-9404936D01*
X13723039Y-9404936D02*
X13732563Y-9395412D01*
X13799229Y-9443031D02*
X13808753Y-9433508D01*
X13808753Y-9433508D02*
X13827801Y-9423984D01*
X13827801Y-9423984D02*
X13875420Y-9423984D01*
X13875420Y-9423984D02*
X13894468Y-9433508D01*
X13894468Y-9433508D02*
X13903991Y-9443031D01*
X13903991Y-9443031D02*
X13913515Y-9462079D01*
X13913515Y-9462079D02*
X13913515Y-9481127D01*
X13913515Y-9481127D02*
X13903991Y-9509698D01*
X13903991Y-9509698D02*
X13789706Y-9623984D01*
X13789706Y-9623984D02*
X13913515Y-9623984D01*
X14151610Y-9623984D02*
X14151610Y-9423984D01*
X14237325Y-9623984D02*
X14237325Y-9519222D01*
X14237325Y-9519222D02*
X14227801Y-9500174D01*
X14227801Y-9500174D02*
X14208753Y-9490650D01*
X14208753Y-9490650D02*
X14180182Y-9490650D01*
X14180182Y-9490650D02*
X14161134Y-9500174D01*
X14161134Y-9500174D02*
X14151610Y-9509698D01*
X14361134Y-9623984D02*
X14342087Y-9614460D01*
X14342087Y-9614460D02*
X14332563Y-9604936D01*
X14332563Y-9604936D02*
X14323039Y-9585889D01*
X14323039Y-9585889D02*
X14323039Y-9528746D01*
X14323039Y-9528746D02*
X14332563Y-9509698D01*
X14332563Y-9509698D02*
X14342087Y-9500174D01*
X14342087Y-9500174D02*
X14361134Y-9490650D01*
X14361134Y-9490650D02*
X14389706Y-9490650D01*
X14389706Y-9490650D02*
X14408753Y-9500174D01*
X14408753Y-9500174D02*
X14418277Y-9509698D01*
X14418277Y-9509698D02*
X14427801Y-9528746D01*
X14427801Y-9528746D02*
X14427801Y-9585889D01*
X14427801Y-9585889D02*
X14418277Y-9604936D01*
X14418277Y-9604936D02*
X14408753Y-9614460D01*
X14408753Y-9614460D02*
X14389706Y-9623984D01*
X14389706Y-9623984D02*
X14361134Y-9623984D01*
X14542087Y-9623984D02*
X14523039Y-9614460D01*
X14523039Y-9614460D02*
X14513515Y-9595412D01*
X14513515Y-9595412D02*
X14513515Y-9423984D01*
X14694468Y-9614460D02*
X14675420Y-9623984D01*
X14675420Y-9623984D02*
X14637325Y-9623984D01*
X14637325Y-9623984D02*
X14618277Y-9614460D01*
X14618277Y-9614460D02*
X14608753Y-9595412D01*
X14608753Y-9595412D02*
X14608753Y-9519222D01*
X14608753Y-9519222D02*
X14618277Y-9500174D01*
X14618277Y-9500174D02*
X14637325Y-9490650D01*
X14637325Y-9490650D02*
X14675420Y-9490650D01*
X14675420Y-9490650D02*
X14694468Y-9500174D01*
X14694468Y-9500174D02*
X14703991Y-9519222D01*
X14703991Y-9519222D02*
X14703991Y-9538270D01*
X14703991Y-9538270D02*
X14608753Y-9557317D01*
X14780182Y-9614460D02*
X14799230Y-9623984D01*
X14799230Y-9623984D02*
X14837325Y-9623984D01*
X14837325Y-9623984D02*
X14856372Y-9614460D01*
X14856372Y-9614460D02*
X14865896Y-9595412D01*
X14865896Y-9595412D02*
X14865896Y-9585889D01*
X14865896Y-9585889D02*
X14856372Y-9566841D01*
X14856372Y-9566841D02*
X14837325Y-9557317D01*
X14837325Y-9557317D02*
X14808753Y-9557317D01*
X14808753Y-9557317D02*
X14789706Y-9547793D01*
X14789706Y-9547793D02*
X14780182Y-9528746D01*
X14780182Y-9528746D02*
X14780182Y-9519222D01*
X14780182Y-9519222D02*
X14789706Y-9500174D01*
X14789706Y-9500174D02*
X14808753Y-9490650D01*
X14808753Y-9490650D02*
X14837325Y-9490650D01*
X14837325Y-9490650D02*
X14856372Y-9500174D01*
X14932563Y-9700174D02*
X14942087Y-9690650D01*
X14942087Y-9690650D02*
X14961134Y-9662079D01*
X14961134Y-9662079D02*
X14970658Y-9643031D01*
X14970658Y-9643031D02*
X14980182Y-9614460D01*
X14980182Y-9614460D02*
X14989706Y-9566841D01*
X14989706Y-9566841D02*
X14989706Y-9528746D01*
X14989706Y-9528746D02*
X14980182Y-9481127D01*
X14980182Y-9481127D02*
X14970658Y-9452555D01*
X14970658Y-9452555D02*
X14961134Y-9433508D01*
X14961134Y-9433508D02*
X14942087Y-9404936D01*
X14942087Y-9404936D02*
X14932563Y-9395412D01*
X15294468Y-9700174D02*
X15284944Y-9690650D01*
X15284944Y-9690650D02*
X15265896Y-9662079D01*
X15265896Y-9662079D02*
X15256372Y-9643031D01*
X15256372Y-9643031D02*
X15246849Y-9614460D01*
X15246849Y-9614460D02*
X15237325Y-9566841D01*
X15237325Y-9566841D02*
X15237325Y-9528746D01*
X15237325Y-9528746D02*
X15246849Y-9481127D01*
X15246849Y-9481127D02*
X15256372Y-9452555D01*
X15256372Y-9452555D02*
X15265896Y-9433508D01*
X15265896Y-9433508D02*
X15284944Y-9404936D01*
X15284944Y-9404936D02*
X15294468Y-9395412D01*
X15370658Y-9490650D02*
X15370658Y-9623984D01*
X15370658Y-9509698D02*
X15380182Y-9500174D01*
X15380182Y-9500174D02*
X15399230Y-9490650D01*
X15399230Y-9490650D02*
X15427801Y-9490650D01*
X15427801Y-9490650D02*
X15446849Y-9500174D01*
X15446849Y-9500174D02*
X15456372Y-9519222D01*
X15456372Y-9519222D02*
X15456372Y-9623984D01*
X15580182Y-9623984D02*
X15561134Y-9614460D01*
X15561134Y-9614460D02*
X15551611Y-9604936D01*
X15551611Y-9604936D02*
X15542087Y-9585889D01*
X15542087Y-9585889D02*
X15542087Y-9528746D01*
X15542087Y-9528746D02*
X15551611Y-9509698D01*
X15551611Y-9509698D02*
X15561134Y-9500174D01*
X15561134Y-9500174D02*
X15580182Y-9490650D01*
X15580182Y-9490650D02*
X15608753Y-9490650D01*
X15608753Y-9490650D02*
X15627801Y-9500174D01*
X15627801Y-9500174D02*
X15637325Y-9509698D01*
X15637325Y-9509698D02*
X15646849Y-9528746D01*
X15646849Y-9528746D02*
X15646849Y-9585889D01*
X15646849Y-9585889D02*
X15637325Y-9604936D01*
X15637325Y-9604936D02*
X15627801Y-9614460D01*
X15627801Y-9614460D02*
X15608753Y-9623984D01*
X15608753Y-9623984D02*
X15580182Y-9623984D01*
X15703992Y-9490650D02*
X15780182Y-9490650D01*
X15732563Y-9423984D02*
X15732563Y-9595412D01*
X15732563Y-9595412D02*
X15742087Y-9614460D01*
X15742087Y-9614460D02*
X15761134Y-9623984D01*
X15761134Y-9623984D02*
X15780182Y-9623984D01*
X15999230Y-9490650D02*
X15999230Y-9690650D01*
X15999230Y-9500174D02*
X16018277Y-9490650D01*
X16018277Y-9490650D02*
X16056373Y-9490650D01*
X16056373Y-9490650D02*
X16075420Y-9500174D01*
X16075420Y-9500174D02*
X16084944Y-9509698D01*
X16084944Y-9509698D02*
X16094468Y-9528746D01*
X16094468Y-9528746D02*
X16094468Y-9585889D01*
X16094468Y-9585889D02*
X16084944Y-9604936D01*
X16084944Y-9604936D02*
X16075420Y-9614460D01*
X16075420Y-9614460D02*
X16056373Y-9623984D01*
X16056373Y-9623984D02*
X16018277Y-9623984D01*
X16018277Y-9623984D02*
X15999230Y-9614460D01*
X16208753Y-9623984D02*
X16189706Y-9614460D01*
X16189706Y-9614460D02*
X16180182Y-9595412D01*
X16180182Y-9595412D02*
X16180182Y-9423984D01*
X16370658Y-9623984D02*
X16370658Y-9519222D01*
X16370658Y-9519222D02*
X16361134Y-9500174D01*
X16361134Y-9500174D02*
X16342087Y-9490650D01*
X16342087Y-9490650D02*
X16303992Y-9490650D01*
X16303992Y-9490650D02*
X16284944Y-9500174D01*
X16370658Y-9614460D02*
X16351611Y-9623984D01*
X16351611Y-9623984D02*
X16303992Y-9623984D01*
X16303992Y-9623984D02*
X16284944Y-9614460D01*
X16284944Y-9614460D02*
X16275420Y-9595412D01*
X16275420Y-9595412D02*
X16275420Y-9576365D01*
X16275420Y-9576365D02*
X16284944Y-9557317D01*
X16284944Y-9557317D02*
X16303992Y-9547793D01*
X16303992Y-9547793D02*
X16351611Y-9547793D01*
X16351611Y-9547793D02*
X16370658Y-9538270D01*
X16437325Y-9490650D02*
X16513515Y-9490650D01*
X16465896Y-9423984D02*
X16465896Y-9595412D01*
X16465896Y-9595412D02*
X16475420Y-9614460D01*
X16475420Y-9614460D02*
X16494468Y-9623984D01*
X16494468Y-9623984D02*
X16513515Y-9623984D01*
X16656373Y-9614460D02*
X16637325Y-9623984D01*
X16637325Y-9623984D02*
X16599230Y-9623984D01*
X16599230Y-9623984D02*
X16580182Y-9614460D01*
X16580182Y-9614460D02*
X16570658Y-9595412D01*
X16570658Y-9595412D02*
X16570658Y-9519222D01*
X16570658Y-9519222D02*
X16580182Y-9500174D01*
X16580182Y-9500174D02*
X16599230Y-9490650D01*
X16599230Y-9490650D02*
X16637325Y-9490650D01*
X16637325Y-9490650D02*
X16656373Y-9500174D01*
X16656373Y-9500174D02*
X16665896Y-9519222D01*
X16665896Y-9519222D02*
X16665896Y-9538270D01*
X16665896Y-9538270D02*
X16570658Y-9557317D01*
X16837325Y-9623984D02*
X16837325Y-9423984D01*
X16837325Y-9614460D02*
X16818277Y-9623984D01*
X16818277Y-9623984D02*
X16780182Y-9623984D01*
X16780182Y-9623984D02*
X16761134Y-9614460D01*
X16761134Y-9614460D02*
X16751611Y-9604936D01*
X16751611Y-9604936D02*
X16742087Y-9585889D01*
X16742087Y-9585889D02*
X16742087Y-9528746D01*
X16742087Y-9528746D02*
X16751611Y-9509698D01*
X16751611Y-9509698D02*
X16761134Y-9500174D01*
X16761134Y-9500174D02*
X16780182Y-9490650D01*
X16780182Y-9490650D02*
X16818277Y-9490650D01*
X16818277Y-9490650D02*
X16837325Y-9500174D01*
X16913516Y-9700174D02*
X16923039Y-9690650D01*
X16923039Y-9690650D02*
X16942087Y-9662079D01*
X16942087Y-9662079D02*
X16951611Y-9643031D01*
X16951611Y-9643031D02*
X16961135Y-9614460D01*
X16961135Y-9614460D02*
X16970658Y-9566841D01*
X16970658Y-9566841D02*
X16970658Y-9528746D01*
X16970658Y-9528746D02*
X16961135Y-9481127D01*
X16961135Y-9481127D02*
X16951611Y-9452555D01*
X16951611Y-9452555D02*
X16942087Y-9433508D01*
X16942087Y-9433508D02*
X16923039Y-9404936D01*
X16923039Y-9404936D02*
X16913516Y-9395412D01*
X10157500Y-9796500D02*
G75*
G02*
X9957500Y-9796500I-100000J0D01*
G01*
X9957500Y-9796500D02*
G75*
G02*
X10157500Y-9796500I100000J0D01*
G01*
X10399229Y-9687984D02*
X10523039Y-9687984D01*
X10523039Y-9687984D02*
X10456372Y-9764174D01*
X10456372Y-9764174D02*
X10484944Y-9764174D01*
X10484944Y-9764174D02*
X10503991Y-9773698D01*
X10503991Y-9773698D02*
X10513515Y-9783222D01*
X10513515Y-9783222D02*
X10523039Y-9802270D01*
X10523039Y-9802270D02*
X10523039Y-9849889D01*
X10523039Y-9849889D02*
X10513515Y-9868936D01*
X10513515Y-9868936D02*
X10503991Y-9878460D01*
X10503991Y-9878460D02*
X10484944Y-9887984D01*
X10484944Y-9887984D02*
X10427801Y-9887984D01*
X10427801Y-9887984D02*
X10408753Y-9878460D01*
X10408753Y-9878460D02*
X10399229Y-9868936D01*
X10608753Y-9868936D02*
X10618277Y-9878460D01*
X10618277Y-9878460D02*
X10608753Y-9887984D01*
X10608753Y-9887984D02*
X10599229Y-9878460D01*
X10599229Y-9878460D02*
X10608753Y-9868936D01*
X10608753Y-9868936D02*
X10608753Y-9887984D01*
X10694467Y-9707031D02*
X10703991Y-9697508D01*
X10703991Y-9697508D02*
X10723039Y-9687984D01*
X10723039Y-9687984D02*
X10770658Y-9687984D01*
X10770658Y-9687984D02*
X10789705Y-9697508D01*
X10789705Y-9697508D02*
X10799229Y-9707031D01*
X10799229Y-9707031D02*
X10808753Y-9726079D01*
X10808753Y-9726079D02*
X10808753Y-9745127D01*
X10808753Y-9745127D02*
X10799229Y-9773698D01*
X10799229Y-9773698D02*
X10684944Y-9887984D01*
X10684944Y-9887984D02*
X10808753Y-9887984D01*
X10989705Y-9687984D02*
X10894467Y-9687984D01*
X10894467Y-9687984D02*
X10884944Y-9783222D01*
X10884944Y-9783222D02*
X10894467Y-9773698D01*
X10894467Y-9773698D02*
X10913515Y-9764174D01*
X10913515Y-9764174D02*
X10961134Y-9764174D01*
X10961134Y-9764174D02*
X10980182Y-9773698D01*
X10980182Y-9773698D02*
X10989705Y-9783222D01*
X10989705Y-9783222D02*
X10999229Y-9802270D01*
X10999229Y-9802270D02*
X10999229Y-9849889D01*
X10999229Y-9849889D02*
X10989705Y-9868936D01*
X10989705Y-9868936D02*
X10980182Y-9878460D01*
X10980182Y-9878460D02*
X10961134Y-9887984D01*
X10961134Y-9887984D02*
X10913515Y-9887984D01*
X10913515Y-9887984D02*
X10894467Y-9878460D01*
X10894467Y-9878460D02*
X10884944Y-9868936D01*
X11123039Y-9687984D02*
X11142086Y-9687984D01*
X11142086Y-9687984D02*
X11161134Y-9697508D01*
X11161134Y-9697508D02*
X11170658Y-9707031D01*
X11170658Y-9707031D02*
X11180182Y-9726079D01*
X11180182Y-9726079D02*
X11189705Y-9764174D01*
X11189705Y-9764174D02*
X11189705Y-9811793D01*
X11189705Y-9811793D02*
X11180182Y-9849889D01*
X11180182Y-9849889D02*
X11170658Y-9868936D01*
X11170658Y-9868936D02*
X11161134Y-9878460D01*
X11161134Y-9878460D02*
X11142086Y-9887984D01*
X11142086Y-9887984D02*
X11123039Y-9887984D01*
X11123039Y-9887984D02*
X11103991Y-9878460D01*
X11103991Y-9878460D02*
X11094467Y-9868936D01*
X11094467Y-9868936D02*
X11084944Y-9849889D01*
X11084944Y-9849889D02*
X11075420Y-9811793D01*
X11075420Y-9811793D02*
X11075420Y-9764174D01*
X11075420Y-9764174D02*
X11084944Y-9726079D01*
X11084944Y-9726079D02*
X11094467Y-9707031D01*
X11094467Y-9707031D02*
X11103991Y-9697508D01*
X11103991Y-9697508D02*
X11123039Y-9687984D01*
X11275420Y-9887984D02*
X11275420Y-9754650D01*
X11275420Y-9773698D02*
X11284943Y-9764174D01*
X11284943Y-9764174D02*
X11303991Y-9754650D01*
X11303991Y-9754650D02*
X11332563Y-9754650D01*
X11332563Y-9754650D02*
X11351610Y-9764174D01*
X11351610Y-9764174D02*
X11361134Y-9783222D01*
X11361134Y-9783222D02*
X11361134Y-9887984D01*
X11361134Y-9783222D02*
X11370658Y-9764174D01*
X11370658Y-9764174D02*
X11389705Y-9754650D01*
X11389705Y-9754650D02*
X11418277Y-9754650D01*
X11418277Y-9754650D02*
X11437324Y-9764174D01*
X11437324Y-9764174D02*
X11446848Y-9783222D01*
X11446848Y-9783222D02*
X11446848Y-9887984D01*
X11542086Y-9887984D02*
X11542086Y-9754650D01*
X11542086Y-9773698D02*
X11551610Y-9764174D01*
X11551610Y-9764174D02*
X11570658Y-9754650D01*
X11570658Y-9754650D02*
X11599229Y-9754650D01*
X11599229Y-9754650D02*
X11618277Y-9764174D01*
X11618277Y-9764174D02*
X11627801Y-9783222D01*
X11627801Y-9783222D02*
X11627801Y-9887984D01*
X11627801Y-9783222D02*
X11637324Y-9764174D01*
X11637324Y-9764174D02*
X11656372Y-9754650D01*
X11656372Y-9754650D02*
X11684943Y-9754650D01*
X11684943Y-9754650D02*
X11703991Y-9764174D01*
X11703991Y-9764174D02*
X11713515Y-9783222D01*
X11713515Y-9783222D02*
X11713515Y-9887984D01*
X12103991Y-9678460D02*
X11932563Y-9935603D01*
X12361134Y-9687984D02*
X12380182Y-9687984D01*
X12380182Y-9687984D02*
X12399229Y-9697508D01*
X12399229Y-9697508D02*
X12408753Y-9707031D01*
X12408753Y-9707031D02*
X12418277Y-9726079D01*
X12418277Y-9726079D02*
X12427801Y-9764174D01*
X12427801Y-9764174D02*
X12427801Y-9811793D01*
X12427801Y-9811793D02*
X12418277Y-9849889D01*
X12418277Y-9849889D02*
X12408753Y-9868936D01*
X12408753Y-9868936D02*
X12399229Y-9878460D01*
X12399229Y-9878460D02*
X12380182Y-9887984D01*
X12380182Y-9887984D02*
X12361134Y-9887984D01*
X12361134Y-9887984D02*
X12342086Y-9878460D01*
X12342086Y-9878460D02*
X12332563Y-9868936D01*
X12332563Y-9868936D02*
X12323039Y-9849889D01*
X12323039Y-9849889D02*
X12313515Y-9811793D01*
X12313515Y-9811793D02*
X12313515Y-9764174D01*
X12313515Y-9764174D02*
X12323039Y-9726079D01*
X12323039Y-9726079D02*
X12332563Y-9707031D01*
X12332563Y-9707031D02*
X12342086Y-9697508D01*
X12342086Y-9697508D02*
X12361134Y-9687984D01*
X12513515Y-9868936D02*
X12523039Y-9878460D01*
X12523039Y-9878460D02*
X12513515Y-9887984D01*
X12513515Y-9887984D02*
X12503991Y-9878460D01*
X12503991Y-9878460D02*
X12513515Y-9868936D01*
X12513515Y-9868936D02*
X12513515Y-9887984D01*
X12713515Y-9887984D02*
X12599229Y-9887984D01*
X12656372Y-9887984D02*
X12656372Y-9687984D01*
X12656372Y-9687984D02*
X12637325Y-9716555D01*
X12637325Y-9716555D02*
X12618277Y-9735603D01*
X12618277Y-9735603D02*
X12599229Y-9745127D01*
X12789706Y-9707031D02*
X12799229Y-9697508D01*
X12799229Y-9697508D02*
X12818277Y-9687984D01*
X12818277Y-9687984D02*
X12865896Y-9687984D01*
X12865896Y-9687984D02*
X12884944Y-9697508D01*
X12884944Y-9697508D02*
X12894467Y-9707031D01*
X12894467Y-9707031D02*
X12903991Y-9726079D01*
X12903991Y-9726079D02*
X12903991Y-9745127D01*
X12903991Y-9745127D02*
X12894467Y-9773698D01*
X12894467Y-9773698D02*
X12780182Y-9887984D01*
X12780182Y-9887984D02*
X12903991Y-9887984D01*
X13018277Y-9773698D02*
X12999229Y-9764174D01*
X12999229Y-9764174D02*
X12989706Y-9754650D01*
X12989706Y-9754650D02*
X12980182Y-9735603D01*
X12980182Y-9735603D02*
X12980182Y-9726079D01*
X12980182Y-9726079D02*
X12989706Y-9707031D01*
X12989706Y-9707031D02*
X12999229Y-9697508D01*
X12999229Y-9697508D02*
X13018277Y-9687984D01*
X13018277Y-9687984D02*
X13056372Y-9687984D01*
X13056372Y-9687984D02*
X13075420Y-9697508D01*
X13075420Y-9697508D02*
X13084944Y-9707031D01*
X13084944Y-9707031D02*
X13094467Y-9726079D01*
X13094467Y-9726079D02*
X13094467Y-9735603D01*
X13094467Y-9735603D02*
X13084944Y-9754650D01*
X13084944Y-9754650D02*
X13075420Y-9764174D01*
X13075420Y-9764174D02*
X13056372Y-9773698D01*
X13056372Y-9773698D02*
X13018277Y-9773698D01*
X13018277Y-9773698D02*
X12999229Y-9783222D01*
X12999229Y-9783222D02*
X12989706Y-9792746D01*
X12989706Y-9792746D02*
X12980182Y-9811793D01*
X12980182Y-9811793D02*
X12980182Y-9849889D01*
X12980182Y-9849889D02*
X12989706Y-9868936D01*
X12989706Y-9868936D02*
X12999229Y-9878460D01*
X12999229Y-9878460D02*
X13018277Y-9887984D01*
X13018277Y-9887984D02*
X13056372Y-9887984D01*
X13056372Y-9887984D02*
X13075420Y-9878460D01*
X13075420Y-9878460D02*
X13084944Y-9868936D01*
X13084944Y-9868936D02*
X13094467Y-9849889D01*
X13094467Y-9849889D02*
X13094467Y-9811793D01*
X13094467Y-9811793D02*
X13084944Y-9792746D01*
X13084944Y-9792746D02*
X13075420Y-9783222D01*
X13075420Y-9783222D02*
X13056372Y-9773698D01*
X13218277Y-9687984D02*
X13237325Y-9687984D01*
X13237325Y-9687984D02*
X13256372Y-9697508D01*
X13256372Y-9697508D02*
X13265896Y-9707031D01*
X13265896Y-9707031D02*
X13275420Y-9726079D01*
X13275420Y-9726079D02*
X13284944Y-9764174D01*
X13284944Y-9764174D02*
X13284944Y-9811793D01*
X13284944Y-9811793D02*
X13275420Y-9849889D01*
X13275420Y-9849889D02*
X13265896Y-9868936D01*
X13265896Y-9868936D02*
X13256372Y-9878460D01*
X13256372Y-9878460D02*
X13237325Y-9887984D01*
X13237325Y-9887984D02*
X13218277Y-9887984D01*
X13218277Y-9887984D02*
X13199229Y-9878460D01*
X13199229Y-9878460D02*
X13189706Y-9868936D01*
X13189706Y-9868936D02*
X13180182Y-9849889D01*
X13180182Y-9849889D02*
X13170658Y-9811793D01*
X13170658Y-9811793D02*
X13170658Y-9764174D01*
X13170658Y-9764174D02*
X13180182Y-9726079D01*
X13180182Y-9726079D02*
X13189706Y-9707031D01*
X13189706Y-9707031D02*
X13199229Y-9697508D01*
X13199229Y-9697508D02*
X13218277Y-9687984D01*
X13361134Y-9687984D02*
X13361134Y-9726079D01*
X13437325Y-9687984D02*
X13437325Y-9726079D01*
X13732563Y-9964174D02*
X13723039Y-9954650D01*
X13723039Y-9954650D02*
X13703991Y-9926079D01*
X13703991Y-9926079D02*
X13694468Y-9907031D01*
X13694468Y-9907031D02*
X13684944Y-9878460D01*
X13684944Y-9878460D02*
X13675420Y-9830841D01*
X13675420Y-9830841D02*
X13675420Y-9792746D01*
X13675420Y-9792746D02*
X13684944Y-9745127D01*
X13684944Y-9745127D02*
X13694468Y-9716555D01*
X13694468Y-9716555D02*
X13703991Y-9697508D01*
X13703991Y-9697508D02*
X13723039Y-9668936D01*
X13723039Y-9668936D02*
X13732563Y-9659412D01*
X13799229Y-9707031D02*
X13808753Y-9697508D01*
X13808753Y-9697508D02*
X13827801Y-9687984D01*
X13827801Y-9687984D02*
X13875420Y-9687984D01*
X13875420Y-9687984D02*
X13894468Y-9697508D01*
X13894468Y-9697508D02*
X13903991Y-9707031D01*
X13903991Y-9707031D02*
X13913515Y-9726079D01*
X13913515Y-9726079D02*
X13913515Y-9745127D01*
X13913515Y-9745127D02*
X13903991Y-9773698D01*
X13903991Y-9773698D02*
X13789706Y-9887984D01*
X13789706Y-9887984D02*
X13913515Y-9887984D01*
X14151610Y-9887984D02*
X14151610Y-9687984D01*
X14237325Y-9887984D02*
X14237325Y-9783222D01*
X14237325Y-9783222D02*
X14227801Y-9764174D01*
X14227801Y-9764174D02*
X14208753Y-9754650D01*
X14208753Y-9754650D02*
X14180182Y-9754650D01*
X14180182Y-9754650D02*
X14161134Y-9764174D01*
X14161134Y-9764174D02*
X14151610Y-9773698D01*
X14361134Y-9887984D02*
X14342087Y-9878460D01*
X14342087Y-9878460D02*
X14332563Y-9868936D01*
X14332563Y-9868936D02*
X14323039Y-9849889D01*
X14323039Y-9849889D02*
X14323039Y-9792746D01*
X14323039Y-9792746D02*
X14332563Y-9773698D01*
X14332563Y-9773698D02*
X14342087Y-9764174D01*
X14342087Y-9764174D02*
X14361134Y-9754650D01*
X14361134Y-9754650D02*
X14389706Y-9754650D01*
X14389706Y-9754650D02*
X14408753Y-9764174D01*
X14408753Y-9764174D02*
X14418277Y-9773698D01*
X14418277Y-9773698D02*
X14427801Y-9792746D01*
X14427801Y-9792746D02*
X14427801Y-9849889D01*
X14427801Y-9849889D02*
X14418277Y-9868936D01*
X14418277Y-9868936D02*
X14408753Y-9878460D01*
X14408753Y-9878460D02*
X14389706Y-9887984D01*
X14389706Y-9887984D02*
X14361134Y-9887984D01*
X14542087Y-9887984D02*
X14523039Y-9878460D01*
X14523039Y-9878460D02*
X14513515Y-9859412D01*
X14513515Y-9859412D02*
X14513515Y-9687984D01*
X14694468Y-9878460D02*
X14675420Y-9887984D01*
X14675420Y-9887984D02*
X14637325Y-9887984D01*
X14637325Y-9887984D02*
X14618277Y-9878460D01*
X14618277Y-9878460D02*
X14608753Y-9859412D01*
X14608753Y-9859412D02*
X14608753Y-9783222D01*
X14608753Y-9783222D02*
X14618277Y-9764174D01*
X14618277Y-9764174D02*
X14637325Y-9754650D01*
X14637325Y-9754650D02*
X14675420Y-9754650D01*
X14675420Y-9754650D02*
X14694468Y-9764174D01*
X14694468Y-9764174D02*
X14703991Y-9783222D01*
X14703991Y-9783222D02*
X14703991Y-9802270D01*
X14703991Y-9802270D02*
X14608753Y-9821317D01*
X14780182Y-9878460D02*
X14799230Y-9887984D01*
X14799230Y-9887984D02*
X14837325Y-9887984D01*
X14837325Y-9887984D02*
X14856372Y-9878460D01*
X14856372Y-9878460D02*
X14865896Y-9859412D01*
X14865896Y-9859412D02*
X14865896Y-9849889D01*
X14865896Y-9849889D02*
X14856372Y-9830841D01*
X14856372Y-9830841D02*
X14837325Y-9821317D01*
X14837325Y-9821317D02*
X14808753Y-9821317D01*
X14808753Y-9821317D02*
X14789706Y-9811793D01*
X14789706Y-9811793D02*
X14780182Y-9792746D01*
X14780182Y-9792746D02*
X14780182Y-9783222D01*
X14780182Y-9783222D02*
X14789706Y-9764174D01*
X14789706Y-9764174D02*
X14808753Y-9754650D01*
X14808753Y-9754650D02*
X14837325Y-9754650D01*
X14837325Y-9754650D02*
X14856372Y-9764174D01*
X14932563Y-9964174D02*
X14942087Y-9954650D01*
X14942087Y-9954650D02*
X14961134Y-9926079D01*
X14961134Y-9926079D02*
X14970658Y-9907031D01*
X14970658Y-9907031D02*
X14980182Y-9878460D01*
X14980182Y-9878460D02*
X14989706Y-9830841D01*
X14989706Y-9830841D02*
X14989706Y-9792746D01*
X14989706Y-9792746D02*
X14980182Y-9745127D01*
X14980182Y-9745127D02*
X14970658Y-9716555D01*
X14970658Y-9716555D02*
X14961134Y-9697508D01*
X14961134Y-9697508D02*
X14942087Y-9668936D01*
X14942087Y-9668936D02*
X14932563Y-9659412D01*
X15294468Y-9964174D02*
X15284944Y-9954650D01*
X15284944Y-9954650D02*
X15265896Y-9926079D01*
X15265896Y-9926079D02*
X15256372Y-9907031D01*
X15256372Y-9907031D02*
X15246849Y-9878460D01*
X15246849Y-9878460D02*
X15237325Y-9830841D01*
X15237325Y-9830841D02*
X15237325Y-9792746D01*
X15237325Y-9792746D02*
X15246849Y-9745127D01*
X15246849Y-9745127D02*
X15256372Y-9716555D01*
X15256372Y-9716555D02*
X15265896Y-9697508D01*
X15265896Y-9697508D02*
X15284944Y-9668936D01*
X15284944Y-9668936D02*
X15294468Y-9659412D01*
X15370658Y-9754650D02*
X15370658Y-9887984D01*
X15370658Y-9773698D02*
X15380182Y-9764174D01*
X15380182Y-9764174D02*
X15399230Y-9754650D01*
X15399230Y-9754650D02*
X15427801Y-9754650D01*
X15427801Y-9754650D02*
X15446849Y-9764174D01*
X15446849Y-9764174D02*
X15456372Y-9783222D01*
X15456372Y-9783222D02*
X15456372Y-9887984D01*
X15580182Y-9887984D02*
X15561134Y-9878460D01*
X15561134Y-9878460D02*
X15551611Y-9868936D01*
X15551611Y-9868936D02*
X15542087Y-9849889D01*
X15542087Y-9849889D02*
X15542087Y-9792746D01*
X15542087Y-9792746D02*
X15551611Y-9773698D01*
X15551611Y-9773698D02*
X15561134Y-9764174D01*
X15561134Y-9764174D02*
X15580182Y-9754650D01*
X15580182Y-9754650D02*
X15608753Y-9754650D01*
X15608753Y-9754650D02*
X15627801Y-9764174D01*
X15627801Y-9764174D02*
X15637325Y-9773698D01*
X15637325Y-9773698D02*
X15646849Y-9792746D01*
X15646849Y-9792746D02*
X15646849Y-9849889D01*
X15646849Y-9849889D02*
X15637325Y-9868936D01*
X15637325Y-9868936D02*
X15627801Y-9878460D01*
X15627801Y-9878460D02*
X15608753Y-9887984D01*
X15608753Y-9887984D02*
X15580182Y-9887984D01*
X15703992Y-9754650D02*
X15780182Y-9754650D01*
X15732563Y-9687984D02*
X15732563Y-9859412D01*
X15732563Y-9859412D02*
X15742087Y-9878460D01*
X15742087Y-9878460D02*
X15761134Y-9887984D01*
X15761134Y-9887984D02*
X15780182Y-9887984D01*
X15999230Y-9754650D02*
X15999230Y-9954650D01*
X15999230Y-9764174D02*
X16018277Y-9754650D01*
X16018277Y-9754650D02*
X16056373Y-9754650D01*
X16056373Y-9754650D02*
X16075420Y-9764174D01*
X16075420Y-9764174D02*
X16084944Y-9773698D01*
X16084944Y-9773698D02*
X16094468Y-9792746D01*
X16094468Y-9792746D02*
X16094468Y-9849889D01*
X16094468Y-9849889D02*
X16084944Y-9868936D01*
X16084944Y-9868936D02*
X16075420Y-9878460D01*
X16075420Y-9878460D02*
X16056373Y-9887984D01*
X16056373Y-9887984D02*
X16018277Y-9887984D01*
X16018277Y-9887984D02*
X15999230Y-9878460D01*
X16208753Y-9887984D02*
X16189706Y-9878460D01*
X16189706Y-9878460D02*
X16180182Y-9859412D01*
X16180182Y-9859412D02*
X16180182Y-9687984D01*
X16370658Y-9887984D02*
X16370658Y-9783222D01*
X16370658Y-9783222D02*
X16361134Y-9764174D01*
X16361134Y-9764174D02*
X16342087Y-9754650D01*
X16342087Y-9754650D02*
X16303992Y-9754650D01*
X16303992Y-9754650D02*
X16284944Y-9764174D01*
X16370658Y-9878460D02*
X16351611Y-9887984D01*
X16351611Y-9887984D02*
X16303992Y-9887984D01*
X16303992Y-9887984D02*
X16284944Y-9878460D01*
X16284944Y-9878460D02*
X16275420Y-9859412D01*
X16275420Y-9859412D02*
X16275420Y-9840365D01*
X16275420Y-9840365D02*
X16284944Y-9821317D01*
X16284944Y-9821317D02*
X16303992Y-9811793D01*
X16303992Y-9811793D02*
X16351611Y-9811793D01*
X16351611Y-9811793D02*
X16370658Y-9802270D01*
X16437325Y-9754650D02*
X16513515Y-9754650D01*
X16465896Y-9687984D02*
X16465896Y-9859412D01*
X16465896Y-9859412D02*
X16475420Y-9878460D01*
X16475420Y-9878460D02*
X16494468Y-9887984D01*
X16494468Y-9887984D02*
X16513515Y-9887984D01*
X16656373Y-9878460D02*
X16637325Y-9887984D01*
X16637325Y-9887984D02*
X16599230Y-9887984D01*
X16599230Y-9887984D02*
X16580182Y-9878460D01*
X16580182Y-9878460D02*
X16570658Y-9859412D01*
X16570658Y-9859412D02*
X16570658Y-9783222D01*
X16570658Y-9783222D02*
X16580182Y-9764174D01*
X16580182Y-9764174D02*
X16599230Y-9754650D01*
X16599230Y-9754650D02*
X16637325Y-9754650D01*
X16637325Y-9754650D02*
X16656373Y-9764174D01*
X16656373Y-9764174D02*
X16665896Y-9783222D01*
X16665896Y-9783222D02*
X16665896Y-9802270D01*
X16665896Y-9802270D02*
X16570658Y-9821317D01*
X16837325Y-9887984D02*
X16837325Y-9687984D01*
X16837325Y-9878460D02*
X16818277Y-9887984D01*
X16818277Y-9887984D02*
X16780182Y-9887984D01*
X16780182Y-9887984D02*
X16761134Y-9878460D01*
X16761134Y-9878460D02*
X16751611Y-9868936D01*
X16751611Y-9868936D02*
X16742087Y-9849889D01*
X16742087Y-9849889D02*
X16742087Y-9792746D01*
X16742087Y-9792746D02*
X16751611Y-9773698D01*
X16751611Y-9773698D02*
X16761134Y-9764174D01*
X16761134Y-9764174D02*
X16780182Y-9754650D01*
X16780182Y-9754650D02*
X16818277Y-9754650D01*
X16818277Y-9754650D02*
X16837325Y-9764174D01*
X16913516Y-9964174D02*
X16923039Y-9954650D01*
X16923039Y-9954650D02*
X16942087Y-9926079D01*
X16942087Y-9926079D02*
X16951611Y-9907031D01*
X16951611Y-9907031D02*
X16961135Y-9878460D01*
X16961135Y-9878460D02*
X16970658Y-9830841D01*
X16970658Y-9830841D02*
X16970658Y-9792746D01*
X16970658Y-9792746D02*
X16961135Y-9745127D01*
X16961135Y-9745127D02*
X16951611Y-9716555D01*
X16951611Y-9716555D02*
X16942087Y-9697508D01*
X16942087Y-9697508D02*
X16923039Y-9668936D01*
X16923039Y-9668936D02*
X16913516Y-9659412D01*
M02*
