%TF.GenerationSoftware,KiCad,Pcbnew,8.0.5*%
%TF.CreationDate,2025-02-12T12:09:28+01:00*%
%TF.ProjectId,USB-Extender_v2,5553422d-4578-4746-956e-6465725f7632,rev?*%
%TF.SameCoordinates,Original*%
%TF.FileFunction,Copper,L1,Top*%
%TF.FilePolarity,Positive*%
%FSLAX46Y46*%
G04 Gerber Fmt 4.6, Leading zero omitted, Abs format (unit mm)*
G04 Created by KiCad (PCBNEW 8.0.5) date 2025-02-12 12:09:28*
%MOMM*%
%LPD*%
G01*
G04 APERTURE LIST*
G04 Aperture macros list*
%AMRoundRect*
0 Rectangle with rounded corners*
0 $1 Rounding radius*
0 $2 $3 $4 $5 $6 $7 $8 $9 X,Y pos of 4 corners*
0 Add a 4 corners polygon primitive as box body*
4,1,4,$2,$3,$4,$5,$6,$7,$8,$9,$2,$3,0*
0 Add four circle primitives for the rounded corners*
1,1,$1+$1,$2,$3*
1,1,$1+$1,$4,$5*
1,1,$1+$1,$6,$7*
1,1,$1+$1,$8,$9*
0 Add four rect primitives between the rounded corners*
20,1,$1+$1,$2,$3,$4,$5,0*
20,1,$1+$1,$4,$5,$6,$7,0*
20,1,$1+$1,$6,$7,$8,$9,0*
20,1,$1+$1,$8,$9,$2,$3,0*%
G04 Aperture macros list end*
%TA.AperFunction,SMDPad,CuDef*%
%ADD10RoundRect,0.250000X-0.475000X0.337500X-0.475000X-0.337500X0.475000X-0.337500X0.475000X0.337500X0*%
%TD*%
%TA.AperFunction,ComponentPad*%
%ADD11R,1.700000X1.700000*%
%TD*%
%TA.AperFunction,ComponentPad*%
%ADD12O,1.700000X1.700000*%
%TD*%
%TA.AperFunction,SMDPad,CuDef*%
%ADD13RoundRect,0.250000X0.550000X-1.500000X0.550000X1.500000X-0.550000X1.500000X-0.550000X-1.500000X0*%
%TD*%
%TA.AperFunction,ComponentPad*%
%ADD14C,3.500000*%
%TD*%
%TA.AperFunction,SMDPad,CuDef*%
%ADD15RoundRect,0.250000X-0.450000X0.350000X-0.450000X-0.350000X0.450000X-0.350000X0.450000X0.350000X0*%
%TD*%
%TA.AperFunction,SMDPad,CuDef*%
%ADD16R,2.500000X0.500000*%
%TD*%
%TA.AperFunction,SMDPad,CuDef*%
%ADD17R,2.500000X2.000000*%
%TD*%
%TA.AperFunction,SMDPad,CuDef*%
%ADD18RoundRect,0.150000X0.825000X0.150000X-0.825000X0.150000X-0.825000X-0.150000X0.825000X-0.150000X0*%
%TD*%
%TA.AperFunction,SMDPad,CuDef*%
%ADD19RoundRect,0.250000X0.450000X-0.350000X0.450000X0.350000X-0.450000X0.350000X-0.450000X-0.350000X0*%
%TD*%
%TA.AperFunction,SMDPad,CuDef*%
%ADD20RoundRect,0.250000X0.475000X-0.337500X0.475000X0.337500X-0.475000X0.337500X-0.475000X-0.337500X0*%
%TD*%
%TA.AperFunction,ComponentPad*%
%ADD21R,1.500000X1.500000*%
%TD*%
%TA.AperFunction,ComponentPad*%
%ADD22C,1.500000*%
%TD*%
%TA.AperFunction,ComponentPad*%
%ADD23C,2.300000*%
%TD*%
%TA.AperFunction,SMDPad,CuDef*%
%ADD24RoundRect,0.162500X-0.617500X-0.162500X0.617500X-0.162500X0.617500X0.162500X-0.617500X0.162500X0*%
%TD*%
%TA.AperFunction,ViaPad*%
%ADD25C,0.450000*%
%TD*%
%TA.AperFunction,Conductor*%
%ADD26C,0.200000*%
%TD*%
%TA.AperFunction,Conductor*%
%ADD27C,0.500000*%
%TD*%
G04 APERTURE END LIST*
D10*
%TO.P,C2,1*%
%TO.N,+5V*%
X128270000Y-65387400D03*
%TO.P,C2,2*%
%TO.N,GND*%
X128270000Y-67462400D03*
%TD*%
D11*
%TO.P,J5,1,Pin_1*%
%TO.N,+5V*%
X125857000Y-62052200D03*
D12*
%TO.P,J5,2,Pin_2*%
%TO.N,GND*%
X128397000Y-62052200D03*
%TD*%
D11*
%TO.P,J6,1,Pin_1*%
%TO.N,+5V*%
X118318200Y-65836800D03*
D12*
%TO.P,J6,2,Pin_2*%
%TO.N,Net-(J3-VBUS)*%
X115778200Y-65836800D03*
%TD*%
D11*
%TO.P,J4,1,Pin_1*%
%TO.N,Net-(J3-VBUS)*%
X110420000Y-85344000D03*
D12*
%TO.P,J4,2,Pin_2*%
%TO.N,Net-(J3-D-)*%
X110420000Y-82804000D03*
%TO.P,J4,3,Pin_3*%
%TO.N,Net-(J3-D+)*%
X110420000Y-80264000D03*
%TO.P,J4,4,Pin_4*%
%TO.N,GND*%
X110420000Y-77724000D03*
%TD*%
D10*
%TO.P,C1,1*%
%TO.N,Net-(U1-REF)*%
X135229600Y-84664800D03*
%TO.P,C1,2*%
%TO.N,GND*%
X135229600Y-86739800D03*
%TD*%
D13*
%TO.P,C6,1*%
%TO.N,+5V*%
X126492000Y-86360000D03*
%TO.P,C6,2*%
%TO.N,GND*%
X126492000Y-80960000D03*
%TD*%
D14*
%TO.P,H2,1,1*%
%TO.N,GND*%
X143510000Y-86410800D03*
%TD*%
D10*
%TO.P,C4,1*%
%TO.N,Net-(U1-V3)*%
X132867400Y-84664800D03*
%TO.P,C4,2*%
%TO.N,GND*%
X132867400Y-86739800D03*
%TD*%
%TO.P,C3,1*%
%TO.N,+5V*%
X125882400Y-65408900D03*
%TO.P,C3,2*%
%TO.N,GND*%
X125882400Y-67483900D03*
%TD*%
D15*
%TO.P,R1,1*%
%TO.N,Net-(J1-Pad12)*%
X139954000Y-84683600D03*
%TO.P,R1,2*%
%TO.N,+5V*%
X139954000Y-86683600D03*
%TD*%
D16*
%TO.P,J3,1,VBUS*%
%TO.N,Net-(J3-VBUS)*%
X108882600Y-63474800D03*
%TO.P,J3,2,D-*%
%TO.N,Net-(J3-D-)*%
X108882600Y-64274800D03*
%TO.P,J3,3,D+*%
%TO.N,Net-(J3-D+)*%
X108882600Y-65074800D03*
%TO.P,J3,4,ID*%
%TO.N,unconnected-(J3-ID-Pad4)*%
X108882600Y-65874800D03*
%TO.P,J3,5,GND*%
%TO.N,GND*%
X108882600Y-66674800D03*
D17*
%TO.P,J3,6,Shield*%
X108882600Y-60674800D03*
X103382600Y-60674800D03*
X108882600Y-69474800D03*
X103382600Y-69474800D03*
%TD*%
D18*
%TO.P,U1,1,REF*%
%TO.N,Net-(U1-REF)*%
X121310400Y-76454000D03*
%TO.P,U1,2,GND*%
%TO.N,GND*%
X121310400Y-75184000D03*
%TO.P,U1,3,VCC*%
%TO.N,+5V*%
X121310400Y-73914000D03*
%TO.P,U1,4,XD-*%
%TO.N,Net-(U1-XD-)*%
X121310400Y-72644000D03*
%TO.P,U1,5,XD+*%
%TO.N,Net-(U1-XD+)*%
X121310400Y-71374000D03*
%TO.P,U1,6,GND*%
%TO.N,GND*%
X121310400Y-70104000D03*
%TO.P,U1,7,NC*%
%TO.N,unconnected-(U1-NC-Pad7)*%
X121310400Y-68834000D03*
%TO.P,U1,8,NC*%
%TO.N,unconnected-(U1-NC-Pad8)*%
X116360400Y-68834000D03*
%TO.P,U1,9,VCC*%
%TO.N,+5V*%
X116360400Y-70104000D03*
%TO.P,U1,10,UP#*%
%TO.N,MODE*%
X116360400Y-71374000D03*
%TO.P,U1,11,NC*%
%TO.N,unconnected-(U1-NC-Pad11)*%
X116360400Y-72644000D03*
%TO.P,U1,12,UD-*%
%TO.N,Net-(U1-UD-)*%
X116360400Y-73914000D03*
%TO.P,U1,13,UD+*%
%TO.N,Net-(U1-UD+)*%
X116360400Y-75184000D03*
%TO.P,U1,14,V3*%
%TO.N,Net-(U1-V3)*%
X116360400Y-76454000D03*
%TD*%
D15*
%TO.P,R2,1*%
%TO.N,Net-(U1-REF)*%
X137617200Y-84683600D03*
%TO.P,R2,2*%
%TO.N,+5V*%
X137617200Y-86683600D03*
%TD*%
D14*
%TO.P,H3,1,1*%
%TO.N,GND*%
X143459200Y-60909200D03*
%TD*%
D19*
%TO.P,R1.1,1*%
%TO.N,Net-(J1-Pad10)*%
X130733800Y-67446400D03*
%TO.P,R1.1,2*%
%TO.N,+5V*%
X130733800Y-65446400D03*
%TD*%
D11*
%TO.P,J2,1,Pin_1*%
%TO.N,+5V*%
X120827800Y-62103000D03*
D12*
%TO.P,J2,2,Pin_2*%
%TO.N,MODE*%
X118287800Y-62103000D03*
%TO.P,J2,3,Pin_3*%
%TO.N,GND*%
X115747800Y-62103000D03*
%TD*%
D20*
%TO.P,C7,1*%
%TO.N,+5V*%
X113588800Y-70612000D03*
%TO.P,C7,2*%
%TO.N,GND*%
X113588800Y-68537000D03*
%TD*%
D21*
%TO.P,J1,1*%
%TO.N,Net-(U1-XD+)*%
X140387800Y-70049200D03*
D22*
%TO.P,J1,2*%
%TO.N,Net-(U1-XD-)*%
X138607800Y-71065200D03*
%TO.P,J1,3*%
%TO.N,GND*%
X140387800Y-72081200D03*
%TO.P,J1,4*%
X138607800Y-73097200D03*
%TO.P,J1,5*%
X140387800Y-74113200D03*
%TO.P,J1,6*%
X138607800Y-75129200D03*
%TO.P,J1,7*%
%TO.N,+5V*%
X140387800Y-76145200D03*
%TO.P,J1,8*%
X138607800Y-77161200D03*
%TO.P,J1,9*%
%TO.N,GND*%
X133787800Y-66749200D03*
%TO.P,J1,10*%
%TO.N,Net-(J1-Pad10)*%
X133787800Y-69039200D03*
%TO.P,J1,11*%
%TO.N,GND*%
X133787800Y-78179200D03*
%TO.P,J1,12*%
%TO.N,Net-(J1-Pad12)*%
X133787800Y-80469200D03*
D23*
%TO.P,J1,SH*%
%TO.N,GND*%
X139497800Y-65479200D03*
X139497800Y-81739200D03*
%TD*%
D24*
%TO.P,U2,1,I/O1*%
%TO.N,Net-(J3-D+)*%
X110998000Y-73004600D03*
%TO.P,U2,2,GND*%
%TO.N,GND*%
X110998000Y-73954600D03*
%TO.P,U2,3,I/O2*%
%TO.N,Net-(J3-D-)*%
X110998000Y-74904600D03*
%TO.P,U2,4,I/O2*%
%TO.N,Net-(U1-UD-)*%
X113698000Y-74904600D03*
%TO.P,U2,5,VBUS*%
%TO.N,+5V*%
X113698000Y-73954600D03*
%TO.P,U2,6,I/O1*%
%TO.N,Net-(U1-UD+)*%
X113698000Y-73004600D03*
%TD*%
D13*
%TO.P,C5,1*%
%TO.N,+5V*%
X118160800Y-86301600D03*
%TO.P,C5,2*%
%TO.N,GND*%
X118160800Y-80901600D03*
%TD*%
D14*
%TO.P,H1,1,1*%
%TO.N,GND*%
X106857800Y-73380600D03*
%TD*%
D25*
%TO.N,GND*%
X111861600Y-64871600D03*
X113411000Y-71856600D03*
X128752600Y-87807800D03*
X110464600Y-73964800D03*
%TO.N,+5V*%
X136448800Y-88150000D03*
X118287800Y-69850000D03*
X119811800Y-73888600D03*
%TO.N,MODE*%
X119227600Y-71374000D03*
%TD*%
D26*
%TO.N,GND*%
X132824400Y-86696800D02*
X132867400Y-86739800D01*
X111091400Y-73973000D02*
X110947200Y-74117200D01*
D27*
%TO.N,Net-(U1-REF)*%
X131445000Y-76885800D02*
X131013200Y-76454000D01*
X131013200Y-76454000D02*
X121310400Y-76454000D01*
X131064000Y-76504800D02*
X131013200Y-76454000D01*
X132003800Y-82753200D02*
X131445000Y-82194400D01*
X135229600Y-83210400D02*
X134772400Y-82753200D01*
X131445000Y-82194400D02*
X131445000Y-76885800D01*
X135229600Y-84664800D02*
X137566400Y-84664800D01*
X134772400Y-82753200D02*
X132003800Y-82753200D01*
X135229600Y-84360000D02*
X135229600Y-83210400D01*
D26*
%TO.N,+5V*%
X114640400Y-73954600D02*
X114808000Y-73787000D01*
D27*
X120827800Y-65557400D02*
X120827800Y-62103000D01*
D26*
X114808000Y-73787000D02*
X114808000Y-70815200D01*
D27*
X137249600Y-88150000D02*
X137566400Y-87833200D01*
X137566400Y-87833200D02*
X137566400Y-86664800D01*
X125857000Y-65387400D02*
X125857000Y-62052200D01*
X118318200Y-69845000D02*
X118059200Y-70104000D01*
X125882400Y-65408900D02*
X120976300Y-65408900D01*
D26*
X114604800Y-70612000D02*
X115112800Y-70104000D01*
D27*
X128270000Y-65387400D02*
X131691200Y-65387400D01*
X136448800Y-88150000D02*
X137249600Y-88150000D01*
X130261000Y-85387000D02*
X130683000Y-85809000D01*
X120548400Y-65836800D02*
X120827800Y-65557400D01*
X137566400Y-86664800D02*
X139935200Y-86664800D01*
X110463000Y-85387000D02*
X130261000Y-85387000D01*
X131050600Y-88150000D02*
X136448800Y-88150000D01*
X144830800Y-76149200D02*
X144826800Y-76145200D01*
X128270000Y-65387400D02*
X125857000Y-65387400D01*
X120976300Y-65408900D02*
X120827800Y-65557400D01*
X140387800Y-76145200D02*
X139875800Y-76657200D01*
X118318200Y-65836800D02*
X120548400Y-65836800D01*
X139935200Y-86664800D02*
X139954000Y-86683600D01*
X110420000Y-85344000D02*
X110463000Y-85387000D01*
X145288000Y-75692000D02*
X144830800Y-76149200D01*
X144729200Y-63754000D02*
X145288000Y-64312800D01*
X130683000Y-85809000D02*
X130683000Y-87782400D01*
X139875800Y-76657200D02*
X139111800Y-76657200D01*
X131691200Y-65387400D02*
X133324600Y-63754000D01*
D26*
X113878100Y-73954600D02*
X114640400Y-73954600D01*
D27*
X139111800Y-76657200D02*
X138607800Y-77161200D01*
X130683000Y-87782400D02*
X131050600Y-88150000D01*
X125857000Y-65387400D02*
X125700700Y-65387400D01*
X133324600Y-63754000D02*
X144729200Y-63754000D01*
D26*
X114604800Y-70612000D02*
X113588800Y-70612000D01*
X114808000Y-70815200D02*
X114604800Y-70612000D01*
X115112800Y-70104000D02*
X116360400Y-70104000D01*
X119811800Y-73888600D02*
X121285000Y-73888600D01*
D27*
X145288000Y-64312800D02*
X145288000Y-75692000D01*
X118318200Y-65836800D02*
X118318200Y-69845000D01*
X118059200Y-70104000D02*
X116360400Y-70104000D01*
D26*
X121285000Y-73888600D02*
X121310400Y-73914000D01*
D27*
X125700700Y-65387400D02*
X125679200Y-65408900D01*
X144826800Y-76145200D02*
X140387800Y-76145200D01*
%TO.N,Net-(U1-V3)*%
X119684800Y-77876400D02*
X118262400Y-76454000D01*
X130403600Y-84074000D02*
X130403600Y-78282800D01*
X130994400Y-84664800D02*
X130403600Y-84074000D01*
X130403600Y-78282800D02*
X129997200Y-77876400D01*
X129997200Y-77876400D02*
X119684800Y-77876400D01*
X118262400Y-76454000D02*
X116360400Y-76454000D01*
X132867400Y-84664800D02*
X130994400Y-84664800D01*
%TO.N,Net-(U1-XD+)*%
X140387800Y-70080600D02*
X140284200Y-69977000D01*
D26*
X139985400Y-69646800D02*
X136652000Y-69646800D01*
X140387800Y-70049200D02*
X140356400Y-70049200D01*
D27*
X140284200Y-69977000D02*
X140172400Y-69865200D01*
D26*
X136652000Y-69646800D02*
X134934400Y-71364400D01*
D27*
X140387800Y-70506400D02*
X140387800Y-70080600D01*
D26*
X140356400Y-70049200D02*
X140284200Y-69977000D01*
X140387800Y-70049200D02*
X139985400Y-69646800D01*
X134934400Y-71364400D02*
X121358200Y-71364400D01*
%TO.N,Net-(J1-Pad12)*%
X139954000Y-83667600D02*
X139954000Y-84683600D01*
X136448800Y-83261200D02*
X136652000Y-83464400D01*
X136448800Y-80670400D02*
X136448800Y-83261200D01*
X136247600Y-80469200D02*
X136448800Y-80670400D01*
X136652000Y-83464400D02*
X139750800Y-83464400D01*
X133787800Y-80469200D02*
X136247600Y-80469200D01*
X139750800Y-83464400D02*
X139954000Y-83667600D01*
%TO.N,Net-(U1-XD-)*%
X135188400Y-72634400D02*
X121358200Y-72634400D01*
X138607800Y-71065200D02*
X136757600Y-71065200D01*
X136757600Y-71065200D02*
X135188400Y-72634400D01*
%TO.N,Net-(J1-Pad10)*%
X130888200Y-69039200D02*
X130733800Y-68884800D01*
X130733800Y-68884800D02*
X130733800Y-67446400D01*
X133787800Y-69039200D02*
X130888200Y-69039200D01*
%TO.N,Net-(J3-D+)*%
X108966000Y-80086200D02*
X109143800Y-80264000D01*
X111584000Y-72898000D02*
X109829600Y-72898000D01*
X109829600Y-72898000D02*
X109626400Y-73101200D01*
X108882600Y-65074800D02*
X111239123Y-65074800D01*
X111239123Y-65074800D02*
X111353600Y-65189277D01*
X111353600Y-65189277D02*
X111353600Y-72667600D01*
X109626400Y-75184000D02*
X108966000Y-75844400D01*
X109143800Y-80264000D02*
X110420000Y-80264000D01*
X109626400Y-73101200D02*
X109626400Y-75184000D01*
X108966000Y-75844400D02*
X108966000Y-80086200D01*
%TO.N,Net-(J3-D-)*%
X111887000Y-74904600D02*
X112090200Y-74904600D01*
X111887000Y-74904600D02*
X112014000Y-74904600D01*
X112420400Y-64414400D02*
X112280800Y-64274800D01*
X112280800Y-64274800D02*
X108882600Y-64274800D01*
X112090200Y-74904600D02*
X112217200Y-74777600D01*
X112014000Y-74904600D02*
X112191800Y-75082400D01*
X112217200Y-72034400D02*
X112420400Y-71831200D01*
X111988600Y-82804000D02*
X110420000Y-82804000D01*
X110998000Y-74904600D02*
X111887000Y-74904600D01*
X112191800Y-75082400D02*
X112191800Y-82600800D01*
X112217200Y-74777600D02*
X112217200Y-72034400D01*
X112191800Y-82600800D02*
X111988600Y-82804000D01*
X112420400Y-71831200D02*
X112420400Y-64414400D01*
D27*
%TO.N,MODE*%
X119227600Y-71374000D02*
X116360400Y-71374000D01*
D26*
%TO.N,Net-(U1-UD+)*%
X112796400Y-73004600D02*
X113698000Y-73004600D01*
X112617200Y-75533200D02*
X112617200Y-73183800D01*
X115239800Y-75184000D02*
X114757200Y-75666600D01*
X112750600Y-75666600D02*
X112617200Y-75533200D01*
X112617200Y-73183800D02*
X112796400Y-73004600D01*
X116360400Y-75184000D02*
X115239800Y-75184000D01*
X114757200Y-75666600D02*
X112750600Y-75666600D01*
%TO.N,Net-(U1-UD-)*%
X114427000Y-74904600D02*
X115417600Y-73914000D01*
X116301400Y-73973000D02*
X116360400Y-73914000D01*
X113698000Y-74904600D02*
X114427000Y-74904600D01*
X115417600Y-73914000D02*
X116360400Y-73914000D01*
D27*
%TO.N,Net-(J3-VBUS)*%
X113004800Y-63474800D02*
X113284000Y-63754000D01*
X108882600Y-63474800D02*
X113004800Y-63474800D01*
X113284000Y-65582800D02*
X113588800Y-65887600D01*
X115727400Y-65887600D02*
X115778200Y-65836800D01*
X113588800Y-65887600D02*
X115727400Y-65887600D01*
X113284000Y-63754000D02*
X113284000Y-65582800D01*
%TD*%
%TA.AperFunction,Conductor*%
%TO.N,GND*%
G36*
X142258724Y-58934852D02*
G01*
X142273076Y-58969500D01*
X142258724Y-59004148D01*
X142251299Y-59010242D01*
X142086549Y-59120324D01*
X142053159Y-59149605D01*
X142876463Y-59972909D01*
X142742598Y-60070167D01*
X142620167Y-60192598D01*
X142522909Y-60326462D01*
X141699605Y-59503159D01*
X141670324Y-59536549D01*
X141506462Y-59781785D01*
X141376010Y-60046316D01*
X141281201Y-60325613D01*
X141223661Y-60614891D01*
X141204372Y-60909198D01*
X141204372Y-60909201D01*
X141223661Y-61203508D01*
X141281201Y-61492786D01*
X141376010Y-61772083D01*
X141506462Y-62036614D01*
X141670324Y-62281852D01*
X141699604Y-62315239D01*
X141699605Y-62315240D01*
X142522908Y-61491936D01*
X142620167Y-61625802D01*
X142742598Y-61748233D01*
X142876462Y-61845490D01*
X142053158Y-62668793D01*
X142053159Y-62668794D01*
X142086547Y-62698075D01*
X142331785Y-62861937D01*
X142596316Y-62992389D01*
X142875613Y-63087198D01*
X143164891Y-63144738D01*
X143459199Y-63164028D01*
X143459201Y-63164028D01*
X143753508Y-63144738D01*
X144042786Y-63087198D01*
X144322083Y-62992389D01*
X144586614Y-62861937D01*
X144831852Y-62698075D01*
X144865239Y-62668794D01*
X144865240Y-62668793D01*
X144041937Y-61845490D01*
X144175802Y-61748233D01*
X144298233Y-61625802D01*
X144395490Y-61491937D01*
X145218793Y-62315240D01*
X145218794Y-62315239D01*
X145248075Y-62281852D01*
X145411937Y-62036614D01*
X145507353Y-61843129D01*
X145535549Y-61818401D01*
X145572972Y-61820854D01*
X145597700Y-61849050D01*
X145600300Y-61864801D01*
X145600300Y-63869701D01*
X145585948Y-63904349D01*
X145551300Y-63918701D01*
X145516652Y-63904349D01*
X145005814Y-63393511D01*
X144903088Y-63334201D01*
X144903086Y-63334200D01*
X144878873Y-63327713D01*
X144848751Y-63319642D01*
X144788511Y-63303500D01*
X144788509Y-63303500D01*
X133265291Y-63303500D01*
X133265288Y-63303500D01*
X133150718Y-63334199D01*
X133150712Y-63334202D01*
X133107296Y-63359268D01*
X133047985Y-63393511D01*
X133047984Y-63393512D01*
X131614704Y-64826791D01*
X131580056Y-64841143D01*
X131545408Y-64826791D01*
X131540631Y-64821240D01*
X131505950Y-64774249D01*
X131396685Y-64693608D01*
X131396676Y-64693604D01*
X131268498Y-64648753D01*
X131238075Y-64645900D01*
X131238066Y-64645900D01*
X130229534Y-64645900D01*
X130229524Y-64645900D01*
X130199101Y-64648753D01*
X130199100Y-64648753D01*
X130070923Y-64693604D01*
X130070914Y-64693608D01*
X129961649Y-64774249D01*
X129881008Y-64883514D01*
X129881004Y-64883523D01*
X129873810Y-64904083D01*
X129848821Y-64932047D01*
X129827560Y-64936900D01*
X129217511Y-64936900D01*
X129182863Y-64922548D01*
X129171261Y-64904084D01*
X129147794Y-64837021D01*
X129147791Y-64837014D01*
X129067150Y-64727749D01*
X128957885Y-64647108D01*
X128957876Y-64647104D01*
X128829698Y-64602253D01*
X128799275Y-64599400D01*
X128799266Y-64599400D01*
X127740734Y-64599400D01*
X127740724Y-64599400D01*
X127710301Y-64602253D01*
X127710300Y-64602253D01*
X127582123Y-64647104D01*
X127582114Y-64647108D01*
X127472849Y-64727749D01*
X127392208Y-64837014D01*
X127392205Y-64837021D01*
X127368739Y-64904084D01*
X127343749Y-64932047D01*
X127322489Y-64936900D01*
X126822388Y-64936900D01*
X126787740Y-64922548D01*
X126776138Y-64904084D01*
X126760194Y-64858521D01*
X126760191Y-64858514D01*
X126679550Y-64749249D01*
X126570285Y-64668608D01*
X126570276Y-64668604D01*
X126442098Y-64623753D01*
X126411675Y-64620900D01*
X126411666Y-64620900D01*
X126356500Y-64620900D01*
X126321852Y-64606548D01*
X126307500Y-64571900D01*
X126307500Y-63151700D01*
X126321852Y-63117052D01*
X126356500Y-63102700D01*
X126726745Y-63102700D01*
X126726748Y-63102700D01*
X126785231Y-63091067D01*
X126851552Y-63046752D01*
X126895867Y-62980431D01*
X126907500Y-62921948D01*
X126907500Y-61802199D01*
X127066363Y-61802199D01*
X127066364Y-61802200D01*
X127963988Y-61802200D01*
X127931075Y-61859207D01*
X127897000Y-61986374D01*
X127897000Y-62118026D01*
X127931075Y-62245193D01*
X127963988Y-62302200D01*
X127066363Y-62302200D01*
X127123566Y-62515683D01*
X127123568Y-62515688D01*
X127223398Y-62729777D01*
X127223405Y-62729789D01*
X127358885Y-62923272D01*
X127358891Y-62923279D01*
X127525920Y-63090308D01*
X127525927Y-63090314D01*
X127719410Y-63225794D01*
X127719422Y-63225801D01*
X127933511Y-63325631D01*
X127933516Y-63325633D01*
X128147000Y-63382834D01*
X128147000Y-62485212D01*
X128204007Y-62518125D01*
X128331174Y-62552200D01*
X128462826Y-62552200D01*
X128589993Y-62518125D01*
X128647000Y-62485212D01*
X128647000Y-63382834D01*
X128860483Y-63325633D01*
X128860488Y-63325631D01*
X129074577Y-63225801D01*
X129074589Y-63225794D01*
X129268072Y-63090314D01*
X129268079Y-63090308D01*
X129435108Y-62923279D01*
X129435114Y-62923272D01*
X129570594Y-62729789D01*
X129570601Y-62729777D01*
X129670431Y-62515688D01*
X129670433Y-62515683D01*
X129727636Y-62302200D01*
X128830012Y-62302200D01*
X128862925Y-62245193D01*
X128897000Y-62118026D01*
X128897000Y-61986374D01*
X128862925Y-61859207D01*
X128830012Y-61802200D01*
X129727636Y-61802200D01*
X129727636Y-61802199D01*
X129670433Y-61588716D01*
X129670432Y-61588711D01*
X129570601Y-61374623D01*
X129570594Y-61374611D01*
X129435114Y-61181127D01*
X129435108Y-61181120D01*
X129268079Y-61014091D01*
X129268072Y-61014085D01*
X129074589Y-60878605D01*
X129074577Y-60878598D01*
X128860488Y-60778768D01*
X128860483Y-60778766D01*
X128647000Y-60721563D01*
X128647000Y-61619188D01*
X128589993Y-61586275D01*
X128462826Y-61552200D01*
X128331174Y-61552200D01*
X128204007Y-61586275D01*
X128147000Y-61619188D01*
X128147000Y-60721563D01*
X128146999Y-60721563D01*
X127933516Y-60778766D01*
X127933511Y-60778767D01*
X127719423Y-60878598D01*
X127719411Y-60878605D01*
X127525927Y-61014085D01*
X127525920Y-61014091D01*
X127358891Y-61181120D01*
X127358885Y-61181127D01*
X127223405Y-61374611D01*
X127223398Y-61374623D01*
X127123567Y-61588711D01*
X127123566Y-61588716D01*
X127066363Y-61802199D01*
X126907500Y-61802199D01*
X126907500Y-61182452D01*
X126895867Y-61123969D01*
X126856388Y-61064885D01*
X126851552Y-61057647D01*
X126811795Y-61031082D01*
X126785231Y-61013333D01*
X126726748Y-61001700D01*
X124987252Y-61001700D01*
X124928769Y-61013333D01*
X124862447Y-61057647D01*
X124828504Y-61108448D01*
X124818133Y-61123969D01*
X124806500Y-61182452D01*
X124806500Y-62921948D01*
X124818133Y-62980431D01*
X124835882Y-63006995D01*
X124862447Y-63046752D01*
X124874793Y-63055001D01*
X124928769Y-63091067D01*
X124987252Y-63102700D01*
X125357500Y-63102700D01*
X125392148Y-63117052D01*
X125406500Y-63151700D01*
X125406500Y-64571900D01*
X125392148Y-64606548D01*
X125357500Y-64620900D01*
X125353124Y-64620900D01*
X125322701Y-64623753D01*
X125322700Y-64623753D01*
X125194523Y-64668604D01*
X125194514Y-64668608D01*
X125085249Y-64749249D01*
X125004608Y-64858514D01*
X125004605Y-64858521D01*
X124981139Y-64925584D01*
X124956149Y-64953547D01*
X124934889Y-64958400D01*
X121327300Y-64958400D01*
X121292652Y-64944048D01*
X121278300Y-64909400D01*
X121278300Y-63202500D01*
X121292652Y-63167852D01*
X121327300Y-63153500D01*
X121697545Y-63153500D01*
X121697548Y-63153500D01*
X121756031Y-63141867D01*
X121822352Y-63097552D01*
X121866667Y-63031231D01*
X121878300Y-62972748D01*
X121878300Y-61233252D01*
X121866667Y-61174769D01*
X121835262Y-61127769D01*
X121822352Y-61108447D01*
X121761369Y-61067700D01*
X121756031Y-61064133D01*
X121697548Y-61052500D01*
X119958052Y-61052500D01*
X119899569Y-61064133D01*
X119833247Y-61108447D01*
X119794268Y-61166784D01*
X119788933Y-61174769D01*
X119777300Y-61233252D01*
X119777300Y-62972748D01*
X119788933Y-63031231D01*
X119799304Y-63046752D01*
X119833247Y-63097552D01*
X119840952Y-63102700D01*
X119899569Y-63141867D01*
X119958052Y-63153500D01*
X120328300Y-63153500D01*
X120362948Y-63167852D01*
X120377300Y-63202500D01*
X120377300Y-65337300D01*
X120362948Y-65371948D01*
X120328300Y-65386300D01*
X119417700Y-65386300D01*
X119383052Y-65371948D01*
X119368700Y-65337300D01*
X119368700Y-64967055D01*
X119368700Y-64967052D01*
X119357067Y-64908569D01*
X119325662Y-64861569D01*
X119312752Y-64842247D01*
X119272995Y-64815682D01*
X119246431Y-64797933D01*
X119187948Y-64786300D01*
X117448452Y-64786300D01*
X117389969Y-64797933D01*
X117323647Y-64842247D01*
X117296068Y-64883523D01*
X117279333Y-64908569D01*
X117267700Y-64967052D01*
X117267700Y-66706548D01*
X117279333Y-66765031D01*
X117285493Y-66774250D01*
X117323647Y-66831352D01*
X117350212Y-66849101D01*
X117389969Y-66875667D01*
X117448452Y-66887300D01*
X117818700Y-66887300D01*
X117853348Y-66901652D01*
X117867700Y-66936300D01*
X117867700Y-69604500D01*
X117853348Y-69639148D01*
X117818700Y-69653500D01*
X117380100Y-69653500D01*
X117358580Y-69648521D01*
X117286796Y-69613428D01*
X117286794Y-69613427D01*
X117286793Y-69613427D01*
X117264082Y-69610118D01*
X117218662Y-69603500D01*
X117218660Y-69603500D01*
X115502140Y-69603500D01*
X115502138Y-69603500D01*
X115434005Y-69613427D01*
X115434003Y-69613428D01*
X115328919Y-69664801D01*
X115328915Y-69664803D01*
X115246202Y-69747516D01*
X115246202Y-69747517D01*
X115232267Y-69776021D01*
X115204158Y-69800845D01*
X115188247Y-69803500D01*
X115073236Y-69803500D01*
X114996810Y-69823979D01*
X114996808Y-69823979D01*
X114951741Y-69850000D01*
X114928288Y-69863540D01*
X114590068Y-70201760D01*
X114555420Y-70216112D01*
X114520772Y-70201760D01*
X114509170Y-70183295D01*
X114466595Y-70061623D01*
X114466591Y-70061614D01*
X114385950Y-69952349D01*
X114276685Y-69871708D01*
X114276676Y-69871704D01*
X114148498Y-69826853D01*
X114118075Y-69824000D01*
X114118066Y-69824000D01*
X113059534Y-69824000D01*
X113059524Y-69824000D01*
X113029101Y-69826853D01*
X113029100Y-69826853D01*
X112900923Y-69871704D01*
X112900919Y-69871705D01*
X112798997Y-69946927D01*
X112762597Y-69955954D01*
X112730474Y-69936598D01*
X112720900Y-69907501D01*
X112720900Y-69601146D01*
X112735252Y-69566498D01*
X112769900Y-69552146D01*
X112791764Y-69558348D01*
X112792090Y-69557651D01*
X112794677Y-69558857D01*
X112961106Y-69614006D01*
X113063818Y-69624499D01*
X113338799Y-69624499D01*
X113838800Y-69624499D01*
X114113780Y-69624499D01*
X114216493Y-69614006D01*
X114382922Y-69558857D01*
X114532143Y-69466817D01*
X114656117Y-69342843D01*
X114748157Y-69193622D01*
X114803306Y-69027193D01*
X114813800Y-68924481D01*
X114813800Y-68787000D01*
X113838800Y-68787000D01*
X113838800Y-69624499D01*
X113338799Y-69624499D01*
X113338800Y-69624498D01*
X113338800Y-68650738D01*
X115184900Y-68650738D01*
X115184900Y-69017261D01*
X115188097Y-69039199D01*
X115194827Y-69085393D01*
X115246202Y-69190483D01*
X115328917Y-69273198D01*
X115434007Y-69324573D01*
X115482284Y-69331606D01*
X115502138Y-69334500D01*
X115502140Y-69334500D01*
X117218662Y-69334500D01*
X117236175Y-69331948D01*
X117286793Y-69324573D01*
X117391883Y-69273198D01*
X117474598Y-69190483D01*
X117525973Y-69085393D01*
X117535900Y-69017260D01*
X117535900Y-68650740D01*
X117525973Y-68582607D01*
X117474598Y-68477517D01*
X117391883Y-68394802D01*
X117328555Y-68363843D01*
X117286796Y-68343428D01*
X117286794Y-68343427D01*
X117218662Y-68333500D01*
X117218660Y-68333500D01*
X115502140Y-68333500D01*
X115502138Y-68333500D01*
X115434005Y-68343427D01*
X115434003Y-68343428D01*
X115328919Y-68394801D01*
X115328915Y-68394803D01*
X115246203Y-68477515D01*
X115246201Y-68477519D01*
X115194828Y-68582603D01*
X115194827Y-68582605D01*
X115184900Y-68650738D01*
X113338800Y-68650738D01*
X113338800Y-68287000D01*
X113838800Y-68287000D01*
X114813799Y-68287000D01*
X114813799Y-68149519D01*
X114803306Y-68046806D01*
X114748157Y-67880377D01*
X114656117Y-67731156D01*
X114532143Y-67607182D01*
X114382922Y-67515142D01*
X114216493Y-67459993D01*
X114113781Y-67449500D01*
X113838800Y-67449500D01*
X113838800Y-68287000D01*
X113338800Y-68287000D01*
X113338800Y-67449500D01*
X113063819Y-67449500D01*
X112961106Y-67459993D01*
X112794677Y-67515142D01*
X112792090Y-67516349D01*
X112791562Y-67515218D01*
X112758583Y-67520528D01*
X112728186Y-67498562D01*
X112720900Y-67472853D01*
X112720900Y-64374836D01*
X112712243Y-64342534D01*
X112700421Y-64298411D01*
X112700420Y-64298409D01*
X112700420Y-64298408D01*
X112660859Y-64229888D01*
X112465313Y-64034342D01*
X112465307Y-64034337D01*
X112444531Y-64022343D01*
X112434818Y-64016735D01*
X112411988Y-63986983D01*
X112416882Y-63949801D01*
X112446635Y-63926970D01*
X112459318Y-63925300D01*
X112784500Y-63925300D01*
X112819148Y-63939652D01*
X112833500Y-63974300D01*
X112833500Y-65642111D01*
X112852686Y-65713713D01*
X112852686Y-65713714D01*
X112864200Y-65756685D01*
X112864201Y-65756688D01*
X112908118Y-65832753D01*
X112923511Y-65859414D01*
X113312186Y-66248089D01*
X113349015Y-66269352D01*
X113414911Y-66307398D01*
X113414913Y-66307398D01*
X113414914Y-66307399D01*
X113443558Y-66315074D01*
X113529488Y-66338100D01*
X113529491Y-66338100D01*
X114825632Y-66338100D01*
X114860280Y-66352452D01*
X114868844Y-66363998D01*
X114900515Y-66423250D01*
X115031790Y-66583210D01*
X115191750Y-66714485D01*
X115374246Y-66812032D01*
X115572266Y-66872100D01*
X115778200Y-66892383D01*
X115984134Y-66872100D01*
X116182154Y-66812032D01*
X116364650Y-66714485D01*
X116524610Y-66583210D01*
X116655885Y-66423250D01*
X116753432Y-66240754D01*
X116813500Y-66042734D01*
X116833783Y-65836800D01*
X116813500Y-65630866D01*
X116753432Y-65432846D01*
X116655885Y-65250350D01*
X116524610Y-65090390D01*
X116364650Y-64959115D01*
X116196902Y-64869451D01*
X116182156Y-64861569D01*
X116182155Y-64861568D01*
X116182154Y-64861568D01*
X115984134Y-64801500D01*
X115778200Y-64781217D01*
X115572265Y-64801500D01*
X115572264Y-64801500D01*
X115374243Y-64861569D01*
X115191748Y-64959116D01*
X115031790Y-65090390D01*
X114900516Y-65250348D01*
X114900515Y-65250350D01*
X114822558Y-65396197D01*
X114814539Y-65411199D01*
X114785549Y-65434990D01*
X114771325Y-65437100D01*
X113795699Y-65437100D01*
X113761051Y-65422748D01*
X113748852Y-65410549D01*
X113734500Y-65375901D01*
X113734500Y-63694688D01*
X113703799Y-63580115D01*
X113703798Y-63580111D01*
X113677238Y-63534109D01*
X113644488Y-63477385D01*
X113281414Y-63114311D01*
X113178688Y-63055001D01*
X113147899Y-63046751D01*
X113064112Y-63024300D01*
X113064109Y-63024300D01*
X110152348Y-63024300D01*
X107612852Y-63024300D01*
X107554369Y-63035933D01*
X107488047Y-63080247D01*
X107449259Y-63138299D01*
X107443733Y-63146569D01*
X107432100Y-63205052D01*
X107432100Y-63744548D01*
X107443733Y-63803031D01*
X107467397Y-63838446D01*
X107473498Y-63847577D01*
X107480814Y-63884359D01*
X107473497Y-63902023D01*
X107443733Y-63946569D01*
X107432100Y-64005052D01*
X107432100Y-64544548D01*
X107443733Y-64603031D01*
X107457580Y-64623754D01*
X107473498Y-64647577D01*
X107480814Y-64684359D01*
X107473497Y-64702023D01*
X107443733Y-64746569D01*
X107432100Y-64805052D01*
X107432100Y-65344548D01*
X107443733Y-65403031D01*
X107449191Y-65411199D01*
X107473498Y-65447577D01*
X107480814Y-65484359D01*
X107473497Y-65502023D01*
X107443733Y-65546569D01*
X107432100Y-65605052D01*
X107432100Y-65605055D01*
X107432100Y-65931913D01*
X107417748Y-65966561D01*
X107400226Y-65977823D01*
X107390510Y-65981447D01*
X107390509Y-65981447D01*
X107275411Y-66067611D01*
X107189248Y-66182708D01*
X107139001Y-66317426D01*
X107139001Y-66317427D01*
X107132600Y-66376965D01*
X107132600Y-66424800D01*
X110632600Y-66424800D01*
X110632600Y-66376965D01*
X110626198Y-66317427D01*
X110626198Y-66317426D01*
X110575951Y-66182708D01*
X110489788Y-66067611D01*
X110374690Y-65981447D01*
X110364974Y-65977823D01*
X110337527Y-65952266D01*
X110333100Y-65931913D01*
X110333100Y-65605055D01*
X110333100Y-65605052D01*
X110321467Y-65546569D01*
X110291700Y-65502021D01*
X110284384Y-65465241D01*
X110291699Y-65447580D01*
X110321467Y-65403031D01*
X110321467Y-65403029D01*
X110324148Y-65399018D01*
X110325830Y-65400142D01*
X110346943Y-65379030D01*
X110365694Y-65375300D01*
X111004100Y-65375300D01*
X111038748Y-65389652D01*
X111053100Y-65424300D01*
X111053100Y-72430100D01*
X111038748Y-72464748D01*
X111004100Y-72479100D01*
X110346049Y-72479100D01*
X110346048Y-72479101D01*
X110275492Y-72489379D01*
X110275490Y-72489379D01*
X110166655Y-72542586D01*
X110166651Y-72542589D01*
X110126093Y-72583148D01*
X110091445Y-72597500D01*
X109790036Y-72597500D01*
X109713610Y-72617979D01*
X109713608Y-72617979D01*
X109645088Y-72657540D01*
X109645088Y-72657541D01*
X109385941Y-72916688D01*
X109385940Y-72916688D01*
X109346379Y-72985208D01*
X109346379Y-72985210D01*
X109325900Y-73061636D01*
X109325900Y-75039233D01*
X109311548Y-75073881D01*
X108725541Y-75659888D01*
X108725540Y-75659888D01*
X108685979Y-75728408D01*
X108685979Y-75728410D01*
X108665500Y-75804836D01*
X108665500Y-80125763D01*
X108677005Y-80168700D01*
X108685979Y-80202189D01*
X108701306Y-80228736D01*
X108721663Y-80263997D01*
X108725541Y-80270712D01*
X108725542Y-80270714D01*
X108855016Y-80400187D01*
X108903340Y-80448511D01*
X108959289Y-80504460D01*
X109027811Y-80544021D01*
X109063278Y-80553524D01*
X109104236Y-80564500D01*
X109104238Y-80564500D01*
X109377045Y-80564500D01*
X109411693Y-80578852D01*
X109423935Y-80599276D01*
X109444768Y-80667954D01*
X109542315Y-80850450D01*
X109673590Y-81010410D01*
X109833550Y-81141685D01*
X110016046Y-81239232D01*
X110214066Y-81299300D01*
X110420000Y-81319583D01*
X110625934Y-81299300D01*
X110823954Y-81239232D01*
X111006450Y-81141685D01*
X111166410Y-81010410D01*
X111297685Y-80850450D01*
X111395232Y-80667954D01*
X111455300Y-80469934D01*
X111475583Y-80264000D01*
X111472110Y-80228743D01*
X111468214Y-80189179D01*
X111455300Y-80058066D01*
X111395232Y-79860046D01*
X111297685Y-79677550D01*
X111166410Y-79517590D01*
X111006450Y-79386315D01*
X110823954Y-79288768D01*
X110625934Y-79228700D01*
X110420000Y-79208417D01*
X110214065Y-79228700D01*
X110214064Y-79228700D01*
X110016043Y-79288769D01*
X109833548Y-79386316D01*
X109673590Y-79517590D01*
X109542316Y-79677548D01*
X109444769Y-79860043D01*
X109423935Y-79928724D01*
X109400143Y-79957714D01*
X109377045Y-79963500D01*
X109315500Y-79963500D01*
X109280852Y-79949148D01*
X109266500Y-79914500D01*
X109266500Y-78585691D01*
X109280852Y-78551043D01*
X109315500Y-78536691D01*
X109350148Y-78551043D01*
X109355639Y-78557586D01*
X109381891Y-78595079D01*
X109548920Y-78762108D01*
X109548927Y-78762114D01*
X109742410Y-78897594D01*
X109742422Y-78897601D01*
X109956511Y-78997431D01*
X109956516Y-78997433D01*
X110170000Y-79054634D01*
X110170000Y-78157012D01*
X110227007Y-78189925D01*
X110354174Y-78224000D01*
X110485826Y-78224000D01*
X110612993Y-78189925D01*
X110670000Y-78157012D01*
X110670000Y-79054634D01*
X110883483Y-78997433D01*
X110883488Y-78997431D01*
X111097577Y-78897601D01*
X111097589Y-78897594D01*
X111291072Y-78762114D01*
X111291079Y-78762108D01*
X111458108Y-78595079D01*
X111458114Y-78595072D01*
X111593594Y-78401589D01*
X111593601Y-78401577D01*
X111693431Y-78187488D01*
X111693433Y-78187483D01*
X111750636Y-77974000D01*
X110853012Y-77974000D01*
X110885925Y-77916993D01*
X110920000Y-77789826D01*
X110920000Y-77658174D01*
X110885925Y-77531007D01*
X110853012Y-77474000D01*
X111750636Y-77474000D01*
X111750636Y-77473999D01*
X111693433Y-77260516D01*
X111693432Y-77260511D01*
X111593601Y-77046423D01*
X111593594Y-77046411D01*
X111458114Y-76852927D01*
X111458108Y-76852920D01*
X111291079Y-76685891D01*
X111291072Y-76685885D01*
X111097589Y-76550405D01*
X111097577Y-76550398D01*
X110883488Y-76450568D01*
X110883483Y-76450566D01*
X110670000Y-76393363D01*
X110670000Y-77290988D01*
X110612993Y-77258075D01*
X110485826Y-77224000D01*
X110354174Y-77224000D01*
X110227007Y-77258075D01*
X110170000Y-77290988D01*
X110170000Y-76393363D01*
X110169999Y-76393363D01*
X109956516Y-76450566D01*
X109956511Y-76450567D01*
X109742423Y-76550398D01*
X109742411Y-76550405D01*
X109548927Y-76685885D01*
X109548920Y-76685891D01*
X109381891Y-76852920D01*
X109381885Y-76852927D01*
X109355638Y-76890413D01*
X109324009Y-76910564D01*
X109287395Y-76902446D01*
X109267244Y-76870817D01*
X109266500Y-76862308D01*
X109266500Y-75989167D01*
X109280852Y-75954519D01*
X109866859Y-75368512D01*
X109866860Y-75368511D01*
X109906422Y-75299988D01*
X109926899Y-75223565D01*
X109926900Y-75223565D01*
X109926900Y-75155891D01*
X109941252Y-75121243D01*
X109975900Y-75106891D01*
X110010548Y-75121243D01*
X110024388Y-75148828D01*
X110027779Y-75172107D01*
X110027779Y-75172109D01*
X110080986Y-75280944D01*
X110080987Y-75280946D01*
X110080988Y-75280947D01*
X110166653Y-75366612D01*
X110275491Y-75419820D01*
X110346051Y-75430100D01*
X111649948Y-75430099D01*
X111649950Y-75430099D01*
X111649950Y-75430098D01*
X111720509Y-75419820D01*
X111820780Y-75370799D01*
X111858210Y-75368476D01*
X111886321Y-75393300D01*
X111891300Y-75414821D01*
X111891300Y-82454500D01*
X111876948Y-82489148D01*
X111842300Y-82503500D01*
X111462955Y-82503500D01*
X111428307Y-82489148D01*
X111416065Y-82468724D01*
X111410864Y-82451580D01*
X111395232Y-82400046D01*
X111297685Y-82217550D01*
X111166410Y-82057590D01*
X111006450Y-81926315D01*
X110823954Y-81828768D01*
X110625934Y-81768700D01*
X110420000Y-81748417D01*
X110214065Y-81768700D01*
X110214064Y-81768700D01*
X110016043Y-81828769D01*
X109833548Y-81926316D01*
X109673590Y-82057590D01*
X109542316Y-82217548D01*
X109444769Y-82400043D01*
X109384700Y-82598064D01*
X109384700Y-82598065D01*
X109364417Y-82803999D01*
X109364417Y-82804000D01*
X109384700Y-83009934D01*
X109384700Y-83009935D01*
X109407173Y-83084020D01*
X109443477Y-83203699D01*
X109444769Y-83207956D01*
X109445861Y-83209999D01*
X109542315Y-83390450D01*
X109673590Y-83550410D01*
X109833550Y-83681685D01*
X110016046Y-83779232D01*
X110214066Y-83839300D01*
X110420000Y-83859583D01*
X110625934Y-83839300D01*
X110823954Y-83779232D01*
X111006450Y-83681685D01*
X111166410Y-83550410D01*
X111297685Y-83390450D01*
X111395232Y-83207954D01*
X111416065Y-83139276D01*
X111439857Y-83110286D01*
X111462955Y-83104500D01*
X112028164Y-83104500D01*
X112054830Y-83097354D01*
X112104589Y-83084021D01*
X112173111Y-83044460D01*
X112229060Y-82988511D01*
X112432260Y-82785311D01*
X112446931Y-82759900D01*
X112471821Y-82716789D01*
X112492300Y-82640362D01*
X112492300Y-82451580D01*
X116860801Y-82451580D01*
X116871293Y-82554293D01*
X116926442Y-82720722D01*
X117018482Y-82869943D01*
X117142456Y-82993917D01*
X117291677Y-83085957D01*
X117458106Y-83141106D01*
X117560818Y-83151599D01*
X117910799Y-83151599D01*
X118410800Y-83151599D01*
X118760780Y-83151599D01*
X118863493Y-83141106D01*
X119029922Y-83085957D01*
X119179143Y-82993917D01*
X119303117Y-82869943D01*
X119395157Y-82720722D01*
X119450306Y-82554293D01*
X119454833Y-82509980D01*
X125192001Y-82509980D01*
X125202493Y-82612693D01*
X125257642Y-82779122D01*
X125349682Y-82928343D01*
X125473656Y-83052317D01*
X125622877Y-83144357D01*
X125789306Y-83199506D01*
X125892018Y-83209999D01*
X126241999Y-83209999D01*
X126742000Y-83209999D01*
X127091980Y-83209999D01*
X127194693Y-83199506D01*
X127361122Y-83144357D01*
X127510343Y-83052317D01*
X127634317Y-82928343D01*
X127726357Y-82779122D01*
X127781506Y-82612693D01*
X127792000Y-82509981D01*
X127792000Y-81210000D01*
X126742000Y-81210000D01*
X126742000Y-83209999D01*
X126241999Y-83209999D01*
X126242000Y-83209998D01*
X126242000Y-81210000D01*
X125192001Y-81210000D01*
X125192001Y-82509980D01*
X119454833Y-82509980D01*
X119460800Y-82451581D01*
X119460800Y-81151600D01*
X118410800Y-81151600D01*
X118410800Y-83151599D01*
X117910799Y-83151599D01*
X117910800Y-83151598D01*
X117910800Y-81151600D01*
X116860801Y-81151600D01*
X116860801Y-82451580D01*
X112492300Y-82451580D01*
X112492300Y-79351618D01*
X116860800Y-79351618D01*
X116860800Y-80651600D01*
X117910800Y-80651600D01*
X118410800Y-80651600D01*
X119460799Y-80651600D01*
X119460799Y-79410018D01*
X125192000Y-79410018D01*
X125192000Y-80710000D01*
X126242000Y-80710000D01*
X126742000Y-80710000D01*
X127791999Y-80710000D01*
X127791999Y-79410019D01*
X127781506Y-79307306D01*
X127726357Y-79140877D01*
X127634317Y-78991656D01*
X127510343Y-78867682D01*
X127361122Y-78775642D01*
X127194693Y-78720493D01*
X127091981Y-78710000D01*
X126742000Y-78710000D01*
X126742000Y-80710000D01*
X126242000Y-80710000D01*
X126242000Y-78710000D01*
X125892019Y-78710000D01*
X125789306Y-78720493D01*
X125622877Y-78775642D01*
X125473656Y-78867682D01*
X125349682Y-78991656D01*
X125257642Y-79140877D01*
X125202493Y-79307306D01*
X125192000Y-79410018D01*
X119460799Y-79410018D01*
X119460799Y-79351619D01*
X119450306Y-79248906D01*
X119395157Y-79082477D01*
X119303117Y-78933256D01*
X119179143Y-78809282D01*
X119029922Y-78717242D01*
X118863493Y-78662093D01*
X118760781Y-78651600D01*
X118410800Y-78651600D01*
X118410800Y-80651600D01*
X117910800Y-80651600D01*
X117910800Y-78651600D01*
X117560819Y-78651600D01*
X117458106Y-78662093D01*
X117291677Y-78717242D01*
X117142456Y-78809282D01*
X117018482Y-78933256D01*
X116926442Y-79082477D01*
X116871293Y-79248906D01*
X116860800Y-79351618D01*
X112492300Y-79351618D01*
X112492300Y-76637259D01*
X115184899Y-76637259D01*
X115194827Y-76705394D01*
X115194828Y-76705396D01*
X115198015Y-76711915D01*
X115246202Y-76810483D01*
X115328917Y-76893198D01*
X115434007Y-76944573D01*
X115482284Y-76951606D01*
X115502138Y-76954500D01*
X115502140Y-76954500D01*
X117218662Y-76954500D01*
X117232476Y-76952486D01*
X117286793Y-76944573D01*
X117329267Y-76923808D01*
X117358580Y-76909479D01*
X117380100Y-76904500D01*
X118055501Y-76904500D01*
X118090149Y-76918852D01*
X119408186Y-78236889D01*
X119408187Y-78236890D01*
X119408189Y-78236891D01*
X119431200Y-78250176D01*
X119467496Y-78271131D01*
X119510914Y-78296199D01*
X119510916Y-78296199D01*
X119510917Y-78296200D01*
X119625487Y-78326899D01*
X119625488Y-78326900D01*
X119625491Y-78326900D01*
X129790301Y-78326900D01*
X129824949Y-78341252D01*
X129938748Y-78455051D01*
X129953100Y-78489699D01*
X129953100Y-84133310D01*
X129974801Y-84214297D01*
X129974801Y-84214299D01*
X129983800Y-84247886D01*
X129983801Y-84247888D01*
X130042437Y-84349447D01*
X130043111Y-84350614D01*
X130717786Y-85025289D01*
X130717787Y-85025290D01*
X130717789Y-85025291D01*
X130738807Y-85037425D01*
X130771960Y-85056566D01*
X130820514Y-85084599D01*
X130849158Y-85092274D01*
X130935088Y-85115300D01*
X130935091Y-85115300D01*
X131919889Y-85115300D01*
X131954537Y-85129652D01*
X131966139Y-85148116D01*
X131989605Y-85215178D01*
X131989608Y-85215185D01*
X132070249Y-85324450D01*
X132179514Y-85405091D01*
X132179517Y-85405092D01*
X132179518Y-85405093D01*
X132179520Y-85405093D01*
X132179523Y-85405095D01*
X132268974Y-85436395D01*
X132307701Y-85449946D01*
X132338134Y-85452800D01*
X132338144Y-85452800D01*
X133396656Y-85452800D01*
X133396666Y-85452800D01*
X133427099Y-85449946D01*
X133555282Y-85405093D01*
X133664550Y-85324450D01*
X133694857Y-85283385D01*
X133745191Y-85215185D01*
X133745191Y-85215184D01*
X133745193Y-85215182D01*
X133790046Y-85086999D01*
X133792900Y-85056566D01*
X133792900Y-84273034D01*
X133790046Y-84242601D01*
X133778445Y-84209448D01*
X133745195Y-84114423D01*
X133745191Y-84114414D01*
X133664550Y-84005149D01*
X133555285Y-83924508D01*
X133555276Y-83924504D01*
X133427098Y-83879653D01*
X133396675Y-83876800D01*
X133396666Y-83876800D01*
X132338134Y-83876800D01*
X132338124Y-83876800D01*
X132307701Y-83879653D01*
X132307700Y-83879653D01*
X132179523Y-83924504D01*
X132179514Y-83924508D01*
X132070249Y-84005149D01*
X131989608Y-84114414D01*
X131989605Y-84114421D01*
X131966139Y-84181484D01*
X131941149Y-84209447D01*
X131919889Y-84214300D01*
X131201299Y-84214300D01*
X131166651Y-84199948D01*
X130868452Y-83901749D01*
X130854100Y-83867101D01*
X130854100Y-78223488D01*
X130854099Y-78223487D01*
X130823400Y-78108917D01*
X130823399Y-78108915D01*
X130823399Y-78108914D01*
X130798331Y-78065496D01*
X130764089Y-78006186D01*
X130273814Y-77515911D01*
X130201223Y-77474000D01*
X130171088Y-77456601D01*
X130171086Y-77456600D01*
X130146873Y-77450113D01*
X130116751Y-77442042D01*
X130056511Y-77425900D01*
X130056509Y-77425900D01*
X119891699Y-77425900D01*
X119857051Y-77411548D01*
X118539014Y-76093511D01*
X118436288Y-76034201D01*
X118436286Y-76034200D01*
X118412073Y-76027713D01*
X118381951Y-76019642D01*
X118321711Y-76003500D01*
X118321709Y-76003500D01*
X117380100Y-76003500D01*
X117358580Y-75998521D01*
X117286796Y-75963428D01*
X117286794Y-75963427D01*
X117286793Y-75963427D01*
X117255510Y-75958869D01*
X117218662Y-75953500D01*
X117218660Y-75953500D01*
X115502140Y-75953500D01*
X115502138Y-75953500D01*
X115434005Y-75963427D01*
X115434003Y-75963428D01*
X115328919Y-76014801D01*
X115328915Y-76014803D01*
X115246203Y-76097515D01*
X115246201Y-76097519D01*
X115194828Y-76202603D01*
X115194827Y-76202605D01*
X115184900Y-76270738D01*
X115184900Y-76637259D01*
X115184899Y-76637259D01*
X112492300Y-76637259D01*
X112492300Y-75949327D01*
X112506652Y-75914679D01*
X112541300Y-75900327D01*
X112565801Y-75906892D01*
X112566084Y-75907055D01*
X112566089Y-75907060D01*
X112626883Y-75942159D01*
X112634611Y-75946621D01*
X112711036Y-75967100D01*
X112711038Y-75967100D01*
X114796764Y-75967100D01*
X114827480Y-75958869D01*
X114873189Y-75946621D01*
X114941711Y-75907060D01*
X114997660Y-75851111D01*
X115242597Y-75606174D01*
X115277245Y-75591822D01*
X115311893Y-75606174D01*
X115328917Y-75623198D01*
X115434007Y-75674573D01*
X115482284Y-75681606D01*
X115502138Y-75684500D01*
X115502140Y-75684500D01*
X117218662Y-75684500D01*
X117235990Y-75681974D01*
X117286793Y-75674573D01*
X117391883Y-75623198D01*
X117474598Y-75540483D01*
X117525973Y-75435393D01*
X117526176Y-75434000D01*
X119838104Y-75434000D01*
X119838299Y-75436488D01*
X119838299Y-75436491D01*
X119884119Y-75594201D01*
X119967713Y-75735551D01*
X119967717Y-75735556D01*
X120083843Y-75851682D01*
X120083848Y-75851686D01*
X120225196Y-75935279D01*
X120248877Y-75942159D01*
X120278146Y-75965607D01*
X120282263Y-76002883D01*
X120269856Y-76023862D01*
X120196204Y-76097514D01*
X120196201Y-76097519D01*
X120144828Y-76202603D01*
X120144827Y-76202605D01*
X120134900Y-76270738D01*
X120134900Y-76637259D01*
X120134899Y-76637259D01*
X120144827Y-76705394D01*
X120144828Y-76705396D01*
X120148015Y-76711915D01*
X120196202Y-76810483D01*
X120278917Y-76893198D01*
X120384007Y-76944573D01*
X120432284Y-76951606D01*
X120452138Y-76954500D01*
X120452140Y-76954500D01*
X122168662Y-76954500D01*
X122182476Y-76952486D01*
X122236793Y-76944573D01*
X122279267Y-76923808D01*
X122308580Y-76909479D01*
X122330100Y-76904500D01*
X130806301Y-76904500D01*
X130840949Y-76918852D01*
X130980148Y-77058051D01*
X130994500Y-77092699D01*
X130994500Y-82253710D01*
X131015853Y-82333398D01*
X131015853Y-82333400D01*
X131025200Y-82368286D01*
X131025201Y-82368288D01*
X131083189Y-82468724D01*
X131084511Y-82471014D01*
X131727187Y-83113690D01*
X131727190Y-83113691D01*
X131727193Y-83113694D01*
X131814154Y-83163900D01*
X131829914Y-83172999D01*
X131858558Y-83180674D01*
X131944488Y-83203700D01*
X131944491Y-83203700D01*
X134565501Y-83203700D01*
X134600149Y-83218052D01*
X134764748Y-83382651D01*
X134779100Y-83417299D01*
X134779100Y-83827800D01*
X134764748Y-83862448D01*
X134730100Y-83876800D01*
X134700324Y-83876800D01*
X134669901Y-83879653D01*
X134669900Y-83879653D01*
X134541723Y-83924504D01*
X134541714Y-83924508D01*
X134432449Y-84005149D01*
X134351808Y-84114414D01*
X134351804Y-84114423D01*
X134306953Y-84242600D01*
X134306953Y-84242601D01*
X134304100Y-84273024D01*
X134304100Y-85056565D01*
X134306953Y-85086998D01*
X134306953Y-85086999D01*
X134351804Y-85215176D01*
X134351808Y-85215185D01*
X134432449Y-85324450D01*
X134541714Y-85405091D01*
X134541717Y-85405092D01*
X134541718Y-85405093D01*
X134541720Y-85405093D01*
X134541723Y-85405095D01*
X134631174Y-85436395D01*
X134669901Y-85449946D01*
X134700334Y-85452800D01*
X134700344Y-85452800D01*
X135758856Y-85452800D01*
X135758866Y-85452800D01*
X135789299Y-85449946D01*
X135917482Y-85405093D01*
X136026750Y-85324450D01*
X136057057Y-85283385D01*
X136107391Y-85215185D01*
X136107391Y-85215184D01*
X136107393Y-85215182D01*
X136115611Y-85191694D01*
X136130861Y-85148116D01*
X136155851Y-85120153D01*
X136177111Y-85115300D01*
X136683737Y-85115300D01*
X136718385Y-85129652D01*
X136729987Y-85148117D01*
X136764404Y-85246476D01*
X136764408Y-85246485D01*
X136845049Y-85355750D01*
X136954314Y-85436391D01*
X136954317Y-85436392D01*
X136954318Y-85436393D01*
X136954320Y-85436393D01*
X136954323Y-85436395D01*
X137050350Y-85469996D01*
X137082501Y-85481246D01*
X137112934Y-85484100D01*
X137112944Y-85484100D01*
X138121456Y-85484100D01*
X138121466Y-85484100D01*
X138151899Y-85481246D01*
X138280082Y-85436393D01*
X138327788Y-85401185D01*
X138389350Y-85355750D01*
X138469991Y-85246485D01*
X138469991Y-85246484D01*
X138469993Y-85246482D01*
X138514846Y-85118299D01*
X138517700Y-85087866D01*
X138517700Y-84279334D01*
X138514846Y-84248901D01*
X138514491Y-84247887D01*
X138469995Y-84120723D01*
X138469991Y-84120714D01*
X138389350Y-84011449D01*
X138280085Y-83930808D01*
X138280076Y-83930804D01*
X138151898Y-83885953D01*
X138121475Y-83883100D01*
X138121466Y-83883100D01*
X137112934Y-83883100D01*
X137112924Y-83883100D01*
X137082501Y-83885953D01*
X137082500Y-83885953D01*
X136954323Y-83930804D01*
X136954314Y-83930808D01*
X136845049Y-84011449D01*
X136764408Y-84120715D01*
X136764407Y-84120718D01*
X136745322Y-84175261D01*
X136743144Y-84181484D01*
X136718154Y-84209448D01*
X136696894Y-84214300D01*
X136177111Y-84214300D01*
X136142463Y-84199948D01*
X136130861Y-84181484D01*
X136107394Y-84114421D01*
X136107391Y-84114414D01*
X136026750Y-84005149D01*
X135917485Y-83924508D01*
X135917476Y-83924504D01*
X135789298Y-83879653D01*
X135758875Y-83876800D01*
X135758866Y-83876800D01*
X135729100Y-83876800D01*
X135694452Y-83862448D01*
X135680100Y-83827800D01*
X135680100Y-83151088D01*
X135649399Y-83036515D01*
X135649398Y-83036512D01*
X135617451Y-82981179D01*
X135617450Y-82981178D01*
X135590091Y-82933789D01*
X135590086Y-82933783D01*
X135049014Y-82392711D01*
X134946288Y-82333401D01*
X134946286Y-82333400D01*
X134922073Y-82326913D01*
X134891951Y-82318842D01*
X134831711Y-82302700D01*
X134831709Y-82302700D01*
X132210699Y-82302700D01*
X132176051Y-82288348D01*
X131909852Y-82022149D01*
X131895500Y-81987501D01*
X131895500Y-78179200D01*
X132533025Y-78179200D01*
X132552088Y-78397091D01*
X132552089Y-78397097D01*
X132608694Y-78608350D01*
X132608696Y-78608355D01*
X132701131Y-78806586D01*
X132701138Y-78806598D01*
X132744672Y-78868770D01*
X132744674Y-78868770D01*
X133349744Y-78263701D01*
X133373126Y-78350964D01*
X133431711Y-78452436D01*
X133514564Y-78535289D01*
X133616036Y-78593874D01*
X133703297Y-78617255D01*
X133098228Y-79222323D01*
X133098228Y-79222325D01*
X133160412Y-79265866D01*
X133160420Y-79265870D01*
X133358644Y-79358303D01*
X133358649Y-79358305D01*
X133569902Y-79414910D01*
X133569908Y-79414911D01*
X133693683Y-79425740D01*
X133726948Y-79443057D01*
X133738226Y-79478825D01*
X133720909Y-79512090D01*
X133694215Y-79523318D01*
X133601469Y-79532453D01*
X133601467Y-79532453D01*
X133422297Y-79586804D01*
X133257175Y-79675063D01*
X133257168Y-79675068D01*
X133112443Y-79793843D01*
X132993668Y-79938568D01*
X132993663Y-79938575D01*
X132905404Y-80103697D01*
X132851053Y-80282867D01*
X132851053Y-80282868D01*
X132832701Y-80469199D01*
X132832701Y-80469200D01*
X132851053Y-80655531D01*
X132851053Y-80655532D01*
X132905404Y-80834702D01*
X132993663Y-80999824D01*
X132993668Y-80999831D01*
X133056575Y-81076482D01*
X133112443Y-81144557D01*
X133192185Y-81210000D01*
X133257168Y-81263331D01*
X133257175Y-81263336D01*
X133324457Y-81299299D01*
X133422299Y-81351596D01*
X133601469Y-81405947D01*
X133787800Y-81424299D01*
X133974131Y-81405947D01*
X134153301Y-81351596D01*
X134318425Y-81263336D01*
X134463157Y-81144557D01*
X134581936Y-80999825D01*
X134670196Y-80834701D01*
X134679365Y-80804474D01*
X134703157Y-80775486D01*
X134726255Y-80769700D01*
X136099300Y-80769700D01*
X136133948Y-80784052D01*
X136148300Y-80818700D01*
X136148300Y-83300763D01*
X136168778Y-83377187D01*
X136168779Y-83377191D01*
X136196252Y-83424773D01*
X136196253Y-83424775D01*
X136208337Y-83445707D01*
X136208339Y-83445709D01*
X136208340Y-83445711D01*
X136411540Y-83648911D01*
X136467489Y-83704860D01*
X136536011Y-83744421D01*
X136571478Y-83753924D01*
X136612436Y-83764900D01*
X136612438Y-83764900D01*
X139604500Y-83764900D01*
X139639148Y-83779252D01*
X139653500Y-83813900D01*
X139653500Y-83834100D01*
X139639148Y-83868748D01*
X139604500Y-83883100D01*
X139449724Y-83883100D01*
X139419301Y-83885953D01*
X139419300Y-83885953D01*
X139291123Y-83930804D01*
X139291114Y-83930808D01*
X139181849Y-84011449D01*
X139101208Y-84120714D01*
X139101204Y-84120723D01*
X139056353Y-84248900D01*
X139056353Y-84248901D01*
X139053500Y-84279324D01*
X139053500Y-85087875D01*
X139056353Y-85118298D01*
X139056353Y-85118299D01*
X139101204Y-85246476D01*
X139101208Y-85246485D01*
X139181849Y-85355750D01*
X139291114Y-85436391D01*
X139291117Y-85436392D01*
X139291118Y-85436393D01*
X139291120Y-85436393D01*
X139291123Y-85436395D01*
X139387150Y-85469996D01*
X139419301Y-85481246D01*
X139449734Y-85484100D01*
X139449744Y-85484100D01*
X140458256Y-85484100D01*
X140458266Y-85484100D01*
X140488699Y-85481246D01*
X140616882Y-85436393D01*
X140664588Y-85401185D01*
X140726150Y-85355750D01*
X140806791Y-85246485D01*
X140806791Y-85246484D01*
X140806793Y-85246482D01*
X140851646Y-85118299D01*
X140854500Y-85087866D01*
X140854500Y-84279334D01*
X140851646Y-84248901D01*
X140851291Y-84247887D01*
X140806795Y-84120723D01*
X140806791Y-84120714D01*
X140726150Y-84011449D01*
X140616885Y-83930808D01*
X140616876Y-83930804D01*
X140488698Y-83885953D01*
X140458275Y-83883100D01*
X140458266Y-83883100D01*
X140303500Y-83883100D01*
X140268852Y-83868748D01*
X140254500Y-83834100D01*
X140254500Y-83628036D01*
X140245843Y-83595734D01*
X140234021Y-83551611D01*
X140234020Y-83551609D01*
X140234020Y-83551608D01*
X140194459Y-83483088D01*
X140072006Y-83360635D01*
X140057654Y-83325987D01*
X140072006Y-83291339D01*
X140087903Y-83280717D01*
X140249199Y-83213907D01*
X140249207Y-83213903D01*
X140470645Y-83078205D01*
X140470647Y-83078204D01*
X140477444Y-83072398D01*
X140477445Y-83072398D01*
X139848613Y-82443566D01*
X139869637Y-82434858D01*
X139998208Y-82348949D01*
X140107549Y-82239608D01*
X140193458Y-82111037D01*
X140202166Y-82090013D01*
X140830998Y-82718845D01*
X140830998Y-82718844D01*
X140836804Y-82712047D01*
X140836805Y-82712045D01*
X140972503Y-82490607D01*
X140972505Y-82490604D01*
X141071896Y-82250653D01*
X141132524Y-81998117D01*
X141152901Y-81739200D01*
X141132524Y-81480282D01*
X141071896Y-81227746D01*
X140972505Y-80987795D01*
X140972503Y-80987792D01*
X140836810Y-80766361D01*
X140836801Y-80766349D01*
X140830998Y-80759554D01*
X140202166Y-81388385D01*
X140193458Y-81367363D01*
X140107549Y-81238792D01*
X139998208Y-81129451D01*
X139869637Y-81043542D01*
X139848611Y-81034833D01*
X140477444Y-80406001D01*
X140470647Y-80400196D01*
X140470634Y-80400187D01*
X140249207Y-80264496D01*
X140249204Y-80264494D01*
X140009253Y-80165103D01*
X139756717Y-80104475D01*
X139497800Y-80084098D01*
X139238882Y-80104475D01*
X138986346Y-80165103D01*
X138746395Y-80264494D01*
X138746392Y-80264496D01*
X138524959Y-80400190D01*
X138524957Y-80400192D01*
X138518154Y-80406001D01*
X139146986Y-81034833D01*
X139125963Y-81043542D01*
X138997392Y-81129451D01*
X138888051Y-81238792D01*
X138802142Y-81367363D01*
X138793433Y-81388386D01*
X138164601Y-80759554D01*
X138158792Y-80766357D01*
X138158790Y-80766359D01*
X138023096Y-80987792D01*
X138023094Y-80987795D01*
X137923703Y-81227746D01*
X137863075Y-81480282D01*
X137842698Y-81739200D01*
X137863075Y-81998117D01*
X137923703Y-82250653D01*
X138023094Y-82490604D01*
X138023096Y-82490607D01*
X138158787Y-82712034D01*
X138158796Y-82712047D01*
X138164601Y-82718844D01*
X138793433Y-82090012D01*
X138802142Y-82111037D01*
X138888051Y-82239608D01*
X138997392Y-82348949D01*
X139125963Y-82434858D01*
X139146986Y-82443566D01*
X138518154Y-83072397D01*
X138524291Y-83077639D01*
X138541318Y-83111054D01*
X138529730Y-83146722D01*
X138496315Y-83163749D01*
X138492469Y-83163900D01*
X136798300Y-83163900D01*
X136763652Y-83149548D01*
X136749300Y-83114900D01*
X136749300Y-80630835D01*
X136749299Y-80630834D01*
X136740843Y-80599276D01*
X136728822Y-80554412D01*
X136689260Y-80485889D01*
X136432111Y-80228740D01*
X136432107Y-80228738D01*
X136432105Y-80228736D01*
X136424660Y-80224438D01*
X136363590Y-80189179D01*
X136287164Y-80168700D01*
X136287162Y-80168700D01*
X134726255Y-80168700D01*
X134691607Y-80154348D01*
X134679365Y-80133925D01*
X134676889Y-80125763D01*
X134670196Y-80103699D01*
X134581936Y-79938575D01*
X134581931Y-79938568D01*
X134531230Y-79876790D01*
X134504972Y-79844794D01*
X141182300Y-79844794D01*
X141182300Y-80073606D01*
X141212166Y-80300461D01*
X141212167Y-80300465D01*
X141212168Y-80300472D01*
X141271384Y-80521469D01*
X141271388Y-80521479D01*
X141358950Y-80732872D01*
X141473354Y-80931025D01*
X141473364Y-80931040D01*
X141612643Y-81112551D01*
X141612653Y-81112563D01*
X141774436Y-81274346D01*
X141774448Y-81274356D01*
X141955959Y-81413635D01*
X141955968Y-81413641D01*
X141955972Y-81413644D01*
X142154129Y-81528050D01*
X142365524Y-81615613D01*
X142365527Y-81615613D01*
X142365530Y-81615615D01*
X142586527Y-81674831D01*
X142586528Y-81674831D01*
X142586539Y-81674834D01*
X142813394Y-81704700D01*
X142813398Y-81704700D01*
X143042202Y-81704700D01*
X143042206Y-81704700D01*
X143269061Y-81674834D01*
X143490076Y-81615613D01*
X143701471Y-81528050D01*
X143899628Y-81413644D01*
X144081157Y-81274352D01*
X144242952Y-81112557D01*
X144382244Y-80931028D01*
X144496650Y-80732871D01*
X144584213Y-80521476D01*
X144588773Y-80504460D01*
X144643431Y-80300472D01*
X144643430Y-80300472D01*
X144643434Y-80300461D01*
X144673300Y-80073606D01*
X144673300Y-79844794D01*
X144643434Y-79617939D01*
X144643431Y-79617927D01*
X144584215Y-79396930D01*
X144584211Y-79396920D01*
X144579818Y-79386315D01*
X144496650Y-79185529D01*
X144382244Y-78987372D01*
X144382241Y-78987368D01*
X144382235Y-78987359D01*
X144242956Y-78805848D01*
X144242946Y-78805836D01*
X144081163Y-78644053D01*
X144081151Y-78644043D01*
X143899640Y-78504764D01*
X143899625Y-78504754D01*
X143701472Y-78390350D01*
X143490079Y-78302788D01*
X143490069Y-78302784D01*
X143269072Y-78243568D01*
X143269065Y-78243567D01*
X143269061Y-78243566D01*
X143042206Y-78213700D01*
X142813394Y-78213700D01*
X142586539Y-78243566D01*
X142586535Y-78243566D01*
X142586527Y-78243568D01*
X142365530Y-78302784D01*
X142365520Y-78302788D01*
X142154127Y-78390350D01*
X141955974Y-78504754D01*
X141955959Y-78504764D01*
X141774448Y-78644043D01*
X141774436Y-78644053D01*
X141612653Y-78805836D01*
X141612643Y-78805848D01*
X141473364Y-78987359D01*
X141473354Y-78987374D01*
X141358950Y-79185527D01*
X141271388Y-79396920D01*
X141271384Y-79396930D01*
X141212168Y-79617927D01*
X141212166Y-79617935D01*
X141212166Y-79617939D01*
X141182300Y-79844794D01*
X134504972Y-79844794D01*
X134463157Y-79793843D01*
X134395082Y-79737975D01*
X134318431Y-79675068D01*
X134318424Y-79675063D01*
X134153302Y-79586804D01*
X133974131Y-79532453D01*
X133881384Y-79523318D01*
X133848309Y-79505639D01*
X133837423Y-79469751D01*
X133855102Y-79436676D01*
X133881916Y-79425740D01*
X134005691Y-79414911D01*
X134005697Y-79414910D01*
X134216950Y-79358305D01*
X134216955Y-79358303D01*
X134415179Y-79265870D01*
X134415189Y-79265865D01*
X134477370Y-79222324D01*
X134477370Y-79222323D01*
X133872302Y-78617255D01*
X133959564Y-78593874D01*
X134061036Y-78535289D01*
X134143889Y-78452436D01*
X134202474Y-78350964D01*
X134225855Y-78263702D01*
X134830923Y-78868770D01*
X134830924Y-78868770D01*
X134874465Y-78806589D01*
X134874470Y-78806579D01*
X134966903Y-78608355D01*
X134966905Y-78608350D01*
X135023510Y-78397097D01*
X135023511Y-78397091D01*
X135042574Y-78179200D01*
X135023511Y-77961308D01*
X135023510Y-77961302D01*
X134966905Y-77750049D01*
X134966904Y-77750044D01*
X134874468Y-77551814D01*
X134874460Y-77551802D01*
X134830926Y-77489628D01*
X134830924Y-77489628D01*
X134225855Y-78094697D01*
X134202474Y-78007436D01*
X134143889Y-77905964D01*
X134061036Y-77823111D01*
X133959564Y-77764526D01*
X133872300Y-77741143D01*
X134477370Y-77136074D01*
X134477370Y-77136072D01*
X134415198Y-77092538D01*
X134415186Y-77092531D01*
X134216955Y-77000096D01*
X134216950Y-77000094D01*
X134005697Y-76943489D01*
X134005691Y-76943488D01*
X133787800Y-76924425D01*
X133569908Y-76943488D01*
X133569902Y-76943489D01*
X133358649Y-77000094D01*
X133358644Y-77000095D01*
X133160416Y-77092531D01*
X133160414Y-77092532D01*
X133098228Y-77136074D01*
X133703298Y-77741144D01*
X133616036Y-77764526D01*
X133514564Y-77823111D01*
X133431711Y-77905964D01*
X133373126Y-78007436D01*
X133349744Y-78094698D01*
X132744674Y-77489628D01*
X132701132Y-77551814D01*
X132701131Y-77551816D01*
X132608695Y-77750044D01*
X132608694Y-77750049D01*
X132552089Y-77961302D01*
X132552088Y-77961308D01*
X132533025Y-78179200D01*
X131895500Y-78179200D01*
X131895500Y-76826488D01*
X131864799Y-76711915D01*
X131864798Y-76711912D01*
X131821697Y-76637260D01*
X131821696Y-76637259D01*
X131817837Y-76630575D01*
X131805489Y-76609186D01*
X131289814Y-76093511D01*
X131187088Y-76034201D01*
X131187086Y-76034200D01*
X131162873Y-76027713D01*
X131132751Y-76019642D01*
X131072511Y-76003500D01*
X131072509Y-76003500D01*
X122459362Y-76003500D01*
X122424714Y-75989148D01*
X122410362Y-75954500D01*
X122424714Y-75919852D01*
X122434419Y-75912324D01*
X122536951Y-75851686D01*
X122536956Y-75851682D01*
X122653082Y-75735556D01*
X122653086Y-75735551D01*
X122736680Y-75594201D01*
X122782500Y-75436491D01*
X122782500Y-75436488D01*
X122782696Y-75434000D01*
X119838104Y-75434000D01*
X117526176Y-75434000D01*
X117535900Y-75367260D01*
X117535900Y-75000740D01*
X117525973Y-74932607D01*
X117474598Y-74827517D01*
X117391883Y-74744802D01*
X117300339Y-74700049D01*
X117286796Y-74693428D01*
X117286794Y-74693427D01*
X117218662Y-74683500D01*
X117218660Y-74683500D01*
X115502140Y-74683500D01*
X115502138Y-74683500D01*
X115434005Y-74693427D01*
X115434003Y-74693428D01*
X115328919Y-74744801D01*
X115328915Y-74744803D01*
X115246203Y-74827515D01*
X115246202Y-74827517D01*
X115231432Y-74857729D01*
X115203320Y-74882552D01*
X115200094Y-74883537D01*
X115123812Y-74903978D01*
X115123808Y-74903980D01*
X115074226Y-74932606D01*
X115055295Y-74943535D01*
X115055286Y-74943542D01*
X114724256Y-75274572D01*
X114689608Y-75288924D01*
X114654960Y-75274572D01*
X114640608Y-75239924D01*
X114645586Y-75218407D01*
X114668220Y-75172109D01*
X114678500Y-75101549D01*
X114678499Y-75098373D01*
X114692843Y-75063726D01*
X115354187Y-74402382D01*
X115388834Y-74388031D01*
X115410354Y-74393010D01*
X115424673Y-74400010D01*
X115434007Y-74404573D01*
X115486764Y-74412259D01*
X115502138Y-74414500D01*
X115502140Y-74414500D01*
X117218662Y-74414500D01*
X117235990Y-74411974D01*
X117286793Y-74404573D01*
X117391883Y-74353198D01*
X117474598Y-74270483D01*
X117525973Y-74165393D01*
X117535900Y-74097260D01*
X117535900Y-73888600D01*
X119380996Y-73888600D01*
X119402081Y-74021726D01*
X119402081Y-74021727D01*
X119402082Y-74021728D01*
X119463267Y-74141813D01*
X119463272Y-74141820D01*
X119558579Y-74237127D01*
X119558586Y-74237132D01*
X119638642Y-74277922D01*
X119678674Y-74298319D01*
X119811800Y-74319404D01*
X119944926Y-74298319D01*
X120052548Y-74243483D01*
X120065013Y-74237132D01*
X120065014Y-74237130D01*
X120065020Y-74237128D01*
X120093651Y-74208496D01*
X120128296Y-74194146D01*
X120162945Y-74208497D01*
X120172314Y-74221620D01*
X120183003Y-74243483D01*
X120196202Y-74270483D01*
X120269856Y-74344137D01*
X120284208Y-74378785D01*
X120269856Y-74413433D01*
X120248879Y-74425839D01*
X120225198Y-74432719D01*
X120083848Y-74516313D01*
X120083843Y-74516317D01*
X119967717Y-74632443D01*
X119967713Y-74632448D01*
X119884119Y-74773798D01*
X119838299Y-74931508D01*
X119838299Y-74931511D01*
X119838103Y-74933999D01*
X119838104Y-74934000D01*
X122782696Y-74934000D01*
X122782696Y-74933999D01*
X122782500Y-74931511D01*
X122782500Y-74931508D01*
X122736680Y-74773798D01*
X122653086Y-74632448D01*
X122653082Y-74632443D01*
X122536956Y-74516317D01*
X122536951Y-74516313D01*
X122395600Y-74432718D01*
X122371921Y-74425839D01*
X122342652Y-74402391D01*
X122338537Y-74365115D01*
X122350941Y-74344139D01*
X122424598Y-74270483D01*
X122475973Y-74165393D01*
X122485900Y-74097260D01*
X122485900Y-73730740D01*
X122485003Y-73724586D01*
X122477765Y-73674908D01*
X122475973Y-73662607D01*
X122424598Y-73557517D01*
X122341883Y-73474802D01*
X122289338Y-73449114D01*
X122236796Y-73423428D01*
X122236794Y-73423427D01*
X122168662Y-73413500D01*
X122168660Y-73413500D01*
X120452140Y-73413500D01*
X120452138Y-73413500D01*
X120384005Y-73423427D01*
X120384003Y-73423428D01*
X120278919Y-73474801D01*
X120278915Y-73474803D01*
X120196203Y-73557515D01*
X120196201Y-73557518D01*
X120194686Y-73560619D01*
X120166576Y-73585444D01*
X120150664Y-73588100D01*
X120133344Y-73588100D01*
X120098696Y-73573748D01*
X120065020Y-73540072D01*
X120065013Y-73540067D01*
X119944928Y-73478882D01*
X119944927Y-73478881D01*
X119944926Y-73478881D01*
X119811800Y-73457796D01*
X119678674Y-73478881D01*
X119678672Y-73478881D01*
X119678671Y-73478882D01*
X119558586Y-73540067D01*
X119558579Y-73540072D01*
X119463272Y-73635379D01*
X119463267Y-73635386D01*
X119402082Y-73755471D01*
X119402081Y-73755472D01*
X119402081Y-73755474D01*
X119380996Y-73888600D01*
X117535900Y-73888600D01*
X117535900Y-73730740D01*
X117535003Y-73724586D01*
X117527765Y-73674908D01*
X117525973Y-73662607D01*
X117474598Y-73557517D01*
X117391883Y-73474802D01*
X117339338Y-73449114D01*
X117286796Y-73423428D01*
X117286794Y-73423427D01*
X117218662Y-73413500D01*
X117218660Y-73413500D01*
X115502140Y-73413500D01*
X115502138Y-73413500D01*
X115434005Y-73423427D01*
X115434003Y-73423428D01*
X115328919Y-73474801D01*
X115328915Y-73474803D01*
X115246203Y-73557515D01*
X115246201Y-73557519D01*
X115201521Y-73648914D01*
X115173410Y-73673738D01*
X115135979Y-73671414D01*
X115111155Y-73643303D01*
X115108500Y-73627393D01*
X115108500Y-72930607D01*
X115122852Y-72895959D01*
X115157500Y-72881607D01*
X115192148Y-72895959D01*
X115201521Y-72909086D01*
X115246202Y-73000483D01*
X115328917Y-73083198D01*
X115434007Y-73134573D01*
X115482284Y-73141606D01*
X115502138Y-73144500D01*
X115502140Y-73144500D01*
X117218662Y-73144500D01*
X117235990Y-73141974D01*
X117286793Y-73134573D01*
X117391883Y-73083198D01*
X117474598Y-73000483D01*
X117525973Y-72895393D01*
X117535900Y-72827260D01*
X117535900Y-72460740D01*
X117525973Y-72392607D01*
X117474598Y-72287517D01*
X117391883Y-72204802D01*
X117339338Y-72179114D01*
X117286796Y-72153428D01*
X117286794Y-72153427D01*
X117218662Y-72143500D01*
X117218660Y-72143500D01*
X115502140Y-72143500D01*
X115502138Y-72143500D01*
X115434005Y-72153427D01*
X115434003Y-72153428D01*
X115328919Y-72204801D01*
X115328915Y-72204803D01*
X115246203Y-72287515D01*
X115246201Y-72287519D01*
X115201521Y-72378913D01*
X115173410Y-72403737D01*
X115135979Y-72401413D01*
X115111155Y-72373302D01*
X115108500Y-72357392D01*
X115108500Y-71660607D01*
X115122852Y-71625959D01*
X115157500Y-71611607D01*
X115192148Y-71625959D01*
X115201521Y-71639086D01*
X115246202Y-71730483D01*
X115328917Y-71813198D01*
X115434007Y-71864573D01*
X115482284Y-71871606D01*
X115502138Y-71874500D01*
X115502140Y-71874500D01*
X117218662Y-71874500D01*
X117232476Y-71872486D01*
X117286793Y-71864573D01*
X117329267Y-71843808D01*
X117358580Y-71829479D01*
X117380100Y-71824500D01*
X119286911Y-71824500D01*
X119348622Y-71807964D01*
X119401486Y-71793799D01*
X119504213Y-71734489D01*
X119588089Y-71650613D01*
X119647399Y-71547886D01*
X119672609Y-71453802D01*
X119678100Y-71433311D01*
X119678100Y-71314688D01*
X119654541Y-71226768D01*
X119647399Y-71200114D01*
X119588089Y-71097387D01*
X119504213Y-71013511D01*
X119480292Y-70999700D01*
X119401487Y-70954201D01*
X119401484Y-70954200D01*
X119286912Y-70923500D01*
X119286909Y-70923500D01*
X117380100Y-70923500D01*
X117358580Y-70918521D01*
X117286796Y-70883428D01*
X117286794Y-70883427D01*
X117286793Y-70883427D01*
X117264082Y-70880118D01*
X117218662Y-70873500D01*
X117218660Y-70873500D01*
X115502140Y-70873500D01*
X115502138Y-70873500D01*
X115434005Y-70883427D01*
X115434003Y-70883428D01*
X115328919Y-70934801D01*
X115328915Y-70934803D01*
X115246203Y-71017515D01*
X115246201Y-71017519D01*
X115201521Y-71108913D01*
X115173410Y-71133737D01*
X115135979Y-71131413D01*
X115111155Y-71103302D01*
X115108500Y-71087392D01*
X115108500Y-70775636D01*
X115092758Y-70716891D01*
X115088021Y-70699211D01*
X115053576Y-70639551D01*
X115048682Y-70602371D01*
X115061361Y-70580409D01*
X115179098Y-70462672D01*
X115213744Y-70448321D01*
X115248392Y-70462673D01*
X115328917Y-70543198D01*
X115434007Y-70594573D01*
X115482284Y-70601606D01*
X115502138Y-70604500D01*
X115502140Y-70604500D01*
X117218662Y-70604500D01*
X117233272Y-70602371D01*
X117286793Y-70594573D01*
X117329267Y-70573808D01*
X117358580Y-70559479D01*
X117380100Y-70554500D01*
X118118511Y-70554500D01*
X118148630Y-70546428D01*
X118208873Y-70530286D01*
X118233087Y-70523799D01*
X118335814Y-70464489D01*
X118678689Y-70121614D01*
X118726336Y-70039087D01*
X118737999Y-70018886D01*
X118757181Y-69947300D01*
X118768700Y-69904311D01*
X118768700Y-69853999D01*
X119838103Y-69853999D01*
X119838104Y-69854000D01*
X122782696Y-69854000D01*
X122782696Y-69853999D01*
X122782500Y-69851511D01*
X122782500Y-69851508D01*
X122736680Y-69693798D01*
X122653086Y-69552448D01*
X122653082Y-69552443D01*
X122536956Y-69436317D01*
X122536951Y-69436313D01*
X122395600Y-69352718D01*
X122371921Y-69345839D01*
X122342652Y-69322391D01*
X122338537Y-69285115D01*
X122350941Y-69264139D01*
X122424598Y-69190483D01*
X122475973Y-69085393D01*
X122485900Y-69017260D01*
X122485900Y-68650740D01*
X122475973Y-68582607D01*
X122424598Y-68477517D01*
X122341883Y-68394802D01*
X122278555Y-68363843D01*
X122236796Y-68343428D01*
X122236794Y-68343427D01*
X122168662Y-68333500D01*
X122168660Y-68333500D01*
X120452140Y-68333500D01*
X120452138Y-68333500D01*
X120384005Y-68343427D01*
X120384003Y-68343428D01*
X120278919Y-68394801D01*
X120278915Y-68394803D01*
X120196203Y-68477515D01*
X120196201Y-68477519D01*
X120144828Y-68582603D01*
X120144827Y-68582605D01*
X120134900Y-68650738D01*
X120134900Y-69017261D01*
X120138097Y-69039199D01*
X120144827Y-69085393D01*
X120196202Y-69190483D01*
X120196203Y-69190484D01*
X120269856Y-69264137D01*
X120284208Y-69298785D01*
X120269856Y-69333433D01*
X120248879Y-69345839D01*
X120225198Y-69352719D01*
X120083848Y-69436313D01*
X120083843Y-69436317D01*
X119967717Y-69552443D01*
X119967713Y-69552448D01*
X119884119Y-69693798D01*
X119838299Y-69851508D01*
X119838299Y-69851511D01*
X119838103Y-69853999D01*
X118768700Y-69853999D01*
X118768700Y-67871380D01*
X124657401Y-67871380D01*
X124667893Y-67974093D01*
X124723042Y-68140522D01*
X124815082Y-68289743D01*
X124939056Y-68413717D01*
X125088277Y-68505757D01*
X125254706Y-68560906D01*
X125357418Y-68571399D01*
X125632399Y-68571399D01*
X125632400Y-68571398D01*
X125632400Y-67733900D01*
X126132400Y-67733900D01*
X126132400Y-68571399D01*
X126407380Y-68571399D01*
X126510093Y-68560906D01*
X126676522Y-68505757D01*
X126825743Y-68413717D01*
X126949720Y-68289740D01*
X127041125Y-68141547D01*
X127071529Y-68119591D01*
X127108553Y-68125565D01*
X127124535Y-68141546D01*
X127202682Y-68268243D01*
X127326656Y-68392217D01*
X127475877Y-68484257D01*
X127642306Y-68539406D01*
X127745018Y-68549899D01*
X128019999Y-68549899D01*
X128520000Y-68549899D01*
X128794980Y-68549899D01*
X128897693Y-68539406D01*
X129064122Y-68484257D01*
X129213343Y-68392217D01*
X129337317Y-68268243D01*
X129429357Y-68119022D01*
X129484506Y-67952593D01*
X129495000Y-67849881D01*
X129495000Y-67712400D01*
X128520000Y-67712400D01*
X128520000Y-68549899D01*
X128019999Y-68549899D01*
X128020000Y-68549898D01*
X128020000Y-67712400D01*
X127150400Y-67712400D01*
X127143252Y-67719548D01*
X127108604Y-67733900D01*
X126132400Y-67733900D01*
X125632400Y-67733900D01*
X124657401Y-67733900D01*
X124657401Y-67871380D01*
X118768700Y-67871380D01*
X118768700Y-67096418D01*
X124657400Y-67096418D01*
X124657400Y-67233900D01*
X125632400Y-67233900D01*
X125632400Y-66396400D01*
X126132400Y-66396400D01*
X126132400Y-67233900D01*
X127002000Y-67233900D01*
X127009148Y-67226752D01*
X127043796Y-67212400D01*
X128020000Y-67212400D01*
X128520000Y-67212400D01*
X129494999Y-67212400D01*
X129494999Y-67074919D01*
X129491649Y-67042124D01*
X129833300Y-67042124D01*
X129833300Y-67850675D01*
X129836153Y-67881098D01*
X129836153Y-67881099D01*
X129881004Y-68009276D01*
X129881008Y-68009285D01*
X129961649Y-68118550D01*
X130070914Y-68199191D01*
X130070917Y-68199192D01*
X130070918Y-68199193D01*
X130070920Y-68199193D01*
X130070923Y-68199195D01*
X130161932Y-68231040D01*
X130199101Y-68244046D01*
X130229534Y-68246900D01*
X130384300Y-68246900D01*
X130418948Y-68261252D01*
X130433300Y-68295900D01*
X130433300Y-68924363D01*
X130453779Y-69000789D01*
X130453779Y-69000791D01*
X130475955Y-69039200D01*
X130493340Y-69069311D01*
X130703689Y-69279660D01*
X130772212Y-69319222D01*
X130819707Y-69331948D01*
X130848634Y-69339699D01*
X130848635Y-69339700D01*
X130848638Y-69339700D01*
X132849345Y-69339700D01*
X132883993Y-69354052D01*
X132896235Y-69374475D01*
X132905405Y-69404703D01*
X132993663Y-69569824D01*
X132993668Y-69569831D01*
X133038533Y-69624498D01*
X133112443Y-69714557D01*
X133152605Y-69747517D01*
X133257168Y-69833331D01*
X133257175Y-69833336D01*
X133422299Y-69921596D01*
X133601469Y-69975947D01*
X133787800Y-69994299D01*
X133974131Y-69975947D01*
X134153301Y-69921596D01*
X134318425Y-69833336D01*
X134463157Y-69714557D01*
X134581936Y-69569825D01*
X134670196Y-69404701D01*
X134724547Y-69225531D01*
X134742899Y-69039200D01*
X134724547Y-68852869D01*
X134670196Y-68673699D01*
X134581936Y-68508575D01*
X134581931Y-68508568D01*
X134514960Y-68426965D01*
X134463157Y-68363843D01*
X134380369Y-68295900D01*
X134318431Y-68245068D01*
X134318424Y-68245063D01*
X134153302Y-68156804D01*
X133974131Y-68102453D01*
X133881384Y-68093318D01*
X133848309Y-68075639D01*
X133837423Y-68039751D01*
X133855102Y-68006676D01*
X133881916Y-67995740D01*
X134005691Y-67984911D01*
X134005697Y-67984910D01*
X134216950Y-67928305D01*
X134216955Y-67928303D01*
X134415179Y-67835870D01*
X134415189Y-67835865D01*
X134477370Y-67792324D01*
X134477370Y-67792323D01*
X133872302Y-67187255D01*
X133959564Y-67163874D01*
X134061036Y-67105289D01*
X134143889Y-67022436D01*
X134202474Y-66920964D01*
X134225855Y-66833702D01*
X134830923Y-67438770D01*
X134830924Y-67438770D01*
X134874465Y-67376589D01*
X134874470Y-67376579D01*
X134966903Y-67178355D01*
X134966905Y-67178350D01*
X134975896Y-67144794D01*
X141182300Y-67144794D01*
X141182300Y-67373606D01*
X141212166Y-67600461D01*
X141212167Y-67600465D01*
X141212168Y-67600472D01*
X141271384Y-67821469D01*
X141271388Y-67821479D01*
X141358950Y-68032872D01*
X141473354Y-68231025D01*
X141473364Y-68231040D01*
X141612643Y-68412551D01*
X141612653Y-68412563D01*
X141774436Y-68574346D01*
X141774448Y-68574356D01*
X141955959Y-68713635D01*
X141955968Y-68713641D01*
X141955972Y-68713644D01*
X142154129Y-68828050D01*
X142365524Y-68915613D01*
X142365527Y-68915613D01*
X142365530Y-68915615D01*
X142586527Y-68974831D01*
X142586528Y-68974831D01*
X142586539Y-68974834D01*
X142813394Y-69004700D01*
X142813398Y-69004700D01*
X143042202Y-69004700D01*
X143042206Y-69004700D01*
X143269061Y-68974834D01*
X143334720Y-68957240D01*
X143490069Y-68915615D01*
X143490069Y-68915614D01*
X143490076Y-68915613D01*
X143701471Y-68828050D01*
X143899628Y-68713644D01*
X143930833Y-68689700D01*
X143981609Y-68650738D01*
X144081157Y-68574352D01*
X144242952Y-68412557D01*
X144382244Y-68231028D01*
X144496650Y-68032871D01*
X144584213Y-67821476D01*
X144643434Y-67600461D01*
X144673300Y-67373606D01*
X144673300Y-67144794D01*
X144643434Y-66917939D01*
X144639070Y-66901652D01*
X144584215Y-66696930D01*
X144584211Y-66696920D01*
X144582837Y-66693604D01*
X144496650Y-66485529D01*
X144481243Y-66458844D01*
X144397425Y-66313667D01*
X144382244Y-66287372D01*
X144382241Y-66287368D01*
X144382235Y-66287359D01*
X144242956Y-66105848D01*
X144242946Y-66105836D01*
X144081163Y-65944053D01*
X144081151Y-65944043D01*
X143899640Y-65804764D01*
X143899625Y-65804754D01*
X143701472Y-65690350D01*
X143490079Y-65602788D01*
X143490069Y-65602784D01*
X143269072Y-65543568D01*
X143269065Y-65543567D01*
X143269061Y-65543566D01*
X143042206Y-65513700D01*
X142813394Y-65513700D01*
X142586539Y-65543566D01*
X142586535Y-65543566D01*
X142586527Y-65543568D01*
X142365530Y-65602784D01*
X142365520Y-65602788D01*
X142154127Y-65690350D01*
X141955974Y-65804754D01*
X141955959Y-65804764D01*
X141774448Y-65944043D01*
X141774436Y-65944053D01*
X141612653Y-66105836D01*
X141612643Y-66105848D01*
X141473364Y-66287359D01*
X141473354Y-66287374D01*
X141358950Y-66485527D01*
X141271388Y-66696920D01*
X141271384Y-66696930D01*
X141212168Y-66917927D01*
X141212166Y-66917935D01*
X141212166Y-66917939D01*
X141182300Y-67144794D01*
X134975896Y-67144794D01*
X135023510Y-66967097D01*
X135023511Y-66967091D01*
X135042574Y-66749200D01*
X135023511Y-66531308D01*
X135023510Y-66531302D01*
X134966905Y-66320049D01*
X134966904Y-66320044D01*
X134874468Y-66121814D01*
X134874460Y-66121802D01*
X134830926Y-66059628D01*
X134830924Y-66059628D01*
X134225855Y-66664697D01*
X134202474Y-66577436D01*
X134143889Y-66475964D01*
X134061036Y-66393111D01*
X133959564Y-66334526D01*
X133872300Y-66311143D01*
X134477370Y-65706074D01*
X134477370Y-65706072D01*
X134415198Y-65662538D01*
X134415186Y-65662531D01*
X134216955Y-65570096D01*
X134216950Y-65570094D01*
X134005697Y-65513489D01*
X134005691Y-65513488D01*
X133787800Y-65494425D01*
X133569908Y-65513488D01*
X133569902Y-65513489D01*
X133358649Y-65570094D01*
X133358644Y-65570095D01*
X133160416Y-65662531D01*
X133160414Y-65662532D01*
X133098228Y-65706074D01*
X133703298Y-66311144D01*
X133616036Y-66334526D01*
X133514564Y-66393111D01*
X133431711Y-66475964D01*
X133373126Y-66577436D01*
X133349744Y-66664698D01*
X132744674Y-66059628D01*
X132701132Y-66121814D01*
X132701131Y-66121816D01*
X132608695Y-66320044D01*
X132608694Y-66320049D01*
X132552089Y-66531302D01*
X132552088Y-66531308D01*
X132533025Y-66749200D01*
X132552088Y-66967091D01*
X132552089Y-66967097D01*
X132608694Y-67178350D01*
X132608696Y-67178355D01*
X132701131Y-67376586D01*
X132701138Y-67376598D01*
X132744672Y-67438770D01*
X132744674Y-67438770D01*
X133349744Y-66833701D01*
X133373126Y-66920964D01*
X133431711Y-67022436D01*
X133514564Y-67105289D01*
X133616036Y-67163874D01*
X133703297Y-67187255D01*
X133098228Y-67792323D01*
X133098228Y-67792325D01*
X133160412Y-67835866D01*
X133160420Y-67835870D01*
X133358644Y-67928303D01*
X133358649Y-67928305D01*
X133569902Y-67984910D01*
X133569908Y-67984911D01*
X133693683Y-67995740D01*
X133726948Y-68013057D01*
X133738226Y-68048825D01*
X133720909Y-68082090D01*
X133694215Y-68093318D01*
X133601469Y-68102453D01*
X133601467Y-68102453D01*
X133422297Y-68156804D01*
X133257175Y-68245063D01*
X133257168Y-68245068D01*
X133112443Y-68363843D01*
X132993668Y-68508568D01*
X132993663Y-68508575D01*
X132905405Y-68673696D01*
X132896235Y-68703925D01*
X132872443Y-68732914D01*
X132849345Y-68738700D01*
X131083300Y-68738700D01*
X131048652Y-68724348D01*
X131034300Y-68689700D01*
X131034300Y-68295900D01*
X131048652Y-68261252D01*
X131083300Y-68246900D01*
X131238056Y-68246900D01*
X131238066Y-68246900D01*
X131268499Y-68244046D01*
X131396682Y-68199193D01*
X131454118Y-68156804D01*
X131505950Y-68118550D01*
X131586591Y-68009285D01*
X131586591Y-68009284D01*
X131586593Y-68009282D01*
X131631446Y-67881099D01*
X131634300Y-67850666D01*
X131634300Y-67042134D01*
X131631446Y-67011701D01*
X131625149Y-66993706D01*
X131586595Y-66883523D01*
X131586591Y-66883514D01*
X131505950Y-66774249D01*
X131396685Y-66693608D01*
X131396676Y-66693604D01*
X131268498Y-66648753D01*
X131238075Y-66645900D01*
X131238066Y-66645900D01*
X130229534Y-66645900D01*
X130229524Y-66645900D01*
X130199101Y-66648753D01*
X130199100Y-66648753D01*
X130070923Y-66693604D01*
X130070914Y-66693608D01*
X129961649Y-66774249D01*
X129881008Y-66883514D01*
X129881004Y-66883523D01*
X129836153Y-67011700D01*
X129836153Y-67011701D01*
X129833300Y-67042124D01*
X129491649Y-67042124D01*
X129484506Y-66972206D01*
X129429357Y-66805777D01*
X129337317Y-66656556D01*
X129213343Y-66532582D01*
X129064122Y-66440542D01*
X128897693Y-66385393D01*
X128794981Y-66374900D01*
X128520000Y-66374900D01*
X128520000Y-67212400D01*
X128020000Y-67212400D01*
X128020000Y-66374900D01*
X127745019Y-66374900D01*
X127642306Y-66385393D01*
X127475877Y-66440542D01*
X127326656Y-66532582D01*
X127202682Y-66656556D01*
X127111274Y-66804753D01*
X127080869Y-66826708D01*
X127043845Y-66820734D01*
X127027864Y-66804753D01*
X126949717Y-66678056D01*
X126825743Y-66554082D01*
X126676522Y-66462042D01*
X126510093Y-66406893D01*
X126407381Y-66396400D01*
X126132400Y-66396400D01*
X125632400Y-66396400D01*
X125357419Y-66396400D01*
X125254706Y-66406893D01*
X125088277Y-66462042D01*
X124939056Y-66554082D01*
X124815082Y-66678056D01*
X124723042Y-66827277D01*
X124667893Y-66993706D01*
X124657400Y-67096418D01*
X118768700Y-67096418D01*
X118768700Y-66936300D01*
X118783052Y-66901652D01*
X118817700Y-66887300D01*
X119187945Y-66887300D01*
X119187948Y-66887300D01*
X119246431Y-66875667D01*
X119312752Y-66831352D01*
X119357067Y-66765031D01*
X119368700Y-66706548D01*
X119368700Y-66336300D01*
X119383052Y-66301652D01*
X119417700Y-66287300D01*
X120607711Y-66287300D01*
X120637830Y-66279228D01*
X120698073Y-66263086D01*
X120722287Y-66256599D01*
X120825014Y-66197289D01*
X121148551Y-65873752D01*
X121183199Y-65859400D01*
X124934889Y-65859400D01*
X124969537Y-65873752D01*
X124981139Y-65892216D01*
X125004605Y-65959278D01*
X125004608Y-65959285D01*
X125085249Y-66068550D01*
X125194514Y-66149191D01*
X125194517Y-66149192D01*
X125194518Y-66149193D01*
X125194520Y-66149193D01*
X125194523Y-66149195D01*
X125290299Y-66182708D01*
X125322701Y-66194046D01*
X125353134Y-66196900D01*
X125353144Y-66196900D01*
X126411656Y-66196900D01*
X126411666Y-66196900D01*
X126442099Y-66194046D01*
X126570282Y-66149193D01*
X126599417Y-66127691D01*
X126679550Y-66068550D01*
X126760191Y-65959285D01*
X126760191Y-65959284D01*
X126760193Y-65959282D01*
X126769770Y-65931913D01*
X126791184Y-65870717D01*
X126816174Y-65842753D01*
X126837434Y-65837900D01*
X127322489Y-65837900D01*
X127357137Y-65852252D01*
X127368739Y-65870716D01*
X127392205Y-65937778D01*
X127392208Y-65937785D01*
X127472849Y-66047050D01*
X127582114Y-66127691D01*
X127582117Y-66127692D01*
X127582118Y-66127693D01*
X127582120Y-66127693D01*
X127582123Y-66127695D01*
X127643567Y-66149195D01*
X127710301Y-66172546D01*
X127740734Y-66175400D01*
X127740744Y-66175400D01*
X128799256Y-66175400D01*
X128799266Y-66175400D01*
X128829699Y-66172546D01*
X128957882Y-66127693D01*
X128970271Y-66118550D01*
X129067150Y-66047050D01*
X129147791Y-65937785D01*
X129147791Y-65937784D01*
X129147793Y-65937782D01*
X129156011Y-65914294D01*
X129171261Y-65870716D01*
X129196251Y-65842753D01*
X129217511Y-65837900D01*
X129787483Y-65837900D01*
X129822131Y-65852252D01*
X129834428Y-65878418D01*
X129835516Y-65878181D01*
X129836153Y-65881099D01*
X129881004Y-66009276D01*
X129881008Y-66009285D01*
X129961649Y-66118550D01*
X130070914Y-66199191D01*
X130070917Y-66199192D01*
X130070918Y-66199193D01*
X130070920Y-66199193D01*
X130070923Y-66199195D01*
X130081886Y-66203031D01*
X130199101Y-66244046D01*
X130229534Y-66246900D01*
X130229544Y-66246900D01*
X131238056Y-66246900D01*
X131238066Y-66246900D01*
X131268499Y-66244046D01*
X131396682Y-66199193D01*
X131399791Y-66196899D01*
X131505950Y-66118550D01*
X131586591Y-66009285D01*
X131586591Y-66009284D01*
X131586593Y-66009282D01*
X131631446Y-65881099D01*
X131632084Y-65878181D01*
X131633376Y-65878463D01*
X131648845Y-65849176D01*
X131680117Y-65837900D01*
X131750511Y-65837900D01*
X131780630Y-65829828D01*
X131840873Y-65813686D01*
X131865087Y-65807199D01*
X131967814Y-65747889D01*
X133496851Y-64218852D01*
X133531499Y-64204500D01*
X138556357Y-64204500D01*
X138591005Y-64218852D01*
X139146986Y-64774833D01*
X139125963Y-64783542D01*
X138997392Y-64869451D01*
X138888051Y-64978792D01*
X138802142Y-65107363D01*
X138793433Y-65128386D01*
X138164601Y-64499554D01*
X138158792Y-64506357D01*
X138158790Y-64506359D01*
X138023096Y-64727792D01*
X138023094Y-64727795D01*
X137923703Y-64967746D01*
X137863075Y-65220282D01*
X137842698Y-65479200D01*
X137863075Y-65738117D01*
X137923703Y-65990653D01*
X138023094Y-66230604D01*
X138023096Y-66230607D01*
X138158787Y-66452034D01*
X138158796Y-66452047D01*
X138164601Y-66458844D01*
X138793433Y-65830012D01*
X138802142Y-65851037D01*
X138888051Y-65979608D01*
X138997392Y-66088949D01*
X139125963Y-66174858D01*
X139146986Y-66183566D01*
X138518154Y-66812398D01*
X138524949Y-66818201D01*
X138524961Y-66818210D01*
X138746392Y-66953903D01*
X138746395Y-66953905D01*
X138986346Y-67053296D01*
X139238882Y-67113924D01*
X139497800Y-67134301D01*
X139756717Y-67113924D01*
X140009253Y-67053296D01*
X140249204Y-66953905D01*
X140249207Y-66953903D01*
X140470645Y-66818205D01*
X140470647Y-66818204D01*
X140477444Y-66812398D01*
X140477445Y-66812398D01*
X139848613Y-66183566D01*
X139869637Y-66174858D01*
X139998208Y-66088949D01*
X140107549Y-65979608D01*
X140193458Y-65851037D01*
X140202166Y-65830013D01*
X140830998Y-66458845D01*
X140830998Y-66458844D01*
X140836804Y-66452047D01*
X140836805Y-66452045D01*
X140972503Y-66230607D01*
X140972505Y-66230604D01*
X141071896Y-65990653D01*
X141132524Y-65738117D01*
X141152901Y-65479200D01*
X141132524Y-65220282D01*
X141071896Y-64967746D01*
X140972505Y-64727795D01*
X140972503Y-64727792D01*
X140836810Y-64506361D01*
X140836801Y-64506349D01*
X140830998Y-64499554D01*
X140202166Y-65128385D01*
X140193458Y-65107363D01*
X140107549Y-64978792D01*
X139998208Y-64869451D01*
X139869637Y-64783542D01*
X139848613Y-64774833D01*
X140404595Y-64218852D01*
X140439243Y-64204500D01*
X144522301Y-64204500D01*
X144556949Y-64218852D01*
X144823148Y-64485051D01*
X144837500Y-64519699D01*
X144837500Y-75485101D01*
X144823148Y-75519749D01*
X144662549Y-75680348D01*
X144627901Y-75694700D01*
X141254133Y-75694700D01*
X141219485Y-75680348D01*
X141210919Y-75668798D01*
X141181940Y-75614581D01*
X141181931Y-75614569D01*
X141063159Y-75469845D01*
X140918431Y-75351068D01*
X140918427Y-75351066D01*
X140918428Y-75351066D01*
X140918425Y-75351064D01*
X140898871Y-75340612D01*
X140875081Y-75311622D01*
X140878757Y-75274300D01*
X140901263Y-75252990D01*
X141015180Y-75199870D01*
X141015189Y-75199865D01*
X141077370Y-75156324D01*
X141077370Y-75156323D01*
X140472302Y-74551255D01*
X140559564Y-74527874D01*
X140661036Y-74469289D01*
X140743889Y-74386436D01*
X140802474Y-74284964D01*
X140825855Y-74197702D01*
X141430923Y-74802770D01*
X141430924Y-74802770D01*
X141474465Y-74740589D01*
X141474470Y-74740579D01*
X141566903Y-74542355D01*
X141566905Y-74542350D01*
X141623510Y-74331097D01*
X141623511Y-74331091D01*
X141642574Y-74113200D01*
X141623511Y-73895308D01*
X141623510Y-73895302D01*
X141566905Y-73684049D01*
X141566904Y-73684044D01*
X141474468Y-73485814D01*
X141474460Y-73485802D01*
X141430926Y-73423628D01*
X141430924Y-73423628D01*
X140825855Y-74028697D01*
X140802474Y-73941436D01*
X140743889Y-73839964D01*
X140661036Y-73757111D01*
X140559564Y-73698526D01*
X140472302Y-73675144D01*
X141050246Y-73097201D01*
X141050246Y-73097199D01*
X140472302Y-72519255D01*
X140559564Y-72495874D01*
X140661036Y-72437289D01*
X140743889Y-72354436D01*
X140802474Y-72252964D01*
X140825855Y-72165702D01*
X141430923Y-72770770D01*
X141430924Y-72770770D01*
X141474465Y-72708589D01*
X141474470Y-72708579D01*
X141566903Y-72510355D01*
X141566905Y-72510350D01*
X141623510Y-72299097D01*
X141623511Y-72299091D01*
X141642574Y-72081200D01*
X141623511Y-71863308D01*
X141623510Y-71863302D01*
X141566905Y-71652049D01*
X141566904Y-71652044D01*
X141474468Y-71453814D01*
X141474460Y-71453802D01*
X141430926Y-71391628D01*
X141430924Y-71391628D01*
X140825855Y-71996697D01*
X140802474Y-71909436D01*
X140743889Y-71807964D01*
X140661036Y-71725111D01*
X140559564Y-71666526D01*
X140472302Y-71643144D01*
X141086134Y-71029310D01*
X141089952Y-71017203D01*
X141123218Y-70999886D01*
X141127488Y-70999700D01*
X141157545Y-70999700D01*
X141157548Y-70999700D01*
X141216031Y-70988067D01*
X141282352Y-70943752D01*
X141326667Y-70877431D01*
X141338300Y-70818948D01*
X141338300Y-69279452D01*
X141326667Y-69220969D01*
X141300101Y-69181212D01*
X141282352Y-69154647D01*
X141242595Y-69128082D01*
X141216031Y-69110333D01*
X141157548Y-69098700D01*
X139618052Y-69098700D01*
X139559569Y-69110333D01*
X139493247Y-69154647D01*
X139448933Y-69220969D01*
X139437300Y-69279452D01*
X139437300Y-69279455D01*
X139437300Y-69297300D01*
X139422948Y-69331948D01*
X139388300Y-69346300D01*
X136612436Y-69346300D01*
X136536012Y-69366778D01*
X136536008Y-69366779D01*
X136487995Y-69394501D01*
X136482868Y-69397460D01*
X136467492Y-69406337D01*
X136467486Y-69406342D01*
X134824281Y-71049548D01*
X134789633Y-71063900D01*
X122477860Y-71063900D01*
X122443212Y-71049548D01*
X122433841Y-71036424D01*
X122424598Y-71017517D01*
X122350943Y-70943862D01*
X122336591Y-70909214D01*
X122350943Y-70874566D01*
X122371922Y-70862159D01*
X122395601Y-70855280D01*
X122536951Y-70771686D01*
X122536956Y-70771682D01*
X122653082Y-70655556D01*
X122653086Y-70655551D01*
X122736680Y-70514201D01*
X122782500Y-70356491D01*
X122782500Y-70356488D01*
X122782696Y-70354000D01*
X119838104Y-70354000D01*
X119838299Y-70356488D01*
X119838299Y-70356491D01*
X119884119Y-70514201D01*
X119967713Y-70655551D01*
X119967717Y-70655556D01*
X120083843Y-70771682D01*
X120083848Y-70771686D01*
X120225196Y-70855279D01*
X120248877Y-70862159D01*
X120278146Y-70885607D01*
X120282263Y-70922883D01*
X120269856Y-70943862D01*
X120196204Y-71017514D01*
X120196201Y-71017519D01*
X120144828Y-71122603D01*
X120144827Y-71122605D01*
X120134900Y-71190738D01*
X120134900Y-71557261D01*
X120144827Y-71625394D01*
X120144828Y-71625396D01*
X120165439Y-71667555D01*
X120196202Y-71730483D01*
X120278917Y-71813198D01*
X120384007Y-71864573D01*
X120432284Y-71871606D01*
X120452138Y-71874500D01*
X120452140Y-71874500D01*
X122168662Y-71874500D01*
X122185990Y-71871974D01*
X122236793Y-71864573D01*
X122341883Y-71813198D01*
X122424598Y-71730483D01*
X122443225Y-71692379D01*
X122471335Y-71667555D01*
X122487246Y-71664900D01*
X134973964Y-71664900D01*
X135000630Y-71657754D01*
X135050389Y-71644421D01*
X135118911Y-71604860D01*
X135174860Y-71548911D01*
X136762119Y-69961652D01*
X136796767Y-69947300D01*
X139388300Y-69947300D01*
X139422948Y-69961652D01*
X139437300Y-69996300D01*
X139437300Y-70440720D01*
X139422948Y-70475368D01*
X139388300Y-70489720D01*
X139353652Y-70475368D01*
X139350423Y-70471806D01*
X139305348Y-70416883D01*
X139283157Y-70389843D01*
X139215082Y-70333975D01*
X139138431Y-70271068D01*
X139138424Y-70271063D01*
X138973302Y-70182804D01*
X138794131Y-70128453D01*
X138607800Y-70110101D01*
X138421468Y-70128453D01*
X138421467Y-70128453D01*
X138242297Y-70182804D01*
X138077175Y-70271063D01*
X138077168Y-70271068D01*
X137932443Y-70389843D01*
X137813668Y-70534568D01*
X137813663Y-70534575D01*
X137725405Y-70699696D01*
X137716235Y-70729925D01*
X137692443Y-70758914D01*
X137669345Y-70764700D01*
X136718036Y-70764700D01*
X136641610Y-70785179D01*
X136641608Y-70785179D01*
X136583121Y-70818947D01*
X136583121Y-70818948D01*
X136573089Y-70824740D01*
X136573086Y-70824742D01*
X135078281Y-72319548D01*
X135043633Y-72333900D01*
X122477860Y-72333900D01*
X122443212Y-72319548D01*
X122433841Y-72306424D01*
X122424598Y-72287517D01*
X122341883Y-72204802D01*
X122289338Y-72179114D01*
X122236796Y-72153428D01*
X122236794Y-72153427D01*
X122168662Y-72143500D01*
X122168660Y-72143500D01*
X120452140Y-72143500D01*
X120452138Y-72143500D01*
X120384005Y-72153427D01*
X120384003Y-72153428D01*
X120278919Y-72204801D01*
X120278915Y-72204803D01*
X120196203Y-72287515D01*
X120196201Y-72287519D01*
X120144828Y-72392603D01*
X120144827Y-72392605D01*
X120134900Y-72460738D01*
X120134900Y-72827261D01*
X120144827Y-72895394D01*
X120144828Y-72895396D01*
X120154129Y-72914421D01*
X120196202Y-73000483D01*
X120278917Y-73083198D01*
X120384007Y-73134573D01*
X120432284Y-73141606D01*
X120452138Y-73144500D01*
X120452140Y-73144500D01*
X122168662Y-73144500D01*
X122185990Y-73141974D01*
X122236793Y-73134573D01*
X122341883Y-73083198D01*
X122424598Y-73000483D01*
X122443225Y-72962379D01*
X122471335Y-72937555D01*
X122487246Y-72934900D01*
X135227964Y-72934900D01*
X135263281Y-72925436D01*
X135304389Y-72914421D01*
X135372911Y-72874860D01*
X135428860Y-72818911D01*
X136867719Y-71380052D01*
X136902367Y-71365700D01*
X137669345Y-71365700D01*
X137703993Y-71380052D01*
X137716235Y-71400475D01*
X137725405Y-71430703D01*
X137813663Y-71595824D01*
X137813668Y-71595831D01*
X137888024Y-71686433D01*
X137932443Y-71740557D01*
X138077175Y-71859336D01*
X138096725Y-71869786D01*
X138120517Y-71898775D01*
X138116842Y-71936098D01*
X138094336Y-71957409D01*
X137980413Y-72010532D01*
X137918228Y-72054074D01*
X138523297Y-72659144D01*
X138436036Y-72682526D01*
X138334564Y-72741111D01*
X138251711Y-72823964D01*
X138193126Y-72925436D01*
X138169744Y-73012698D01*
X137564674Y-72407628D01*
X137521132Y-72469814D01*
X137521131Y-72469816D01*
X137428695Y-72668044D01*
X137428694Y-72668049D01*
X137372089Y-72879302D01*
X137372088Y-72879308D01*
X137353025Y-73097200D01*
X137372088Y-73315091D01*
X137372089Y-73315097D01*
X137428694Y-73526350D01*
X137428696Y-73526355D01*
X137521131Y-73724586D01*
X137521138Y-73724598D01*
X137564672Y-73786770D01*
X137564674Y-73786770D01*
X138169744Y-73181701D01*
X138193126Y-73268964D01*
X138251711Y-73370436D01*
X138334564Y-73453289D01*
X138436036Y-73511874D01*
X138523297Y-73535255D01*
X137945353Y-74113200D01*
X138523297Y-74691144D01*
X138436036Y-74714526D01*
X138334564Y-74773111D01*
X138251711Y-74855964D01*
X138193126Y-74957436D01*
X138169744Y-75044698D01*
X137564674Y-74439628D01*
X137521132Y-74501814D01*
X137521131Y-74501816D01*
X137428695Y-74700044D01*
X137428694Y-74700049D01*
X137372089Y-74911302D01*
X137372088Y-74911308D01*
X137353025Y-75129200D01*
X137372088Y-75347091D01*
X137372089Y-75347097D01*
X137428694Y-75558350D01*
X137428696Y-75558355D01*
X137521131Y-75756586D01*
X137521138Y-75756598D01*
X137564672Y-75818770D01*
X137564674Y-75818770D01*
X138169744Y-75213701D01*
X138193126Y-75300964D01*
X138251711Y-75402436D01*
X138334564Y-75485289D01*
X138436036Y-75543874D01*
X138523295Y-75567255D01*
X137918228Y-76172323D01*
X137918228Y-76172325D01*
X137980412Y-76215866D01*
X137980420Y-76215870D01*
X138094336Y-76268990D01*
X138119673Y-76296640D01*
X138118037Y-76334107D01*
X138096728Y-76356612D01*
X138077175Y-76367063D01*
X138077168Y-76367068D01*
X137932443Y-76485843D01*
X137813668Y-76630568D01*
X137813663Y-76630575D01*
X137725404Y-76795697D01*
X137671053Y-76974867D01*
X137671053Y-76974868D01*
X137652701Y-77161199D01*
X137652701Y-77161200D01*
X137671053Y-77347531D01*
X137671053Y-77347532D01*
X137725404Y-77526702D01*
X137813663Y-77691824D01*
X137813668Y-77691831D01*
X137848440Y-77734200D01*
X137932443Y-77836557D01*
X138015390Y-77904630D01*
X138077168Y-77955331D01*
X138077175Y-77955336D01*
X138242299Y-78043596D01*
X138421469Y-78097947D01*
X138607800Y-78116299D01*
X138794131Y-78097947D01*
X138973301Y-78043596D01*
X139138425Y-77955336D01*
X139283157Y-77836557D01*
X139401936Y-77691825D01*
X139490196Y-77526701D01*
X139544547Y-77347531D01*
X139562899Y-77161200D01*
X139562899Y-77161199D01*
X139562899Y-77158793D01*
X139563750Y-77158793D01*
X139573818Y-77125612D01*
X139606893Y-77107936D01*
X139611693Y-77107700D01*
X139935111Y-77107700D01*
X139999183Y-77090531D01*
X140031220Y-77081947D01*
X140031221Y-77081947D01*
X140035123Y-77080901D01*
X140049687Y-77076999D01*
X140077951Y-77060679D01*
X140115132Y-77055783D01*
X140116626Y-77056209D01*
X140201469Y-77081947D01*
X140369447Y-77098491D01*
X140387799Y-77100299D01*
X140387799Y-77100298D01*
X140387800Y-77100299D01*
X140574131Y-77081947D01*
X140753301Y-77027596D01*
X140918425Y-76939336D01*
X141063157Y-76820557D01*
X141181936Y-76675825D01*
X141181940Y-76675818D01*
X141210919Y-76621602D01*
X141239909Y-76597810D01*
X141254133Y-76595700D01*
X144750116Y-76595700D01*
X144762797Y-76597369D01*
X144767635Y-76598665D01*
X144771490Y-76599699D01*
X144771491Y-76599699D01*
X144890112Y-76599699D01*
X144890112Y-76599698D01*
X145004687Y-76568999D01*
X145013157Y-76564109D01*
X145107414Y-76509690D01*
X145191290Y-76425814D01*
X145191290Y-76425812D01*
X145195319Y-76421784D01*
X145195322Y-76421779D01*
X145516653Y-76100449D01*
X145551300Y-76086098D01*
X145585948Y-76100450D01*
X145600300Y-76135098D01*
X145600300Y-85352185D01*
X145585948Y-85386833D01*
X145551300Y-85401185D01*
X145516652Y-85386833D01*
X145507353Y-85373857D01*
X145462737Y-85283385D01*
X145298875Y-85038147D01*
X145269594Y-85004759D01*
X145269593Y-85004758D01*
X144446289Y-85828061D01*
X144349033Y-85694198D01*
X144226602Y-85571767D01*
X144092736Y-85474508D01*
X144916040Y-84651205D01*
X144916039Y-84651204D01*
X144882652Y-84621924D01*
X144637414Y-84458062D01*
X144372883Y-84327610D01*
X144093586Y-84232801D01*
X143804308Y-84175261D01*
X143510001Y-84155972D01*
X143509999Y-84155972D01*
X143215691Y-84175261D01*
X142926413Y-84232801D01*
X142647116Y-84327610D01*
X142382585Y-84458062D01*
X142137349Y-84621924D01*
X142103959Y-84651205D01*
X142927263Y-85474509D01*
X142793398Y-85571767D01*
X142670967Y-85694198D01*
X142573709Y-85828062D01*
X141750405Y-85004759D01*
X141721124Y-85038149D01*
X141557262Y-85283385D01*
X141426810Y-85547916D01*
X141332001Y-85827213D01*
X141274461Y-86116491D01*
X141255172Y-86410798D01*
X141255172Y-86410801D01*
X141274461Y-86705108D01*
X141332001Y-86994386D01*
X141426810Y-87273683D01*
X141557262Y-87538214D01*
X141721124Y-87783452D01*
X141750404Y-87816839D01*
X141750405Y-87816840D01*
X142573708Y-86993536D01*
X142670967Y-87127402D01*
X142793398Y-87249833D01*
X142927262Y-87347090D01*
X142103958Y-88170393D01*
X142103959Y-88170394D01*
X142137347Y-88199675D01*
X142302099Y-88309758D01*
X142322934Y-88340940D01*
X142315618Y-88377723D01*
X142284436Y-88398558D01*
X142274876Y-88399500D01*
X137755499Y-88399500D01*
X137720851Y-88385148D01*
X137706499Y-88350500D01*
X137720851Y-88315852D01*
X137773912Y-88262791D01*
X137926890Y-88109814D01*
X137986199Y-88007087D01*
X137994498Y-87976113D01*
X138016900Y-87892509D01*
X138016900Y-87533100D01*
X138031252Y-87498452D01*
X138065900Y-87484100D01*
X138121456Y-87484100D01*
X138121466Y-87484100D01*
X138151899Y-87481246D01*
X138280082Y-87436393D01*
X138294887Y-87425467D01*
X138389350Y-87355750D01*
X138469991Y-87246485D01*
X138469991Y-87246484D01*
X138469993Y-87246482D01*
X138475763Y-87229993D01*
X138504413Y-87148117D01*
X138529402Y-87120153D01*
X138550663Y-87115300D01*
X139020537Y-87115300D01*
X139055185Y-87129652D01*
X139066787Y-87148117D01*
X139101204Y-87246476D01*
X139101208Y-87246485D01*
X139181849Y-87355750D01*
X139291114Y-87436391D01*
X139291117Y-87436392D01*
X139291118Y-87436393D01*
X139291120Y-87436393D01*
X139291123Y-87436395D01*
X139340473Y-87453663D01*
X139419301Y-87481246D01*
X139449734Y-87484100D01*
X139449744Y-87484100D01*
X140458256Y-87484100D01*
X140458266Y-87484100D01*
X140488699Y-87481246D01*
X140616882Y-87436393D01*
X140631687Y-87425467D01*
X140726150Y-87355750D01*
X140806791Y-87246485D01*
X140806791Y-87246484D01*
X140806793Y-87246482D01*
X140851646Y-87118299D01*
X140854500Y-87087866D01*
X140854500Y-86279334D01*
X140851646Y-86248901D01*
X140839345Y-86213748D01*
X140806795Y-86120723D01*
X140806791Y-86120714D01*
X140726150Y-86011449D01*
X140616885Y-85930808D01*
X140616876Y-85930804D01*
X140488698Y-85885953D01*
X140458275Y-85883100D01*
X140458266Y-85883100D01*
X139449734Y-85883100D01*
X139449724Y-85883100D01*
X139419301Y-85885953D01*
X139419300Y-85885953D01*
X139291123Y-85930804D01*
X139291114Y-85930808D01*
X139181849Y-86011449D01*
X139101208Y-86120715D01*
X139079944Y-86181484D01*
X139054954Y-86209448D01*
X139033694Y-86214300D01*
X138537506Y-86214300D01*
X138502858Y-86199948D01*
X138491256Y-86181484D01*
X138469993Y-86120718D01*
X138469991Y-86120715D01*
X138469992Y-86120715D01*
X138389350Y-86011449D01*
X138280085Y-85930808D01*
X138280076Y-85930804D01*
X138151898Y-85885953D01*
X138121475Y-85883100D01*
X138121466Y-85883100D01*
X137112934Y-85883100D01*
X137112924Y-85883100D01*
X137082501Y-85885953D01*
X137082500Y-85885953D01*
X136954323Y-85930804D01*
X136954314Y-85930808D01*
X136845049Y-86011449D01*
X136764408Y-86120714D01*
X136764404Y-86120723D01*
X136719553Y-86248900D01*
X136719553Y-86248901D01*
X136716700Y-86279324D01*
X136716700Y-87087875D01*
X136719553Y-87118298D01*
X136719553Y-87118299D01*
X136764404Y-87246476D01*
X136764408Y-87246485D01*
X136845049Y-87355750D01*
X136954314Y-87436391D01*
X136954317Y-87436392D01*
X136954318Y-87436393D01*
X136954320Y-87436393D01*
X136954323Y-87436395D01*
X137083083Y-87481450D01*
X137111047Y-87506439D01*
X137115900Y-87527700D01*
X137115900Y-87626299D01*
X137101549Y-87660947D01*
X137077349Y-87685148D01*
X137042701Y-87699500D01*
X136261357Y-87699500D01*
X136226709Y-87685148D01*
X136212357Y-87650500D01*
X136226709Y-87615852D01*
X136296917Y-87545643D01*
X136388957Y-87396422D01*
X136444106Y-87229993D01*
X136454600Y-87127281D01*
X136454600Y-86989800D01*
X131642401Y-86989800D01*
X131642401Y-87127280D01*
X131652893Y-87229993D01*
X131708042Y-87396422D01*
X131800082Y-87545643D01*
X131870291Y-87615852D01*
X131884643Y-87650500D01*
X131870291Y-87685148D01*
X131835643Y-87699500D01*
X131257499Y-87699500D01*
X131222851Y-87685148D01*
X131147852Y-87610149D01*
X131133500Y-87575501D01*
X131133500Y-86352318D01*
X131642400Y-86352318D01*
X131642400Y-86489800D01*
X132617400Y-86489800D01*
X133117400Y-86489800D01*
X134979600Y-86489800D01*
X135479600Y-86489800D01*
X136454599Y-86489800D01*
X136454599Y-86352319D01*
X136444106Y-86249606D01*
X136388957Y-86083177D01*
X136296917Y-85933956D01*
X136172943Y-85809982D01*
X136023722Y-85717942D01*
X135857293Y-85662793D01*
X135754581Y-85652300D01*
X135479600Y-85652300D01*
X135479600Y-86489800D01*
X134979600Y-86489800D01*
X134979600Y-85652300D01*
X134704619Y-85652300D01*
X134601906Y-85662793D01*
X134435477Y-85717942D01*
X134286256Y-85809982D01*
X134162282Y-85933956D01*
X134090205Y-86050813D01*
X134059800Y-86072768D01*
X134022776Y-86066794D01*
X134006795Y-86050813D01*
X133934717Y-85933956D01*
X133810743Y-85809982D01*
X133661522Y-85717942D01*
X133495093Y-85662793D01*
X133392381Y-85652300D01*
X133117400Y-85652300D01*
X133117400Y-86489800D01*
X132617400Y-86489800D01*
X132617400Y-85652300D01*
X132342419Y-85652300D01*
X132239706Y-85662793D01*
X132073277Y-85717942D01*
X131924056Y-85809982D01*
X131800082Y-85933956D01*
X131708042Y-86083177D01*
X131652893Y-86249606D01*
X131642400Y-86352318D01*
X131133500Y-86352318D01*
X131133500Y-85749688D01*
X131104469Y-85641346D01*
X131104468Y-85641342D01*
X131104468Y-85641343D01*
X131102799Y-85635114D01*
X131102799Y-85635113D01*
X131043489Y-85532386D01*
X130537614Y-85026511D01*
X130499937Y-85004758D01*
X130434888Y-84967201D01*
X130434886Y-84967200D01*
X130410673Y-84960713D01*
X130380551Y-84952642D01*
X130320311Y-84936500D01*
X130320309Y-84936500D01*
X127541500Y-84936500D01*
X127506852Y-84922148D01*
X127492500Y-84887500D01*
X127492500Y-84805743D01*
X127492499Y-84805724D01*
X127489646Y-84775301D01*
X127489646Y-84775300D01*
X127444795Y-84647123D01*
X127444791Y-84647114D01*
X127364150Y-84537849D01*
X127254885Y-84457208D01*
X127254876Y-84457204D01*
X127126698Y-84412353D01*
X127096275Y-84409500D01*
X127096266Y-84409500D01*
X125887734Y-84409500D01*
X125887724Y-84409500D01*
X125857301Y-84412353D01*
X125857300Y-84412353D01*
X125729123Y-84457204D01*
X125729114Y-84457208D01*
X125619849Y-84537849D01*
X125539208Y-84647114D01*
X125539204Y-84647123D01*
X125494353Y-84775300D01*
X125494353Y-84775301D01*
X125491500Y-84805724D01*
X125491500Y-84887500D01*
X125477148Y-84922148D01*
X125442500Y-84936500D01*
X119210300Y-84936500D01*
X119175652Y-84922148D01*
X119161300Y-84887500D01*
X119161300Y-84747343D01*
X119161299Y-84747324D01*
X119158446Y-84716901D01*
X119158446Y-84716900D01*
X119113595Y-84588723D01*
X119113591Y-84588714D01*
X119032950Y-84479449D01*
X118923685Y-84398808D01*
X118923676Y-84398804D01*
X118795498Y-84353953D01*
X118765075Y-84351100D01*
X118765066Y-84351100D01*
X117556534Y-84351100D01*
X117556524Y-84351100D01*
X117526101Y-84353953D01*
X117526100Y-84353953D01*
X117397923Y-84398804D01*
X117397914Y-84398808D01*
X117288649Y-84479449D01*
X117208008Y-84588714D01*
X117208004Y-84588723D01*
X117163153Y-84716900D01*
X117163153Y-84716901D01*
X117160300Y-84747324D01*
X117160300Y-84887500D01*
X117145948Y-84922148D01*
X117111300Y-84936500D01*
X111519500Y-84936500D01*
X111484852Y-84922148D01*
X111470500Y-84887500D01*
X111470500Y-84474255D01*
X111470500Y-84474252D01*
X111458867Y-84415769D01*
X111417563Y-84353954D01*
X111414552Y-84349447D01*
X111374795Y-84322882D01*
X111348231Y-84305133D01*
X111289748Y-84293500D01*
X109550252Y-84293500D01*
X109491769Y-84305133D01*
X109425447Y-84349447D01*
X109383415Y-84412354D01*
X109381133Y-84415769D01*
X109369500Y-84474252D01*
X109369500Y-86213748D01*
X109381133Y-86272231D01*
X109398882Y-86298795D01*
X109425447Y-86338552D01*
X109446050Y-86352318D01*
X109491769Y-86382867D01*
X109550252Y-86394500D01*
X109550255Y-86394500D01*
X111289745Y-86394500D01*
X111289748Y-86394500D01*
X111348231Y-86382867D01*
X111414552Y-86338552D01*
X111458867Y-86272231D01*
X111470500Y-86213748D01*
X111470500Y-85886500D01*
X111484852Y-85851852D01*
X111519500Y-85837500D01*
X117111300Y-85837500D01*
X117145948Y-85851852D01*
X117160300Y-85886500D01*
X117160300Y-87855875D01*
X117163153Y-87886298D01*
X117163153Y-87886299D01*
X117208004Y-88014476D01*
X117208008Y-88014485D01*
X117288649Y-88123750D01*
X117397914Y-88204391D01*
X117397917Y-88204392D01*
X117397918Y-88204393D01*
X117397920Y-88204393D01*
X117397923Y-88204395D01*
X117526101Y-88249246D01*
X117556534Y-88252100D01*
X117556544Y-88252100D01*
X118765056Y-88252100D01*
X118765066Y-88252100D01*
X118795499Y-88249246D01*
X118923682Y-88204393D01*
X118953821Y-88182150D01*
X119032950Y-88123750D01*
X119113591Y-88014485D01*
X119113591Y-88014484D01*
X119113593Y-88014482D01*
X119158446Y-87886299D01*
X119161300Y-87855866D01*
X119161300Y-85886500D01*
X119175652Y-85851852D01*
X119210300Y-85837500D01*
X125442500Y-85837500D01*
X125477148Y-85851852D01*
X125491500Y-85886500D01*
X125491500Y-87914265D01*
X125494353Y-87944698D01*
X125494353Y-87944699D01*
X125539204Y-88072876D01*
X125539208Y-88072885D01*
X125619849Y-88182150D01*
X125729114Y-88262791D01*
X125729117Y-88262792D01*
X125729118Y-88262793D01*
X125729120Y-88262793D01*
X125729123Y-88262795D01*
X125847595Y-88304250D01*
X125875559Y-88329239D01*
X125877662Y-88366683D01*
X125852673Y-88394647D01*
X125831412Y-88399500D01*
X102149500Y-88399500D01*
X102114852Y-88385148D01*
X102100500Y-88350500D01*
X102100500Y-73380598D01*
X104602972Y-73380598D01*
X104602972Y-73380601D01*
X104622261Y-73674908D01*
X104679801Y-73964186D01*
X104774610Y-74243483D01*
X104905062Y-74508014D01*
X105068924Y-74753252D01*
X105098204Y-74786639D01*
X105098205Y-74786640D01*
X105921508Y-73963336D01*
X106018767Y-74097202D01*
X106141198Y-74219633D01*
X106275062Y-74316890D01*
X105451758Y-75140193D01*
X105451759Y-75140194D01*
X105485147Y-75169475D01*
X105730385Y-75333337D01*
X105994916Y-75463789D01*
X106274213Y-75558598D01*
X106563491Y-75616138D01*
X106857799Y-75635428D01*
X106857801Y-75635428D01*
X107152108Y-75616138D01*
X107441386Y-75558598D01*
X107720683Y-75463789D01*
X107985214Y-75333337D01*
X108230452Y-75169475D01*
X108263839Y-75140194D01*
X108263840Y-75140193D01*
X107440537Y-74316890D01*
X107574402Y-74219633D01*
X107696833Y-74097202D01*
X107794090Y-73963337D01*
X108617393Y-74786640D01*
X108617394Y-74786639D01*
X108646675Y-74753252D01*
X108810537Y-74508014D01*
X108940989Y-74243483D01*
X109035798Y-73964186D01*
X109093338Y-73674908D01*
X109112628Y-73380601D01*
X109112628Y-73380598D01*
X109093338Y-73086291D01*
X109035798Y-72797013D01*
X108940989Y-72517716D01*
X108810537Y-72253185D01*
X108646675Y-72007947D01*
X108617394Y-71974559D01*
X108617393Y-71974558D01*
X107794089Y-72797861D01*
X107696833Y-72663998D01*
X107574402Y-72541567D01*
X107440536Y-72444308D01*
X108263840Y-71621005D01*
X108263839Y-71621004D01*
X108230452Y-71591724D01*
X107985214Y-71427862D01*
X107720683Y-71297410D01*
X107441386Y-71202601D01*
X107152108Y-71145061D01*
X106857801Y-71125772D01*
X106857799Y-71125772D01*
X106563491Y-71145061D01*
X106274213Y-71202601D01*
X105994916Y-71297410D01*
X105730385Y-71427862D01*
X105485149Y-71591724D01*
X105451759Y-71621005D01*
X106275063Y-72444309D01*
X106141198Y-72541567D01*
X106018767Y-72663998D01*
X105921509Y-72797862D01*
X105098205Y-71974559D01*
X105068924Y-72007949D01*
X104905062Y-72253185D01*
X104774610Y-72517716D01*
X104679801Y-72797013D01*
X104622261Y-73086291D01*
X104602972Y-73380598D01*
X102100500Y-73380598D01*
X102100500Y-71023800D01*
X102114852Y-70989152D01*
X102149500Y-70974800D01*
X103132600Y-70974800D01*
X103632600Y-70974800D01*
X104680434Y-70974800D01*
X104739972Y-70968398D01*
X104739973Y-70968398D01*
X104874691Y-70918151D01*
X104989788Y-70831988D01*
X105075951Y-70716891D01*
X105126198Y-70582173D01*
X105126198Y-70582172D01*
X105132600Y-70522634D01*
X107132600Y-70522634D01*
X107139001Y-70582172D01*
X107139001Y-70582173D01*
X107189248Y-70716891D01*
X107275411Y-70831988D01*
X107390508Y-70918151D01*
X107525226Y-70968398D01*
X107584766Y-70974800D01*
X108632600Y-70974800D01*
X109132600Y-70974800D01*
X110180434Y-70974800D01*
X110239972Y-70968398D01*
X110239973Y-70968398D01*
X110374691Y-70918151D01*
X110489788Y-70831988D01*
X110575951Y-70716891D01*
X110626198Y-70582173D01*
X110626198Y-70582172D01*
X110632600Y-70522634D01*
X110632600Y-69724800D01*
X109132600Y-69724800D01*
X109132600Y-70974800D01*
X108632600Y-70974800D01*
X108632600Y-69724800D01*
X107132600Y-69724800D01*
X107132600Y-70522634D01*
X105132600Y-70522634D01*
X105132600Y-69724800D01*
X103632600Y-69724800D01*
X103632600Y-70974800D01*
X103132600Y-70974800D01*
X103132600Y-69224800D01*
X103632600Y-69224800D01*
X105132600Y-69224800D01*
X105132600Y-68426965D01*
X107132600Y-68426965D01*
X107132600Y-69224800D01*
X108632600Y-69224800D01*
X109132600Y-69224800D01*
X110632600Y-69224800D01*
X110632600Y-68426965D01*
X110626198Y-68367427D01*
X110626198Y-68367426D01*
X110575951Y-68232708D01*
X110489788Y-68117611D01*
X110374691Y-68031448D01*
X110239973Y-67981201D01*
X110180434Y-67974800D01*
X109132600Y-67974800D01*
X109132600Y-69224800D01*
X108632600Y-69224800D01*
X108632600Y-67974800D01*
X107584766Y-67974800D01*
X107525227Y-67981201D01*
X107525226Y-67981201D01*
X107390508Y-68031448D01*
X107275411Y-68117611D01*
X107189248Y-68232708D01*
X107139001Y-68367426D01*
X107139001Y-68367427D01*
X107132600Y-68426965D01*
X105132600Y-68426965D01*
X105126198Y-68367427D01*
X105126198Y-68367426D01*
X105075951Y-68232708D01*
X104989788Y-68117611D01*
X104874691Y-68031448D01*
X104739973Y-67981201D01*
X104680434Y-67974800D01*
X103632600Y-67974800D01*
X103632600Y-69224800D01*
X103132600Y-69224800D01*
X103132600Y-67974800D01*
X102149500Y-67974800D01*
X102114852Y-67960448D01*
X102100500Y-67925800D01*
X102100500Y-67199688D01*
X105712100Y-67199688D01*
X105712100Y-67349911D01*
X105750977Y-67495004D01*
X105750978Y-67495007D01*
X105811863Y-67600461D01*
X105826086Y-67625095D01*
X105932305Y-67731314D01*
X105979918Y-67758804D01*
X106062392Y-67806421D01*
X106062395Y-67806422D01*
X106207488Y-67845299D01*
X106207489Y-67845300D01*
X106207492Y-67845300D01*
X106357711Y-67845300D01*
X106357711Y-67845299D01*
X106502805Y-67806422D01*
X106632895Y-67731314D01*
X106739114Y-67625095D01*
X106814222Y-67495005D01*
X106853099Y-67349911D01*
X106853100Y-67349911D01*
X106853100Y-67199689D01*
X106853099Y-67199688D01*
X106814222Y-67054595D01*
X106814221Y-67054592D01*
X106766901Y-66972634D01*
X107132600Y-66972634D01*
X107139001Y-67032172D01*
X107139001Y-67032173D01*
X107189248Y-67166891D01*
X107275411Y-67281988D01*
X107390508Y-67368151D01*
X107525226Y-67418398D01*
X107584766Y-67424800D01*
X108632600Y-67424800D01*
X109132600Y-67424800D01*
X110180434Y-67424800D01*
X110239972Y-67418398D01*
X110239973Y-67418398D01*
X110374691Y-67368151D01*
X110489788Y-67281988D01*
X110575951Y-67166891D01*
X110626198Y-67032173D01*
X110626198Y-67032172D01*
X110632600Y-66972634D01*
X110632600Y-66924800D01*
X109132600Y-66924800D01*
X109132600Y-67424800D01*
X108632600Y-67424800D01*
X108632600Y-66924800D01*
X107132600Y-66924800D01*
X107132600Y-66972634D01*
X106766901Y-66972634D01*
X106739113Y-66924504D01*
X106632895Y-66818286D01*
X106502807Y-66743178D01*
X106502804Y-66743177D01*
X106357711Y-66704300D01*
X106357708Y-66704300D01*
X106207492Y-66704300D01*
X106207489Y-66704300D01*
X106062395Y-66743177D01*
X106062392Y-66743178D01*
X105932304Y-66818286D01*
X105932304Y-66818287D01*
X105826087Y-66924504D01*
X105826086Y-66924504D01*
X105750978Y-67054592D01*
X105750977Y-67054595D01*
X105712100Y-67199688D01*
X102100500Y-67199688D01*
X102100500Y-62799688D01*
X105712100Y-62799688D01*
X105712100Y-62949911D01*
X105750977Y-63095004D01*
X105750978Y-63095007D01*
X105814514Y-63205052D01*
X105826086Y-63225095D01*
X105932305Y-63331314D01*
X105979918Y-63358804D01*
X106062392Y-63406421D01*
X106062395Y-63406422D01*
X106207488Y-63445299D01*
X106207489Y-63445300D01*
X106207492Y-63445300D01*
X106357711Y-63445300D01*
X106357711Y-63445299D01*
X106502805Y-63406422D01*
X106632895Y-63331314D01*
X106739114Y-63225095D01*
X106809779Y-63102700D01*
X106814221Y-63095007D01*
X106814222Y-63095004D01*
X106815481Y-63090308D01*
X106853099Y-62949911D01*
X106853100Y-62949911D01*
X106853100Y-62799689D01*
X106853099Y-62799688D01*
X106814222Y-62654595D01*
X106814221Y-62654592D01*
X106739113Y-62524504D01*
X106632895Y-62418286D01*
X106502807Y-62343178D01*
X106502804Y-62343177D01*
X106357711Y-62304300D01*
X106357708Y-62304300D01*
X106207492Y-62304300D01*
X106207489Y-62304300D01*
X106062395Y-62343177D01*
X106062392Y-62343178D01*
X105932304Y-62418286D01*
X105932304Y-62418287D01*
X105826087Y-62524504D01*
X105826086Y-62524504D01*
X105750978Y-62654592D01*
X105750977Y-62654595D01*
X105712100Y-62799688D01*
X102100500Y-62799688D01*
X102100500Y-62223800D01*
X102114852Y-62189152D01*
X102149500Y-62174800D01*
X103132600Y-62174800D01*
X103632600Y-62174800D01*
X104680434Y-62174800D01*
X104739972Y-62168398D01*
X104739973Y-62168398D01*
X104874691Y-62118151D01*
X104989788Y-62031988D01*
X105075951Y-61916891D01*
X105126198Y-61782173D01*
X105126198Y-61782172D01*
X105132600Y-61722634D01*
X107132600Y-61722634D01*
X107139001Y-61782172D01*
X107139001Y-61782173D01*
X107189248Y-61916891D01*
X107275411Y-62031988D01*
X107390508Y-62118151D01*
X107525226Y-62168398D01*
X107584766Y-62174800D01*
X108632600Y-62174800D01*
X109132600Y-62174800D01*
X110180434Y-62174800D01*
X110239972Y-62168398D01*
X110239973Y-62168398D01*
X110374691Y-62118151D01*
X110489788Y-62031988D01*
X110575951Y-61916891D01*
X110599781Y-61852999D01*
X114417163Y-61852999D01*
X114417164Y-61853000D01*
X115314788Y-61853000D01*
X115281875Y-61910007D01*
X115247800Y-62037174D01*
X115247800Y-62168826D01*
X115281875Y-62295993D01*
X115314788Y-62353000D01*
X114417163Y-62353000D01*
X114474366Y-62566483D01*
X114474368Y-62566488D01*
X114574198Y-62780577D01*
X114574205Y-62780589D01*
X114709685Y-62974072D01*
X114709691Y-62974079D01*
X114876720Y-63141108D01*
X114876727Y-63141114D01*
X115070210Y-63276594D01*
X115070222Y-63276601D01*
X115284311Y-63376431D01*
X115284316Y-63376433D01*
X115497800Y-63433634D01*
X115497800Y-62536012D01*
X115554807Y-62568925D01*
X115681974Y-62603000D01*
X115813626Y-62603000D01*
X115940793Y-62568925D01*
X115997800Y-62536012D01*
X115997800Y-63433634D01*
X116211283Y-63376433D01*
X116211288Y-63376431D01*
X116425377Y-63276601D01*
X116425389Y-63276594D01*
X116618872Y-63141114D01*
X116618879Y-63141108D01*
X116785908Y-62974079D01*
X116785914Y-62974072D01*
X116921394Y-62780589D01*
X116921401Y-62780577D01*
X117021231Y-62566488D01*
X117021233Y-62566483D01*
X117078436Y-62353000D01*
X116180812Y-62353000D01*
X116213725Y-62295993D01*
X116247800Y-62168826D01*
X116247800Y-62102999D01*
X117232217Y-62102999D01*
X117232217Y-62103000D01*
X117252500Y-62308934D01*
X117252500Y-62308935D01*
X117265867Y-62353000D01*
X117312568Y-62506954D01*
X117410115Y-62689450D01*
X117541390Y-62849410D01*
X117701350Y-62980685D01*
X117883846Y-63078232D01*
X118081866Y-63138300D01*
X118287800Y-63158583D01*
X118493734Y-63138300D01*
X118691754Y-63078232D01*
X118874250Y-62980685D01*
X119034210Y-62849410D01*
X119165485Y-62689450D01*
X119263032Y-62506954D01*
X119323100Y-62308934D01*
X119343383Y-62103000D01*
X119323100Y-61897066D01*
X119263032Y-61699046D01*
X119165485Y-61516550D01*
X119034210Y-61356590D01*
X118874250Y-61225315D01*
X118691754Y-61127768D01*
X118493734Y-61067700D01*
X118287800Y-61047417D01*
X118081865Y-61067700D01*
X118081864Y-61067700D01*
X117883843Y-61127769D01*
X117701348Y-61225316D01*
X117541390Y-61356590D01*
X117410116Y-61516548D01*
X117312569Y-61699043D01*
X117252500Y-61897064D01*
X117252500Y-61897065D01*
X117232217Y-62102999D01*
X116247800Y-62102999D01*
X116247800Y-62037174D01*
X116213725Y-61910007D01*
X116180812Y-61853000D01*
X117078436Y-61853000D01*
X117078436Y-61852999D01*
X117021233Y-61639516D01*
X117021232Y-61639511D01*
X116921401Y-61425423D01*
X116921394Y-61425411D01*
X116785914Y-61231927D01*
X116785908Y-61231920D01*
X116618879Y-61064891D01*
X116618872Y-61064885D01*
X116425389Y-60929405D01*
X116425377Y-60929398D01*
X116211288Y-60829568D01*
X116211283Y-60829566D01*
X115997800Y-60772363D01*
X115997800Y-61669988D01*
X115940793Y-61637075D01*
X115813626Y-61603000D01*
X115681974Y-61603000D01*
X115554807Y-61637075D01*
X115497800Y-61669988D01*
X115497800Y-60772363D01*
X115497799Y-60772363D01*
X115284316Y-60829566D01*
X115284311Y-60829567D01*
X115070223Y-60929398D01*
X115070211Y-60929405D01*
X114876727Y-61064885D01*
X114876720Y-61064891D01*
X114709691Y-61231920D01*
X114709685Y-61231927D01*
X114574205Y-61425411D01*
X114574198Y-61425423D01*
X114474367Y-61639511D01*
X114474366Y-61639516D01*
X114417163Y-61852999D01*
X110599781Y-61852999D01*
X110626198Y-61782173D01*
X110626198Y-61782172D01*
X110632600Y-61722634D01*
X110632600Y-60924800D01*
X109132600Y-60924800D01*
X109132600Y-62174800D01*
X108632600Y-62174800D01*
X108632600Y-60924800D01*
X107132600Y-60924800D01*
X107132600Y-61722634D01*
X105132600Y-61722634D01*
X105132600Y-60924800D01*
X103632600Y-60924800D01*
X103632600Y-62174800D01*
X103132600Y-62174800D01*
X103132600Y-60424800D01*
X103632600Y-60424800D01*
X105132600Y-60424800D01*
X105132600Y-59626965D01*
X107132600Y-59626965D01*
X107132600Y-60424800D01*
X108632600Y-60424800D01*
X109132600Y-60424800D01*
X110632600Y-60424800D01*
X110632600Y-59626965D01*
X110626198Y-59567427D01*
X110626198Y-59567426D01*
X110575951Y-59432708D01*
X110489788Y-59317611D01*
X110374691Y-59231448D01*
X110239973Y-59181201D01*
X110180434Y-59174800D01*
X109132600Y-59174800D01*
X109132600Y-60424800D01*
X108632600Y-60424800D01*
X108632600Y-59174800D01*
X107584766Y-59174800D01*
X107525227Y-59181201D01*
X107525226Y-59181201D01*
X107390508Y-59231448D01*
X107275411Y-59317611D01*
X107189248Y-59432708D01*
X107139001Y-59567426D01*
X107139001Y-59567427D01*
X107132600Y-59626965D01*
X105132600Y-59626965D01*
X105126198Y-59567427D01*
X105126198Y-59567426D01*
X105075951Y-59432708D01*
X104989788Y-59317611D01*
X104874691Y-59231448D01*
X104739973Y-59181201D01*
X104680434Y-59174800D01*
X103632600Y-59174800D01*
X103632600Y-60424800D01*
X103132600Y-60424800D01*
X103132600Y-59174800D01*
X102149500Y-59174800D01*
X102114852Y-59160448D01*
X102100500Y-59125800D01*
X102100500Y-58969500D01*
X102114852Y-58934852D01*
X102149500Y-58920500D01*
X142224076Y-58920500D01*
X142258724Y-58934852D01*
G37*
%TD.AperFunction*%
%TA.AperFunction,Conductor*%
G36*
X130088749Y-85851852D02*
G01*
X130218148Y-85981251D01*
X130232500Y-86015899D01*
X130232500Y-87841711D01*
X130251941Y-87914265D01*
X130251941Y-87914266D01*
X130263200Y-87956285D01*
X130263201Y-87956288D01*
X130322511Y-88059014D01*
X130579349Y-88315852D01*
X130593701Y-88350500D01*
X130579349Y-88385148D01*
X130544701Y-88399500D01*
X127152588Y-88399500D01*
X127117940Y-88385148D01*
X127103588Y-88350500D01*
X127117940Y-88315852D01*
X127136405Y-88304250D01*
X127254876Y-88262795D01*
X127254874Y-88262795D01*
X127254882Y-88262793D01*
X127364150Y-88182150D01*
X127444793Y-88072882D01*
X127489646Y-87944699D01*
X127492500Y-87914266D01*
X127492500Y-85886500D01*
X127506852Y-85851852D01*
X127541500Y-85837500D01*
X130054101Y-85837500D01*
X130088749Y-85851852D01*
G37*
%TD.AperFunction*%
%TA.AperFunction,Conductor*%
G36*
X145269593Y-87816840D02*
G01*
X145269594Y-87816839D01*
X145298875Y-87783452D01*
X145462737Y-87538214D01*
X145507353Y-87447742D01*
X145535549Y-87423014D01*
X145572972Y-87425467D01*
X145597700Y-87453663D01*
X145600300Y-87469414D01*
X145600300Y-88350500D01*
X145585948Y-88385148D01*
X145551300Y-88399500D01*
X144745124Y-88399500D01*
X144710476Y-88385148D01*
X144696124Y-88350500D01*
X144710476Y-88315852D01*
X144717901Y-88309758D01*
X144882652Y-88199675D01*
X144916039Y-88170394D01*
X144916040Y-88170393D01*
X144092737Y-87347090D01*
X144226602Y-87249833D01*
X144349033Y-87127402D01*
X144446290Y-86993537D01*
X145269593Y-87816840D01*
G37*
%TD.AperFunction*%
%TA.AperFunction,Conductor*%
G36*
X114487597Y-71216440D02*
G01*
X114506953Y-71248562D01*
X114507500Y-71255865D01*
X114507500Y-72453410D01*
X114493148Y-72488058D01*
X114458500Y-72502410D01*
X114436980Y-72497431D01*
X114420515Y-72489382D01*
X114420510Y-72489380D01*
X114349951Y-72479100D01*
X113046049Y-72479100D01*
X113046048Y-72479101D01*
X112975492Y-72489379D01*
X112975490Y-72489379D01*
X112866655Y-72542586D01*
X112866651Y-72542589D01*
X112780989Y-72628251D01*
X112780985Y-72628256D01*
X112751754Y-72688049D01*
X112723643Y-72712873D01*
X112720417Y-72713858D01*
X112680411Y-72724578D01*
X112680408Y-72724579D01*
X112647384Y-72743647D01*
X112635707Y-72750389D01*
X112629752Y-72753826D01*
X112611892Y-72764137D01*
X112611886Y-72764142D01*
X112601348Y-72774681D01*
X112566700Y-72789033D01*
X112532052Y-72774681D01*
X112517700Y-72740033D01*
X112517700Y-72179167D01*
X112532052Y-72144519D01*
X112660859Y-72015712D01*
X112660860Y-72015711D01*
X112700421Y-71947189D01*
X112716571Y-71886913D01*
X112720900Y-71870763D01*
X112720900Y-71316498D01*
X112735252Y-71281850D01*
X112769900Y-71267498D01*
X112798997Y-71277073D01*
X112900914Y-71352291D01*
X112900917Y-71352292D01*
X112900918Y-71352293D01*
X112900920Y-71352293D01*
X112900923Y-71352295D01*
X112939233Y-71365700D01*
X113029101Y-71397146D01*
X113059534Y-71400000D01*
X113059544Y-71400000D01*
X114118056Y-71400000D01*
X114118066Y-71400000D01*
X114148499Y-71397146D01*
X114276682Y-71352293D01*
X114385950Y-71271650D01*
X114397600Y-71255865D01*
X114419075Y-71226768D01*
X114451197Y-71207412D01*
X114487597Y-71216440D01*
G37*
%TD.AperFunction*%
%TA.AperFunction,Conductor*%
G36*
X112105548Y-64589652D02*
G01*
X112119900Y-64624300D01*
X112119900Y-71686433D01*
X112105548Y-71721081D01*
X111976741Y-71849888D01*
X111976740Y-71849888D01*
X111937179Y-71918408D01*
X111937179Y-71918410D01*
X111916700Y-71994836D01*
X111916700Y-72511645D01*
X111902348Y-72546293D01*
X111867700Y-72560645D01*
X111833052Y-72546293D01*
X111829348Y-72542589D01*
X111829347Y-72542588D01*
X111720509Y-72489380D01*
X111696033Y-72485813D01*
X111663818Y-72466616D01*
X111654100Y-72437326D01*
X111654100Y-65149713D01*
X111645443Y-65117411D01*
X111633621Y-65073288D01*
X111633620Y-65073286D01*
X111633620Y-65073285D01*
X111594059Y-65004765D01*
X111423636Y-64834342D01*
X111423630Y-64834337D01*
X111392163Y-64816170D01*
X111372905Y-64805052D01*
X111355112Y-64794779D01*
X111355111Y-64794778D01*
X111355110Y-64794778D01*
X111278687Y-64774300D01*
X111278685Y-64774300D01*
X110365694Y-64774300D01*
X110331046Y-64759948D01*
X110324590Y-64750286D01*
X110324148Y-64750582D01*
X110308892Y-64727750D01*
X110291700Y-64702021D01*
X110284384Y-64665241D01*
X110291699Y-64647580D01*
X110321467Y-64603031D01*
X110321467Y-64603029D01*
X110324148Y-64599018D01*
X110325830Y-64600142D01*
X110346943Y-64579030D01*
X110365694Y-64575300D01*
X112070900Y-64575300D01*
X112105548Y-64589652D01*
G37*
%TD.AperFunction*%
%TA.AperFunction,Conductor*%
G36*
X145585948Y-58934852D02*
G01*
X145600300Y-58969500D01*
X145600300Y-59953598D01*
X145585948Y-59988246D01*
X145551300Y-60002598D01*
X145516652Y-59988246D01*
X145507353Y-59975270D01*
X145411937Y-59781785D01*
X145248075Y-59536547D01*
X145218794Y-59503159D01*
X145218793Y-59503158D01*
X144395489Y-60326461D01*
X144298233Y-60192598D01*
X144175802Y-60070167D01*
X144041936Y-59972908D01*
X144865240Y-59149605D01*
X144865239Y-59149604D01*
X144831852Y-59120324D01*
X144667101Y-59010242D01*
X144646266Y-58979060D01*
X144653582Y-58942277D01*
X144684764Y-58921442D01*
X144694324Y-58920500D01*
X145551300Y-58920500D01*
X145585948Y-58934852D01*
G37*
%TD.AperFunction*%
%TD*%
M02*
