%TF.GenerationSoftware,KiCad,Pcbnew,8.0.5*%
%TF.CreationDate,2025-02-12T12:09:28+01:00*%
%TF.ProjectId,USB-Extender_v2,5553422d-4578-4746-956e-6465725f7632,rev?*%
%TF.SameCoordinates,Original*%
%TF.FileFunction,Soldermask,Top*%
%TF.FilePolarity,Negative*%
%FSLAX46Y46*%
G04 Gerber Fmt 4.6, Leading zero omitted, Abs format (unit mm)*
G04 Created by KiCad (PCBNEW 8.0.5) date 2025-02-12 12:09:28*
%MOMM*%
%LPD*%
G01*
G04 APERTURE LIST*
G04 Aperture macros list*
%AMRoundRect*
0 Rectangle with rounded corners*
0 $1 Rounding radius*
0 $2 $3 $4 $5 $6 $7 $8 $9 X,Y pos of 4 corners*
0 Add a 4 corners polygon primitive as box body*
4,1,4,$2,$3,$4,$5,$6,$7,$8,$9,$2,$3,0*
0 Add four circle primitives for the rounded corners*
1,1,$1+$1,$2,$3*
1,1,$1+$1,$4,$5*
1,1,$1+$1,$6,$7*
1,1,$1+$1,$8,$9*
0 Add four rect primitives between the rounded corners*
20,1,$1+$1,$2,$3,$4,$5,0*
20,1,$1+$1,$4,$5,$6,$7,0*
20,1,$1+$1,$6,$7,$8,$9,0*
20,1,$1+$1,$8,$9,$2,$3,0*%
G04 Aperture macros list end*
%ADD10RoundRect,0.250000X-0.475000X0.337500X-0.475000X-0.337500X0.475000X-0.337500X0.475000X0.337500X0*%
%ADD11R,1.700000X1.700000*%
%ADD12O,1.700000X1.700000*%
%ADD13RoundRect,0.250000X0.550000X-1.500000X0.550000X1.500000X-0.550000X1.500000X-0.550000X-1.500000X0*%
%ADD14C,3.500000*%
%ADD15RoundRect,0.250000X-0.450000X0.350000X-0.450000X-0.350000X0.450000X-0.350000X0.450000X0.350000X0*%
%ADD16C,0.900000*%
%ADD17R,2.500000X0.500000*%
%ADD18R,2.500000X2.000000*%
%ADD19RoundRect,0.150000X0.825000X0.150000X-0.825000X0.150000X-0.825000X-0.150000X0.825000X-0.150000X0*%
%ADD20RoundRect,0.250000X0.450000X-0.350000X0.450000X0.350000X-0.450000X0.350000X-0.450000X-0.350000X0*%
%ADD21RoundRect,0.250000X0.475000X-0.337500X0.475000X0.337500X-0.475000X0.337500X-0.475000X-0.337500X0*%
%ADD22C,3.250000*%
%ADD23R,1.500000X1.500000*%
%ADD24C,1.500000*%
%ADD25C,2.300000*%
%ADD26RoundRect,0.162500X-0.617500X-0.162500X0.617500X-0.162500X0.617500X0.162500X-0.617500X0.162500X0*%
G04 APERTURE END LIST*
D10*
%TO.C,C2*%
X128270000Y-65387400D03*
X128270000Y-67462400D03*
%TD*%
D11*
%TO.C,J5*%
X125857000Y-62052200D03*
D12*
X128397000Y-62052200D03*
%TD*%
D11*
%TO.C,J6*%
X118318200Y-65836800D03*
D12*
X115778200Y-65836800D03*
%TD*%
D11*
%TO.C,J4*%
X110420000Y-85344000D03*
D12*
X110420000Y-82804000D03*
X110420000Y-80264000D03*
X110420000Y-77724000D03*
%TD*%
D10*
%TO.C,C1*%
X135229600Y-84664800D03*
X135229600Y-86739800D03*
%TD*%
D13*
%TO.C,C6*%
X126492000Y-86360000D03*
X126492000Y-80960000D03*
%TD*%
D14*
%TO.C,H2*%
X143510000Y-86410800D03*
%TD*%
D10*
%TO.C,C4*%
X132867400Y-84664800D03*
X132867400Y-86739800D03*
%TD*%
%TO.C,C3*%
X125882400Y-65408900D03*
X125882400Y-67483900D03*
%TD*%
D15*
%TO.C,R1*%
X139954000Y-84683600D03*
X139954000Y-86683600D03*
%TD*%
D16*
%TO.C,J3*%
X106282600Y-62874800D03*
X106282600Y-67274800D03*
D17*
X108882600Y-63474800D03*
X108882600Y-64274800D03*
X108882600Y-65074800D03*
X108882600Y-65874800D03*
X108882600Y-66674800D03*
D18*
X108882600Y-60674800D03*
X103382600Y-60674800D03*
X108882600Y-69474800D03*
X103382600Y-69474800D03*
%TD*%
D19*
%TO.C,U1*%
X121310400Y-76454000D03*
X121310400Y-75184000D03*
X121310400Y-73914000D03*
X121310400Y-72644000D03*
X121310400Y-71374000D03*
X121310400Y-70104000D03*
X121310400Y-68834000D03*
X116360400Y-68834000D03*
X116360400Y-70104000D03*
X116360400Y-71374000D03*
X116360400Y-72644000D03*
X116360400Y-73914000D03*
X116360400Y-75184000D03*
X116360400Y-76454000D03*
%TD*%
D15*
%TO.C,R2*%
X137617200Y-84683600D03*
X137617200Y-86683600D03*
%TD*%
D14*
%TO.C,H3*%
X143459200Y-60909200D03*
%TD*%
D20*
%TO.C,R1.1*%
X130733800Y-67446400D03*
X130733800Y-65446400D03*
%TD*%
D11*
%TO.C,J2*%
X120827800Y-62103000D03*
D12*
X118287800Y-62103000D03*
X115747800Y-62103000D03*
%TD*%
D21*
%TO.C,C7*%
X113588800Y-70612000D03*
X113588800Y-68537000D03*
%TD*%
D22*
%TO.C,J1*%
X142927800Y-67259200D03*
X142927800Y-79959200D03*
D23*
X140387800Y-70049200D03*
D24*
X138607800Y-71065200D03*
X140387800Y-72081200D03*
X138607800Y-73097200D03*
X140387800Y-74113200D03*
X138607800Y-75129200D03*
X140387800Y-76145200D03*
X138607800Y-77161200D03*
X133787800Y-66749200D03*
X133787800Y-69039200D03*
X133787800Y-78179200D03*
X133787800Y-80469200D03*
D25*
X139497800Y-65479200D03*
X139497800Y-81739200D03*
%TD*%
D26*
%TO.C,U2*%
X110998000Y-73004600D03*
X110998000Y-73954600D03*
X110998000Y-74904600D03*
X113698000Y-74904600D03*
X113698000Y-73954600D03*
X113698000Y-73004600D03*
%TD*%
D13*
%TO.C,C5*%
X118160800Y-86301600D03*
X118160800Y-80901600D03*
%TD*%
D14*
%TO.C,H1*%
X106857800Y-73380600D03*
%TD*%
M02*
